<svg id="组_1" data-name="组 1" xmlns="http://www.w3.org/2000/svg" xmlns:xlink="http://www.w3.org/1999/xlink" width="154" height="155" viewBox="0 0 154 155">
  <defs>
    <style>
      .cls-1 {
        fill: #ffce26;
        filter: url(#filter);
      }

      .cls-2 {
        fill: #1b2143;
        fill-rule: evenodd;
      }
    </style>
    <filter id="filter" x="0" y="0" width="154" height="155" filterUnits="userSpaceOnUse">
      <feOffset result="offset" in="SourceAlpha"/>
      <feGaussianBlur result="blur" stdDeviation="4.472"/>
      <feFlood result="flood" flood-color="#11152f" flood-opacity="0.71"/>
      <feComposite result="composite" operator="in" in2="blur"/>
      <feBlend result="blend" in="SourceGraphic"/>
    </filter>
  </defs>
  <circle id="椭圆_2_拷贝_3" data-name="椭圆 2 拷贝 3" class="cls-1" cx="76.625" cy="77.313" r="57.375"/>
  <path id="形状_705" data-name="形状 705" class="cls-2" d="M2520.22,192.98h-11.37v-25.1a20.226,20.226,0,0,0-40.45,0v25.1h-11.37a2.51,2.51,0,1,0,0,5.019h63.19A2.51,2.51,0,1,0,2520.22,192.98Zm-46.76,0v-25.1a15.165,15.165,0,0,1,30.33,0v25.1h-30.33Zm7.58-25.1a2.528,2.528,0,0,0-2.53,2.509v15.058a2.53,2.53,0,0,0,5.06,0V170.393A2.528,2.528,0,0,0,2481.04,167.884Zm7.58-25.1a2.528,2.528,0,0,0,2.53-2.51v-5.019a2.525,2.525,0,0,0-5.05,0v5.019A2.52,2.52,0,0,0,2488.62,142.788Zm19.21,5.145,3.54-3.514a2.415,2.415,0,0,0,0-3.513,2.457,2.457,0,0,0-3.54,0l-3.53,3.513a2.4,2.4,0,0,0,0,3.514A2.444,2.444,0,0,0,2507.83,147.933Zm-37.91,0a2.457,2.457,0,0,0,3.54,0,2.416,2.416,0,0,0,0-3.514l-3.54-3.513a2.457,2.457,0,0,0-3.54,0,2.415,2.415,0,0,0,0,3.513Zm-12.89,16.186h5.05a2.51,2.51,0,1,0,0-5.019h-5.05A2.51,2.51,0,1,0,2457.03,164.119Zm58.13,0h5.06a2.51,2.51,0,1,0,0-5.019h-5.06A2.51,2.51,0,1,0,2515.16,164.119Z" transform="translate(-2412 -95)"/>
</svg>
