<svg id="组_8" data-name="组 8" xmlns="http://www.w3.org/2000/svg" xmlns:xlink="http://www.w3.org/1999/xlink" width="154" height="155" viewBox="0 0 154 155">
  <defs>
    <style>
      .cls-1 {
        fill: #49f2c4;
        filter: url(#filter);
      }

      .cls-2 {
        fill: #141834;
        stroke: #141834;
        stroke-linejoin: round;
        stroke-width: 1px;
        fill-rule: evenodd;
      }
    </style>
    <filter id="filter" x="0" y="0" width="154" height="155" filterUnits="userSpaceOnUse">
      <feOffset result="offset" in="SourceAlpha"/>
      <feGaussianBlur result="blur" stdDeviation="4.472"/>
      <feFlood result="flood" flood-color="#11152f" flood-opacity="0.71"/>
      <feComposite result="composite" operator="in" in2="blur"/>
      <feBlend result="blend" in="SourceGraphic"/>
    </filter>
  </defs>
  <circle id="椭圆_2_拷贝_11" data-name="椭圆 2 拷贝 11" class="cls-1" cx="76.625" cy="77.19" r="57.375"/>
  <path id="形状_712" data-name="形状 712" class="cls-2" d="M2508.15,1419.67a1.745,1.745,0,0,1,1.47,1.89v53.06a2.211,2.211,0,0,1-2.21,2.21h-36.83a2.211,2.211,0,0,1-2.21-2.21v-53.05a1.745,1.745,0,0,1,1.48-1.89h38.3m0-4.43h-38.3a6.117,6.117,0,0,0-5.9,6.31v53.06a2.2,2.2,0,0,1-2.21,2.21h-3.53a2.211,2.211,0,0,0-2.21,2.21h0a2.211,2.211,0,0,0,2.21,2.21h61.58a2.211,2.211,0,0,0,2.21-2.21h0a2.211,2.211,0,0,0-2.21-2.21h-3.54a2.211,2.211,0,0,1-2.21-2.21v-53.05a6.112,6.112,0,0,0-5.89-6.32h0Zm-6.63,13.26v3.68a2.211,2.211,0,0,1-2.21,2.21h-20.62a2.211,2.211,0,0,1-2.21-2.21v-1.47a2.211,2.211,0,0,1,2.21-2.21h22.83m2.21-4.42h-29.46a2.211,2.211,0,0,0-2.21,2.21v10.31a2.211,2.211,0,0,0,2.21,2.21h29.46a2.211,2.211,0,0,0,2.21-2.21V1426.3A2.211,2.211,0,0,0,2503.73,1424.09Zm-21.57,36.76h5.6a1.246,1.246,0,0,0,1.24-1.24v-11.2a1.241,1.241,0,0,0-2.35-.55l-5.59,11.19A1.237,1.237,0,0,0,2482.16,1460.85Zm6.84-3.92v11.19a1.242,1.242,0,0,0,2.35.56l5.59-11.2a1.236,1.236,0,0,0-1.11-1.79h-5.59A1.233,1.233,0,0,0,2489,1456.93Z" transform="translate(-2412 -1372)"/>
</svg>
