<svg id="组_4" data-name="组 4" xmlns="http://www.w3.org/2000/svg" xmlns:xlink="http://www.w3.org/1999/xlink" width="154" height="155" viewBox="0 0 154 155">
  <defs>
    <style>
      .cls-1 {
        fill: #49f2c4;
        filter: url(#filter);
      }

      .cls-2 {
        fill: #141834;
        fill-rule: evenodd;
      }
    </style>
    <filter id="filter" x="0" y="0" width="154" height="155" filterUnits="userSpaceOnUse">
      <feOffset result="offset" in="SourceAlpha"/>
      <feGaussianBlur result="blur" stdDeviation="4.472"/>
      <feFlood result="flood" flood-color="#11152f" flood-opacity="0.71"/>
      <feComposite result="composite" operator="in" in2="blur"/>
      <feBlend result="blend" in="SourceGraphic"/>
    </filter>
  </defs>
  <circle id="椭圆_2_拷贝_10" data-name="椭圆 2 拷贝 10" class="cls-1" cx="76.625" cy="77.282" r="57.375"/>
  <path id="形状_708" data-name="形状 708" class="cls-2" d="M2496.65,725.335a13.623,13.623,0,1,0-3.39,3.982l6.22,6.216a2.6,2.6,0,1,0,3.67-3.686Zm-11.81,1.735a8.345,8.345,0,1,1,8.33-8.346A8.352,8.352,0,0,1,2484.84,727.07Zm27.12-34.176c-3.96,0-8.32-1.521-12.96-4.523a43.073,43.073,0,0,1-4.33-3.207c-0.67-.566-1.32-1.153-1.59-1.423a6.8,6.8,0,0,0-9.65-.014c-0.34.34-.94,0.876-1.62,1.457a41.867,41.867,0,0,1-4.31,3.2c-4.61,2.99-8.94,4.505-12.88,4.505s-7.12,3.528-7.12,7.863v16.1c0,15.471,7.96,28.315,26.62,42.945a6.585,6.585,0,0,0,8.25,0c18.67-14.63,26.63-27.474,26.63-42.945v-16.1c0-4.256-3.14-7.784-7.04-7.86h0Zm1.83,23.957c0,13.5-7.32,25-24.5,38.467a1.687,1.687,0,0,1-2.09-.006c-17.17-13.462-24.5-24.965-24.5-38.461v-16.1a2.144,2.144,0,0,1,1.92-2.3c4.9,0,10.14-1.787,15.58-5.312a46.881,46.881,0,0,0,4.84-3.6c0.83-.7,1.54-1.348,1.97-1.777a1.711,1.711,0,0,1,1.24-.55,1.686,1.686,0,0,1,1.23.547c0.4,0.4,1.2,1.127,1.97,1.771a49.257,49.257,0,0,0,4.85,3.6h0c5.47,3.535,10.73,5.327,15.61,5.327h0a2.146,2.146,0,0,1,1.88,2.3v16.1h0Z" transform="translate(-2412 -642)"/>
</svg>
