<svg xmlns="http://www.w3.org/2000/svg" width="62.25" height="62.25" viewBox="0 0 62.25 62.25">
  <defs>
    <style>
      .cls-1 {
        fill: #151a37;
        fill-rule: evenodd;
      }
    </style>
  </defs>
  <path id="形状_706_拷贝" data-name="形状 706 拷贝" class="cls-1" d="M2488.62,549.712h0a3.119,3.119,0,0,1,3.12,3.113h0a3.118,3.118,0,0,1-3.12,3.112h0a3.109,3.109,0,0,1-3.11-3.112h0A3.11,3.11,0,0,1,2488.62,549.712Zm-3.11-24.9c0-3.36,6.23-3.36,6.23,0v18.675c0,3.283-6.23,3.283-6.23,0V524.812Zm3.11-15.562a31.125,31.125,0,1,0,31.13,31.125,31.218,31.218,0,0,0-31.13-31.125h0Zm2.45,55.906a24.9,24.9,0,1,1,22.33-22.332A24.962,24.962,0,0,1,2491.07,565.156Z" transform="translate(-2457.5 -509.25)"/>
</svg>
