<svg id="左侧地图" xmlns="http://www.w3.org/2000/svg" xmlns:xlink="http://www.w3.org/1999/xlink" width="1891" height="1359" viewBox="0 0 1891 1359">
  <defs>
    <style>
      .cls-1 {
        fill: #484c63;
      }

      .cls-1, .cls-10, .cls-11, .cls-2, .cls-3, .cls-4, .cls-5, .cls-6, .cls-7, .cls-8, .cls-9 {
        fill-rule: evenodd;
      }

      .cls-2 {
        fill: url(#linear-gradient);
      }

      .cls-3 {
        fill: url(#linear-gradient-2);
        filter: url(#filter);
      }

      .cls-4 {
        fill: #160e23;
      }

      .cls-5 {
        stroke: #00ff9c;
        stroke-width: 7.207px;
        opacity: 0.67;
        fill: url(#radial-gradient);
      }

      .cls-6 {
        fill: url(#radial-gradient-2);
      }

      .cls-7 {
        fill: url(#radial-gradient-3);
      }

      .cls-8 {
        fill: url(#radial-gradient-4);
      }

      .cls-9 {
        fill: url(#radial-gradient-5);
      }

      .cls-10 {
        fill: url(#radial-gradient-6);
      }

      .cls-11 {
        fill: url(#radial-gradient-7);
      }
    </style>
    <linearGradient id="linear-gradient" x1="1779.487" y1="1232.03" x2="1080.197" y2="268.125" gradientUnits="userSpaceOnUse">
      <stop offset="-0.055" stop-color="#160e23"/>
      <stop offset="1.055" stop-color="#18373a"/>
    </linearGradient>
    <linearGradient id="linear-gradient-2" x1="1428.196" y1="204.75" x2="1377.679" y2="1168.66" gradientUnits="userSpaceOnUse">
      <stop offset="0" stop-color="#2d3664"/>
      <stop offset="1" stop-color="#49f2c4" stop-opacity="0.478"/>
    </linearGradient>
    <filter id="filter" x="539" y="60" width="1729" height="1254" filterUnits="userSpaceOnUse">
      <feOffset result="offset" in="SourceAlpha"/>
      <feGaussianBlur result="blur" stdDeviation="12.042"/>
      <feFlood result="flood" flood-color="#160e23" flood-opacity="0.1"/>
      <feComposite result="composite" operator="in" in2="blur"/>
      <feBlend result="blend" in="SourceGraphic"/>
    </filter>
    <radialGradient id="radial-gradient" cx="1398.592" cy="694.128" r="447.503" gradientUnits="userSpaceOnUse">
      <stop offset="0" stop-color="#160e23" stop-opacity="0"/>
      <stop offset="1.499" stop-color="#00ffa2"/>
      <stop offset="1.99" stop-color="#00ffa2"/>
    </radialGradient>
    <radialGradient id="radial-gradient-2" cx="1213.5" cy="591" r="121" gradientUnits="userSpaceOnUse">
      <stop offset="0" stop-color="#7200ff" stop-opacity="0.4"/>
      <stop offset="2.1" stop-color="#e2d0ff"/>
    </radialGradient>
    <radialGradient id="radial-gradient-3" cx="1598.205" cy="490.188" r="122.188" gradientUnits="userSpaceOnUse">
      <stop offset="0" stop-color="#46d6ff" stop-opacity="0.4"/>
      <stop offset="1.22" stop-color="#0072ff"/>
    </radialGradient>
    <radialGradient id="radial-gradient-4" cx="1265.845" cy="1036.124" r="86.655" gradientUnits="userSpaceOnUse">
      <stop offset="0" stop-color="#958a2d" stop-opacity="0.541"/>
      <stop offset="1.27" stop-color="#ffce26" stop-opacity="0.561"/>
    </radialGradient>
    <radialGradient id="radial-gradient-5" cx="1002.514" cy="986.28" r="113.28" xlink:href="#radial-gradient-4"/>
    <radialGradient id="radial-gradient-6" cx="1282.5" cy="732" r="102" gradientUnits="userSpaceOnUse">
      <stop offset="0" stop-color="#46466c" stop-opacity="0.29"/>
      <stop offset="0.87" stop-color="#ff7a0f" stop-opacity="0.561"/>
    </radialGradient>
    <radialGradient id="radial-gradient-7" cx="1546.845" cy="690.047" r="84.168" gradientUnits="userSpaceOnUse">
      <stop offset="0" stop-color="#272339" stop-opacity="0.71"/>
      <stop offset="1.48" stop-color="#ff5682"/>
    </radialGradient>
  </defs>
  <path id="路线" class="cls-1" d="M1611.33,1359c-3.8-.74-7.57-1.72-11.4-2.19q-59.64-7.365-119.28-14.59-27.2-3.33-54.37-6.73c-7.1-.9-9.31-3.87-8.88-11.1,1.45-24.71,2.92-49.41,4.23-74.13,0.83-15.8,7.08-28.41,20.91-36.7a39.278,39.278,0,0,1,21.36-5.65q30.645,0.645,61.27,1.28,61.275,1.32,122.55,2.65c5.92,0.13,6.23.38,5.91,6.59q-1.86,35.6-3.87,71.2-1.515,27.345-3.11,54.71c-0.3,5.06-.32,10.25-3.47,14.66h-31.85Zm37.57-142.86c-2.88,0-5.21.04-7.53-.01q-34.485-.72-68.96-1.47c-35.76-.79-71.52-1.37-107.26-2.48a38.061,38.061,0,0,0-39.1,36.6c-0.81,18.64-2.16,37.27-3.26,55.9q-0.585,9.705-1.14,19.42c-0.32,5.56.3,6.37,5.96,7.27,2.72,0.43,5.47.6,8.2,0.93q51.18,6.255,102.36,12.52,45.615,5.655,91.2,11.54c11.16,1.44,12.18.75,12.81-10.42q3.36-59.445,6.69-118.89C1649.06,1223.75,1648.9,1220.43,1648.9,1216.14ZM601.533,541.466c0.879-2.4,1.661-4.4,2.348-6.43q39.081-115.507,78.127-231.027a32.706,32.706,0,0,1,10.186-14.854C703.23,280,714.638,271.29,725.81,262.3a19.014,19.014,0,0,1,10.216-3.911c24.529-2.935,49.033-6.076,73.552-9.1,2.652-.327,5.347-0.309,8.694-0.487-1.334,8.991-2.528,17.268-3.8,25.533q-6.291,41.008-12.622,82.011Q795.15,399.968,788.46,443.6q-6.263,40.716-12.549,81.428-7.4,47.979-14.8,95.959c-4.47,29.084-9.156,58.138-13.3,87.27A787.567,787.567,0,0,1,716.9,841.8c-2.13,6.534-4.5,12.989-6.569,19.542A14.709,14.709,0,0,1,699.464,871.8q-86.768,24.354-173.5,48.842c-11.731,3.3-19.988-4.132-18.131-16.117,0.39-2.52.557-5.074,0.895-7.6,2.984-22.353,6.028-44.7,8.964-67.055,2.4-18.273,5.271-36.512,6.842-54.86,1.622-18.937,1.921-37.986,2.809-56.986,0.623-13.315,1.289-26.628,1.879-39.944,0.235-5.295.336-10.6,0.461-15.9,0.268-11.378.5-22.757,0.767-34.136q0.8-34.146,1.644-68.291c0.08-3.126.525-6.242,0.7-9.369,0.311-5.417,2.558-7.853,8.086-7.937,9.629-.146,19.265.068,28.894-0.084C580.166,542.2,590.55,541.787,601.533,541.466Zm1.977,3.739H569.2c-8.649,0-17.3-.063-25.946.024-6.135.062-7.4,1.5-7.654,7.751-0.331,8.228-.883,16.448-1.13,24.679-0.483,16.085-.835,32.174-1.213,48.262q-0.628,26.785-1.21,53.57c-0.127,5.5-.225,11-0.466,16.487-0.582,13.316-1.258,26.628-1.862,39.943-0.5,10.972-.557,21.979-1.515,32.909-1.213,13.859-3,27.672-4.789,41.474-2.864,22.167-5.939,44.308-8.9,66.463-1.3,9.719-2.614,19.437-3.76,29.174-0.771,6.552,2.85,11.592,8.932,12.3a16.963,16.963,0,0,0,6.278-.946q83.364-23.4,166.7-46.894c12.8-3.612,12.194-3.034,16.636-16.175,13.861-41.01,24.958-82.72,31.945-125.459,4.5-27.492,8.541-55.058,12.795-82.59q8.135-52.63,16.274-105.259,6.715-43.62,13.353-87.252,7.428-48.276,14.922-96.542,6.242-40.416,12.446-80.836c1.2-7.847,2.286-15.711,3.5-24.07-2.5.162-4.244,0.187-5.959,0.4-24.518,3.007-49.039,5.982-73.535,9.157a14.9,14.9,0,0,0-6.834,2.959Q711.42,277.714,694.95,291.1a31.955,31.955,0,0,0-10.176,14.825q-39.2,116.083-78.579,232.107C605.451,540.223,604.574,542.372,603.51,545.205ZM845.451-95.8a20.772,20.772,0,0,1,1.114,3.887c0.992,16.44,2.111,32.875,2.8,49.329,0.55,13.135,1.062,26.306.706,39.437-0.851,31.363-2.787,62.666-7.513,93.731Q833.4,150.8,824.225,211.018c-1.035,6.785-2.237,13.548-3.139,20.351-0.413,3.122-1.839,4.084-4.948,4.456C785.38,239.5,754.646,243.39,723.9,247.2c-5.893.729-13.33-5.623-13.794-12.682a89.782,89.782,0,0,1,.611-19.94c2.274-14.176,4.478-28.4,3.59-42.71-0.847-13.668-2.836-27.289-4.843-40.854-3.907-26.389-8.172-52.725-12.3-79.081-1.211-7.732-2.457-15.459-3.764-23.671-3.445-.331-6.708-0.867-9.98-0.919-14.536-.235-29.077-0.251-43.614-0.5-18.252-.31-36.5-0.742-54.752-1.175-7.057-.167-14.109-0.507-21.165-0.72-7.149-.216-9.319-3.275-6.4-9.8,4.171-9.319,8.656-18.5,13.039-27.721,12.311-25.9,24.878-51.677,36.814-77.746,3.6-7.869,9.889-11.393,18.9-7.934a148.931,148.931,0,0,0,57.109,9.844c14.693-.336,29.368-1.46,44.053-2.2,4.509-.227,9.025-0.32,13.536-0.509,18.81-.785,37.622-1.516,56.427-2.4,14.1-.66,28.185-1.528,42.279-2.271C841.576-95.89,843.508-95.8,845.451-95.8ZM695.9,25.227c0.434,2.143.886,4.011,1.184,5.9,4.97,31.595,9.98,63.183,14.846,94.794,1.819,11.824,3.785,23.658,4.81,35.563,1.658,19.269-.043,38.4-3.574,57.428a43.958,43.958,0,0,0,.313,15.737c1.266,6.766,6.537,9.946,12.848,9.15q32.1-4.053,64.216-8.039c8.922-1.116,17.844-2.24,26.845-3.371,0.411-1.73.816-3.025,1.018-4.35q10.9-71.58,21.73-143.168c4.411-29.527,6.288-59.277,6.888-89.1a780.68,780.68,0,0,0-2.8-79.423c-0.249-3.048-.841-6.068-1.289-9.208-3.435.211-6.344,0.427-9.257,0.561-10.778.5-21.558,0.937-32.334,1.455-13.906.668-27.809,1.415-41.715,2.083-10.974.527-21.952,0.953-32.926,1.48-13.711.659-27.412,1.72-41.13,1.986a167.789,167.789,0,0,1-61.24-10.1c-7.082-2.583-10.28-1.244-13.363,5.238Q585.776-37.2,560.655,15.789a52.111,52.111,0,0,0-1.733,5.112,55.621,55.621,0,0,0,7.14,1.184q23.841,0.709,47.689,1.2c11.591,0.236,23.186.279,34.778,0.468q19.728,0.322,39.455.771C690.327,24.579,692.664,24.931,695.9,25.227Zm187.572-119.2c6.87-.506,13.088-1.1,19.319-1.394,13.518-.636,27.05-1,40.566-1.691,17.808-.909,35.6-2.12,53.412-3.016,14.108-.71,28.228-1.1,42.338-1.706,16.84-.719,33.68-1.662,50.53-2.212,9.61-.314,12.39,2.6,13.04,12.389q1.965,29.626,3.96,59.251,1.755,26.4,3.53,52.792,2.355,34.311,4.75,68.618,1.74,25.218,3.5,50.434,2.25,32.548,4.48,65.1c0.68,9.772,1.45,19.537,2.12,29.31a36.208,36.208,0,0,1-.02,5.891c-0.43,4.75-3.72,8.217-8.48,7.987-4.65-.226-9.72-0.445-13.8-2.362-16.61-7.793-34.49-10.451-52.18-13.925-16.74-3.29-33.5-6.636-50.38-9.073-12.583-1.816-25.365-2.268-38.066-3.233-5.077-.386-10.177-0.791-15.261-0.718a527.575,527.575,0,0,0-63.288,4.888q-10.774,1.461-21.566,2.8a15.06,15.06,0,0,1-3.057-.418c0.532-3.757,1.006-7.34,1.552-10.912,6.392-41.875,13.106-83.705,19.05-125.645,2.581-18.218,4.027-36.633,5.179-55.01,1.189-18.977,2.1-38.025,1.848-57.024-0.291-21.936-1.993-43.854-3.066-65.78C883.41-90.176,883.475-91.722,883.475-93.975ZM862.439,222.861c8.628-1.064,16.162-2.108,23.722-2.9,13.251-1.387,26.493-3.071,39.785-3.782a333.084,333.084,0,0,1,35.9-.006c15.05,0.822,30.151,1.911,45.04,4.145,18.81,2.822,37.42,6.939,56.13,10.451,12.53,2.353,25.06,4.565,36.77,10.084,4.19,1.971,8.95,2.856,13.54,3.8,5.58,1.15,8.42-1.415,8.6-7.241a28.967,28.967,0,0,0-.03-2.947q-1.245-18.479-2.54-36.954-2.25-32.549-4.48-65.1c-0.92-13.493-1.75-26.993-2.69-40.484-1.43-20.524-2.96-41.041-4.38-61.566-0.97-14.078-1.76-28.168-2.72-42.246-1.01-14.857-2.15-29.705-3.18-44.561-0.84-12.121-1.57-24.251-2.41-36.372-0.41-5.919-3.76-9.059-9.53-8.822q-16.455.676-32.91,1.57c-17.8.972-35.6,2.068-53.41,3.042q-22.9,1.253-45.812,2.342c-17.823.845-35.661,1.415-53.469,2.5-5.75.352-11.735-.747-17.421,1.584,0,2.622-.155,4.964.024,7.281,1.633,21.132,2.842,42.285,2.532,63.487-0.22,15.106-.515,30.217-1.206,45.307-0.636,13.9-1.065,27.881-2.949,41.639-5.613,40.99-11.888,81.89-17.925,122.822C865.855,200.572,864.208,211.193,862.439,222.861ZM2095.75,663.906c13.36,0,26.73.049,40.09-.007q81.345-.342,162.68-0.734c0.98,0,1.97-.01,2.95,0,7.97,0.074,10.67,3.62,8.4,11.274q-9.21,31.058-18.52,62.085-20.895,69.98-41.81,139.951a28.415,28.415,0,0,1-2.52,6.56,9.966,9.966,0,0,1-8.81,5.014c-3.54.038-7.08,0.125-10.61-.025-6.86-.291-13.7-0.837-20.55-1.091-12.94-.477-25.89-0.767-38.83-1.235q-30.87-1.116-61.73-2.365-29.1-1.144-58.2-2.351c-16.84-.717-33.69-1.544-50.53-2.279-7.44-.324-14.89-0.64-22.34-0.783-8.82-.169-10.63-2.533-7.79-10.828,11.27-32.875,22.93-65.618,33.76-98.637,10.02-30.589,19.17-61.467,28.69-92.219a50.8,50.8,0,0,1,1.55-5.069,11.086,11.086,0,0,1,11.05-7.261c10.02,0.035,20.05,0,30.07,0Q2084.255,663.9,2095.75,663.906ZM1968.94,873.931c3.24,0.482,5.47,1.024,7.72,1.113,12.15,0.476,24.3.845,36.46,1.241,5.1,0.167,10.2.248,15.3,0.477,13.12,0.587,26.23,1.293,39.35,1.84,12.15,0.507,24.3.811,36.45,1.309,17.05,0.7,34.08,1.553,51.12,2.227,12.74,0.5,25.49.817,38.23,1.235,5.49,0.179,10.98.414,16.47,0.612,9.02,0.326,18.03.69,27.05,0.94,4.28,0.119,6.97-2.208,8.41-6.1,0.34-.917.53-1.891,0.81-2.831q29.865-99.861,59.74-199.721c2.67-8.925,1.9-10-7.28-9.985q-112.89.205-225.78,0.431c-8.65.017-17.29-.01-25.94,0-9.49.015-11.15,1.271-13.8,10.188-4.86,16.37-9.33,32.872-14.71,49.073-15.2,45.834-30.78,91.542-46.21,137.3C1971.28,866.411,1970.33,869.567,1968.94,873.931Zm-548.5-611.863c-7.86,0-15.72-.064-23.58.012q-40.665.395-81.31,0.878c-6.08.07-8.36-1.746-8.8-7.613-0.5-6.643-.9-13.3-1.15-19.954-0.48-12.547-.75-25.1-1.25-37.649-0.67-16.653-1.51-33.3-2.22-49.95-0.48-11.367-.83-22.741-1.31-34.109-0.58-13.709-1.27-27.413-1.86-41.121-0.2-4.511-.2-9.031-0.36-13.544-0.41-11.763-.65-23.538-1.38-35.282-0.54-8.669,4.19-15.012,14.28-15.74,14.86-1.071,29.69-2.4,44.54-3.537q28.44-2.185,56.87-4.236c14.48-1.03,28.96-1.9,43.43-2.873,4.89-.328,9.77-0.782,14.66-1.1,8.52-.564,12.24,2.686,11.89,11.2-0.48,11.747-1.48,23.472-2.17,35.211-0.63,10.572-1.09,21.155-1.75,31.726-0.94,15.059-2.03,30.109-2.97,45.168-0.65,10.375-1.1,20.761-1.74,31.135-0.97,15.451-2.07,30.893-3.02,46.345-0.65,10.571-1.11,21.154-1.7,31.729-0.35,6.263-.62,12.539-1.25,18.776a16.348,16.348,0,0,1-16,14.481c-10.61.177-21.23,0.043-31.85,0.043v0.011Zm-37.75-2.37v-0.442H1398q24.765,0,49.52,0a39.265,39.265,0,0,0,4.72-.1c6.93-.851,12.35-5.914,12.93-12.5,0.83-9.56,1.42-19.144,1.99-28.725,0.63-10.57,1.04-21.153,1.69-31.722,0.95-15.644,2.07-31.278,3.04-46.922,0.64-10.176,1.07-20.365,1.7-30.541,0.96-15.447,2.01-30.889,3.03-46.333,0.75-11.34,1.55-22.677,2.28-34.018,0.45-7.04.98-14.081,1.19-21.13,0.17-5.683-2.98-8.521-8.35-8.094-12.3.978-24.59,2.011-36.9,2.9-18.57,1.335-37.15,2.557-55.72,3.838-15.84,1.093-31.68,2.13-47.5,3.336-7.03.536-14.07,1.188-21.04,2.218-7.51,1.111-10.47,4.794-10.44,12.386,0.01,2.926.57,5.846,0.68,8.776,0.44,12.743.82,25.488,1.21,38.233,0.16,4.9.25,9.812,0.46,14.715,0.61,14.295,1.28,28.587,1.89,42.882,0.46,10.973.84,21.948,1.29,32.922q1.11,27.624,2.25,55.247c0.52,12.344,1,24.69,1.65,37.027,0.26,5.066,1.24,6.021,5.91,6.033C1337.88,259.729,1360.29,259.7,1382.69,259.7Zm995.23,99.019a82.375,82.375,0,0,1-4.1,24.855q-14.265,41.5-28.51,83.012c-2.4,6.984-4.67,8.408-11.85,7.111q-55.335-9.992-110.64-20.092-53.88-9.8-107.73-19.618a43.829,43.829,0,0,1-4.61-.963c-4.88-1.441-7.42-5.137-6.91-10.195a28.9,28.9,0,0,1,1.19-5.145q11.055-38.192,22.11-76.376c0.87-3.015,1.53-6.091,2.29-9.138,1.49-5.93,5.01-9.736,11.29-10.369,8.57-.865,17.16-1.607,25.75-2.35q31.635-2.736,63.26-5.413c16.8-1.4,33.61-2.641,50.41-4.038,21.09-1.755,42.17-3.627,63.26-5.382,6.45-.536,12.91-1.03,19.37-1.214,5.14-.146,7.48,1.684,8.27,6.445,2.49,14.9,4.8,29.824,7.13,44.747A27,27,0,0,1,2377.92,358.717Zm-19.23-52.249c-23.19,2.011-45.44,3.992-67.71,5.857-20.7,1.735-41.42,3.329-62.13,5.018q-28.425,2.32-56.84,4.709c-9.18.758-18.37,1.463-27.55,2.251-8.36.717-10.96,3.051-12.82,11.142-0.66,2.868-1.43,5.715-2.24,8.543q-10.905,37.93-21.85,75.852c-1.96,6.846-.3,9.5,6.63,10.8,8.68,1.624,17.37,3.178,26.06,4.757q59.955,10.9,119.91,21.788,36.495,6.633,73,13.263c6.35,1.146,7.32.516,9.45-5.664q14.145-41.232,28.26-82.481c3.39-9.968,5.05-20.26,3.5-30.751-1.97-13.39-4.32-26.726-6.63-40.062-0.75-4.287-1.62-4.854-5.84-5.009C2360.52,306.426,2359.14,306.468,2358.69,306.468ZM1654.64,1187.45c-11,0-21.17.01-31.34-.01-1.37-.01-2.74-0.28-4.11-0.3-14.14-.19-28.28-0.28-42.42-0.53-18.45-.33-36.9-0.77-55.35-1.18q-24.435-.555-48.86-1.19c-4.9-.13-9.81-0.3-14.68-0.86-15.04-1.72-28.78-14.81-30.64-30.03-0.94-7.71-.43-15.63-0.26-23.44,0.3-13.93.91-27.86,1.25-41.78,0.6-24.73,1.08-49.46,1.64-74.19,0.17-7.35,3.68-11.07,10.81-10.97q33.285,0.435,66.54,1.18c10.99,0.24,21.97,1.24,32.93,1.01,14.64-.3,28.92,2.3,43.32,4.01,13.24,1.57,26.4,3.86,39.66,5.12,10.14,0.97,20.38.89,30.57,1.16,7.32,0.19,9.05,2.22,8.68,9.74-0.69,14.1-1.1,28.22-1.73,42.33s-1.41,28.2-2.09,42.29c-0.51,10.58-.91,21.16-1.44,31.74C1656.34,1156.78,1655.48,1172.02,1654.64,1187.45Zm-3.33-2.93c0.42-2.72.94-4.84,1.05-6.97q1.26-23.79,2.39-47.57,1.2-24.66,2.36-49.33,1.185-24.66,2.34-49.33a75.678,75.678,0,0,0-.01-8.25c-0.2-3.37-1.33-4.41-4.75-4.74-1.17-.11-2.36-0.05-3.54-0.05a347.286,347.286,0,0,1-56.22-4.46c-26.18-4.06-52.51-6.67-79.07-6.16-1.77.03-3.54,0.01-5.31-.03-22.75-.52-45.51-1.11-68.26-1.55-7.06-.13-9.1,2.03-9.32,8.99-0.22,7.44-.57,14.88-0.72,22.33-0.55,27.47-1.02,54.93-1.58,82.4-0.17,8.24-.35,16.48-0.87,24.7-1.19,18.63,13.46,35.23,32.06,35.96,11.76,0.46,23.52.9,35.28,1.18,26.69,0.63,53.37,1.14,80.06,1.72,16.67,0.36,33.35.83,50.02,1.14C1635.06,1184.64,1642.9,1184.52,1651.31,1184.52Zm-382.09-921.6c-9.61.356-19.22,1-28.82,1.012-26.14.035-52.16-1.514-77.91-6.312-4.63-.863-9.24-1.874-13.88-2.675-7.45-1.285-13.51-8.715-13.82-16.213-0.59-14.1-1.71-28.185-2.69-42.269-1.36-19.552-2.85-39.095-4.19-58.648-1.03-14.869-1.93-29.747-2.86-44.623-0.42-6.85-1-13.7-1.13-20.556-0.15-7.714,2.66-11.419,10.17-13.845q24.66-7.974,49.39-15.768,41.01-12.966,82.05-25.838c3.18-1,6.42-1.866,9.68-2.573a29.076,29.076,0,0,1,6.41-.692c5.54,0.055,8.74,3.112,9,8.715,0.49,10.583.76,21.175,1.23,31.759,0.56,12.339,1.26,24.671,1.84,37.008,0.24,5.1.32,10.207,0.48,15.31,0.4,12.553.72,25.109,1.23,37.658,0.67,16.657,1.51,33.306,2.23,49.961,0.48,11.174.85,22.353,1.28,33.529,0.33,8.427.6,16.858,1.04,25.28,0.38,7.363-1.98,10.028-9.48,10.095-7.08.063-14.16,0.013-21.24,0.013C1269.23,263.135,1269.23,263.025,1269.22,262.916Zm-18.46-2.48q18.285,0,36.57,0a30.53,30.53,0,0,0,4.71-.138c3.55-.562,5.03-2.5,4.9-6.12q-0.8-21.168-1.58-42.335c-0.18-4.906-.26-9.816-0.47-14.72-0.6-14.1-1.28-28.206-1.88-42.312-0.47-11.173-.82-22.351-1.3-33.524-0.71-16.457-1.56-32.908-2.22-49.367-0.51-12.745-.81-25.5-1.23-38.246-0.11-3.336-.17-6.681-0.47-10-0.49-5.291-3.62-7.578-8.88-6.612a45.892,45.892,0,0,0-5.14,1.262c-19.91,6.09-39.83,12.106-59.69,18.342-25.86,8.12-51.66,16.407-77.48,24.648-8.1,2.585-10.35,5.837-9.9,14.332,0.21,3.911.66,7.809,0.93,11.717q1.695,24.641,3.35,49.287c0.61,9.2,1.08,18.4,1.72,27.6,0.94,13.489,2,26.97,2.97,40.456,0.81,11.144,1.46,22.3,2.39,33.433,0.66,7.872,4.47,12.335,12.07,13.909,22.7,4.7,45.61,7.945,68.83,8.364C1229.56,260.6,1240.16,260.437,1250.76,260.436ZM2121.2,140.924c-0.12-.975-0.29-1.947-0.35-2.925-0.44-7.877,3.37-13.181,11.14-15.018,10.13-2.393,20.3-4.589,30.46-6.831,26.64-5.876,53.28-11.8,79.95-17.548,6.12-1.322,12.36-2.221,18.58-3.006,8.38-1.057,10.59.712,11.92,8.946,2.02,12.392,3.82,24.821,6.06,37.173a115.311,115.311,0,0,0,16.13,41.468c4.51,7.14,8.99,14.305,13.38,21.517a113.014,113.014,0,0,1,16.47,50.468c0.77,9.571,1.73,19.128,2.52,28.7,0.58,7.091-1.63,9.454-8.88,10.071-25.38,2.161-50.75,4.422-76.14,6.554-16.99,1.427-34,2.664-51,4.05-15.62,1.275-31.24,2.569-46.85,3.99-7.2.655-12.7-3.693-13.18-10.964-1.23-18.577-2.33-37.164-3.59-55.74-1.34-19.743-2.85-39.475-4.19-59.219-0.67-9.781-1.11-19.577-1.69-29.364-0.25-4.1-.61-8.2-0.92-12.3Zm202.89,138.908c-0.39-4.293-.9-8.579-1.14-12.88-1.04-19-4.35-37.477-13.77-54.291-5.27-9.415-11.22-18.455-16.86-27.663a123.57,123.57,0,0,1-16.91-44.9c-1.97-12-3.86-24.01-5.83-36.007-0.86-5.206-2.31-6.256-7.54-5.454-6.98,1.07-14.01,1.924-20.9,3.415-28.2,6.1-56.35,12.391-84.51,18.638-8.05,1.785-16.11,3.53-24.11,5.525-5.48,1.369-8.87,5.442-8.72,10.445,0.18,6.068.68,12.128,1.1,18.187,0.97,14.07,2.01,28.134,2.94,42.206,0.64,9.781,1.07,19.577,1.71,29.358,0.95,14.463,2.04,28.917,3.02,43.378,0.59,8.8,1.03,17.613,1.66,26.411,0.45,6.195,3.81,9.189,9.94,9.143,1.37-.01,2.75,0,4.12-0.126,10.92-.992,21.84-2.084,32.77-3.014q35.43-3.013,70.87-5.9c20.7-1.694,41.4-3.519,62.12-4.92C2326.18,290.562,2324.57,288.759,2324.09,279.832ZM1350.55,1225.17c-1.56-.17-2.7-0.39-3.84-0.41-11-.17-22-0.15-32.99-0.5-14.3-.46-28.58-1.2-42.88-1.85-11.55-.52-23.12-0.96-34.66-1.66q-24.06-1.47-48.08-3.32c-11.91-.92-23.81-2.11-35.69-3.32-5.32-.55-5.96-1.4-6.12-6.58-0.03-.98-0.03-1.96,0-2.95,0.17-7.36,3.48-9.97,10.94-9.22,12.47,1.27,24.96,2.34,37.46,3.39,12.88,1.08,25.76,2.16,38.66,2.99,11.74,0.76,23.5,1.21,35.25,1.74,15.08,0.67,30.15,1.38,45.24,1.87,10.79,0.34,21.6.29,32.4,0.51,9.01,0.18,18.04.27,27.04,0.81,16.92,1.02,32.32,16.93,32.43,34.03,0.07,10.95-1.04,21.91-1.62,32.86-0.6,11.36-1.17,22.71-1.8,34.07-0.32,5.67-.62,11.35-1.18,17-0.49,4.89-2.82,7.16-7.69,6.94-6.64-.3-13.25-1.2-19.88-1.82-8.58-.81-17.17-1.56-25.75-2.44-5.15-.52-6.69-2.73-6.17-7.91q2.88-28.365,5.65-56.73,1.65-16.665,3.26-33.34C1350.64,1228.18,1350.55,1227.01,1350.55,1225.17Zm3.72-2.66c-3.28,33.72-6.51,67-9.79,100.71,2.56,0.55,4.41,1.07,6.29,1.32,3.1,0.41,6.23.67,9.35,0.97,10.35,1,20.69,2.09,31.04,2.95,5.15,0.43,6.07-.45,6.9-5.6a59.958,59.958,0,0,0,.68-6.42c0.59-11.16,1.1-22.33,1.71-33.5,0.72-13.31,1.94-26.61,2.17-39.93,0.3-17.65-13.94-32.48-31.47-33.57-4.31-.27-8.63-0.38-12.95-0.47-14.72-.27-29.45-0.39-44.17-0.79-13.34-.36-26.67-0.97-40-1.55q-20.265-.9-40.54-1.98c-9.2-.49-18.41-0.99-27.6-1.75-16.6-1.36-33.19-2.97-49.79-4.38-4.83-.41-6.69,1.43-7,6.43-0.32,5.16.31,5.93,5.8,6.42,17.38,1.57,34.74,3.29,52.14,4.58,19.16,1.42,38.34,2.64,57.53,3.54,18.04,0.84,36.1,1.17,54.15,1.68,10.79,0.31,21.58.52,32.38,0.8A29.366,29.366,0,0,1,1354.27,1222.51Zm375.37-940.657c-18.78-1.242-37.55-2.446-56.32-3.736q-33.435-2.3-66.86-4.71-33.42-2.361-66.85-4.737c-13.29-.965-26.55-2.379-39.86-2.942a17.935,17.935,0,0,1-16.78-19.592c0.83-12.317,1.55-24.641,2.35-36.96,0.63-9.775,1.23-19.553,2-29.318a12.97,12.97,0,0,1,12.34-12.109c9.38-.723,18.79-1.08,28.18-1.7,14.27-.95,28.53-2.04,42.8-2.985,9.78-.647,19.58-1.087,29.36-1.73,14.47-.951,28.93-2.052,43.39-2.989,10.18-.66,20.37-1.071,30.54-1.74,14.08-.926,28.14-1.991,42.21-2.994,0.59-.042,1.18-0.034,1.77-0.082,10.64-.88,15.46,2.925,16.32,14.128,2.12,27.547,4.71,55.06,7.13,82.584,0.66,7.416,1.47,14.818,2.07,22.237,0.58,7.082-1.87,9.6-9.09,9.646-1.57.011-3.14,0-4.71,0C1729.63,282.032,1729.64,281.943,1729.64,281.853Zm10.51-12.423c-1.71-19-3.35-37.339-5.01-55.681-1.47-16.192-2.92-32.386-4.48-48.57-0.56-5.905-3.3-8.345-9.13-8.524-1.57-.048-3.15,0-4.71.1-16.22,1.121-32.44,2.3-48.67,3.39-18.18,1.221-36.36,2.367-54.55,3.545s-36.36,2.377-54.55,3.53q-28.755,1.823-57.5,3.572c-6.89.421-10.9,4.141-11.46,11.019-0.52,6.444-.85,12.9-1.22,19.36-0.83,14.479-1.58,28.963-2.47,43.438-0.72,11.653,4.41,17.468,16.24,18.193,8.81,0.54,17.61,1.043,26.41,1.691,18.36,1.352,36.71,2.859,55.08,4.17,14.86,1.061,29.74,1.841,44.59,2.9,18.37,1.312,36.72,2.815,55.08,4.183,16.22,1.209,32.44,2.319,48.65,3.528,6.36,0.474,7.99-1.06,7.71-7.56C1740.12,270.742,1740.15,269.758,1740.15,269.43ZM504.238,979.757c0-7.842-.689-15.759.155-23.508,1.4-12.851,9.114-20.9,21.494-24.433q28.026-7.992,56.081-15.892,51.573-14.532,103.169-28.981a28.406,28.406,0,0,1,7.5-1.156c4.1,0,6.6,2.574,6.432,6.691a28.21,28.21,0,0,1-1.6,7.405q-15.163,46.461-30.406,92.9c-2.006,6.154-3.725,12.409-5.473,18.639-9.131,32.57-35.414,55.44-68.87,59.29-10.966,1.26-21.9-.22-32.741-2.47-15.559-3.22-31.193-6.1-46.819-8.99-12.346-2.29-15.791-7.16-14.095-19.75,1.334-9.9,2.611-19.82,3.41-29.78s0.972-19.967,1.42-29.955Zm79.554,88.153c25.27-.45,45.864-10.52,61.53-30.43,7.412-9.42,11.133-20.51,14.685-31.86,11.2-35.767,23-71.344,34.511-107.014,0.923-2.863,3.064-6,.29-8.826-2.564-2.609-5.653-.709-8.345.047q-79.072,22.187-158.094,44.555c-14.667,4.156-21.334,13.268-21.529,28.434-0.121,9.41-.7,18.817-0.666,28.223,0.064,17.711-1.934,35.211-4.4,52.7a9.92,9.92,0,0,0,6.127,10.89,17.928,17.928,0,0,0,3.947,1.14c14.836,2.84,29.669,5.7,44.524,8.43C565.421,1065.87,574.354,1068.51,583.792,1067.91Zm1334.428,125.7c0.46-6.31.77-11.96,1.3-17.59,1.01-10.92,2.16-21.84,3.23-32.76,0.76-7.89,2.42-9.08,10.16-9.93a207.818,207.818,0,0,0,23.73-4.06c11.48-2.62,22.72-6.45,34.28-8.52,9.98-1.79,20.27-2.04,30.44-2.59,15.86-.87,31.74-1.28,47.61-2.13,15.57-.83,30.95-0.17,46.19,3.66,20,5.03,40.11,9.59,60.17,14.36,0.95,0.23,1.9.5,2.84,0.78,6.2,1.91,8.14,6.6,4.89,12.35-2.91,5.13-6.04,10.13-9.09,15.17-5.08,8.41-10.27,16.76-15.22,25.24-4.04,6.9-9.55,10.39-17.83,10.13-8.62-.28-17.26.66-25.89,0.57-22.58-.23-45.16-0.7-67.74-1.14-17.27-.34-34.54-0.78-51.82-1.17-17.66-.39-35.33-0.72-52.99-1.21C1934.68,1194.56,1926.88,1194.04,1918.22,1193.61Zm3.24-2.89a33.3,33.3,0,0,0,3.4.5q23.835,0.63,47.68,1.21,24.735,0.6,49.46,1.17c18.26,0.41,36.51.97,54.77,1.14,21.22,0.2,42.44-.03,63.66.1,6.72,0.04,11.67-2.39,15.1-8.28,4.94-8.49,10.15-16.83,15.24-25.24,2.95-4.87,5.93-9.73,8.82-14.64,3.14-5.36,2.16-7.61-3.93-9.25-0.57-.15-1.16-0.22-1.73-0.36-16.05-3.83-32.12-7.54-48.13-11.52-19.3-4.81-38.57-8.43-58.75-6.44-17.16,1.69-34.47,2.27-51.71,2.38-15.55.1-30.37,3.34-45.15,7.51-12.47,3.52-24.91,7.17-38.05,7.36-4.15.07-5.53,1.56-6,5.75-1.16,10.52-2.14,21.06-3.16,31.59C1922.44,1179.3,1921.97,1184.91,1921.46,1190.72Zm51.69-1023.582c-0.49,5.38-.35,10.1-1.47,14.492a121.521,121.521,0,0,1-6.22,17.712c-2.71,6.307-6.12,12.31-9.08,18.513a48.621,48.621,0,0,0-5.07,22.176c0.3,15.31.48,30.621,0.78,45.931,0.14,6.69,2.13,8.659,8.77,9.125q33.735,2.365,67.46,4.742,33.435,2.355,66.87,4.73c3.9,0.28,7.8.813,11.71,1.053,5.98,0.368,8.49-1.807,8.34-7.78-0.2-8.033-.78-16.058-1.27-24.082-0.85-14.089-1.7-28.179-2.67-42.261-1.36-19.745-2.85-39.48-4.21-59.226-0.65-9.39-1.17-18.791-1.64-28.192-0.48-9.377-3.7-11.994-12.94-11.2-9.97.851-19.97,1.147-29.96,1.8-14.66.958-29.32,2.071-43.98,3.014-10.18.655-20.37,1.138-30.55,1.69-1.18.064-2.37,0-3.53,0.131-8.42.967-8.42,0.978-12.77,7.945-2.15-1.416-1.76-3.327-.89-5.1a8.936,8.936,0,0,1,7.87-5.338c8.41-.537,16.83-1.056,25.24-1.628,14.66-1,29.32-2.077,43.99-3.027,9.98-.647,19.97-1.108,29.96-1.7,5.08-.3,10.16-0.682,15.24-1.064,10.39-.783,14.43,2.808,15.13,13.126,1.34,19.746,2.89,39.478,4.19,59.226,1.08,16.238,1.84,32.5,2.89,48.737,0.89,13.686,2.02,27.356,2.99,41.037,0.17,2.348.12,4.716,0.07,7.073-0.13,6.67-3.61,10.192-10.28,9.977-6.26-.2-12.52-0.733-18.78-1.2-9.57-.718-19.14-1.56-28.71-2.253-15.84-1.145-31.68-2.2-47.52-3.317q-26.685-1.877-53.38-3.779c-7.27-.507-10.63-3.791-10.74-11.2-0.25-17.092-.35-34.186-0.45-51.28-0.05-7.033,2.15-13.545,5.12-19.8,2.87-6.031,5.89-11.992,8.94-17.933a62.763,62.763,0,0,0,7.19-25.893C1969.87,170.449,1969.61,168.535,1973.15,167.138Zm93.63,483.806c-4.52,0-9.04.056-13.56-.011-8.81-.131-13.78-6.42-11.4-14.906,6.06-21.535,12.32-43.012,18.53-64.506q17.385-60.24,34.82-120.471c0.32-1.13.66-2.259,1-3.386,2.28-7.632,5.62-9.621,13.63-8.163,7.72,1.405,15.45,2.778,23.16,4.189,14.09,2.573,28.18,5.105,42.25,7.771,7.94,1.5,9.24,4.349,5.27,11.294-15.01,26.247-29.89,52.572-45.15,78.672-15.73,26.9-27.84,55.382-38.03,84.753-2.12,6.118-4.42,12.175-6.69,18.239-1.99,5.294-3.59,6.446-9.09,6.512C2076.61,650.99,2071.69,650.943,2066.78,650.944ZM2180.3,456.028c-3.2-.819-5.21-1.455-7.27-1.841-10.02-1.878-20.06-3.692-30.09-5.523-11.2-2.041-22.38-4.11-33.58-6.1-6.21-1.1-8.19.139-10.08,6-0.24.748-.5,1.49-0.72,2.244q-9.15,31.673-18.3,63.346c-11.65,40.343-23.15,80.732-35.12,120.985-2.28,7.688,2.45,13.281,9.39,12.818,8.61-.574,17.29-0.279,25.92-0.073,3.96,0.1,6.16-1.391,7.43-5.128,2.66-7.8,5.68-15.476,8.42-23.252,8.99-25.606,19.52-50.527,33.05-74.111q23.73-41.384,47.45-82.778C2177.84,460.8,2178.77,458.916,2180.3,456.028ZM675.86,1194.97c4.545-9.63,10.91-16.97,19.261-21.93,16.2-9.62,32.437-19.33,50.154-25.99,25.249-9.49,51.209-11.05,77.644-5.97q48.282,9.27,96.583,18.46c6.249,1.2,9.527,4.41,8.335,9.13-1.668,6.61-3.354,11.31-11.822,9.72-19.484-3.66-38.948-7.42-58.427-11.1-15.234-2.89-30.386-6.44-45.739-8.41-30.63-3.93-65.376,11.85-81.35,45.63-0.5,1.07-.909,2.18-1.436,3.23-2.372,4.74-5.538,6.07-10.632,4.42-1.49-.48-2.911-1.18-4.372-1.76q-16.431-6.51-32.859-13.03C679.594,1196.73,678.044,1195.96,675.86,1194.97Zm4.451-1.5c5.7,2.29,10.777,4.34,15.868,6.37,7.476,2.98,14.93,6.01,22.451,8.88,4.461,1.69,5.856,1.02,7.913-3.2,0.6-1.23,1.152-2.49,1.746-3.73,15.648-32.59,52.134-51.96,89.572-45.3,19.12,3.4,38.156,7.28,57.234,10.92,13.683,2.6,27.377,5.16,41.058,7.78,2.182,0.42,4.655,1.03,5.895-1.15,1.3-2.29,2.522-5.07,2.434-7.59-0.107-3.08-3.37-3.33-5.87-3.84-0.769-.16-1.536-0.33-2.307-0.48q-42.5-8.085-84.995-16.17c-14.621-2.78-29.182-5.39-44.269-4.38-16.059,1.07-31.639,4.01-46.142,10.83-14.194,6.67-27.976,14.26-41.715,21.85C691.351,1178.58,685.217,1184.94,680.311,1193.47Zm801.459-228.6c0-4.455.11-7.8-.02-11.135-0.68-17.926,2-35.6,3.94-53.325,0.28-2.533.46-5.083,0.85-7.6,0.72-4.646,3.16-7.086,7.91-7.03,10.78,0.125,21.56.586,32.34,0.915,1.37,0.042,2.74.155,4.11,0.17,14.34,0.156,28.68.219,43.01,0.466q27.075,0.465,54.14,1.179c10.19,0.256,20.39.494,30.56,1.081,7.48,0.431,10.21,4.049,9.86,11.51-0.69,14.693-1.16,29.395-1.85,44.087-0.66,13.9-1.48,27.794-2.22,41.691-0.27,5.089-.45,10.183-0.81,15.265-0.44,6.16-2.26,7.84-8.49,8a287.646,287.646,0,0,1-53.4-3.21c-15.1-2.43-30.31-4.17-45.49-6.05a123.836,123.836,0,0,0-12.93-.64c-14.52-.279-29.05-0.45-43.57-0.719-3.72-.069-7.45-0.282-11.17-0.554-4.8-.351-7.06-2.566-7.14-7.537-0.12-7.656.07-15.317,0.16-22.976C1481.58,966.9,1481.74,965.33,1481.77,964.875Zm159.41,42.175c5.02,0,9.35.12,13.67-.03,4.09-.15,5.32-1.26,5.6-5.24,0.53-7.631.86-15.272,1.24-22.909q0.78-15.567,1.51-31.137c0.69-14.687,1.3-29.379,2.06-44.063,0.59-11.412-2.47-10.343-10.97-11.6a4.694,4.694,0,0,0-.59-0.014q-42.675-.813-85.36-1.623c-13.73-.26-27.46-0.44-41.19-0.78-10.39-.256-20.76-0.738-31.15-1.057-3.78-.116-5.93,1.567-6.34,5.4-1.93,17.72-5.03,35.333-4.8,53.256,0.09,7.263-.07,14.53-0.19,21.795-0.12,7.057-.52,14.114-0.43,21.167,0.05,4.271,1.47,5.387,5.84,5.547,11.76,0.43,23.53,1.3,35.28,1.082,22.28-.418,44.22,2.408,66.21,5.294C1608.27,1004.33,1624.88,1007.83,1641.18,1007.05ZM1984.1,884.739q17.055,0.7,34.11,1.4c14.3,0.613,28.6,1.3,42.91,1.869,6.86,0.272,13.74.277,20.62,0.51,3.32,0.113,6.65.334,9.95,0.749,6.01,0.757,8.89,4.38,8.12,10.678-0.61,5.058-1.75,10.056-2.71,15.068q-9.405,48.573-18.82,97.137c-1.75,9.03-5.15,11.58-14.52,12.08-14.87.81-29.72,2.03-44.59,2.97-10.37.65-20.76,1.07-31.14,1.71-14.67.92-29.34,1.84-44,2.96-7.41.57-12.46-4.42-11.46-11.94,4.48-33.9,10.53-67.493,19.43-100.533,2.04-7.585,4.03-15.188,6.29-22.708,2.68-8.906,7.16-12.108,16.38-12.166,3.14-.02,6.28,0,9.42,0A1.628,1.628,0,0,1,1984.1,884.739Zm-37.87,143.681a1.785,1.785,0,0,0,.02.23c3.31-.31,6.62-0.72,9.94-0.92,14.68-.88,29.36-1.68,44.03-2.55,21.14-1.25,42.27-2.57,63.4-3.8,7.44-.44,10.13-2.68,11.54-9.97q3.78-19.647,7.6-39.3,6.735-34.683,13.44-69.368c1.55-8.022-.12-10.195-8.43-10.82-4.5-.339-9.03-0.173-13.54-0.381-12.53-.577-25.06-1.293-37.59-1.838-13.52-.589-27.05-1.047-40.58-1.563-7.05-.269-14.1-0.719-21.16-0.761-7.3-.044-11.12,2.961-13.45,9.955-0.37,1.117-.71,2.247-1.04,3.377a769.728,769.728,0,0,0-22.07,100.575c-0.97,6.4-1.89,12.81-2.56,19.24-0.54,5.29,2.28,8.17,7.51,8.13C1944.27,1028.65,1945.25,1028.5,1946.23,1028.42Zm-277.06-37.239c0.45-11.171.85-22.344,1.38-33.511,0.64-13.708,1.39-27.411,2.11-41.116q0.45-8.511.98-17.019c0.41-6.673,4.7-10.28,11.33-9.562,1.56,0.168,3.12.406,4.68,0.425,14.34,0.176,28.68.231,43.02,0.477q27.375,0.468,54.76,1.184c11.17,0.285,22.35.736,33.52,1.16,6.4,0.243,9.71,3.221,9.54,9.376-0.41,14.108-1.18,28.2-1.77,42.307-0.21,4.9-.35,9.811-0.51,14.717-0.4,11.96-.78,23.922-1.21,35.881-0.19,5.29-.57,10.57-0.75,15.86-0.23,7.32-4.09,11.17-11.08,10.48-9.55-.94-19.13-1.66-28.69-2.59-27.9-2.7-55.79-5.56-83.7-8.13-8.19-.75-16.45-0.85-24.68-1.06-7.79-.2-9.14-1.47-9.18-9.45-0.02-3.148,0-6.292,0-9.436Zm26.75-97.778v-0.19c-3.34,0-6.68.036-10.02-.007-7.22-.093-9.11,1.593-9.46,8.733q-1.215,24.959-2.37,49.922c-0.22,4.7-.34,9.413-0.57,14.116-0.57,11.347-1.33,22.687-1.72,34.043-0.21,6.29.84,7.06,7.16,7.19,7.85,0.17,15.74-.06,23.54.64,21.66,1.95,43.28,4.28,64.92,6.46,15,1.52,30.02,2.97,45.02,4.57,7.62,0.82,10.53-1.32,10.97-9.17,0.59-10.57.86-21.158,1.25-31.738,0.43-11.562.81-23.125,1.28-34.685,0.23-5.477.76-10.943,0.95-16.421,0.28-8.043.5-16.093,0.5-24.139-0.01-3.93-1.93-5.945-5.55-6.317-3.9-.4-7.81-0.694-11.72-0.8q-25.3-.667-50.6-1.18C1738.31,894.033,1717.11,893.741,1695.92,893.4Zm109.66,228.4c-18.91-1.19-36.9-2.34-54.9-3.45-14.48-.89-28.97-1.71-43.45-2.6q-18.78-1.14-37.56-2.39c-4.08-.27-6.13-2.26-6.15-6.35-0.01-4.49.44-8.99,0.68-13.49q1.17-21.735,2.31-43.46c0.45-8.81.79-17.63,1.24-26.44,0.34-6.58,1.96-7.95,8.77-8.17,15.94-.51,31.76.85,47.59,2.47,29.44,3,58.91,5.76,88.36,8.66a29.512,29.512,0,0,1,6.35,1.17c3.94,1.28,6.28,5.59,5.78,10.53q-1.74,16.965-3.67,33.91c-1.46,12.85-3,25.7-4.51,38.55-0.02.19,0,.39-0.02,0.59C1815.3,1120.35,1815.44,1123.17,1805.58,1121.8Zm-118.76-104.02c-0.01.17-.03,0.34-0.04,0.51-3.15,0-6.29-.07-9.44.01-5.32.13-6.52,1.28-6.79,6.6-0.43,8.62-.81,17.24-1.2,25.86-0.21,4.71-.33,9.42-0.58,14.12-0.7,13.51-1.51,27.02-2.14,40.53-0.19,3.87.73,4.58,4.89,4.87,9,0.63,17.98,1.32,26.98,1.9q28.17,1.83,56.35,3.54c17.43,1.03,34.86,1.93,52.29,2.89,4.9,0.27,5.2.05,5.82-4.9,0.67-5.45,1.28-10.9,1.89-16.36,2.13-19.29,4.32-38.58,6.34-57.88,0.71-6.73-1.2-8.93-7.92-9.62-15.21-1.56-30.43-3-45.65-4.51s-30.42-3.14-45.64-4.57C1710.27,1019.66,1698.54,1018.77,1686.82,1017.78Zm143.97-4.86c0.77-14.483,1.44-26.608,2.04-38.737,0.25-4.9.33-9.806,0.5-14.708,0.39-11.757.74-23.516,1.21-35.269,0.29-7.243.7-14.483,1.19-21.715,0.38-5.562,3.44-8.33,9.16-8.526a155.891,155.891,0,0,0,40.56-6.328,131.155,131.155,0,0,1,32.88-6.055,142.642,142.642,0,0,1,20.54.871c5.26,0.544,8.34,5.891,6.97,11.607-1.41,5.912-3.27,11.715-4.86,17.587a742.143,742.143,0,0,0-20.65,105.583c-0.9,7.49-5.25,14.59-15.65,13.59-11.5-1.11-23.01-2.19-34.51-3.31-8.58-.83-17.14-1.96-25.73-2.48C1834.71,1024.43,1830.05,1022.21,1830.79,1012.92Zm3.62-8.62h-0.3c0,3.53-.11,7.06.04,10.59,0.14,3.48,1.79,5.47,5.05,6.33a26.521,26.521,0,0,0,4.08.56c9.75,1.01,19.49,2.06,29.24,3,10.53,1.02,21.06,2.17,31.62,2.85,8.48,0.54,11.73-2.63,13-10.85,2.78-18.022,5.09-36.158,8.83-53.986,4.76-22.649,10.73-45.045,16.25-67.533,1.57-6.424-.39-9.794-6.54-10.241-13.99-1.016-27.85-.282-41.44,3.533-4.34,1.22-8.74,2.263-13.08,3.51a133.737,133.737,0,0,1-34.29,4.72c-5.94.127-7.68,1.807-8.05,7.628q-0.45,7.035-.75,14.081c-0.21,5.1-.26,10.205-0.51,15.3-0.58,11.939-1.3,23.872-1.84,35.812C1835.2,981.166,1834.84,992.733,1834.41,1004.3Zm99.92,125.74c-6.68.57-10.16-2.35-9.35-10.65q2.49-25.74,4.92-51.5c0.63-6.62,1.06-13.28,2.09-19.85,1.13-7.29,5-10.77,12.12-11.3,12.31-.91,24.64-1.58,36.96-2.4,14.66-.98,29.31-2.07,43.97-3,10.37-.66,20.75-1.13,31.13-1.73,2.53-.14,5.06-0.52,7.59-0.69,6.8-.46,10.41,3.42,9.14,10.08q-5.97,31.515-12.15,63c-1.51,7.67-5.38,11.08-13.36,11.62-9.59.66-19.19,1.26-28.79,1.32-16.63.1-32.72,2.97-48.66,7.55-9.97,2.86-20.22,4.76-30.36,7.01A43.632,43.632,0,0,1,1934.33,1130.04Zm126.5-97.71q-8.505.525-17.02,1.07c-17.02,1.1-34.03,2.24-51.05,3.31-15.07.94-30.15,1.74-45.22,2.75-9.48.63-12.38,3.74-13.18,13.06-0.84,9.96-1.88,19.9-2.84,29.85-1.24,12.87-2.54,25.74-3.7,38.63-0.36,3.91,1.43,5.77,5.54,5.74a42.3,42.3,0,0,0,9.35-.89c10.9-2.54,21.77-5.19,32.57-8.07,10.09-2.68,20.19-4.94,30.68-5.24,7.84-.22,15.67-0.73,23.51-1.07,4.9-.2,9.85.02,14.71-0.54,7.9-.93,11.97-0.73,14.15-12.43,3.54-18.91,7.29-37.78,10.89-56.68C2070.92,1032.91,2070.01,1031.94,2060.83,1032.33ZM1126.9,1211.7c-16.97-2.06-34.92-3.93-52.76-6.5-27.36-3.95-54.67-8.25-81.961-12.67-15.874-2.57-31.665-5.66-47.49-8.53a36.521,36.521,0,0,1-4-.97,5.2,5.2,0,0,1-3.809-5.36c0.027-8.32,6.074-13.42,14.465-12.02,9.286,1.55,18.492,3.6,27.786,5.1,31.552,5.08,63.092,10.25,94.7,14.94,18.8,2.8,37.72,4.75,56.58,7.11,6.15,0.77,8.27,3.3,7.94,9.35-0.01.19-.06,0.39-0.07,0.58C1137.92,1213.43,1135.03,1211.67,1126.9,1211.7Zm-187-33.18c9.856,5.15,133.21,24.78,189.19,30.3a33,33,0,0,0,5.18-.31c0.28-1.67.53-2.8,0.64-3.94,0.69-7.36.35-8-7.08-8.96-20.41-2.66-40.89-4.82-61.26-7.76-26.4-3.82-52.73-8.09-79.056-12.37-12.587-2.05-25.091-4.6-37.648-6.84-4.239-.75-6.242.33-7.964,4.12C941.108,1174.51,940.626,1176.39,939.9,1178.52Zm-306.743-.64c-2.728-.93-4.407-1.41-6.024-2.06q-63.208-25.23-126.4-50.5c-1.276-.51-2.565-1-3.794-1.61-6.922-3.44-10.681-9.6-9.8-17.22a137.614,137.614,0,0,1,3.306-17.93c1.871-7.41,8.242-11.13,15.778-9.7q31.818,6.045,63.622,12.17c35.907,6.98,61.628,38.45,63.719,71.22,0.2,3.13.639,6.24,0.653,9.37C634.217,1173.48,633.609,1175.34,633.157,1177.88Zm-2.334-4.29c0.142-2.02.357-3.37,0.315-4.72-1.126-36.2-25.028-64.36-55.705-73.12-6.019-1.72-12.24-2.76-18.4-3.96q-25.421-4.95-50.868-9.75c-5.793-1.1-10.945,1.18-12.283,6.39a132.632,132.632,0,0,0-3.451,20.24c-0.518,5.39,2.691,9.26,7.291,11.85a39.529,39.529,0,0,0,4.881,2.05q61.245,24.5,122.5,48.96C626.866,1172.23,628.678,1172.82,630.823,1173.59ZM1914.74,1050.55q-2.475,26.025-4.93,52.05c-0.5,5.26-.9,10.54-1.42,15.8-0.64,6.55-4.48,9.89-11.02,9.46-17.39-1.15-34.77-2.4-52.16-3.58-5.66-.39-11.34-0.67-17-1.02-6.59-.41-8.03-2.35-7.27-8.97q3.315-28.605,6.45-57.22c0.72-6.42,1.27-12.86,2.03-19.27,0.64-5.34,3.6-8.25,8.99-8.08,7.63,0.24,15.25.92,22.86,1.64,13.84,1.31,27.66,2.79,41.49,4.2,1.56,0.16,3.15.2,4.68,0.5,4.47,0.89,7.09,4,7.28,8.6C1914.81,1046.62,1914.74,1048.58,1914.74,1050.55Zm-91.16,68.69c2.88,0.5,4.96,1.05,7.06,1.18q32.865,2.1,65.74,4.08c6.14,0.38,8.32-1.34,8.9-7.26q2.325-23.7,4.56-47.39c0.71-7.41,1.58-14.81,2.04-22.23,0.37-5.92-1.27-7.75-7.13-8.54-5.82-.78-11.67-1.35-17.52-1.94-14.81-1.49-29.65-2.84-44.45-4.44-7.52-.81-9.83.99-10.67,8.68-2.28,20.65-4.67,41.29-6.98,61.93C1824.57,1108.34,1824.14,1113.39,1823.58,1119.24Zm-71.67-851.507c0.39,1.59.76,3.183,1.17,4.769,1.23,4.859,4.08,8,9.29,8.445,9.37,0.8,18.74,1.609,28.11,2.294q24.345,1.778,48.68,3.407c18.38,1.26,36.77,2.433,55.15,3.751,12.7,0.911,25.38,2,38.07,3.011,5.67,0.449,7.38-2.089,7.2-6.668-0.58-14.9-1.1-29.81-1.14-44.717-0.02-10.265,1.77-20.32,6.39-29.671,3.05-6.162,6.02-12.365,9.2-18.46a53.778,53.778,0,0,0,6.32-23.076,9.4,9.4,0,0,1,.39-2.3,4.548,4.548,0,0,1,1.28-1.038,12.347,12.347,0,0,1,1.03,3c0.51,8.269-1.76,15.944-5.31,23.283-3.16,6.541-6.56,12.971-9.71,19.518a60.039,60.039,0,0,0-6.19,31.375,5.8,5.8,0,0,1,.02.589c0.26,13.933.58,27.864,0.74,41.8,0.09,7.433-1.98,9.552-9.51,9.169-12.14-.617-24.25-1.6-36.38-2.428-18.77-1.285-37.54-2.534-56.31-3.869-20.33-1.447-40.65-2.975-60.98-4.467-5.67-.416-11.35-0.707-17-1.278-7.55-.763-12.29-5.637-12.74-12.985-0.07-1.13.6-2.3,0.93-3.459h1.3Zm60.2,923.787c1.77-15.78,3.4-30.36,5.05-44.94q0.75-6.72,1.6-13.43c0.76-5.87,1.99-7.01,8.04-6.75q14.7,0.66,29.37,1.63c10.75,0.7,21.5,1.51,32.24,2.3,3.13,0.23,6.26.44,9.36,0.88,5.41,0.77,8.45,4.03,8.2,9.64-0.32,7.43-1.19,14.83-1.87,22.24q-1.215,13.185-2.5,26.34a41.289,41.289,0,0,1-.92,4.18C1871.33,1192.92,1842.06,1192.23,1812.11,1191.52Zm86.28-.96c0.5-5.16.92-9.61,1.35-14.06,1.06-11.12,2.24-22.24,3.13-33.37,0.51-6.29-1.63-8.7-7.9-9.19-11.53-.91-23.07-1.66-34.61-2.4-10.38-.66-20.77-1.06-31.13-1.9-6.47-.52-7-0.3-7.73,6.1-1.52,13.44-3.12,26.87-4.63,40.32-0.45,4.01-.73,8.05-1.13,12.59C1843.36,1189.29,1870.38,1189.91,1898.39,1190.56ZM1742.02,165.805c-2.95-6.027.19-12.491,6.2-13.626,4.98-.939,10.13-1.07,15.21-1.429q22.575-1.593,45.16-3.067c9.98-.638,19.98-1.052,29.96-1.7,14.47-.936,28.93-2.025,43.4-2.979,9.58-.633,19.18-1.125,28.77-1.714,11.55-.709,23.08-1.5,34.63-2.16a76.408,76.408,0,0,1,10.6-.093c5.29,0.435,7.67,4.487,6.16,9.874a2.064,2.064,0,0,1-1.04-.237c-3.19-6.8-4.03-7.419-11.62-6.911-20.14,1.348-40.27,2.877-60.41,4.185-16.43,1.067-32.89,1.843-49.33,2.889-14.07.9-28.14,2.05-42.21,2.983-9.98.661-19.98,1.127-29.96,1.712-4.89.287-9.79,0.54-14.66,1-6.31.6-7.98,2.138-9.66,8.329C1743.03,163.564,1742.67,164.218,1742.02,165.805Zm-7.87,130.641c-0.41.554-.72,0.966-1.02,1.378l-1.38-1.306a2.83,2.83,0,0,1,1.09-.98A3.214,3.214,0,0,1,1734.15,296.446Z" transform="translate(-487)"/>
  <path id="地图阴影" class="cls-2" d="M2156.33,366.238c-27.7,91.239-132.97,438.059-167.66,552.364-7.41,21.822-21.69,36.1-44.93,36.784h-424.4s-4.77,65.734-6.62,93.434c-1.11,12.77-5.4,17.86-15.53,17.86-14.4,0-34.4.22-34.4,0.22l-5.96,122.83a44.452,44.452,0,0,1-48.88,42.1l-495.478-71.28c-61.334-18.36-147.642-35.65-210.144-69.41-1.109-38.35,46.555-119.152,72.833-207.843,56.094-198.386,85.172-494.41,93.318-587.732,2.139-25.076,15.53-27.354,32.88-27.434l1237.271,74.45C2150.8,342.97,2160.6,352.359,2156.33,366.238Z" transform="translate(-487)"/>
  <path id="地图中层" class="cls-3" d="M2121.25,302.843c-27.79,91.545-134.74,440.074-168.01,553.508-10.37,35.35-5.12,35.64-56.82,35.64H1484.26s-3.83,57.212-6,89.677c-0.57,18.512-7.24,21.842-21.47,21.842H1427.7l-5.95,122.83a44.444,44.444,0,0,1-48.88,42.09l-356.13-50.26c-56.2-5.72-202.827-29.4-300.983-51.4-41.532-8-51.783-38.36,24.323-246.868,56.094-198.386,85.171-494.41,93.318-587.732,2.138-25.076,15.529-27.354,32.879-27.434L2103.55,279.185C2115.72,279.575,2125.52,288.964,2121.25,302.843Z" transform="translate(-487)"/>
  <path id="地图上层" class="cls-4" d="M1221.09,267.166l0.54,0c-1.82.015-3.65-.014-5.47-0.025C1217.8,267.147,1219.45,267.177,1221.09,267.166Zm-32.98,421.115,1.11,3.574-13.04-42.168ZM1497.69,544.62c-0.58.169-1.17,0.343-1.75,0.523,0.79-.243,1.58-0.46,2.37-0.684C1498.11,544.517,1497.9,544.561,1497.69,544.62Zm-368.2-272.389c0.14-1.589.27-3.18,0.38-4.772l0.12-1.76c-0.18,2.94-.43,5.874-0.73,8.8C1129.34,273.746,1129.42,272.989,1129.49,272.231Zm-0.29,2.926q-0.465,4.449-1.09,8.88,0.57-4.024,1.01-8.068C1129.15,275.7,1129.17,275.428,1129.2,275.157Zm509.06,508.152q0.72-3.358,1.52-6.7-0.78,3.24-1.48,6.5C1638.29,783.17,1638.27,783.24,1638.26,783.309Zm43.76-301.545q-0.4,4.915-.67,9.84c0.18-3.292.41-6.582,0.67-9.868v0.028ZM1340.29,715.905c-0.37-1.436-.7-2.88-1-4.332,0.29,1.394.6,2.782,0.95,4.162A1.093,1.093,0,0,0,1340.29,715.905Zm341.83-235.158c0.25-2.972.52-5.942,0.84-8.907-0.02.144-.03,0.289-0.05,0.433Q1682.46,476.5,1682.12,480.747ZM1489.81,606.078c3-.56,6.01-1.1,9.02-1.576q-2.58.4-5.16,0.852C1492.38,605.578,1491.1,605.838,1489.81,606.078Zm78.74-151.26c-0.24-1.081-.48-2.162-0.69-3.25,0.04,0.2.07,0.4,0.1,0.594C1568.14,453.052,1568.35,453.933,1568.55,454.818ZM1880.77,842.6c0.93,0.012,1.86.02,2.79,0.057-0.41-.016-0.81-0.03-1.21-0.041C1881.82,842.6,1881.3,842.605,1880.77,842.6Zm-55.93-325.231,0.11,0.073-0.11-.073h0Zm21.83-16.011c-1.03,1.7-2.05,3.391-3.16,5.036,0.62-.928,1.24-1.866,1.84-2.811C1845.81,502.852,1846.22,502.094,1846.67,501.356ZM1117.28,347.05a8.78,8.78,0,0,0-8.92,5.7l-31.26,85.6a5.177,5.177,0,0,0,3.18,6.642,5.378,5.378,0,0,0,1.35.288,174.4,174.4,0,0,0,90.79-17.173,15.576,15.576,0,0,0,8.73-12.786l4.26-56.311a6.952,6.952,0,0,0-6.48-7.417l-12.11-.893-0.27,3.452-35.03-2.583,0.26-3.451Zm250.01,95.525a183.306,183.306,0,0,0,51.86,7.543,9.465,9.465,0,0,0,1.89-.2c0.15-.032.3-0.1,0.45-0.134a9.586,9.586,0,0,0,1.33-.429c0.04-.018.09-0.024,0.13-0.042a9.205,9.205,0,0,0,1.2-.647c0.08-.05.15-0.109,0.23-0.161a9.307,9.307,0,0,0,1.02-.8q0.165-.153.33-0.314a9.592,9.592,0,0,0,.81-0.913c0.07-.1.15-0.183,0.22-0.281a8.518,8.518,0,0,0,.78-1.311c0.06-.12.11-0.246,0.16-0.368a10.905,10.905,0,0,0,.42-1.135c0.04-.152.09-0.3,0.12-0.457a9.409,9.409,0,0,0,.26-1.595l3.77-61.679a7.7,7.7,0,0,0-.05-1.361c-0.02-.148-0.05-0.29-0.08-0.435a6.453,6.453,0,0,0-.21-0.873c-0.04-.155-0.1-0.307-0.15-0.458a8.059,8.059,0,0,0-.38-0.822c-0.07-.12-0.12-0.243-0.19-0.358a6.885,6.885,0,0,0-.76-1.054c-0.03-.036-0.07-0.066-0.1-0.1a7.708,7.708,0,0,0-.84-0.8c-0.11-.094-0.24-0.174-0.36-0.26a6.446,6.446,0,0,0-.73-0.468c-0.15-.084-0.3-0.16-0.46-0.233-0.1-.047-0.19-0.108-0.29-0.151-0.17-.07-0.35-0.111-0.52-0.168-0.15-.049-0.29-0.1-0.45-0.144a7.427,7.427,0,0,0-1.34-.235l-53.16-3.978a7.469,7.469,0,0,0-8.01,6.9,0.347,0.347,0,0,0-.01.1l-3.57,58.27A9.355,9.355,0,0,0,1367.29,442.575Zm-16.97,53.993a3.731,3.731,0,0,0-4.01-3.444,3.645,3.645,0,0,0-.78.145l-40.5,12.055a3.742,3.742,0,0,0-2.52,4.653,0.052,0.052,0,0,1,.01.037l4.29,13.855a5.6,5.6,0,0,0,5.07,3.946l40.51,2.049a3.735,3.735,0,0,0,3.92-3.546,3.644,3.644,0,0,0-.19-1.39Zm-15.27,144.691c-0.53-2.212-1.14-4.4-1.81-6.579l-12.73-41.166a3.736,3.736,0,0,0-4.46-2.529q-3.18.777-6.32,1.747l-30.79,9.518q-3.135.971-6.2,2.13a3.739,3.739,0,0,0-2.26,4.605l14.64,47.344a6.555,6.555,0,0,0,.41.963c0.06,0.116.14,0.22,0.2,0.33,0.09,0.133.16,0.273,0.25,0.4,0.04,0.05.08,0.09,0.12,0.139,0.08,0.1.16,0.189,0.25,0.281,0.15,0.162.3,0.314,0.46,0.456,0.09,0.076.18,0.151,0.27,0.221a5.409,5.409,0,0,0,.64.418c0.06,0.037.12,0.08,0.18,0.114a5.7,5.7,0,0,0,.91.371c0.08,0.026.16,0.039,0.25,0.061a5.577,5.577,0,0,0,.71.143c0.12,0.015.23,0.023,0.35,0.031a5.714,5.714,0,0,0,.68,0c0.12-.006.22-0.008,0.34-0.021a5.636,5.636,0,0,0,1-.2l39.12-12.094a5.555,5.555,0,0,0,.91-0.384c0.1-.051.19-0.111,0.29-0.167,0.18-.112.36-0.229,0.54-0.361,0.09-.074.19-0.151,0.28-0.232a4.906,4.906,0,0,0,.44-0.437c0.08-.084.16-0.165,0.23-0.253a5.275,5.275,0,0,0,.43-0.613c0.03-.058.08-0.111,0.11-0.17a5.465,5.465,0,0,0,.39-0.869,2.321,2.321,0,0,0,.07-0.253,5.142,5.142,0,0,0,.17-0.676c0.02-.121.03-0.245,0.04-0.369s0.04-.233.04-0.353a0.823,0.823,0,0,0-.01-0.157A5.946,5.946,0,0,0,1335.05,641.259ZM994.022,709.033l-7.307,34.8a3.8,3.8,0,0,0-.073.838c0,0.076.016,0.151,0.022,0.227a3.61,3.61,0,0,0,.093.6c0.009,0.039.008,0.08,0.019,0.119,0.017,0.064.049,0.118,0.07,0.18a3.825,3.825,0,0,0,.146.372c0.051,0.108.106,0.212,0.165,0.314s0.125,0.2.2,0.3,0.148,0.194.229,0.286a3.329,3.329,0,0,0,.249.255c0.088,0.082.176,0.158,0.271,0.231a3.506,3.506,0,0,0,.3.209c0.1,0.064.207,0.121,0.315,0.175s0.213,0.1.324,0.143a3.834,3.834,0,0,0,.381.121c0.063,0.016.12,0.045,0.184,0.058,0.04,0.009.08,0,.12,0.01a3.663,3.663,0,0,0,.6.053c0.078,0,.153.01,0.23,0.006a3.748,3.748,0,0,0,.83-0.129l70.41-19.841a3.742,3.742,0,0,0,2.59-4.615l-0.03-.09-10.01-32.385a3.743,3.743,0,0,0-4.68-2.468l-51.814,16.021A5.61,5.61,0,0,0,994.022,709.033Zm125.258-98.046a90.427,90.427,0,0,0,3.93,30.751l2.56,8.266a5.61,5.61,0,0,0,7.02,3.7l40.74-12.6,23.61-7.3c2.95-.914,5.87-1.956,8.74-3.122a3.729,3.729,0,0,0,2.16-4.57l-12.29-39.755a3.739,3.739,0,0,0-4.39-2.544q-3.51.789-6.94,1.85l-25.59,7.913-34.28,10.6A7.487,7.487,0,0,0,1119.28,610.987Zm-4.69-278.63a5.606,5.606,0,0,0,3.38,7.179,5.71,5.71,0,0,0,1.48.315l77.81,5.822,52.25,3.909,19.41,1.452a7.482,7.482,0,0,0,8.02-6.9c0-.032.01-0.064,0.01-0.095l1.23-19.823,2.49-40.122,0.09-1.632c0.08-1.245.14-2.492,0.2-3.739q0.105-2.121.18-4.243a7.667,7.667,0,0,0-.14-1.668c-0.01-.036,0-0.074-0.01-0.111-0.06-.26-0.15-0.5-0.23-0.75-0.05-.152-0.08-0.31-0.13-0.458a7.531,7.531,0,0,0-.61-1.222c-0.04-.06-0.09-0.109-0.13-0.168a7.047,7.047,0,0,0-.7-0.914c-0.1-.114-0.22-0.212-0.33-0.32a7.8,7.8,0,0,0-.66-0.589c-0.15-.111-0.3-0.2-0.46-0.306a6.137,6.137,0,0,0-.7-0.413c-0.17-.087-0.34-0.163-0.52-0.238a7.715,7.715,0,0,0-.77-0.27c-0.19-.053-0.37-0.1-0.55-0.143a7.472,7.472,0,0,0-.89-0.122c-0.13-.011-0.25-0.047-0.38-0.052-0.11,0-.22-0.006-0.33,0l-19.81.165-32.16.267-0.54,0c-1.64.011-3.29-.019-4.93-0.029,1.82,0.011,3.65.04,5.47,0.025l-77.31-7.261-5.41-1.072a7.478,7.478,0,0,0-8.79,5.884,6.574,6.574,0,0,0-.13.986l-0.12,1.76c-0.11,1.592-.24,3.183-0.38,4.772-0.07.758-.15,1.515-0.23,2.272,0.3-2.93.55-5.864,0.73-8.8l-1.88,18.338q0.63-4.429,1.09-8.88c-0.03.271-.05,0.542-0.08,0.812q-0.435,4.042-1.01,8.068l-2.96,10.825-9.42,34.334Zm81.91,94.377,68.85-11.435a7.472,7.472,0,0,0,7.61-7.017l2.21-35.481,0.3-4.868a7.488,7.488,0,0,0-6.91-7.924l-47.73-3.57-16.78-1.256a7.484,7.484,0,0,0-8.02,6.9s-1.47,19.769-1.47,19.769l-3.07,41.086A3.741,3.741,0,0,0,1196.5,426.734Zm-89.21,415.483,1.66,5.361a3.739,3.739,0,0,0,4.68,2.468l14.29-4.42,37.84-11.7a5.619,5.619,0,0,0,3.75-6.851q-0.45-1.6-.93-3.181l-7-22.627-0.66-2.144-1.66-5.36-0.66-2.144L1152.22,771a5.616,5.616,0,0,0-7.02-3.7l-52.17,16.133a3.737,3.737,0,0,0-2.47,4.679Zm-57.94,116.028a3.741,3.741,0,0,0-3.4-4.054c-0.03,0-.05,0-0.08-0.006l-85.321-5.641a5.612,5.612,0,0,0-5.969,5.229c0,0.046,0,.091-0.007.137l-1.325,31.932L952.61,1001.2l-2.378,57.36-0.026.59-1.13,14.34q-0.083.69-.167,1.38a5.628,5.628,0,0,0,4.519,6.21l12.243,2.33q32.721,6.225,65.629,11.38a5.612,5.612,0,0,0,6.42-4.67c0.02-.13.03-0.25,0.04-0.38l6.92-78.49,1.06-12.043Zm240.4-540.9,52.32,15.7q2.925,1.359,5.89,2.614a3.735,3.735,0,0,0,4.9-1.989,3.485,3.485,0,0,0,.29-1.228l3.58-58.429a7.482,7.482,0,0,0-6.91-7.917l-38.32-2.868-7.51-.562-4.95-.37-5.11-.383a7.484,7.484,0,0,0-8.02,6.9,0.311,0.311,0,0,0-.01.095l-2.52,40.576A7.486,7.486,0,0,0,1289.75,417.343Zm-115.57,111.92a3.786,3.786,0,0,0-1.12.565L1155.77,542.6a90.085,90.085,0,0,0-33.28,48.354,3.736,3.736,0,0,0,4.7,4.575l55.02-17.011c2.11-.653,4.25-1.236,6.4-1.746a3.749,3.749,0,0,0,2.78-4.5c-0.02-.082-0.05-0.162-0.07-0.242l-12.46-40.3A3.743,3.743,0,0,0,1174.18,529.263Zm91.43,63.972a3.744,3.744,0,0,0,4.68,2.469c0.06-.019.13-0.04,0.19-0.063q2.88-1.06,5.81-1.967l30.78-9.518q2.94-.907,5.92-1.659a3.746,3.746,0,0,0,2.71-4.542l-0.06-.19L1311.7,565a3.744,3.744,0,0,0-4.68-2.469,3.051,3.051,0,0,0-.42.158l-12.96,4.873-23.2,7.174q-2.94.906-5.91,1.657a3.744,3.744,0,0,0-2.72,4.542l0.06,0.19Zm153.11-10.6a5.823,5.823,0,0,0-.04-1.025c-0.01-.11-0.04-0.216-0.06-0.325a4.992,4.992,0,0,0-.16-0.665c-0.04-.113-0.07-0.224-0.11-0.334a5.389,5.389,0,0,0-.31-0.657,2.293,2.293,0,0,0-.12-0.23,6.112,6.112,0,0,0-.57-0.789c-0.05-.055-0.11-0.1-0.16-0.157a5.222,5.222,0,0,0-.56-0.519c-0.08-.073-0.18-0.137-0.27-0.2a5.1,5.1,0,0,0-.56-0.346c-0.11-.06-0.21-0.119-0.33-0.172-0.05-.026-0.1-0.061-0.16-0.086-0.14-.057-0.28-0.089-0.42-0.135s-0.27-.1-0.41-0.133a5.477,5.477,0,0,0-.82-0.134c-0.07-.006-0.13-0.028-0.2-0.032h-0.03a5.508,5.508,0,0,0-.7.02c-0.09.007-.19,0-0.29,0.011a5.7,5.7,0,0,0-.98.207l-13.74,4.249-28.07,5.033-34.01,1.869-4.04.222a3.744,3.744,0,0,0-3.53,3.94,3.916,3.916,0,0,0,.16.9v-0.006a0.071,0.071,0,0,1,.01.044,0.057,0.057,0,0,1,.01.039l12.14,39.244c0.47,1.51.9,3.03,1.31,4.559a5.383,5.383,0,0,0,.38,1.026c0.08,0.158.18,0.3,0.27,0.445s0.17,0.3.27,0.441c0.01,0.014.02,0.025,0.03,0.039,0.06,0.076.13,0.142,0.19,0.214a5.517,5.517,0,0,0,.5.524c0.08,0.078.17,0.147,0.26,0.219a4.775,4.775,0,0,0,.54.393c0.1,0.058.19,0.116,0.29,0.17a5.251,5.251,0,0,0,.68.313c0.07,0.029.14,0.066,0.22,0.091a5.6,5.6,0,0,0,.94.229c0.09,0.014.18,0.015,0.28,0.025a5.5,5.5,0,0,0,.73.03c0.11,0,.23-0.012.34-0.023a5.594,5.594,0,0,0,.73-0.116c0.07-.016.14-0.015,0.21-0.033s0.15-.042.22-0.064l56.53-17.48a16.837,16.837,0,0,0,11.83-15.052Zm-12.47,191.951c-0.26-4.015-1.71-7.448-6.74-5.894l-212.73,65.778a5.606,5.606,0,0,0-3.91,6.075,117.575,117.575,0,0,1-5.64,53.759l-18.46,52.716c-4.38,12.527,33.55,8.142,39.41,7.879,17.88-.8,35.68-2.8,53.45-4.842,35.95-4.123,72.32-8.681,108.47-4.255,5.51,0.675,11.07,1.558,16.57.83,15.37-2.031,13.91-13.573,15.17-26.064l4.68-46.174q4.68-46.173,9.35-92.348A46.471,46.471,0,0,0,1406.25,774.591Zm-242.31-20.138,40.74-12.6,32.16-9.945a3.736,3.736,0,0,0,2.47-4.678l-8.28-26.773a5.612,5.612,0,0,0-7.02-3.7l-30.37,9.392-13.16,4.068q-9.105,2.817-18.28,5.4l-9.31,2.623a5.6,5.6,0,0,0-.95.375c-0.1.049-.2,0.107-0.29,0.161a6.633,6.633,0,0,0-.58.373c-0.09.07-.18,0.141-0.27,0.217a4.69,4.69,0,0,0-.52.5c-0.06.064-.13,0.123-0.18,0.189a5.328,5.328,0,0,0-.56.8c-0.03.065-.06,0.134-0.09,0.2a4.535,4.535,0,0,0-.31.7c-0.04.109-.07,0.219-0.1,0.331q-0.09.31-.15,0.634c-0.02.123-.04,0.246-0.05,0.371l-0.03.183c-0.01.137,0.01,0.273,0.01,0.41,0.01,0.161,0,.32.02,0.483a5.2,5.2,0,0,0,.12.674c0.02,0.107.02,0.213,0.05,0.32,0.01,0.045.03,0.091,0.04,0.136l7.87,25.45A5.616,5.616,0,0,0,1163.94,754.453Zm44.3-115.029c-0.09.027-.17,0.058-0.26,0.092l-8.19,2.87-23.61,7.3,13.04,42.168,30.37-9.392a5.62,5.62,0,0,0,3.71-7.018l-10.38-33.553A3.74,3.74,0,0,0,1208.24,639.424Zm-32.06,10.263-40.74,12.6a5.6,5.6,0,0,0-3.7,7.017l9.57,30.976a6.144,6.144,0,0,0,.7,1.421,1.153,1.153,0,0,1,.08.156c0.05,0.069.11,0.125,0.16,0.192q0.12,0.151.24,0.294c0.15,0.163.3,0.313,0.46,0.456,0.09,0.074.16,0.15,0.25,0.219a5.984,5.984,0,0,0,.72.482c0.03,0.017.06,0.039,0.09,0.056a5.512,5.512,0,0,0,.88.38c0.1,0.032.2,0.052,0.3,0.079a5.183,5.183,0,0,0,.65.143c0.12,0.018.24,0.031,0.36,0.041a5.551,5.551,0,0,0,.67.014c0.11,0,.22,0,0.33-0.013a5.556,5.556,0,0,0,1-.178l9.94-2.8q9-2.533,17.92-5.294l13.16-4.068-1.11-3.574ZM1059.45,890.192a3.741,3.741,0,0,0,4.33,3.035,4.269,4.269,0,0,0,.46-0.111l36.15-11.18,7.75-1.585a3.737,3.737,0,0,0,3.33-4.108,3.485,3.485,0,0,0-.14-0.717l-3.9-12.6a3.743,3.743,0,0,0-4.68-2.469l-43.6,13.481a3.734,3.734,0,0,0-2.47,4.661Zm6.51-421.858c-2.64,4.149-3.77,9.716-5.78,15.177q-6.855,18.6-13.46,37.3-13.215,37.387-25.4,75.128c-4.38,13.568,17.93,11.975,26.79,12.658a176.781,176.781,0,0,0,45.87-2.441c4.45-.827,9.04-1.91,12.53-4.777,2.52-2.063,4.27-4.893,5.96-7.668l20.88-34.1c6.44-10.519,13.1-21.238,21.95-29.941,9.01-8.869,20.7-14.642,30.78-22.242q29.985-22.617,59.98-45.215c4.72-3.558,37.29-35.047,19.92-39.28a5.648,5.648,0,0,0-1.24-.159,183.292,183.292,0,0,0-85.67,19.633l-103.66,19.638A13.45,13.45,0,0,0,1065.96,468.334Zm194.85-1.026a1.822,1.822,0,0,0,.98.608l12.57,3.109,22.75,21.472,1.44,4.652a3.735,3.735,0,0,0,4.64,2.48l42.94-12.783a5.618,5.618,0,0,0,4-5.035l0.77-12.6,0.6-9.844,0.6-9.817a5.607,5.607,0,0,0-3.52-5.554l-9.66-4.173c-2.32-1.079-4.67-2.094-7.03-3.073-0.73-.3-1.47-0.588-2.2-0.881q-2.52-1-5.05-1.936c-0.82-.3-1.65-0.6-2.48-0.888-1.73-.607-3.48-1.182-5.23-1.737-0.71-.224-1.42-0.461-2.13-0.677-2.44-.739-4.89-1.438-7.36-2.075-0.05-.012-0.09-0.026-0.14-0.038q-2.88-.738-5.77-1.384c-0.06-.014-0.13-0.025-0.2-0.04-1.47-.326-2.95-0.611-4.43-0.9-0.74-.144-1.47-0.308-2.2-0.444q-3.33-.609-6.69-1.1a5.616,5.616,0,0,0-6.32,4.517l-20.66,35.506A1.867,1.867,0,0,0,1260.81,467.308Zm158.71,95.815c0.16-.212.3-0.428,0.44-0.652,0.09-.156.19-0.31,0.28-0.471,0.12-.236.23-0.479,0.34-0.725,0.07-.162.14-0.321,0.2-0.488,0.1-.276.18-0.561,0.26-0.848,0.04-.147.08-0.288,0.12-0.437a8.62,8.62,0,0,0,.18-1.348l1.06-17.256,1.71-27.934,0.75-12.246,2.15-35.181a7.471,7.471,0,0,0-7.01-7.924c-0.15-.01-0.31-0.015-0.46-0.014l-55.33-8.136a3.744,3.744,0,0,0-4.66,2.5,4.09,4.09,0,0,0-.15.852l-0.41,6.646-0.6,9.847-0.72,11.767a108.412,108.412,0,0,0,4.64,38.675l5.68,18.394,10.79,34.866a3.737,3.737,0,0,0,4.26,2.572,108.1,108.1,0,0,0,12.03-2.974l19.7-6.092a9.607,9.607,0,0,0,1.22-.472c0.02-.01.04-0.024,0.06-0.034,0.14-.065.26-0.148,0.39-0.219,0.27-.143.53-0.288,0.78-0.454,0.14-.1.28-0.206,0.41-0.31,0.22-.165.44-0.332,0.64-0.515,0.13-.12.26-0.249,0.38-0.377,0.19-.188.37-0.381,0.54-0.584Q1419.355,563.342,1419.52,563.123ZM1057.16,867.505l43.6-13.48a3.745,3.745,0,0,0,2.47-4.679l-1.66-5.36-0.66-2.145-8.68-28.052-7.39-23.915a3.744,3.744,0,0,0-4.68-2.469l-43.6,13.481a3.745,3.745,0,0,0-2.47,4.679l7.4,23.915,8.67,28.052,0.67,2.145,1.65,5.36A3.743,3.743,0,0,0,1057.16,867.505Zm13.02-145.291a3.745,3.745,0,0,0,4.59,2.495l14.5-4.085,38.04-10.718a5.607,5.607,0,0,0,.95-0.376c0.1-.05.19-0.106,0.29-0.161a6.633,6.633,0,0,0,.58-0.373c0.09-.07.18-0.14,0.27-0.216a4.893,4.893,0,0,0,.52-0.507c0.06-.064.12-0.121,0.18-0.188a6.112,6.112,0,0,0,.56-0.8c0.03-.063.06-0.132,0.09-0.2a5.726,5.726,0,0,0,.31-0.7c0.04-.108.07-0.217,0.1-0.328,0.06-.209.11-0.42,0.15-0.638,0.02-.122.04-0.243,0.05-0.368a1.2,1.2,0,0,1,.03-0.184c0-.137-0.02-0.275-0.02-0.413a3.838,3.838,0,0,0-.01-0.479,5.2,5.2,0,0,0-.12-0.676c-0.02-.107-0.02-0.213-0.05-0.319a0.691,0.691,0,0,1-.04-0.135l-9.42-30.452a5.614,5.614,0,0,0-7.02-3.7l-24.66,7.624-13.22,4.089-14.29,4.419a3.737,3.737,0,0,0-2.47,4.679ZM1091.04,777l14.29-4.42,37.88-11.713a5.62,5.62,0,0,0,3.71-7.018l-8.04-25.973a5.392,5.392,0,0,0-.7-1.421c-0.03-.049-0.04-0.109-0.07-0.157-0.05-.069-0.11-0.126-0.16-0.192-0.08-.1-0.16-0.2-0.25-0.293a3.981,3.981,0,0,0-.46-0.458c-0.08-.073-0.16-0.149-0.24-0.217a5.756,5.756,0,0,0-.72-0.482c-0.03-.018-0.06-0.04-0.09-0.057a5.33,5.33,0,0,0-.89-0.38c-0.09-.032-0.19-0.051-0.29-0.079a5.132,5.132,0,0,0-.66-0.144c-0.12-.017-0.23-0.03-0.35-0.04a5.551,5.551,0,0,0-.67-0.014c-0.11,0-.22,0-0.33.013a5.734,5.734,0,0,0-1,.177l-52.63,14.83a3.743,3.743,0,0,0-2.58,4.614,0.3,0.3,0,0,1,.02.091l9.55,30.864A3.739,3.739,0,0,0,1091.04,777Zm277.7-5.829a0.047,0.047,0,0,1,.01-0.005l33.34-10.307a9.665,9.665,0,0,0,1.23-.485c0.14-.066.27-0.147,0.4-0.219,0.19-.1.39-0.195,0.58-0.311a0.879,0.879,0,0,1,.1-0.082,9.639,9.639,0,0,0,1.48-1.189c0.09-.094.18-0.193,0.27-0.291a9.677,9.677,0,0,0,1.06-1.371c0.04-.063.09-0.12,0.13-0.184a9.517,9.517,0,0,0,.79-1.717c0.05-.138.09-0.275,0.13-0.416a9.332,9.332,0,0,0,.38-1.909q0.9-11.065,1.7-22.137c0.17-2.4.33-4.806,0.5-7.209,0.27-3.934.55-7.867,0.81-11.8q0.18-2.905.36-5.815l1.29-19.683,0.1-13.092,1.71-26.128a5.613,5.613,0,0,0-7.26-5.725l-25.02,7.735-12.79,2.781-20.57,6.36a5.784,5.784,0,0,0-.84.339c-0.09.045-.17,0.1-0.26,0.154-0.17.1-.34,0.192-0.5,0.3-0.1.07-.18,0.152-0.28,0.228-0.13.11-.27,0.217-0.39,0.338-0.09.088-.17,0.186-0.25,0.279-0.11.125-.22,0.248-0.32,0.382-0.08.1-.15,0.214-0.22,0.322-0.08.137-.17,0.273-0.25,0.417-0.06.117-.11,0.24-0.16,0.361-0.06.147-.13,0.293-0.18,0.446-0.04.129-.08,0.261-0.11,0.393a3.694,3.694,0,0,0-.1.467,2.9,2.9,0,0,0-.05.416c-0.01.1-.03,0.192-0.04,0.291v0.38l-0.07,8.487-0.68,14.922c-0.07,1.609-.09,3.218-0.08,4.826,0,0.471.02,0.941,0.03,1.412q0.03,1.81.15,3.618c0.02,0.454.05,0.908,0.08,1.361,0.12,1.6.27,3.2,0.47,4.789,0.02,0.14.05,0.28,0.06,0.42q0.3,2.188.69,4.359c0.03,0.2.05,0.4,0.09,0.594,0.08,0.416.18,0.826,0.26,1.24,0.12,0.609.24,1.218,0.38,1.824,0.15,0.674.31,1.344,0.47,2.015,0.15,0.6.3,1.2,0.46,1.8,0.05,0.214.1,0.43,0.16,0.644q0.36,1.3.75,2.588l0.94,3.1,4.14,13.572,10.25,33.619A3.74,3.74,0,0,0,1368.74,771.166Zm-74.45-418.234,4.18,0.313,5.1,0.382,7.51,0.562,39.09,2.924a7.484,7.484,0,0,0,8.02-6.9v-0.1l4.57-74.622a7.409,7.409,0,0,0-.05-1.332c-0.01-.125-0.03-0.246-0.05-0.368-0.02-.105-0.02-0.211-0.05-0.314a4.8,4.8,0,0,0-.16-0.52,5.579,5.579,0,0,0-.17-0.566,7.451,7.451,0,0,0-.37-0.8c-0.08-.14-0.14-0.287-0.22-0.423a7.2,7.2,0,0,0-.75-1.039,0.191,0.191,0,0,1-.04-0.055,7.757,7.757,0,0,0-.99-0.921c-0.12-.094-0.25-0.168-0.38-0.255a6.49,6.49,0,0,0-.76-0.476c-0.16-.084-0.33-0.15-0.5-0.224a6.982,6.982,0,0,0-.78-0.3c-0.18-.055-0.36-0.1-0.54-0.14a7.955,7.955,0,0,0-.87-0.141c-0.11-.012-0.21-0.047-0.33-0.053-0.17-.011-0.34-0.016-0.52-0.014l-49.94.414-6.28.052a7.333,7.333,0,0,0-1.11.092c-0.05.007-.09,0.032-0.14,0.04a7.489,7.489,0,0,0-1.69.5c-0.09.041-.18,0.1-0.27,0.143a7.151,7.151,0,0,0-1.23.763c-0.13.1-.26,0.2-0.39,0.309a7.677,7.677,0,0,0-1.04,1.106,2.1,2.1,0,0,0-.15.17,7.831,7.831,0,0,0-.84,1.548c-0.02.054-.06,0.1-0.08,0.151a5.842,5.842,0,0,0-.16.575c-0.05.157-.1,0.308-0.14,0.468a7.526,7.526,0,0,0-.18,1.338q-0.06,1.8-.15,3.6-0.135,2.959-.32,5.916l-3.74,60.267A7.486,7.486,0,0,0,1294.29,352.932ZM1084.36,668.68l27.7-8.564a5.6,5.6,0,0,0,3.7-7.017l-2.55-8.266-4.49-30.651a3.741,3.741,0,0,0-3.71-3.775,3.8,3.8,0,0,0-1.14.167l-6.19,1.914-32.79,4.362a3.746,3.746,0,0,0-3.71,2.639l-1.45,4.738q-0.87,2.831-1.58,5.705c-0.16.637-.29,1.28-0.43,1.918-0.3,1.281-.59,2.562-0.84,3.852-0.15.771-.26,1.547-0.39,2.321-0.2,1.168-.4,2.335-0.56,3.51-0.11.826-.2,1.654-0.29,2.482-0.09.771-.2,1.537-0.28,2.31-0.02.319-.03,0.64-0.05,0.959-0.11,1.242-.17,2.486-0.23,3.732-0.05.894-.1,1.787-0.12,2.682-0.03,1.3-.02,2.6,0,3.9,0.01,0.839,0,1.678.03,2.517,0.05,1.437.15,2.873,0.26,4.31,0.05,0.7.08,1.4,0.14,2.1q0.3,3.2.79,6.383a3.735,3.735,0,0,0,4.26,3.129,4.043,4.043,0,0,0,.54-0.124Zm-311.69,140.2a5.6,5.6,0,0,0,3.2.046c57.708-16.26,115.374-32.541,172.824-49.693,5.694-1.7,11.574-3.5,16.08-7.372,6.66-5.725,9.091-14.829,11.215-23.351q29.77-119.437,68.532-236.388,19.56-59.01,41.37-117.243c13.72-36.637,28.55-70.785,31.41-110.241,0.15-2.148.24-4.45-.88-6.292-1.47-2.43-4.52-3.292-7.28-3.944q-40.7-9.6-81.92-16.649c-10.67-1.825-63.761-17.532-64.94.987L929.5,251.651l-8.675-8.2a22.441,22.441,0,0,0-18.174-5.966l-24.006,2.97c-16.55,2.049-17.966,22.089-19.907,35l-0.734,4.774,1.223-.086-1.224.094L826.263,486.752l-1.61,10.476-29.5,191.9L768.993,801.853A5.609,5.609,0,0,0,772.67,808.884ZM1137.89,960.3a5.461,5.461,0,0,0-.58-0.07l-76.51-5.057a3.737,3.737,0,0,0-3.97,3.4l-3.62,41.128-1.07,12.046-7.03,79.83a5.605,5.605,0,0,0,4.77,6.04q37.77,5.565,75.73,9.72c4.84,0.53,5.97-3.46,6.26-7.22q0.615-8.025,1.23-16.07,1.23-16.08,2.47-32.15,2.46-32.145,4.93-64.3,0.645-8.253,1.27-16.507C1142.1,966.861,1143.68,961.3,1137.89,960.3Zm245.54-6.726a23.012,23.012,0,0,0-4.05-.453c-26.88-.9-53.81-1.806-80.66-0.211-24.41,1.451-48.62,4.959-72.95,7.306-12.42,1.2-24.88,2.132-37.36,2.308-7.47.105-27.72-4.678-33.54,0.275-6.82,5.8-4.48,32.923-5.18,41.582q-3.855,47.535-7.12,95.1c-1.14,16.58,29.21,12.41,41.06,13.37q30.27,2.445,60.61,3.98c14.75,0.75,29.57,1.7,44.34,1.85,15.26,0.16,30.5-1.28,45.76-.66,8.38,0.35,16.9,1.3,25.06-.64a36.852,36.852,0,0,0,25.36-21.99c3.08-7.87,3.32-16.52,3.51-24.96q1.185-52.02,2.42-104.036C1390.86,959.073,1389.64,954.9,1383.43,953.573ZM964.238,774.691c-2.133-1.6-5.136-.974-7.711-0.271L850.705,803.3l-53.534,14.608c-10.187,2.781-21.675,3.2-30.812,8.988-10.691,6.776-11.024,18.24-14.83,29.586-8.79,26.207-20.951,51.8-23.126,79.724-3.818,49.029,27.058,100.727,75.052,115.2,20.511,6.18,41.49,10.47,62.545,14.32,11.672,2.13,56.925,16.84,66.443,11.03,23.17-14.22,11.113-88.312,11.312-110.677,0.54-60.327,11.205-122.976,22.153-182.281C966.5,780.587,966.842,776.65,964.238,774.691ZM1259.25,610.647a3.76,3.76,0,0,0-.71.3c-1.22.674-2.42,1.372-3.61,2.093L1225.8,630.7q-2.88,1.747-5.86,3.326a3.738,3.738,0,0,0-1.82,4.41l10.9,35.245a5.6,5.6,0,0,0,.4.964c0.06,0.116.14,0.219,0.21,0.33,0.08,0.132.15,0.272,0.24,0.4,0.04,0.05.09,0.091,0.13,0.139,0.07,0.1.16,0.189,0.24,0.281a4.945,4.945,0,0,0,.47.457c0.09,0.075.17,0.15,0.26,0.22a5.409,5.409,0,0,0,.64.418c0.06,0.036.12,0.08,0.19,0.115a5.585,5.585,0,0,0,.9.37c0.08,0.026.17,0.039,0.25,0.061a5.759,5.759,0,0,0,.71.143c0.12,0.015.24,0.023,0.35,0.031a5.673,5.673,0,0,0,.69,0c0.11-.007.22-0.009,0.33-0.022a5.723,5.723,0,0,0,1-.2l38.24-11.823a5.779,5.779,0,0,0,.95-0.4c0.09-.052.19-0.112,0.28-0.169a4.394,4.394,0,0,0,.56-0.386c0.1-.073.19-0.145,0.28-0.224a4.7,4.7,0,0,0,.5-0.519c0.06-.066.12-0.125,0.18-0.193a5.367,5.367,0,0,0,.53-0.815,1.628,1.628,0,0,0,.09-0.2,5.718,5.718,0,0,0,.29-0.7c0.04-.109.07-0.22,0.1-0.331,0.05-.211.09-0.423,0.12-0.641,0.02-.123.04-0.245,0.05-0.369,0-.062.02-0.122,0.02-0.185a3.711,3.711,0,0,0-.02-0.471c-0.01-.128,0-0.255-0.02-0.384a5.188,5.188,0,0,0-.21-1.027l-14.04-45.422A3.744,3.744,0,0,0,1259.25,610.647Zm13.05,190.338,41.81-12.928a3.745,3.745,0,0,0,2.47-4.679l-10.39-33.592-0.66-2.144-1.66-5.36-0.66-2.144-5.02-16.232a3.744,3.744,0,0,0-4.68-2.469l-41.81,12.929a3.736,3.736,0,0,0-2.47,4.678l5.02,16.232,0.66,2.144,1.66,5.361,0.66,2.143,10.39,33.592A3.739,3.739,0,0,0,1272.3,800.985Zm56.1-17.349,26.05-8.055a3.744,3.744,0,0,0,2.48-4.664l-10.26-33.648-4.86-15.95-0.23-.755-2.29-8.991c0.3,1.452.63,2.9,1,4.332a1.093,1.093,0,0,1-.05-0.17c-0.35-1.38-.66-2.768-0.95-4.162a3.743,3.743,0,0,0-4.42-2.906,3.577,3.577,0,0,0-.35.09l-26.72,8.26a3.745,3.745,0,0,0-2.47,4.679l1.65,5.309,5.69,18.427,0.67,2.144,10.38,33.592A3.742,3.742,0,0,0,1328.4,783.636Zm9.62-115.337c-0.02-.13-0.06-0.252-0.08-0.378-0.05-.211-0.1-0.42-0.17-0.624a3.1,3.1,0,0,0-.16-0.4,5.352,5.352,0,0,0-.26-0.533c-0.07-.129-0.15-0.252-0.23-0.374a2.653,2.653,0,0,0-.15-0.24c-0.07-.094-0.15-0.173-0.23-0.261a2.228,2.228,0,0,0-.23-0.264,5.417,5.417,0,0,0-.55-0.5,2.312,2.312,0,0,0-.19-0.154,5.476,5.476,0,0,0-.83-0.5c-0.08-.04-0.17-0.068-0.25-0.1a5.674,5.674,0,0,0-.69-0.248c-0.11-.031-0.22-0.056-0.33-0.08a5.458,5.458,0,0,0-.76-0.112c-0.06-.005-0.12-0.024-0.18-0.027-0.03,0-.06,0-0.09,0a5.436,5.436,0,0,0-.65.027c-0.09.007-.18,0-0.27,0.018a5.8,5.8,0,0,0-.91.2l-34.25,10.592a5.587,5.587,0,0,0-.94.4c-0.1.052-.19,0.112-0.29,0.168a5.4,5.4,0,0,0-.56.387c-0.1.073-.19,0.145-0.28,0.224a5.841,5.841,0,0,0-.5.519c-0.06.066-.12,0.125-0.18,0.193a5.318,5.318,0,0,0-.53.815,1.64,1.64,0,0,0-.09.2,5.783,5.783,0,0,0-.29.7c-0.04.109-.07,0.218-0.1,0.33-0.05.21-.09,0.422-0.12,0.64-0.02.124-.04,0.246-0.05,0.371,0,0.062-.02.121-0.02,0.184-0.01.156,0.02,0.312,0.02,0.468,0.01,0.13,0,.257.02,0.388a5.164,5.164,0,0,0,.21,1.026l8.28,26.772a3.733,3.733,0,0,0,4.67,2.469l28.98-8.959a3.754,3.754,0,0,0,2.63-3.821l-0.12-11.253,0.78-17.2A6.12,6.12,0,0,0,1338.02,668.3Zm-318.14,91.306,0.03,0.091,9.98,32.289a3.744,3.744,0,0,0,4.68,2.469l43.6-13.481a3.737,3.737,0,0,0,2.47-4.679L1071,745.105a3.744,3.744,0,0,0-4.59-2.5l-43.94,12.38A3.743,3.743,0,0,0,1019.88,759.605Zm223.63-18.793a3.739,3.739,0,0,0-4.68-2.469l-32.16,9.946-40.74,12.6a5.606,5.606,0,0,0-3.7,7.018l6.37,20.624,0.67,2.144,81.87-25.18-1.95-6.3Zm-64.08,82.864a5.611,5.611,0,0,0,6.92,3.881c0.05-.013.09-0.026,0.14-0.041l40.78-12.608,32.16-9.945a3.745,3.745,0,0,0,2.47-4.679l-9.14-29.557-81.84,25.3,0.67,2.144,6.99,22.627C1178.88,821.756,1179.16,822.715,1179.43,823.676ZM969.771,825.74c-0.466,1.641-.7,3.421-1.008,5.1q-1.789,9.885-3.391,19.8-3.187,19.833-5.561,39.787c-0.328,2.755.363,6.14,3.78,5.9,0.031,0,.062,0,0.093,0a3.8,3.8,0,0,0,.755-0.15l78.431-24.251a3.744,3.744,0,0,0,2.47-4.678l-1.66-5.361-0.66-2.144-16.07-51.967a3.744,3.744,0,0,0-4.68-2.469l-47.418,14.661C971.819,820.905,970.51,823.149,969.771,825.74ZM1254.2,581.669a3.729,3.729,0,0,0-4.02-2.608c-2.54.308-5.08,0.533-7.64,0.674l-36.08,1.982c-0.34.019-.69,0.04-1.04,0.064a3.735,3.735,0,0,0-3.48,3.98,3.581,3.581,0,0,0,.16.857l11.05,35.765a3.742,3.742,0,0,0,4.68,2.468,3.872,3.872,0,0,0,.75-0.322c0.86-.492,1.72-1,2.57-1.51l29.13-17.655q3.36-2.033,6.84-3.838a3.747,3.747,0,0,0,1.86-4.427Zm-4.49,146.264,41.81-12.928a3.744,3.744,0,0,0,2.47-4.678l-8.28-26.774a5.606,5.606,0,0,0-.41-0.964c-0.06-.115-0.13-0.218-0.2-0.328-0.08-.133-0.16-0.273-0.25-0.4-0.04-.05-0.08-0.091-0.12-0.139-0.08-.1-0.16-0.189-0.25-0.281-0.15-.162-0.3-0.314-0.46-0.456-0.09-.075-0.18-0.151-0.27-0.221a5.165,5.165,0,0,0-.63-0.417c-0.07-.037-0.13-0.081-0.19-0.115a5.589,5.589,0,0,0-.9-0.371c-0.09-.026-0.17-0.039-0.26-0.061a5.409,5.409,0,0,0-.71-0.143c-0.12-.015-0.23-0.023-0.35-0.031a5.51,5.51,0,0,0-.68,0c-0.11.006-.22,0.008-0.33,0.021a5.565,5.565,0,0,0-1.01.2l-38.24,11.823a5.67,5.67,0,0,0-.94.4c-0.1.053-.19,0.112-0.29,0.169a6.281,6.281,0,0,0-.56.387c-0.09.073-.18,0.145-0.27,0.223a5.963,5.963,0,0,0-.51.52,2.315,2.315,0,0,0-.17.192,6.265,6.265,0,0,0-.54.816c-0.03.064-.06,0.133-0.09,0.2a5.76,5.76,0,0,0-.29.707c-0.03.108-.06,0.217-0.09,0.328a4.649,4.649,0,0,0-.13.644c-0.02.122-.03,0.243-0.04,0.367-0.01.063-.02,0.122-0.03,0.185,0,0.157.02,0.314,0.03,0.471,0,0.128,0,.255.01,0.384a6,6,0,0,0,.21,1.027l8.28,26.773A3.74,3.74,0,0,0,1249.71,727.933Zm48.74-193.308-46.43-2.349a3.736,3.736,0,0,0-3.92,3.547,3.547,3.547,0,0,0,.16,1.294l9.18,29.689a3.738,3.738,0,0,0,4.46,2.529q3.195-.779,6.33-1.748l23.2-7.174a108.04,108.04,0,0,0,12.25-4.618,5.609,5.609,0,0,0,3.07-6.779l-3.23-10.444A5.6,5.6,0,0,0,1298.45,534.625Zm-317.171,235.1-0.17.8-7.754,36.935-0.024.109a3.741,3.741,0,0,0,4.766,4.342l42.183-13.043a3.744,3.744,0,0,0,2.47-4.678l-10.07-32.56-0.03-.09a3.739,3.739,0,0,0-4.59-2.5l-22.812,6.428A5.608,5.608,0,0,0,981.279,769.726ZM1370.95,573.409a3.46,3.46,0,0,0-.16-0.9l-9.98-32.268a3.728,3.728,0,0,0-3.38-2.631l-41.77-2.113a3.735,3.735,0,0,0-3.92,3.546,3.773,3.773,0,0,0,.16,1.294l11.32,36.6a3.739,3.739,0,0,0,3.78,2.63l40.42-2.222A3.731,3.731,0,0,0,1370.95,573.409Zm-80.99-78.7a24.323,24.323,0,0,0-17.39-16.42l-17.17-4.244a11.223,11.223,0,0,0-9.36,1.869l-60.44,44.65a5.612,5.612,0,0,0-2.02,6.17l1.26,4.093a3.743,3.743,0,0,0,4.68,2.468l15.35-4.747,34.94-4.378,54.86,2.775a3.735,3.735,0,0,0,3.92-3.546,3.547,3.547,0,0,0-.16-1.294Zm82.59-135.919,52.04,3.893a7.369,7.369,0,0,0,1.33-.034c0.13-.012.25-0.028,0.37-0.046a7.668,7.668,0,0,0,1.16-.267c0.03-.012.07-0.018,0.11-0.03a7.288,7.288,0,0,0,.93-0.387c0.08-.04.15-0.091,0.22-0.132,0.11-.057.21-0.116,0.31-0.178a7.828,7.828,0,0,0,.89-0.632c0.05-.04.1-0.075,0.15-0.117a7.028,7.028,0,0,0,.87-0.908c0.07-.084.13-0.172,0.2-0.259a7.678,7.678,0,0,0,.57-0.893,2.29,2.29,0,0,0,.13-0.222,7.01,7.01,0,0,0,.46-1.174c0.04-.1.06-0.212,0.09-0.32a7.69,7.69,0,0,0,.21-1.177c0-.043.02-0.082,0.02-0.126s0.01-.067.01-0.1l4.58-74.806A13.094,13.094,0,0,0,1424.93,267q-0.15-.009-0.3-0.015-8.43-.318-16.86-0.249l-30.02.249a7.448,7.448,0,0,0-1.39.146c-0.16.032-.31,0.093-0.47,0.135a6.88,6.88,0,0,0-.84.256c-0.18.07-.34,0.165-0.51,0.249a7.571,7.571,0,0,0-.69.363,5.271,5.271,0,0,0-.47.345,7.08,7.08,0,0,0-.6.468c-0.14.133-.27,0.281-0.41,0.425a7.261,7.261,0,0,0-.49.563c-0.12.16-.23,0.332-0.34,0.5-0.13.207-.26,0.413-0.37,0.633a6.127,6.127,0,0,0-.26.579c-0.09.225-.18,0.451-0.25,0.687-0.06.208-.1,0.421-0.15,0.637-0.03.145-.08,0.282-0.1,0.431q-0.045.3-.06,0.6l-4.71,76.857A7.483,7.483,0,0,0,1372.55,358.788Zm-414.7,550.078q-1.268,13.1-2.164,26.224a5.611,5.611,0,0,0,5.216,5.98h0.012l85.777,5.67a3.738,3.738,0,0,0,3.97-3.4l2.46-27.893a91.579,91.579,0,0,0-3.58-34.6,3.74,3.74,0,0,0-4.66-2.5,0.045,0.045,0,0,0-.02.006l-21.77,6.73-35.738,11.05-25.575,7.908A5.612,5.612,0,0,0,957.849,908.866ZM1234.54,531.52c-1.19,0-2.37.092-3.56,0.139-1.13.046-2.27,0.047-3.4,0.133-1.39.106-2.76,0.3-4.14,0.472-0.93.113-1.86,0.177-2.78,0.317-1.82.277-3.62,0.649-5.42,1.032-0.47.1-.95,0.162-1.42,0.27q-3.39.779-6.74,1.811l-15.35,4.747a3.744,3.744,0,0,0-2.47,4.678l7.86,25.414a5.607,5.607,0,0,0,5.84,3.933q1.545-.134,3.09-0.218l36.08-1.983q2.19-.12,4.35-0.328a3.736,3.736,0,0,0,3.37-4.078,3.219,3.219,0,0,0-.15-0.75l-9.78-31.636a4.984,4.984,0,0,0-.34-0.846c-0.04-.092-0.11-0.174-0.16-0.263a4.907,4.907,0,0,0-.3-0.5c-0.07-.1-0.15-0.176-0.22-0.266-0.12-.139-0.22-0.283-0.35-0.409-0.09-.089-0.19-0.162-0.28-0.245-0.13-.111-0.25-0.23-0.39-0.33-0.11-.085-0.24-0.151-0.36-0.227s-0.25-.168-0.38-0.236-0.24-.1-0.36-0.153c-0.16-.065-0.3-0.14-0.46-0.191-0.11-.039-0.24-0.057-0.36-0.089-0.17-.043-0.33-0.1-0.51-0.123-0.12-.02-0.25-0.019-0.38-0.031-0.17-.015-0.34-0.041-0.51-0.04h-0.02Zm-69.19,364.849a6.565,6.565,0,0,0,.32-0.751l1.67-4.769a107.124,107.124,0,0,0,5.58-44.993,5.615,5.615,0,0,0-6.1-5.082,5.71,5.71,0,0,0-1.15.227l-50.06,15.478a3.738,3.738,0,0,0-2.46,4.678l5.07,16.421a5.615,5.615,0,0,0,3.99,3.783l8.87,3.387,26.69,13.986A5.616,5.616,0,0,0,1165.35,896.369ZM1015.52,617.282q-9.3,33.657-16.478,67.845l-0.925,4.405a3.74,3.74,0,0,0,4.763,4.343l45.11-13.947a3.739,3.739,0,0,0,2.58-4.2l3.44-53.255,0.56-1.846a3.733,3.733,0,0,0-3.25-4.825l-29.91-2.612A5.608,5.608,0,0,0,1015.52,617.282Zm46.3,329.907a6.2,6.2,0,0,0,2.7.76l75.37,4.931c10.47,0.685,15.25-23.661,17.72-31.639,1.16-3.757,2.21-7.842.9-11.552-1.55-4.412-5.95-7.058-10.03-9.34-19.91-11.128-34.89-16.351-57.17-9.421q-11.73,3.647-23.45,7.293c-9.61,2.991-6.56,9.613-7.29,17.88C1059.92,923.515,1054.48,943.048,1061.82,947.189Zm997.41-636.184a23.14,23.14,0,0,0-5.86-1.3q-40.095-4.385-80.36-6.786-20.13-1.2-40.28-1.9c-7.08-.246-27.62-5.123-30.62,4.118l-0.09.3-20.23,62.35q-0.75,2.329-1.4,4.69a7.637,7.637,0,0,0,5.36,9.4c0.21,0.06.44,0.111,0.66,0.151l80.14,14.528,64.56,11.7,0.77,0.14a7.678,7.678,0,0,0,8.74-5.4l23.09-79.737C2065.62,316.684,2064.1,312.907,2059.23,311.005ZM1442.27,444.784c0.05,0.23.1,0.456,0.17,0.678,0.04,0.116.07,0.23,0.12,0.343a5.4,5.4,0,0,0,.31.668c0.04,0.08.08,0.162,0.12,0.239a6.362,6.362,0,0,0,.59.806c0.05,0.057.11,0.106,0.16,0.161a6.479,6.479,0,0,0,.57.53c0.09,0.074.19,0.141,0.28,0.209a6.5,6.5,0,0,0,.57.354c0.11,0.061.22,0.122,0.34,0.176,0.06,0.026.11,0.062,0.17,0.087s0.14,0.028.2,0.053a5.775,5.775,0,0,0,1.19.309c0.11,0.017.22,0.043,0.33,0.054,0.06,0,.11.025,0.17,0.028a5.821,5.821,0,0,0,1.38-.081,187.986,187.986,0,0,0,33.72-9.4l11.64-4.029a5.746,5.746,0,0,0,4.03-5.551l0.25-9.367,2.46-37.17a5.739,5.739,0,0,0-5.31-6.1l-41.55-3.1a7.722,7.722,0,0,0-1.37.035c-0.12.013-.25,0.028-0.37,0.047a7.823,7.823,0,0,0-1.19.274c-0.04.012-.08,0.017-0.11,0.03a7.451,7.451,0,0,0-.96.4c-0.08.04-.15,0.092-0.23,0.135-0.1.058-.2,0.119-0.31,0.181a8.311,8.311,0,0,0-.92.647c-0.04.042-.1,0.077-0.15,0.119a7.964,7.964,0,0,0-.89.928c-0.07.086-.14,0.176-0.2,0.266a6.964,6.964,0,0,0-.59.913c-0.04.077-.09,0.148-0.13,0.226a7.313,7.313,0,0,0-.48,1.2c-0.03.107-.06,0.216-0.08,0.325a6.991,6.991,0,0,0-.22,1.207c0,0.044-.02.083-0.02,0.126a0.36,0.36,0,0,1-.01.1l-2.98,48.615-0.8,12.944a5.216,5.216,0,0,0,.05,1.047C1442.23,444.564,1442.25,444.673,1442.27,444.784Zm6.49-85.325a6.648,6.648,0,0,0,.22.89,5.393,5.393,0,0,0,.22.542c0.11,0.254.21,0.506,0.34,0.747,0.1,0.176.21,0.339,0.32,0.506,0.15,0.224.3,0.444,0.47,0.651,0.13,0.156.27,0.3,0.41,0.446a5.924,5.924,0,0,0,.58.548c0.15,0.133.32,0.256,0.48,0.377,0.22,0.152.44,0.291,0.67,0.422,0.18,0.106.37,0.206,0.56,0.3a7.8,7.8,0,0,0,.74.286c0.21,0.072.41,0.143,0.63,0.2,0.08,0.021.16,0.057,0.24,0.076a7.683,7.683,0,0,0,1.04.149l102.03,7.617a7.662,7.662,0,0,0,8.22-7.057v-0.031l2.86-40.352,3.1-43.639a7.652,7.652,0,0,0-7.11-8.169l-40.84-2.883-9.66.851-44.73-3.157a15.315,15.315,0,0,0-16.37,14.18,0.708,0.708,0,0,0-.01.145l-4.57,74.4a7.125,7.125,0,0,0,.06,1.464C1448.68,359.132,1448.73,359.293,1448.76,359.459Zm132.1,68.206a19.042,19.042,0,0,0,8.5,2.61c29.95,2.894,59.9,5.816,89.81,9.152a8.921,8.921,0,0,0,4.41-.251c2.24-.934,3.33-3.521,3.64-5.935,1.39-10.885,2.3-21.874,3.59-32.785,0.37-3.152.71-6.529-.78-9.337-3.07-5.817-21.18-2.81-27.25-3.057l-64.93-2.653c-5.13-.383-19.14-4.062-22.22,1.244-1.24,2.135-1.23,4.748-1.18,7.223C1574.7,406.487,1571.24,421.562,1580.86,427.665Zm216.71,313.312q0.795-18.061,1.16-36.138c0.04-2.3.06-4.714-1.04-6.739-4.44-8.246-55.22,7.289-64.77,9.172l-65.17,12.855a5.743,5.743,0,0,0-4.47,4.3l-0.46,1.905-3.31,13.849c-7.89,33.068-16.25,65.718-17.46,99.894-0.09,2.359-.11,4.862,1.09,6.9,4.92,8.366,34.22,4.344,43.07,4.541l47.99,1.065,33.25,0.738c8.94,0.2,20.62,3.224,21.99-8.907Q1795.29,792.854,1797.57,740.977ZM1573.09,622.788a5.468,5.468,0,0,0-.04-1.07c-0.01-.132-0.05-0.257-0.07-0.387-0.03-.158-0.05-0.318-0.09-0.473-0.02-.061-0.05-0.116-0.07-0.176-0.04-.122-0.08-0.239-0.13-0.357a4.563,4.563,0,0,0-.28-0.607c-0.05-.1-0.11-0.207-0.17-0.307a6.9,6.9,0,0,0-.45-0.631c-0.05-.058-0.09-0.121-0.14-0.178a5.763,5.763,0,0,0-.73-0.684c-0.07-.055-0.14-0.1-0.22-0.151a5.527,5.527,0,0,0-.62-0.4c-0.11-.057-0.22-0.108-0.33-0.158a5.627,5.627,0,0,0-.65-0.251c-0.11-.035-0.21-0.073-0.32-0.1a5.763,5.763,0,0,0-1.04-.175,299.722,299.722,0,0,0-52.85,1.108,5.726,5.726,0,0,0-.96.192c-0.1.029-.2,0.073-0.3,0.109a6,6,0,0,0-.59.229c-0.11.055-.22,0.119-0.33,0.181-0.16.092-.32,0.186-0.48,0.294-0.1.075-.21,0.155-0.31,0.237-0.14.114-.28,0.234-0.41,0.363q-0.135.135-.27,0.279c-0.12.138-.24,0.281-0.35,0.429-0.07.106-.15,0.209-0.22,0.319a4.645,4.645,0,0,0-.27.488c-0.06.116-.12,0.229-0.17,0.349a5.344,5.344,0,0,0-.2.557c-0.03.117-.08,0.231-0.1,0.351l-0.03.067a6.509,6.509,0,0,0-.12.88L1507.93,651a3.827,3.827,0,0,0,3.57,4.069l55.37,3.651a3.833,3.833,0,0,0,4.08-3.563Zm136.56-244.313a23.034,23.034,0,0,0,5.49.6l137.23,1.674c4.99,0.061,10.44-.035,14.26-3.227,2.85-2.373,4.23-6.021,5.51-9.5,4.1-11.236,30.78-61.8,16.12-70.153-2.55-1.453-5.6-1.658-8.53-1.83l-83.04-4.853-42.48-2.484c-10.02-.585-27.62-5.272-37.02-0.96-8.95,4.112-7.8,38.475-8.75,47.313q-1.515,14.181-3.04,28.364C1704.5,371.93,1703.51,376.85,1709.65,378.475Zm-13.63,144.981,49.61,3.272,7.7,0.069a34.144,34.144,0,0,0,29-15.617,3.824,3.824,0,0,0-1.15-5.285c-0.06-.037-0.11-0.072-0.17-0.1a112.175,112.175,0,0,0-48.12-14.448l-34.83-2.3a5.748,5.748,0,0,0-6.12,5.346v0.059l-1.28,22.964A5.733,5.733,0,0,0,1696.02,523.456Zm45.28,86.625a5.789,5.789,0,0,0,.36-0.567c0.06-.111.12-0.22,0.17-0.336a1.242,1.242,0,0,0,.09-0.168,3.783,3.783,0,0,0,.15-0.455,2.614,2.614,0,0,0,.13-0.376,6.242,6.242,0,0,0,.18-1.054h0l2.59-39.193a3.824,3.824,0,0,0-3.37-4.05q-4.74-.554-9.49-0.868l-33.08-2.181c-1.71-.112-3.41-0.2-5.12-0.267a5.736,5.736,0,0,0-5.96,5.413l-2.1,37.478a7.405,7.405,0,0,0,.05,1.053c0.02,0.128.05,0.249,0.07,0.374,0.03,0.147.05,0.3,0.09,0.443a1.63,1.63,0,0,0,.08.2c0.04,0.124.08,0.244,0.13,0.364a6.065,6.065,0,0,0,.28.6c0.06,0.1.11,0.206,0.17,0.305a4.663,4.663,0,0,0,.48.653c0.04,0.049.07,0.1,0.11,0.15a6.567,6.567,0,0,0,.73.678c0.08,0.059.16,0.107,0.24,0.162a4.55,4.55,0,0,0,.61.381c0.1,0.058.21,0.109,0.32,0.159a6,6,0,0,0,.65.248c0.11,0.034.21,0.072,0.33,0.1a5.594,5.594,0,0,0,1.03.171l45.04,2.971a5.616,5.616,0,0,0,1.05-.036c0.11-.013.22-0.037,0.33-0.056a6.075,6.075,0,0,0,.69-0.163c0.11-.036.23-0.072,0.34-0.115a5.779,5.779,0,0,0,.67-0.309c0.08-.041.16-0.075,0.24-0.121a5.333,5.333,0,0,0,.81-0.582,2.012,2.012,0,0,0,.16-0.16,6.167,6.167,0,0,0,.54-0.566C1741.16,610.271,1741.23,610.176,1741.3,610.081ZM1506.11,736.424a3.868,3.868,0,0,0,1.39-.162l18.45-5.693,11.67-3.6,26.1-6.436a3.832,3.832,0,0,0,3.13-3.507l3.18-48.134a3.821,3.821,0,0,0-3.57-4.068l-55.36-3.652a3.829,3.829,0,0,0-4.08,3.564l-3.5,52.788-0.98,14.831A3.826,3.826,0,0,0,1506.11,736.424ZM1424.15,755.4a6.066,6.066,0,0,0,.24.852c0.05,0.134.11,0.26,0.17,0.39a6.028,6.028,0,0,0,.39.7c0.08,0.127.17,0.248,0.26,0.369a5.742,5.742,0,0,0,.56.617,1.6,1.6,0,0,0,.19.212c0.03,0.027.06,0.04,0.09,0.066a5.835,5.835,0,0,0,1.11.744c0.05,0.023.1,0.035,0.14,0.056a5.9,5.9,0,0,0,1.1.384c0.14,0.035.28,0.053,0.43,0.077s0.31,0.074.48,0.087c0.15,0.011.3-.008,0.46-0.008,0.13,0,.25,0,0.38-0.007a5.834,5.834,0,0,0,1.31-.224l59.09-18.23a5.738,5.738,0,0,0,4.04-5.1l0.59-8.868,0.13-2.06,0.34-5.025a3.9,3.9,0,0,0-.05-0.84v-0.048c-0.01-.034-0.02-0.061-0.03-0.094a4.117,4.117,0,0,0-.31-0.924c-0.03-.054-0.05-0.111-0.08-0.164a3.569,3.569,0,0,0-.6-0.817c-0.05-.052-0.1-0.1-0.15-0.146a3.655,3.655,0,0,0-.8-0.58c-0.02-.012-0.04-0.027-0.06-0.038a3.749,3.749,0,0,0-1-.334c-0.04-.008-0.07-0.032-0.12-0.039-0.12-.021-0.25-0.035-0.37-0.044h-0.01l-5.35-.347-54.05-3.508a5.843,5.843,0,0,0-1.06.037c-0.12.015-.24,0.043-0.36,0.065a6.07,6.07,0,0,0-.66.157c-0.13.041-.25,0.086-0.38,0.135a5.643,5.643,0,0,0-.58.269c-0.12.061-.24,0.118-0.35,0.186-0.04.028-.09,0.048-0.14,0.078-0.08.053-.14,0.127-0.22,0.183a5.451,5.451,0,0,0-.63.53c-0.11.107-.22,0.216-0.32,0.33a7.069,7.069,0,0,0-.48.643,2.868,2.868,0,0,0-.22.36,4.744,4.744,0,0,0-.36.811c-0.04.11-.09,0.214-0.13,0.327a6.29,6.29,0,0,0-.23,1.24l-0.07,1.185-0.35,5.327q-0.96,14.718-2.11,29.422a5.868,5.868,0,0,0,.05,1.261C1424.09,755.174,1424.13,755.284,1424.15,755.4Zm149.63-156.369a5.865,5.865,0,0,0,.36-0.564c0.06-.112.12-0.222,0.18-0.338a1.528,1.528,0,0,1,.09-0.167c0.06-.148.1-0.3,0.15-0.455,0.04-.126.09-0.246,0.12-0.376a5.4,5.4,0,0,0,.18-1.056l2.61-39.425a3.828,3.828,0,0,0-3.57-4.069l-53.45-3.524a5.748,5.748,0,0,0-6.12,5.345l-2.76,41.622a5.921,5.921,0,0,0,.08,1.337c0.03,0.121.06,0.236,0.09,0.355a5.935,5.935,0,0,0,.31.936,1.6,1.6,0,0,0,.07.209,2.642,2.642,0,0,0,.14.247c0.06,0.109.12,0.216,0.18,0.322a6.125,6.125,0,0,0,.42.58c0.06,0.075.12,0.154,0.18,0.227a6.349,6.349,0,0,0,.73.684c0.04,0.033.09,0.057,0.13,0.089a5.966,5.966,0,0,0,.72.449c0.1,0.055.2,0.1,0.31,0.148a5.3,5.3,0,0,0,.66.252c0.1,0.034.21,0.069,0.32,0.1a5.693,5.693,0,0,0,.96.161c0.02,0,.04.008,0.06,0.01h0.01a5.532,5.532,0,0,0,.91-0.013l50.45-.721,0.44,0.029a5.7,5.7,0,0,0,1.05-.036c0.12-.013.23-0.037,0.34-0.056a5.71,5.71,0,0,0,.68-0.164c0.12-.035.23-0.071,0.34-0.113a6.1,6.1,0,0,0,.68-0.31c0.07-.042.16-0.076,0.23-0.121a6.07,6.07,0,0,0,.82-0.583c0.05-.049.1-0.106,0.15-0.157a4.366,4.366,0,0,0,.54-0.567C1573.65,599.222,1573.71,599.127,1573.78,599.031Zm279.26-139.95,10.52-51.447,1.84-9a7.661,7.661,0,0,0-5.98-9.023,7.911,7.911,0,0,0-1.48-.154l-18.96-.135-22.12-.159-107.2-.768a7.662,7.662,0,0,0-7.68,6.834l-2.53,23.526-1.84,17.205a5.732,5.732,0,0,0,5,6.3l143.82,21.32A5.746,5.746,0,0,0,1853.04,459.081Zm-163.45,77.426-0.49,8.849a5.738,5.738,0,0,0,5.42,6.046l0.09,0c1.67,0.067,3.35.156,5.03,0.267l33.07,2.18q4.59,0.3,9.17.82c0.12,0.012.24,0,.36,0s0.26,0.012.39,0a3.231,3.231,0,0,0,.37-0.071c0.12-.024.25-0.038,0.37-0.073s0.23-.1.35-0.144a3.262,3.262,0,0,0,.33-0.138,3.3,3.3,0,0,0,.32-0.206c0.1-.066.2-0.123,0.3-0.2s0.17-.17.26-0.256,0.18-.164.26-0.257,0.14-.2.21-0.3a3.565,3.565,0,0,0,.21-0.3,2.216,2.216,0,0,0,.15-0.347c0.05-.114.11-0.223,0.15-0.343a2.4,2.4,0,0,0,.08-0.376,2.215,2.215,0,0,0,.08-0.359v-0.038s0,0,.01-0.006a0.6,0.6,0,0,1,.01-0.134l0.85-12.809a3.835,3.835,0,0,0-3.58-4.068l-47.65-3.143a5.748,5.748,0,0,0-6.12,5.346v0.06Zm111.32,77.505a5.789,5.789,0,0,0,.36-0.567c0.06-.11.12-0.22,0.17-0.335a1.305,1.305,0,0,0,.09-0.168c0.07-.148.1-0.3,0.16-0.456,0.04-.125.09-0.246,0.12-0.375a6.265,6.265,0,0,0,.18-1.056l2.01-30.337a3.832,3.832,0,0,0-2.94-3.972l-25.84-6.17-11.91-2.843c-2.56-.613-5.15-1.173-7.74-1.677a3.81,3.81,0,0,0-4.56,3.5l-1.46,22.049-1.05,15.922a5.455,5.455,0,0,0,.03,1.069c0.02,0.132.05,0.258,0.08,0.388a3.848,3.848,0,0,0,.09.472c0.02,0.062.04,0.118,0.06,0.178,0.04,0.122.09,0.239,0.14,0.357a4.588,4.588,0,0,0,.28.609,2.15,2.15,0,0,0,.17.3,5.341,5.341,0,0,0,.45.634c0.05,0.058.09,0.121,0.14,0.176a5.691,5.691,0,0,0,.73.684c0.07,0.055.15,0.1,0.22,0.152a5.508,5.508,0,0,0,.63.395c0.1,0.057.21,0.108,0.32,0.158a5.3,5.3,0,0,0,.66.252c0.1,0.034.21,0.071,0.32,0.1a5.741,5.741,0,0,0,1.03.174l42.02,2.771a5.7,5.7,0,0,0,1.05-.036c0.11-.013.22-0.037,0.33-0.057a5.676,5.676,0,0,0,.69-0.163c0.11-.035.23-0.071,0.34-0.113a6.3,6.3,0,0,0,.68-0.311c0.07-.042.16-0.075,0.23-0.12a5.409,5.409,0,0,0,.81-0.583,1.987,1.987,0,0,0,.16-0.157,6.323,6.323,0,0,0,.54-0.568C1800.77,614.2,1800.84,614.107,1800.91,614.012Zm-129.03-54.97-46.73-3.081-34.42-2.27a3.834,3.834,0,0,0-4.08,3.564l-2.61,39.426a5.741,5.741,0,0,0,5.36,6.1l32.51,2.145,47.12,3.107a5.616,5.616,0,0,0,1.05-.036c0.11-.013.22-0.036,0.34-0.056a5.991,5.991,0,0,0,.68-0.163c0.11-.036.23-0.071,0.34-0.114a5.239,5.239,0,0,0,.67-0.31c0.08-.042.17-0.075,0.24-0.121a5.409,5.409,0,0,0,.81-0.583,1.825,1.825,0,0,0,.16-0.156,6.46,6.46,0,0,0,.54-0.568c0.07-.091.14-0.187,0.21-0.283a5.743,5.743,0,0,0,.36-0.564c0.06-.111.12-0.222,0.18-0.338,0.02-.057.06-0.108,0.08-0.167,0.06-.139.1-0.287,0.15-0.43s0.1-.273.13-0.416a5.837,5.837,0,0,0,.14-0.831c0.01-.072.03-0.137,0.04-0.209v-0.06l2.1-37.545A5.748,5.748,0,0,0,1671.88,559.042Zm-92.04,159.005a3.77,3.77,0,0,0,.68-0.016l30.88-1.4,3.1,0.064,7.25,0.149a227.1,227.1,0,0,0,28.66-1.222,5.737,5.737,0,0,0,4.98-4.374l5.17-21.623,2.79-11.7a5.732,5.732,0,0,0-4.26-6.91,5.615,5.615,0,0,0-.95-0.143l-40.42-2.666-34.43-2.271a3.819,3.819,0,0,0-4.07,3.564l-2.95,44.48A3.826,3.826,0,0,0,1579.84,718.047Zm-71.79-267.891q0.315,1.563.66,3.119l1.47,6.517,4.27,18.87,1.84,10.235a5.757,5.757,0,0,0,5.25,4.952l53.31,4.219,0.12,0.009a3.824,3.824,0,0,0,4.12-3.506,3.329,3.329,0,0,0-.04-0.945,92.936,92.936,0,0,0-2.53-10.919l-6.14-20.839-0.15-.511-3.92-21.143a5.745,5.745,0,0,0-5.48-5.277,188.207,188.207,0,0,0-49.12,4.306,5.73,5.73,0,0,0-4.43,6.47C1507.5,447.2,1507.76,448.68,1508.05,450.156Zm60.5,4.662c-0.2-.885-0.41-1.766-0.59-2.656-0.03-.2-0.06-0.4-0.1-0.594C1568.07,452.656,1568.31,453.737,1568.55,454.818Zm113.22,36.548q0.12-4.288.04-8.578c-0.14,2.669-.27,5.337-0.41,8.006q0.735-8.916,1.46-17.831c-0.26,2.3-.51,4.6-0.77,6.9,3.24-12.195,8.57-31.689-8.48-33.476-30.45-3.19-60.92-7.022-91.45-9.566-10.73-1.115-4.57,15.488-3.3,20.287L1589,495.417a8.66,8.66,0,0,0,1.91,4.109c6.7,6.648,25.22,10.258,34.17,13.354,11.64,4.028,42.86,18.283,52.93,5.685,1.6-2,2.01-4.676,2.32-7.22Q1681.53,501.4,1681.77,491.366Zm154.11,9.9a109.96,109.96,0,0,0,11.78-22.786,5.726,5.726,0,0,0-3.36-7.389,5.942,5.942,0,0,0-1.04-.284q-17.325-2.976-34.67-5.754l-0.27-.041q-18.3-2.928-36.63-5.629c-0.33-.049-0.66-0.1-0.99-0.152-7.48-1.1-14.96-2.131-22.44-3.177-3.79-.529-7.57-1.091-11.35-1.606q-17.445-2.372-34.92-4.546a5.74,5.74,0,0,0-6.41,4.983c-0.01.033-.01,0.065-0.02,0.1l-0.52,4.848-1.11,10.4-0.3,2.753c-0.13,1.228-.26,2.457-0.38,3.687a5.748,5.748,0,0,0,5.17,6.265c0.06,0.006.12,0.01,0.18,0.014l34.7,2.289,44.01,15.018,15.05,5.416,24.69,16.609a3.849,3.849,0,0,0,5.33-1.034l2.57-3.8-0.11-.073h0l0.11,0.073,5.41-8.009-0.08-.054,0.08,0.053Zm-400.6,54.469a5.751,5.751,0,0,0,7.44,5.831l53.22-16.419c0.58-.18,1.17-0.354,1.75-0.523,0.21-.059.42-0.1,0.62-0.161-0.79.224-1.58,0.441-2.37,0.684l7.35-1.977c0.09-.021.18-0.043,0.26-0.067,0.12-.032.22-0.083,0.34-0.122s0.27-.091.4-0.148c0.15-.065.29-0.142,0.43-0.218,0.12-.066.25-0.128,0.37-0.2s0.26-.186.39-0.284c0.11-.082.22-0.16,0.32-0.249,0.12-.109.23-0.229,0.35-0.348,0.09-.095.18-0.185,0.27-0.286,0.1-.13.2-0.27,0.29-0.408a2.558,2.558,0,0,0,.22-0.315c0.09-.15.16-0.31,0.24-0.469,0.05-.109.11-0.214,0.16-0.327a5.366,5.366,0,0,0,.18-0.564c0.03-.1.07-0.194,0.09-0.3a5.451,5.451,0,0,0,.14-0.908l1.71-25.894a110.48,110.48,0,0,0-2.48-31.715l-3.43-15.175-2.28-10.108-0.03-.1-1.53-8.043a3.83,3.83,0,0,0-4.37-3.2,3.673,3.673,0,0,0-.59.141q-4.71,1.52-9.34,3.286l-38.12,10.3a7.661,7.661,0,0,0-6.4,7.08l-3.16,51.49-0.57,9.194Zm67.32,46.434a2.684,2.684,0,0,0,.22-0.32,4.647,4.647,0,0,0,.26-0.48c0.06-.112.12-0.22,0.17-0.335,0.07-.186.13-0.38,0.19-0.575,0.03-.1.07-0.2,0.09-0.307a4.862,4.862,0,0,0,.15-0.935l2.8-42.227a3.835,3.835,0,0,0-4.84-3.94c-1,.272-1.99.561-2.98,0.866l-1.62.5-3.92,1.209-51.44,15.871a9.647,9.647,0,0,0-1.32.519c-0.16.076-.31,0.173-0.46,0.257-0.22.123-.45,0.233-0.66,0.373-0.03.016-.04,0.038-0.07,0.053a9.481,9.481,0,0,0-1.49,1.254c-0.11.107-.21,0.218-0.31,0.33a9.832,9.832,0,0,0-1.09,1.472,0.836,0.836,0,0,0-.08.112,9.357,9.357,0,0,0-.77,1.78c-0.05.148-.1,0.294-0.14,0.445a9.751,9.751,0,0,0-.35,1.955l-2.07,33.7a4.6,4.6,0,0,0,5.95,4.665l15.55-4.8q4.68-1.443,9.4-2.74l13.24-2.157,21.82-4.21c-3.01.472-6.02,1.016-9.02,1.576,1.29-.24,2.57-0.5,3.86-0.724q2.58-.447,5.16-0.852a5.7,5.7,0,0,0,.67-0.145c0.05-.015.1-0.04,0.15-0.057,0.14-.042.26-0.092,0.39-0.143a4.393,4.393,0,0,0,.48-0.21c0.12-.061.24-0.128,0.36-0.2,0.15-.089.29-0.183,0.43-0.285,0.11-.078.22-0.159,0.32-0.244,0.13-.112.26-0.231,0.38-0.354,0.09-.093.18-0.187,0.27-0.286A4.3,4.3,0,0,0,1502.6,602.165Zm-6.74,105.1a3.233,3.233,0,0,0,.25-0.391,2.437,2.437,0,0,0,.15-0.234c0.06-.125.1-0.263,0.15-0.395,0.04-.1.09-0.2,0.12-0.306a3.849,3.849,0,0,0,.13-0.764l5.36-80.939a3.827,3.827,0,0,0-3.57-4.068,3.885,3.885,0,0,0-.9.046l-0.65.111-4.33,1.55-4.83,1.73q-14.19,2.907-28.04,7.18l-16.67,5.142a17.2,17.2,0,0,0-12.12,15.322l-3.11,47.536a6.084,6.084,0,0,0,.04,1.048c0.01,0.113.04,0.222,0.06,0.333a5.247,5.247,0,0,0,.16.68c0.04,0.116.07,0.23,0.11,0.343a5.571,5.571,0,0,0,.32.671,2.291,2.291,0,0,0,.12.237,5.529,5.529,0,0,0,.58.809c0.05,0.057.11,0.106,0.16,0.161a6.365,6.365,0,0,0,.57.533c0.09,0.075.19,0.142,0.28,0.211a5.454,5.454,0,0,0,.57.354c0.11,0.062.22,0.124,0.34,0.178,0.06,0.027.11,0.063,0.17,0.088a4.567,4.567,0,0,0,.45.151c0.13,0.042.25,0.091,0.38,0.124a5.535,5.535,0,0,0,1.05.175s0,0,.01,0h0l49.85,3.235,3.82,0.248,5.74,0.373h0c0.1,0.006.2-.009,0.3-0.011a3.851,3.851,0,0,0,.48-0.017c0.1-.014.2-0.05,0.3-0.073a2.182,2.182,0,0,0,.84-0.292,2.835,2.835,0,0,0,.26-0.119,4.237,4.237,0,0,0,.43-0.309,1.947,1.947,0,0,0,.17-0.119c0.11-.1.21-0.222,0.32-0.337A2.525,2.525,0,0,0,1495.86,707.261Zm506.09-205.126a11.389,11.389,0,0,0-1.92-.567c-22.18-4.64-44.34-9.363-66.55-13.867-21.8-4.42-47.28-13.264-69.51-13.264-8.38-1.492-17.24,25.326-20.32,31.731l3.12-4.19c-13.55,18.187-24.66,35.945-30.45,58.2-2.02,7.793-11.52,56.805.2,57.583,48.1,3.19,96.07,6.647,144.31,6.741,9.27,0.019,12.96-4.522,15.49-13.234q13.875-47.883,27.75-95.772C2005.63,510.112,2007.51,504.374,2001.95,502.135Zm24.69-85.317a7.362,7.362,0,0,0-.76-0.177c-45.37-8.224-90.68-17.71-136.26-24.7-7.08-1.087-13.28-1.5-15.29,7.7-4.39,20.116-8.03,40.518-12.17,60.735a5.745,5.745,0,0,0,4.49,6.767c0.04,0.009.09,0.017,0.13,0.025l87.14,16.936,52.49,10.987a5.751,5.751,0,0,0,6.7-4.022l18.76-64.779A7.637,7.637,0,0,0,2026.64,416.818Zm-444.65-41.463c10.98,4.937,32.13,1.989,40.12,2.358,19.58,0.9,39.18,1.178,58.78,1.457,10.8,0.154,14.09-6.649,14.96-16.72q2.97-34.324,5.93-68.649a15.053,15.053,0,0,0-.36-6.382c-3.54-9.957-49.12-7.28-57.46-7.869l-54.71-3.862c-13.04-.92-9.66,28.315-10.27,36.525q-1.9,25.693-3.66,51.4a14.243,14.243,0,0,0,.33,5.41C1576.6,371.932,1578.89,373.959,1581.99,375.355Zm96.41,169.109,0.49-8.783a5.748,5.748,0,0,0-5.36-6.043l-13.78-.908-40.37-9.938-8.82-3.908a111.712,111.712,0,0,0-16.19-5.721,3.832,3.832,0,0,0-4.7,2.7,3.7,3.7,0,0,0-.13.875q-0.06,1.806-.18,3.608l-1.6,24.12a3.836,3.836,0,0,0,3.58,4.069l34.42,2.27,46.52,3.066a5.739,5.739,0,0,0,6.11-5.346A0.121,0.121,0,0,0,1678.4,544.464ZM1445.42,853.841c-0.17-.019-0.34-0.031-0.52-0.036l-15.13-.335-10-.222h-0.06a7.648,7.648,0,0,0-7.78,6.782l-2.83,24.751-0.5,4.441q-3.57,31.238-4.52,62.687v0.052a7.657,7.657,0,0,0,7.49,7.826h0l0.52,0.011,1.32,0.03,26.17,0.58a5.74,5.74,0,0,0,5.87-5.607v-0.069l0.47-45.325,1.24-20.055,3.33-29.162A5.74,5.74,0,0,0,1445.42,853.841ZM1969.35,641.1a5.271,5.271,0,0,0-2.99-.892c-40.9-1.438-81.83-2.658-122.59-5.33-6.31-.414-28.81-5.755-33.2.406a8.259,8.259,0,0,0-1.11,4.138q-1.335,15.723-2.2,31.482c-0.49,8.839-1.59,16.124,10.1,13.266,42.75-10.452,86.41-18.163,130.3-21.783,4.75-.392,9.61-0.762,13.97-2.689C1966.29,657.639,1976.21,646.082,1969.35,641.1Zm-222.92,56.226a2.187,2.187,0,0,0,.42.094c6.22,0.718,15.37-2.945,21.46-4.145,6.34-1.252,23.37-1.759,27.59-6.871,3.42-4.135,2.05-15.04,2.44-20.231,0.63-8.537,1.15-17.084,1.76-25.622,0.15-2.056.26-4.258-.79-6.03-4.72-7.952-51.92-11.281-52.79,2.335C1746,645.009,1738.63,694.691,1746.43,697.326Zm-5.82-63.49a6.373,6.373,0,0,0-.04-1.07c-0.02-.133-0.05-0.259-0.07-0.389-0.03-.157-0.05-0.316-0.09-0.47-0.02-.062-0.05-0.118-0.07-0.178-0.04-.123-0.08-0.24-0.13-0.358a6.314,6.314,0,0,0-.28-0.607c-0.06-.1-0.11-0.207-0.17-0.308a5.459,5.459,0,0,0-.46-0.63c-0.05-.059-0.09-0.122-0.14-0.179a5.679,5.679,0,0,0-.72-0.684c-0.07-.055-0.15-0.1-0.22-0.151a6.555,6.555,0,0,0-.63-0.4c-0.11-.057-0.22-0.107-0.33-0.158a5.815,5.815,0,0,0-.65-0.251c-0.11-.034-0.21-0.072-0.32-0.1a6.007,6.007,0,0,0-1.04-.174l-11.21-.739-13.4.65-20.56-1.356a5.794,5.794,0,0,0-1.25.063c-0.12.018-.23,0.054-0.35,0.08a5.665,5.665,0,0,0-.83.243c-0.14.05-.26,0.109-0.39,0.169a5.627,5.627,0,0,0-.71.4c-0.12.077-.24,0.152-0.35,0.238a5.309,5.309,0,0,0-.69.641,2.119,2.119,0,0,0-.17.151c-0.01.012-.01,0.028-0.02,0.04a5.273,5.273,0,0,0-.8,1.273c-0.05.1-.09,0.2-0.13,0.305a5.632,5.632,0,0,0-.4,1.482l-4.14,23.653h-2.84a0.857,0.857,0,0,0-.86.859v4.326a0.857,0.857,0,0,0,.86.859h1.68a5.707,5.707,0,0,0,5.34,5.375l8.38,0.554,41.98,2.768a3.826,3.826,0,0,0,4.07-3.564Zm64.81-69.42,0.06-.312,10.1-31.391a3.818,3.818,0,0,0-1.27-4.9l-19.87-13.355a3.839,3.839,0,0,0-5.32,1.034c-0.01.021-.03,0.043-0.04,0.065l-32.44,19.17a3.838,3.838,0,0,0-3.56,3.562l-0.95,14.357a3.825,3.825,0,0,0,3.13,4.013l10.2,2.151,35.34,8.438A3.831,3.831,0,0,0,1805.42,564.416Zm-135.3,147.875a3.828,3.828,0,0,0,1.63.031l10.75-2.121,37.6-7.418,11.82-2.33a5.742,5.742,0,0,0,4.62-5.25l1.01-15.261a3.827,3.827,0,0,0-3.57-4.069l-53.34-3.518a5.746,5.746,0,0,0-5.97,4.394l-7.39,30.935A3.825,3.825,0,0,0,1670.12,712.291Zm289.02-43.041c-6.34-3.348-25.03,1.319-30.71,1.961q-18.69,2.111-37.28,4.988-25.08,3.88-49.91,9.145c-8.41,1.783-33.32,2.183-34.09,13.765q-4.71,71.478-9.44,142.958c-0.17,2.652-.33,5.415.7,7.872,4.66,11.124,25.43,3.473,33.32,1.319a236.222,236.222,0,0,1,58.67-8.3c3.97-.058,8.15-0.066,11.6-2.014,4.78-2.688,6.94-8.3,8.74-13.475q7.365-21.164,14.75-42.328c3.97-11.409,13.49-27.93,13.49-39.771,3.72-11.124,7.94-22.079,11.66-33.2,2.49-7.451,15.03-34.032,10.07-41.56A4.147,4.147,0,0,0,1959.14,669.25Zm-308.85,59.469c-0.36-4.138-2.55-5.078-9.97-5.51-8.49-.495-17.03-0.519-25.52-0.292-64.8,1.735-126.18,26.374-187.47,45.282a9.561,9.561,0,0,0-6.72,8.3s-6,59.92-6.07,60.632c-1.58,15.683,75.71,10.166,86.96,10.4l113.9,2.336c4.23,0.087,8.92.007,12.01-2.873,2.63-2.441,3.38-6.243,3.98-9.777,5.78-33.787,14.17-67.7,18.66-101.349A48.554,48.554,0,0,0,1650.29,728.719ZM1510.65,431.644l49.17-4.4a5.735,5.735,0,0,0,5.96-5.52c0.01-.1.01-0.207,0.01-0.311l-0.55-31.468a7.648,7.648,0,0,0-7.09-7.5l-43.3-3.232a5.751,5.751,0,0,0-6.17,5.292v0.05l-2.45,37q-0.21,3.153-.24,6.315a3.829,3.829,0,0,0,3.8,3.859A3.924,3.924,0,0,0,1510.65,431.644Zm63.59,74.049-50.58-4a5.758,5.758,0,0,0-6.19,5.265v0.076l-1.97,29.647a3.835,3.835,0,0,0,3.58,4.069,3.617,3.617,0,0,0,.51,0l14.03-.019,40.89,2.7a3.82,3.82,0,0,0,4.07-3.564l1.6-24.12c0.14-1.992.2-3.988,0.21-5.984a3.825,3.825,0,0,0-3.44-3.815C1576.05,505.847,1575.15,505.764,1574.24,505.693Zm93.26,154.875,1.9-7.985a183.737,183.737,0,0,0,3.98-22.936,6.03,6.03,0,0,0,.01-1.124c-0.02-.18-0.06-0.351-0.09-0.527s-0.05-.351-0.1-0.522c0-.015-0.01-0.028-0.01-0.044-0.03-.09-0.07-0.174-0.1-0.262a5.5,5.5,0,0,0-.29-0.693c-0.05-.1-0.11-0.2-0.16-0.3-0.12-.2-0.25-0.394-0.38-0.578-0.07-.09-0.14-0.179-0.21-0.265a6.194,6.194,0,0,0-.53-0.544,2.469,2.469,0,0,0-.19-0.174,5.375,5.375,0,0,0-.81-0.565c-0.08-.045-0.17-0.078-0.25-0.12a5.034,5.034,0,0,0-.7-0.3c-0.11-.038-0.22-0.071-0.33-0.1a5.721,5.721,0,0,0-.74-0.157c-0.07-.01-0.14-0.036-0.21-0.044s-0.16-.016-0.24-0.022l-47.15-3.109-32.51-2.145a5.749,5.749,0,0,0-6.12,5.346l-2.14,32.368a3.82,3.82,0,0,0,3.57,4.068l34.42,2.271,43.4,2.862A5.755,5.755,0,0,0,1667.5,660.568Z" transform="translate(-487)"/>
  <path id="产业园高亮" class="cls-5" d="M1119.03,272.107c-17.35,60.3-60.19,213.924-105.53,332.948-31.927,83.793-40.466,158-40.466,158l-25.7,179.322L939.856,1060.7c-7.744,25.26,4.046,28.01,15.433,30.95,66.371,8.49,306.291,39.04,401.171,49.57,21.35,3.12,43.18-11.95,42.79-42.58,2.79-69.05,7.84-194.105,9.55-236.411,0.43-6.008,6.41-11.228,15.89-11.153,40.48,2.14,149.41,5.43,193.35,7.753,8.78,0.987,20.35-2.733,21.31-14.3,8.66-52.95,36.86-225.263,36.86-225.263l127.86,7.217c2.25,0.589,8.73-2.9,7.48-8.195-0.39-17.168-.41-55.264,6.29-70.642,12.5-28.72,30.75-55.706,40.68-71.876,3.48-7.113-.5-8.949-7.94-10.058-33.26-3.969-119.97-14.408-148.94-18.776-4.55-.793-10.03-5.05-8.89-11.8,3.68-30.859,14.59-122.5,18.3-153.637,1.42-7.533-3-11.057-12.8-11.01-77.87-2.9-456.21-17.1-548.91-22.817C1127.25,245.015,1124.16,245.67,1119.03,272.107Z" transform="translate(-487)"/>
  <path id="page-2-point-pop-b" data-name="形状 724" class="cls-6" d="M1247,470c-24.23,1.913-105,85-105,85l-27,46,22,111,152-46-34-91,57-20-16-59S1287.81,476.375,1247,470Z" transform="translate(-487)"/>
  <path id="page-2-point-pop-a" data-name="形状 725" class="cls-7" d="M1505,611s7.93-142.21-1-176c-2.33-26.573,3-67,3-67l186,15-5,65-6,105s-54.79-5.857-99-5c-0.41,15.754,5.32,55.749-4,61C1568.02,615.188,1505,611,1505,611Z" transform="translate(-487)"/>
  <path id="page-2-point-pop-c" class="cls-8" d="M1138.72,1099.19c2.8-33.04,8.01-100.66,10.55-130.674,1.8-7.6,1.85-12.247,12.23-12.159,9.61,0.284,23.21,3.408,42.46,2.482,56.46-2.716,129.5-13.316,171.92-7.779,17.01-2,16.92,8.685,17.1,16.782-0.27,38.2-1.99,93.488-2.82,123.758-1.2,24.39-13.33,32.19-34.18,31.09-46.17-.79-156.04-2.9-202.34-6.36C1142.39,1114,1139.71,1103.48,1138.72,1099.19Z" transform="translate(-487)"/>
  <path id="黄色区域2" class="cls-9" d="M951.757,944.872S953.487,910.726,960,903c23.051-11.765,63.16-20.7,84-30,24.37,1.6,11.3,78.651,11.3,78.651l-14.17,147.9-94.921-12.32Z" transform="translate(-487)"/>
  <path id="page-2-point-pop-e" data-name="形状 723" class="cls-10" d="M1143,719l34,115,236-71,9-133Z" transform="translate(-487)"/>
  <path id="page-2-point-pop-d" class="cls-11" d="M1432.3,633.248s-5.88,88.124-8.2,122.816c-0.6,8.2-.58,15.217,9.41,11.571,147.92-53.789,218.07-46.956,218.07-46.956s18.23-87.4,18.23-102.732C1576.44,597.143,1432.3,633.248,1432.3,633.248Z" transform="translate(-487)"/>
</svg>
