<?xml version="1.0" encoding="utf-8"?>
<!-- Generator: Adobe Illustrator 24.0.0, SVG Export Plug-In . SVG Version: 6.00 Build 0)  -->
<svg version="1.1" id="图层_1" xmlns="http://www.w3.org/2000/svg" xmlns:xlink="http://www.w3.org/1999/xlink" x="0px" y="0px"
	 viewBox="0 0 3496.2 2705.3" style="enable-background:new 0 0 3496.2 2705.3;" xml:space="preserve">
<style type="text/css">
	.st0{fill:#373C55;}
	.st1{fill:#150E22;}
	.st2{fill:url(#SVGID_1_);}
	.st3{fill:none;}
	.st4{fill:#160D22;}
	
		.st5{opacity:0.98;fill-rule:evenodd;clip-rule:evenodd;fill:url(#产业园高亮.svg_1_);stroke:#00FF9C;stroke-width:12;enable-background:new    ;}
	.st6{opacity:0.92;fill-rule:evenodd;clip-rule:evenodd;fill:url(#红色区域.svg_2_);}
	.st7{fill-rule:evenodd;clip-rule:evenodd;fill:url(#蓝色区域1.svg_1_);}
	.st8{fill-rule:evenodd;clip-rule:evenodd;fill:url(#SVGID_2_);}
	.st9{fill-rule:evenodd;clip-rule:evenodd;fill:url(#黄色区域1.svg_1_);}
	.st10{fill-rule:evenodd;clip-rule:evenodd;fill:url(#紫色区域.svg_1_);}
	.st11{fill-rule:evenodd;clip-rule:evenodd;fill:url(#SVGID_3_);}
	.st12{fill-rule:evenodd;clip-rule:evenodd;fill:url(#黄色区域3.svg_1_);}
	.st13{fill-rule:evenodd;clip-rule:evenodd;fill:url(#SVGID_4_);}
</style>
<title>地图-1</title>
<path class="st0" d="M2078.7,2705.3c-7-1.4-14-3.2-21.1-4c-73.5-9.1-147-18.1-220.5-27c-33.5-4.1-67-8.2-100.5-12.4
	c-13.1-1.7-17.2-7.1-16.4-20.5c2.7-45.7,5.4-91.4,7.8-137.1c1.6-29.2,13.1-52.5,38.7-67.9c11.9-7.2,25.6-10.8,39.5-10.4
	c37.8,0.8,75.5,1.6,113.3,2.4c75.5,1.6,151,3.2,226.6,4.9c10.9,0.2,11.5,0.7,10.9,12.2c-2.3,43.9-4.7,87.8-7.2,131.6
	c-1.9,33.7-3.8,67.5-5.8,101.2c-0.6,9.4-0.6,18.9-6.4,27.1L2078.7,2705.3z M2148.2,2441.1c-5.3,0-9.6,0.1-13.9,0
	c-42.5-0.9-85-1.8-127.5-2.7c-66.1-1.5-132.2-2.5-198.3-4.6c-38.2-1.2-70.6,28.6-72.3,67.7c-1.5,34.5-4,68.9-6,103.4
	c-0.7,12-1.4,24-2.1,35.9c-0.6,10.3,0.6,11.8,11,13.4c5,0.8,10.1,1.1,15.2,1.7c63.1,7.7,126.2,15.4,189.3,23.1
	c56.2,7,112.4,14.1,168.6,21.3c20.6,2.7,22.5,1.4,23.7-19.3c4.1-73.3,8.3-146.6,12.4-219.9
	C2148.5,2455.2,2148.2,2449.1,2148.2,2441.1L2148.2,2441.1z"/>
<path class="st0" d="M211.7,1193.6c1.6-4.4,3.1-8.1,4.3-11.9c48.2-142.4,96.3-284.8,144.4-427.2c3.6-10.7,10.1-20.3,18.8-27.5
	c20.4-16.9,41.5-33,62.2-49.7c5.6-4.5,11.8-6.4,18.9-7.2c45.3-5.4,90.7-11.2,136-16.8c4.9-0.6,9.9-0.6,16.1-0.9
	c-2.5,16.6-4.7,31.9-7,47.2c-7.8,50.6-15.5,101.1-23.4,151.7c-8.3,53.8-16.5,107.6-24.8,161.3c-7.7,50.2-15.5,100.4-23.2,150.6
	c-9.1,59.1-18.2,118.3-27.4,177.4c-8.3,53.8-16.9,107.5-24.6,161.4c-11.8,83.8-31,166.5-57.2,247c-3.9,12.1-8.3,24-12.1,36.1
	c-3.2,10.2-9.7,16.4-20.1,19.3c-106.9,30-213.9,60.1-320.8,90.3c-21.7,6.1-37-7.6-33.5-29.8c0.7-4.7,1-9.4,1.7-14.1
	c5.5-41.3,11.1-82.6,16.6-124c4.4-33.8,9.8-67.5,12.6-101.4c3-35,3.5-70.2,5.2-105.4c1.1-24.6,2.4-49.2,3.5-73.9
	c0.4-9.8,0.6-19.6,0.9-29.4c0.5-21,0.9-42.1,1.4-63.1c1-42.1,2-84.2,3-126.3c0.1-5.8,1-11.6,1.3-17.3c0.6-10,4.7-14.5,15-14.7
	c17.8-0.3,35.6,0.1,53.4-0.2C172.2,1194.9,191.4,1194.2,211.7,1193.6z M215.4,1200.5h-63.4c-16,0-32-0.1-48,0
	c-11.3,0.1-13.7,2.8-14.1,14.3c-0.6,15.2-1.6,30.4-2.1,45.6c-0.9,29.7-1.5,59.5-2.2,89.2c-0.8,33-1.5,66-2.2,99.1
	c-0.2,10.2-0.4,20.3-0.9,30.5c-1.1,24.6-2.3,49.2-3.4,73.9c-0.9,20.3-1,40.6-2.8,60.8c-2.2,25.6-5.6,51.2-8.9,76.7
	c-5.3,41-11,81.9-16.5,122.9c-2.4,18-4.8,35.9-7,53.9c-1.4,12.1,5.3,21.4,16.5,22.8c3.8,0.4,7.9-0.7,11.6-1.8
	c102.8-28.8,205.5-57.7,308.2-86.7c23.7-6.7,22.5-5.6,30.8-29.9c25.6-75.8,46.2-153,59.1-232c8.3-50.8,15.8-101.8,23.7-152.7
	c10-64.9,20-129.8,30.1-194.6c8.3-53.8,16.5-107.5,24.7-161.3c9.1-59.5,18.3-119,27.6-178.5c7.7-49.8,15.4-99.6,23-149.5
	c2.2-14.5,4.2-29,6.5-44.5c-4.6,0.3-7.8,0.3-11,0.7c-45.3,5.6-90.7,11.1-136,16.9c-4.6,0.7-9,2.6-12.6,5.5
	c-20.7,16-41.2,32.3-61.5,48.8c-8.8,7.2-15.3,16.7-18.8,27.4c-48.3,143.1-96.7,286.2-145.3,429.2
	C219,1191.3,217.4,1195.3,215.4,1200.5L215.4,1200.5z"/>
<path class="st0" d="M662.7,15.2c0.9,3.1,1.9,5.1,2.1,7.2c1.8,30.4,3.9,60.8,5.2,91.2c1,24.3,2,48.6,1.3,72.9
	c-1.6,58-5.2,115.9-13.9,173.3c-11.3,74.2-22.6,148.5-33.8,222.7c-1.9,12.5-4.1,25-5.8,37.6c-0.8,5.8-3.4,7.6-9.2,8.2
	c-56.9,6.8-113.7,14-170.5,21c-10.9,1.3-24.7-10.4-25.5-23.5c-0.8-12.2-0.8-24.8,1.1-36.9c4.2-26.2,8.3-52.5,6.6-79
	c-1.6-25.3-5.2-50.5-9-75.5c-7.2-48.8-15.1-97.5-22.7-146.2c-2.2-14.3-4.5-28.6-7-43.8c-6.4-0.6-12.4-1.6-18.5-1.7
	c-26.9-0.4-53.8-0.5-80.6-0.9c-33.7-0.6-67.5-1.4-101.2-2.2c-13-0.3-26.1-0.9-39.1-1.3c-13.2-0.4-17.2-6-11.8-18.1
	c7.7-17.2,16-34.2,24.1-51.3c22.8-47.9,46-95.6,68.1-143.8c6.7-14.6,18.3-21.1,35-14.7c33.7,12.9,69.5,19.1,105.6,18.2
	c27.2-0.6,54.3-2.7,81.4-4.1c8.3-0.4,16.7-0.6,25-0.9c34.8-1.4,69.6-2.8,104.3-4.4c26.1-1.2,52.1-2.8,78.2-4.2
	C655.5,15,659.1,15.2,662.7,15.2z M386.2,239c0.8,4,1.6,7.4,2.2,10.9c9.2,58.4,18.5,116.8,27.4,175.3c3.4,21.9,7,43.7,8.9,65.8
	c3.1,35.6-0.1,71-6.6,106.2c-1.7,9.4-1.2,19.7,0.6,29.1c2.3,12.5,12.1,18.4,23.8,16.9c39.6-5,79.1-10,118.7-14.9l49.6-6.2
	c0.8-3.2,1.5-5.6,1.9-8c13.4-88.2,26.8-176.5,40.2-264.7c8.2-54.6,11.6-109.6,12.7-164.8c1-49-1.2-98-5.2-146.9
	c-0.5-5.6-1.5-11.2-2.4-17c-6.3,0.4-11.7,0.8-17.1,1c-19.9,0.9-39.8,1.7-59.8,2.7c-25.7,1.2-51.4,2.6-77.1,3.9
	c-20.3,1-40.6,1.8-60.9,2.7c-25.3,1.2-50.7,3.2-76,3.7c-38.6,0.9-77-5.5-113.3-18.7c-13.1-4.8-19-2.3-24.7,9.7
	c-31.1,65.3-62.1,130.6-93,195.9c-1.2,2.5-1.8,5.3-3.2,9.5c5.1,0.9,9.1,2.1,13.2,2.2c29.4,0.9,58.8,1.6,88.2,2.2
	c21.4,0.4,42.9,0.5,64.3,0.9c24.3,0.4,48.6,0.9,73,1.4C375.9,237.8,380.2,238.5,386.2,239z"/>
<path class="st0" d="M733,18.6c12.7-0.9,24.2-2,35.7-2.6c25-1.2,50-1.9,75-3.1c32.9-1.7,65.8-3.9,98.8-5.6c26.1-1.3,52.2-2,78.3-3.2
	c31.1-1.3,62.3-3.1,93.4-4.1c17.8-0.6,22.9,4.8,24.1,22.9c2.4,36.5,4.9,73,7.3,109.6c2.2,32.5,4.4,65.1,6.5,97.6
	c2.9,42.3,5.8,84.6,8.8,126.9c2.1,31.1,4.3,62.2,6.5,93.3c2.8,40.1,5.5,80.2,8.3,120.4c1.3,18.1,2.7,36.1,3.9,54.2
	c0.3,3.6,0.3,7.3,0,10.9c-0.8,8.8-6.9,15.2-15.7,14.8c-8.6-0.4-18-0.8-25.5-4.4c-30.7-14.4-63.8-19.3-96.5-25.8
	c-31-6.1-61.9-12.3-93.2-16.8c-23.3-3.4-46.9-4.2-70.4-6c-9.4-0.7-18.8-1.5-28.2-1.3c-39.1,0.7-78.2,3.7-117,9
	c-13.3,1.8-26.6,3.5-39.9,5.2c-1.3,0.2-2.8-0.3-5.7-0.8c1-7,1.9-13.6,2.9-20.2c11.8-77.4,24.2-154.8,35.2-232.3
	c4.8-33.7,7.4-67.7,9.6-101.7c2.2-35.1,3.9-70.3,3.4-105.4c-0.5-40.6-3.7-81.1-5.7-121.6C732.9,25.6,733,22.7,733,18.6z
	 M694.1,604.5c16-2,29.9-3.9,43.9-5.4c24.5-2.6,49-5.7,73.6-7c22.1-1.2,44.3-1.2,66.4,0c27.8,1.5,55.7,3.5,83.3,7.7
	c34.8,5.2,69.2,12.8,103.8,19.3c23.2,4.4,46.3,8.5,68,18.7c7.7,3.7,16.5,5.3,25,7c10.3,2.1,15.6-2.6,15.9-13.4
	c0.1-1.8,0.1-3.6,0-5.5c-1.5-22.8-3.1-45.6-4.7-68.3c-2.8-40.1-5.5-80.3-8.3-120.4c-1.7-25-3.2-49.9-5-74.9
	c-2.7-38-5.5-75.9-8.1-113.8c-1.8-26-3.3-52.1-5-78.1c-1.9-27.5-4-54.9-5.9-82.4c-1.6-22.4-2.9-44.8-4.4-67.3
	c-0.8-10.9-7-16.8-17.6-16.3c-20.3,0.8-40.6,1.8-60.8,2.9c-32.9,1.8-65.8,3.8-98.8,5.6c-28.2,1.6-56.5,3-84.7,4.3
	c-33,1.6-65.9,2.6-98.9,4.6c-10.6,0.7-21.7-1.4-32.2,2.9c0,4.8-0.3,9.2,0,13.5c3,39.1,5.3,78.2,4.7,117.4c-0.4,27.9-1,55.9-2.2,83.8
	c-1.2,25.7-2,51.5-5.5,77c-10.4,75.8-22,151.4-33.1,227.1C700.4,563.2,697.4,582.9,694.1,604.5z"/>
<path class="st0" d="M2974.3,1420c24.7,0,49.4,0.1,74.1,0c100.3-0.4,200.5-0.9,300.8-1.4c1.8,0,3.6,0,5.4,0
	c14.7,0.1,19.7,6.7,15.5,20.8c-11.3,38.3-22.7,76.6-34.2,114.8c-25.8,86.3-51.5,172.5-77.3,258.8c-1.2,4.2-2.4,8.5-4.7,12.1
	c-3.3,5.8-9.6,9.4-16.3,9.3c-6.5,0.1-13.1,0.2-19.6,0c-12.7-0.5-25.3-1.6-38-2c-23.9-0.9-47.9-1.4-71.8-2.3
	c-38-1.4-76.1-2.8-114.1-4.4c-35.9-1.4-71.7-2.9-107.6-4.3c-31.1-1.3-62.3-2.9-93.4-4.2c-13.8-0.6-27.5-1.2-41.3-1.4
	c-16.3-0.3-19.7-4.7-14.4-20c20.8-60.8,42.4-121.3,62.4-182.4c18.5-56.6,35.4-113.7,53.1-170.5c1-3.1,1.6-6.4,2.9-9.4
	c3.8-8.9,10.6-13.5,20.4-13.4c18.5,0.1,37.1,0,55.6,0L2974.3,1420z M2739.9,1808.3c6,0.9,10.1,1.9,14.3,2.1
	c22.5,0.9,44.9,1.6,67.4,2.3c9.4,0.3,18.9,0.5,28.3,0.9c24.3,1.1,48.5,2.4,72.8,3.4c22.5,0.9,44.9,1.5,67.4,2.4
	c31.5,1.3,63,2.9,94.5,4.1c23.6,0.9,47.1,1.5,70.7,2.3c10.1,0.3,20.3,0.8,30.4,1.1c16.7,0.6,33.3,1.3,50,1.7
	c7.9,0.2,12.9-4.1,15.6-11.3c0.6-1.7,1-3.5,1.5-5.2l110.5-369.3c4.9-16.5,3.5-18.5-13.5-18.5l-417.4,0.8c-16,0-32,0-48,0
	c-17.6,0-20.6,2.3-25.5,18.8c-9,30.3-17.3,60.8-27.2,90.7c-28.1,84.8-56.9,169.3-85.4,253.9
	C2744.2,1794.5,2742.4,1800.3,2739.9,1808.3z"/>
<path class="st0" d="M1725.8,676.9c-14.5,0-29.1-0.1-43.6,0c-50.1,0.5-100.2,1-150.3,1.6c-11.2,0.1-15.4-3.2-16.3-14.1
	c-0.9-12.3-1.6-24.6-2.1-36.9c-0.9-23.2-1.4-46.4-2.3-69.6c-1.2-30.8-2.8-61.6-4.1-92.4c-0.9-21-1.5-42-2.4-63.1
	c-1.1-25.4-2.3-50.7-3.4-76c-0.4-8.3-0.4-16.7-0.7-25c-0.8-21.8-1.2-43.5-2.6-65.2c-1-16,7.8-27.8,26.4-29.1
	c27.5-2,54.9-4.4,82.4-6.5c35-2.7,70.1-5.3,105.1-7.8c26.8-1.9,53.5-3.5,80.3-5.3c9-0.6,18-1.5,27.1-2c15.8-1,22.6,5,22,20.7
	c-0.9,21.7-2.7,43.4-4,65.1c-1.2,19.5-2,39.1-3.2,58.7c-1.7,27.9-3.7,55.7-5.5,83.5c-1.2,19.2-2,38.4-3.2,57.6
	c-1.8,28.6-3.8,57.1-5.6,85.7c-1.2,19.5-2,39.1-3.2,58.7c-0.7,11.6-1.1,23.2-2.3,34.7c-1.5,14.8-14.3,26.5-29.6,26.8
	C1765.1,677.2,1745.5,677,1725.8,676.9L1725.8,676.9z M1656,672.6v-0.8h119.9c2.9,0.1,5.8,0,8.7-0.2c12.8-1.6,22.8-10.9,23.9-23.1
	c1.6-17.7,2.6-35.4,3.7-53.1c1.2-19.5,1.9-39.1,3.1-58.7c1.8-28.9,3.8-57.8,5.6-86.8c1.2-18.8,2-37.7,3.1-56.5
	c1.8-28.6,3.7-57.1,5.6-85.7c1.4-21,2.9-41.9,4.2-62.9c0.8-13,1.8-26,2.2-39.1c0.3-10.5-5.5-15.8-15.4-15
	c-22.7,1.8-45.5,3.7-68.2,5.4c-34.3,2.5-68.7,4.7-103,7.1c-29.3,2-58.6,3.9-87.8,6.2c-13,1-26,2.2-38.9,4.1
	c-13.9,2.1-19.4,8.9-19.3,22.9c0,5.4,1.1,10.8,1.3,16.2c0.8,23.6,1.5,47.1,2.3,70.7c0.3,9.1,0.5,18.1,0.8,27.2
	c1.1,26.4,2.4,52.9,3.5,79.3c0.9,20.3,1.6,40.6,2.4,60.9c1.4,34,2.8,68.1,4.2,102.2c1,22.8,1.8,45.7,3,68.5
	c0.5,9.4,2.3,11.1,10.9,11.2C1573.2,672.6,1614.6,672.6,1656,672.6z"/>
<path class="st0" d="M3496.1,855.7c-0.4,15.7-2.5,31-7.6,46c-17.6,51.2-35.1,102.3-52.7,153.5c-4.4,12.9-8.6,15.5-21.9,13.2
	c-68.2-12.3-136.4-24.7-204.6-37.2c-66.4-12.1-132.8-24.2-199.2-36.3c-2.9-0.4-5.7-1-8.5-1.8c-9-2.7-13.7-9.5-12.8-18.9
	c0.4-3.2,1.2-6.4,2.2-9.5c13.6-47.1,27.2-94.2,40.9-141.2c1.6-5.6,2.8-11.3,4.2-16.9c2.8-11,9.3-18,20.9-19.2
	c15.9-1.6,31.7-3,47.6-4.3c39-3.4,78-6.7,117-10c31.1-2.6,62.1-4.9,93.2-7.5c39-3.2,78-6.7,117-10c11.9-1,23.9-1.9,35.8-2.3
	c9.5-0.3,13.8,3.1,15.3,11.9c4.6,27.5,8.9,55.2,13.2,82.7C3496.4,850.5,3496.1,853.1,3496.1,855.7z M3460.5,759
	c-42.9,3.7-84,7.4-125.2,10.8c-38.3,3.2-76.6,6.2-114.9,9.3c-35,2.9-70.1,5.8-105.1,8.7c-17,1.4-33.9,2.7-50.9,4.2
	c-15.5,1.3-20.3,5.6-23.7,20.6c-1.2,5.3-2.6,10.6-4.1,15.8c-13.4,46.8-26.9,93.5-40.4,140.3c-3.6,12.7-0.6,17.6,12.3,20
	c16,3,32.1,5.9,48.2,8.8c73.9,13.4,147.8,26.9,221.7,40.3c45,8.2,90,16.3,135,24.5c11.7,2.1,13.6,1,17.5-10.5
	c17.4-50.8,34.9-101.7,52.3-152.5c6.3-18.4,9.3-37.5,6.5-56.9c-3.6-24.8-8-49.4-12.3-74.1c-1.4-7.9-3-9-10.8-9.3
	C3463.9,759,3461.3,759,3460.5,759z"/>
<path class="st0" d="M2158.8,2388.1c-20.3,0-39.1,0-57.9,0c-2.5,0-5.1-0.5-7.6-0.5c-26.1-0.4-52.3-0.5-78.4-1
	c-34.1-0.6-68.2-1.4-102.3-2.2c-30.1-0.7-60.2-1.4-90.3-2.2c-9.1-0.3-18.2-0.6-27.1-1.6c-27.8-3.2-53.2-27.4-56.7-55.5
	c-1.8-14.3-0.8-28.9-0.5-43.4c0.6-25.8,1.7-51.5,2.3-77.3c1.1-45.7,2-91.4,3-137.2c0.3-13.6,6.8-20.5,20-20.3c41,0.6,82,1.3,123,2.2
	c20.3,0.4,40.6,2.3,60.9,1.9c27.1-0.6,53.5,4.3,80.1,7.4c24.5,2.9,48.8,7.1,73.3,9.5c18.7,1.8,37.7,1.6,56.5,2.1
	c13.5,0.4,16.7,4.1,16,18c-1.3,26.1-2,52.2-3.2,78.3s-2.6,52.1-3.9,78.2c-0.9,19.6-1.7,39.1-2.7,58.7
	C2161.9,2331.4,2160.3,2359.6,2158.8,2388.1z M2152.6,2382.7c0.8-5,1.7-9,1.9-12.9c1.6-29.3,3-58.6,4.4-87.9
	c1.5-30.4,2.9-60.8,4.4-91.2c1.4-30.4,2.9-60.8,4.3-91.2c0.3-5.1,0.3-10.2,0-15.3c-0.4-6.2-2.5-8.1-8.8-8.8
	c-2.2-0.1-4.4-0.2-6.5-0.1c-34.9,0.3-69.5-2.9-103.9-8.3c-48.4-7.5-97.1-12.3-146.2-11.4c-3.3,0.1-6.5,0-9.8-0.1
	c-42.1-1-84.1-2-126.2-2.9c-13.1-0.3-16.8,3.7-17.2,16.6c-0.4,13.8-1.1,27.5-1.3,41.3c-1,50.8-1.9,101.6-2.9,152.4
	c-0.3,15.2-0.7,30.5-1.6,45.7c-2.2,34.5,24.9,65.1,59.3,66.5c21.7,0.9,43.5,1.7,65.2,2.2c49.3,1.2,98.7,2.1,148,3.2
	c30.8,0.7,61.7,1.5,92.5,2.1C2122.6,2382.9,2137.1,2382.7,2152.6,2382.7L2152.6,2382.7z"/>
<path class="st0" d="M1446.2,678.5c-17.8,0.7-35.5,1.8-53.3,1.9c-48.3,0.1-96.4-2.8-144-11.7c-8.6-1.6-17.1-3.5-25.7-5
	c-13.8-2.4-25-16.1-25.6-30c-1.1-26.1-3.1-52.1-5-78.2c-2.5-36.2-5.3-72.3-7.8-108.5c-1.9-27.5-3.6-55-5.3-82.5
	c-0.8-12.7-1.9-25.3-2.1-38c-0.3-14.3,4.9-21.1,18.8-25.6c30.4-9.8,60.8-19.5,91.3-29.2c50.6-16,101.1-31.9,151.7-47.8
	c5.9-1.9,11.9-3.5,17.9-4.8c3.9-0.9,7.9-1.3,11.9-1.3c10.3,0.1,16.2,5.8,16.6,16.1c0.9,19.6,1.4,39.2,2.3,58.7
	c1,22.8,2.3,45.6,3.4,68.4c0.4,9.4,0.6,18.9,0.9,28.3c0.7,23.2,1.3,46.4,2.3,69.6c1.2,30.8,2.8,61.6,4.1,92.4
	c0.9,20.7,1.6,41.3,2.4,62c0.6,15.6,1.1,31.2,1.9,46.8c0.7,13.6-3.7,18.5-17.5,18.7c-13.1,0.1-26.2,0-39.3,0
	C1446.2,678.9,1446.2,678.7,1446.2,678.5z M1412.1,673.9c22.5,0,45.1,0,67.6,0c2.9,0.1,5.8,0.1,8.7-0.3c6.6-1,9.3-4.6,9.1-11.3
	c-1-26.1-1.9-52.2-2.9-78.3c-0.3-9.1-0.5-18.2-0.9-27.2c-1.1-26.1-2.4-52.2-3.5-78.2c-0.9-20.7-1.5-41.3-2.4-62
	c-1.3-30.4-2.9-60.9-4.1-91.3c-0.9-23.6-1.5-47.1-2.3-70.7c-0.2-6.2-0.3-12.4-0.9-18.5c-0.9-9.8-6.7-14-16.4-12.2
	c-3.2,0.6-6.4,1.4-9.5,2.3c-36.8,11.3-73.6,22.4-110.3,33.9c-47.8,15-95.5,30.3-143.3,45.6c-15,4.8-19.1,10.8-18.3,26.5
	c0.4,7.2,1.2,14.4,1.7,21.7c2.1,30.4,4.2,60.8,6.2,91.1c1.1,17,2,34,3.2,51c1.7,24.9,3.7,49.9,5.5,74.8c1.5,20.6,2.7,41.2,4.4,61.8
	c1.2,14.6,8.3,22.8,22.3,25.7c42,8.7,84.3,14.7,127.3,15.5C1372.9,674.2,1392.5,673.9,1412.1,673.9L1412.1,673.9z"/>
<path class="st0" d="M3021.4,452.9c-0.2-1.8-0.5-3.6-0.6-5.4c-0.8-14.6,6.2-24.4,20.6-27.8c18.7-4.4,37.5-8.5,56.3-12.6
	c49.3-10.9,98.5-21.8,147.8-32.5c11.3-2.4,22.9-4.1,34.4-5.6c15.5-2,19.6,1.3,22.1,16.5c3.7,22.9,7.1,45.9,11.2,68.7
	c4.9,27.3,15,53.3,29.8,76.7c8.3,13.2,16.6,26.5,24.8,39.8c17.4,28.2,27.8,60.2,30.4,93.3c1.4,17.7,3.2,35.4,4.7,53.1
	c1.1,13.1-3,17.5-16.4,18.6c-46.9,4-93.8,8.2-140.8,12.1c-31.4,2.6-62.9,4.9-94.3,7.5c-28.9,2.4-57.8,4.8-86.6,7.4
	c-13.3,1.2-23.5-6.8-24.4-20.3c-2.3-34.3-4.3-68.7-6.6-103.1c-2.5-36.5-5.3-73-7.8-109.5c-1.2-18.1-2-36.2-3.1-54.3
	c-0.5-7.6-1.1-15.2-1.7-22.8L3021.4,452.9z M3396.5,709.8c-0.7-7.9-1.7-15.9-2.1-23.8c-1.9-35.1-8.1-69.3-25.5-100.4
	c-9.8-17.4-20.7-34.1-31.2-51.2c-15.7-25.4-26.4-53.6-31.3-83c-3.6-22.2-7.1-44.4-10.8-66.6c-1.6-9.6-4.3-11.6-13.9-10.1
	c-12.9,2-25.9,3.6-38.6,6.3c-52.1,11.3-104.2,22.9-156.2,34.5c-14.9,3.3-29.8,6.5-44.6,10.2c-10.1,2.5-16.4,10.1-16.1,19.3
	c0.3,11.2,1.3,22.4,2,33.6c1.8,26,3.7,52,5.4,78c1.2,18.1,2,36.2,3.2,54.3c1.8,26.7,3.8,53.5,5.6,80.2c1.1,16.3,1.9,32.6,3.1,48.8
	c0.8,11.5,7,17,18.4,16.9c2.5,0,5.1,0,7.6-0.2c20.2-1.8,40.4-3.8,60.6-5.6c43.7-3.7,87.4-7.4,131.1-10.9
	c38.3-3.1,76.5-6.5,114.8-9.1C3400.4,729.6,3397.4,726.3,3396.5,709.8z"/>
<path class="st0" d="M1596.5,2457.8c-2.9-0.3-5-0.7-7.1-0.8c-20.3-0.3-40.7-0.3-61-0.9c-26.4-0.9-52.8-2.2-79.3-3.4
	c-21.4-1-42.7-1.8-64.1-3.1c-29.6-1.8-59.3-3.8-88.9-6.1c-22-1.7-44-3.9-66-6.1c-9.8-1-11-2.6-11.3-12.2c-0.1-1.8-0.1-3.6,0-5.4
	c0.3-13.6,6.4-18.4,20.2-17.1c23.1,2.3,46.2,4.3,69.3,6.3c23.8,2,47.6,4,71.5,5.5c21.7,1.4,43.4,2.2,65.2,3.2
	c27.9,1.2,55.8,2.6,83.6,3.5c20,0.6,39.9,0.5,59.9,1c16.7,0.3,33.4,0.5,50,1.5c31.3,1.9,59.8,31.3,60,62.9c0.1,20.3-1.9,40.5-3,60.8
	c-1.1,21-2.2,42-3.3,63c-0.6,10.5-1.1,21-2.2,31.4c-0.9,9-5.2,13.3-14.2,12.8c-12.3-0.6-24.5-2.2-36.8-3.4
	c-15.9-1.5-31.8-2.9-47.6-4.5c-9.5-1-12.4-5.1-11.4-14.6c3.6-35,7-69.9,10.4-104.9c2-20.5,4-41.1,6-61.6
	C1596.7,2463.4,1596.5,2461.2,1596.5,2457.8z M1603.4,2452.9c-6.1,62.4-12,123.9-18.1,186.2c4.7,1,8.1,2,11.6,2.4
	c5.7,0.8,11.5,1.2,17.3,1.8c19.1,1.9,38.2,3.9,57.4,5.5c9.5,0.8,11.2-0.8,12.8-10.4c0.6-3.9,1-7.9,1.3-11.9c1.1-20.6,2-41.3,3.2-62
	c1.3-24.6,3.6-49.2,4-73.8c0.6-32.6-25.8-60.1-58.2-62.1c-8-0.5-16-0.7-24-0.9c-27.2-0.5-54.4-0.7-81.7-1.5
	c-24.7-0.7-49.3-1.8-74-2.9c-25-1.1-50-2.3-74.9-3.6c-17-0.9-34.1-1.8-51-3.2c-30.7-2.5-61.4-5.5-92.1-8.1
	c-8.9-0.8-12.4,2.6-12.9,11.9c-0.6,9.6,0.6,11,10.7,11.9c32.1,2.9,64.2,6.1,96.4,8.5c35.4,2.6,70.9,4.9,106.4,6.5
	c33.3,1.6,66.7,2.2,100.1,3.1c20,0.6,39.9,1,59.9,1.5C1599.5,2452.1,1601.5,2452.5,1603.4,2452.9L1603.4,2452.9z"/>
<path class="st0" d="M2297.4,713.5c-34.7-2.3-69.4-4.5-104.1-6.9c-41.2-2.8-82.4-5.7-123.6-8.7c-41.2-3-82.4-5.9-123.6-8.8
	c-24.6-1.8-49.1-4.4-73.7-5.4c-15.3-0.7-32.5-13.9-31-36.2c1.5-22.8,2.9-45.6,4.3-68.3c1.2-18.1,2.3-36.2,3.7-54.2
	c1-12.3,10.1-21.4,22.8-22.4c17.4-1.3,34.7-2,52.1-3.2c26.4-1.8,52.8-3.8,79.1-5.5c18.1-1.2,36.2-2,54.3-3.2
	c26.7-1.8,53.5-3.8,80.2-5.5c18.8-1.2,37.6-2,56.5-3.2c26-1.7,52-3.7,78-5.5c1.1-0.1,2.2-0.1,3.3-0.2c19.7-1.6,28.6,5.4,30.2,26.1
	c3.9,50.9,8.7,101.8,13.2,152.7c1.2,13.7,2.7,27.4,3.8,41.1c1.1,13.1-3.5,17.8-16.8,17.8c-2.9,0-5.8,0-8.7,0L2297.4,713.5z
	 M2316.9,690.5c-3.2-35.1-6.2-69-9.3-103c-2.7-29.9-5.4-59.9-8.3-89.8c-1-10.9-6.1-15.4-16.9-15.8c-2.9-0.1-5.8,0-8.7,0.2
	c-30,2.1-60,4.3-90,6.3c-33.6,2.3-67.2,4.4-100.9,6.6s-67.2,4.4-100.9,6.5c-35.4,2.3-70.9,4.5-106.3,6.6
	c-12.7,0.8-20.2,7.7-21.2,20.4c-1,11.9-1.6,23.9-2.3,35.8c-1.5,26.8-2.9,53.6-4.6,80.3c-1.3,21.5,8.2,32.3,30,33.6
	c16.3,1,32.6,1.9,48.8,3.1c33.9,2.5,67.9,5.3,101.8,7.7c27.5,2,55,3.4,82.4,5.4c33.9,2.4,67.9,5.2,101.8,7.7c30,2.2,60,4.3,89.9,6.5
	c11.8,0.9,14.8-2,14.2-14C2316.8,693,2316.9,691.2,2316.9,690.5L2316.9,690.5z"/>
<path class="st0" d="M31.9,2004c0-14.5-1.3-29.1,0.3-43.5c2.6-23.8,16.9-38.7,39.7-45.2c34.6-9.9,69.1-19.6,103.7-29.4
	c63.6-17.9,127.1-35.8,190.7-53.6c4.5-1.3,9.2-2,13.9-2.1c7.6,0,12.2,4.8,11.9,12.4c-0.4,4.7-1.4,9.3-3,13.7
	c-18.7,57.3-37.4,114.5-56.2,171.8c-3.7,11.4-6.9,22.9-10.1,34.5c-16.9,60.2-65.5,102.5-127.3,109.6c-20.3,2.3-40.5-0.4-60.5-4.6
	c-28.8-6-57.7-11.3-86.6-16.6c-22.8-4.2-29.2-13.2-26.1-36.5c2.5-18.3,4.8-36.7,6.3-55.1s1.8-36.9,2.6-55.4L31.9,2004z M178.9,2167
	c46.7-0.8,84.8-19.5,113.8-56.3c13.7-17.4,20.6-37.9,27.2-58.9c20.7-66.1,42.5-131.9,63.8-197.9c1.7-5.3,5.7-11.1,0.5-16.3
	c-4.7-4.8-10.5-1.3-15.4,0.1c-97.5,27.3-194.9,54.8-292.3,82.4c-27.1,7.7-39.4,24.5-39.8,52.6c-0.2,17.4-1.3,34.8-1.2,52.2
	c0.1,32.7-3.6,65.1-8.1,97.4c-1.3,8.9,3.1,16.6,11.3,20.1c2.3,1,4.8,1.7,7.3,2.1c27.4,5.3,54.9,10.5,82.3,15.6
	C145,2163.3,161.5,2168.2,178.9,2167L178.9,2167z"/>
<path class="st0" d="M2646.1,2399.5c0.9-11.7,1.4-22.1,2.4-32.5c1.9-20.2,4-40.4,6-60.6c1.4-14.6,4.5-16.8,18.8-18.4
	c14.8-1.7,29.4-4.2,43.9-7.5c21.2-4.8,42-11.9,63.4-15.8c18.4-3.3,37.5-3.8,56.3-4.8c29.3-1.6,58.7-2.4,88-3.9
	c28.8-1.5,57.2-0.3,85.4,6.8c37,9.3,74.1,17.7,111.2,26.6c1.8,0.4,3.5,0.9,5.3,1.4c11.5,3.5,15.1,12.2,9,22.8
	c-5.4,9.5-11.2,18.7-16.8,28.1c-9.4,15.6-19,31-28.1,46.7c-7.4,12.8-17.6,19.2-33,18.7c-15.9-0.5-31.9,1.2-47.9,1.1
	c-41.8-0.4-83.5-1.3-125.3-2.1c-31.9-0.6-63.9-1.4-95.8-2.1c-32.7-0.7-65.3-1.4-98-2.2C2676.5,2401.2,2662.1,2400.3,2646.1,2399.5z
	 M2652.1,2394.1c2.1,0.4,4.2,0.7,6.3,0.9c29.4,0.8,58.8,1.5,88.2,2.2c30.5,0.7,61,1.5,91.4,2.2c33.8,0.8,67.5,1.8,101.3,2.1
	c39.2,0.4,78.5-0.1,117.7,0.2c12.4,0.1,21.6-4.4,27.9-15.3c9.1-15.7,18.8-31.1,28.2-46.6c5.5-9,11-18,16.3-27.1
	c5.8-9.9,4-14.1-7.3-17.1c-1.1-0.3-2.1-0.4-3.2-0.7c-29.7-7.1-59.4-13.9-89-21.3c-35.7-8.9-71.3-15.6-108.6-11.9
	c-31.7,3.1-63.7,4.2-95.6,4.4c-28.8,0.2-56.1,6.2-83.5,13.9c-23.1,6.5-46,13.3-70.4,13.6c-7.7,0.1-10.2,2.9-11.1,10.6
	c-2.1,19.4-4,38.9-5.9,58.4C2653.9,2373,2653.1,2383.4,2652.1,2394.1L2652.1,2394.1z"/>
<path class="st0" d="M2747.7,501.4c-0.9,10-0.6,18.7-2.7,26.8c-3,11.2-6.8,22.1-11.5,32.8c-5,11.7-11.3,22.8-16.8,34.2
	c-6.2,12.9-9.6,26.5-9.4,41c0.5,28.3,0.9,56.6,1.4,84.9c0.3,12.4,3.9,16,16.2,16.9c41.6,2.9,83.1,5.8,124.7,8.8
	c41.2,2.9,82.4,5.8,123.6,8.7c7.2,0.5,14.4,1.5,21.6,2c11.1,0.7,15.7-3.3,15.4-14.4c-0.4-14.8-1.4-29.7-2.3-44.5
	c-1.6-26-3.2-52.1-4.9-78.1c-2.5-36.5-5.3-73-7.8-109.5c-1.2-17.4-2.2-34.8-3-52.1s-6.8-22.2-23.9-20.7c-18.4,1.6-36.9,2.1-55.4,3.3
	c-27.1,1.8-54.2,3.8-81.3,5.6c-18.8,1.2-37.7,2.1-56.5,3.1c-2.2,0.1-4.4,0-6.5,0.2c-15.6,1.8-15.6,1.8-23.6,14.7
	c-4-2.6-3.3-6.2-1.7-9.4c2.9-6,7.8-9.4,14.6-9.9c15.6-1,31.1-2,46.7-3c27.1-1.8,54.2-3.8,81.3-5.6c18.5-1.2,36.9-2,55.4-3.1
	c9.4-0.6,18.8-1.3,28.2-2c19.2-1.5,26.7,5.2,28,24.3c2.5,36.5,5.3,73,7.8,109.5c2,30,3.4,60.1,5.3,90.1c1.6,25.3,3.7,50.6,5.5,75.9
	c0.3,4.3,0.2,8.7,0.1,13.1c-0.2,12.3-6.7,18.8-19,18.5c-11.6-0.4-23.2-1.4-34.7-2.2c-17.7-1.3-35.4-2.9-53.1-4.2
	c-29.3-2.1-58.6-4.1-87.8-6.1c-32.9-2.3-65.8-4.7-98.7-7c-13.5-0.9-19.7-7-19.9-20.7c-0.4-31.6-0.6-63.2-0.8-94.8
	c-0.1-13,4-25,9.5-36.6c5.2-11.2,10.8-22.2,16.5-33.2c7.7-15.1,12.5-30.9,13.3-47.9C2741.6,507.5,2741.1,504,2747.7,501.4z"/>
<path class="st0" d="M2920.8,1396c-8.4,0-16.7,0.1-25.1,0c-16.3-0.2-25.5-11.9-21.1-27.6c11.2-39.8,22.8-79.5,34.3-119.3
	c21.4-74.3,42.9-148.5,64.4-222.8c0.6-2.1,1.2-4.2,1.9-6.3c4.2-14.1,10.4-17.8,25.2-15.1c14.3,2.6,28.6,5.1,42.8,7.7
	c26,4.8,52.1,9.4,78.1,14.4c14.7,2.8,17.1,8,9.8,20.9c-27.8,48.5-55.3,97.2-83.5,145.5c-29.1,49.8-51.5,102.4-70.3,156.7
	c-3.9,11.3-8.2,22.5-12.4,33.7c-3.7,9.8-6.6,11.9-16.8,12C2938.9,1396.1,2929.9,1396,2920.8,1396z M3130.7,1035.6
	c-5.9-1.5-9.6-2.7-13.4-3.4c-18.5-3.5-37.1-6.8-55.6-10.2c-20.7-3.8-41.4-7.6-62.1-11.3c-11.5-2-15.1,0.3-18.6,11.1
	c-0.4,1.4-0.9,2.7-1.3,4.1c-11.3,39.1-22.6,78.1-33.8,117.1c-21.6,74.6-42.8,149.3-64.9,223.7c-4.2,14.2,4.5,24.6,17.4,23.7
	c15.9-1.1,32-0.5,47.9-0.1c7.3,0.2,11.4-2.6,13.7-9.5c4.9-14.4,10.5-28.6,15.6-43c16.6-47.3,36.1-93.4,61.1-137
	c29.3-51,58.5-102,87.7-153.1C3126.1,1044.4,3127.8,1040.9,3130.7,1035.6z"/>
<path class="st0" d="M349.2,2402c8.4-17.8,20.2-31.4,35.6-40.6c30-17.8,60-35.7,92.7-48.1c46.7-17.6,94.7-20.4,143.5-11
	c59.5,11.4,119,22.8,178.6,34.1c11.6,2.2,17.6,8.2,15.4,16.9c-3.1,12.2-6.2,20.9-21.9,18c-36-6.8-72-13.7-108-20.5
	c-28.2-5.3-56.2-11.9-84.6-15.5c-56.6-7.3-120.9,21.9-150.4,84.4c-0.9,2-1.7,4-2.7,6c-4.4,8.8-10.2,11.2-19.7,8.2
	c-2.8-0.9-5.4-2.2-8.1-3.3c-20.3-8-40.5-16-60.8-24.1C356.1,2405.3,353.2,2403.8,349.2,2402z M357.4,2399.2
	c10.5,4.2,19.9,8,29.3,11.8c13.8,5.5,27.6,11.1,41.5,16.4c8.2,3.1,10.8,1.9,14.6-5.9c1.1-2.3,2.1-4.6,3.2-6.9
	c28.9-60.3,96.4-96.1,165.6-83.8c35.3,6.3,70.5,13.5,105.8,20.2c25.3,4.8,50.6,9.6,75.9,14.4c4,0.8,8.6,1.9,10.9-2.1
	c2.4-4.2,4.7-9.4,4.5-14.1c-0.2-5.7-6.2-6.1-10.9-7.1c-1.4-0.3-2.8-0.6-4.3-0.9c-52.4-10-104.8-20-157.1-29.9
	c-27-5.1-54-10-81.8-8.1c-29.7,2-58.5,7.4-85.3,20c-26.2,12.3-51.7,26.4-77.1,40.4C377.8,2371.7,366.5,2383.5,357.4,2399.2z"/>
<path class="st0" d="M1839.2,1976.5c0-8.2,0.2-14.4,0-20.6c-1.3-33.2,3.7-65.8,7.3-98.6c0.5-4.7,0.8-9.4,1.6-14
	c1.3-8.6,5.9-13.1,14.6-13c19.9,0.2,39.9,1.1,59.8,1.7c2.5,0.1,5.1,0.3,7.6,0.3c26.5,0.3,53,0.4,79.5,0.9
	c33.4,0.6,66.7,1.3,100.1,2.2c18.8,0.5,37.7,0.9,56.5,2c13.8,0.8,18.9,7.5,18.2,21.3c-1.3,27.2-2.1,54.4-3.4,81.5
	c-1.2,25.7-2.7,51.4-4.1,77.1c-0.5,9.4-0.8,18.8-1.5,28.2c-0.8,11.4-4.2,14.5-15.7,14.8c-33.1,0.9-66-0.7-98.7-5.9
	c-27.9-4.5-56.1-7.7-84.1-11.2c-7.9-0.8-15.9-1.2-23.9-1.2c-26.9-0.5-53.7-0.8-80.6-1.3c-6.9-0.1-13.8-0.5-20.6-1
	c-8.9-0.6-13.1-4.8-13.2-13.9c-0.2-14.2,0.1-28.3,0.3-42.5C1838.8,1980.3,1839.1,1977.4,1839.2,1976.5z M2133.9,2054.5
	c9.3,0,17.3,0.2,25.3-0.1c7.6-0.3,9.9-2.3,10.4-9.7c1-14.1,1.6-28.2,2.3-42.4c1-19.2,1.9-38.4,2.8-57.6c1.3-27.2,2.4-54.3,3.8-81.5
	c1.1-21.1-4.6-19.1-20.3-21.4c-0.4,0-0.7,0-1.1,0c-52.6-1-105.2-2-157.8-3c-25.4-0.5-50.8-0.8-76.2-1.4c-19.2-0.5-38.4-1.4-57.6-2
	c-7-0.2-11,2.9-11.7,10c-3.6,32.8-9.3,65.3-8.9,98.5c0.2,13.4-0.1,26.9-0.4,40.3c-0.2,13-0.9,26.1-0.8,39.1
	c0.1,7.9,2.7,10,10.8,10.3c21.8,0.8,43.5,2.4,65.2,2c41.2-0.8,81.7,4.4,122.4,9.8C2073.1,2049.5,2103.8,2055.9,2133.9,2054.5z"/>
<path class="st0" d="M2767.9,1828.3c21,0.9,42.1,1.7,63.1,2.6c26.4,1.1,52.9,2.4,79.3,3.4c12.7,0.5,25.4,0.5,38.1,0.9
	c6.1,0.2,12.3,0.6,18.4,1.4c11.1,1.4,16.4,8.1,15,19.7c-1.1,9.4-3.2,18.6-5,27.9c-11.6,59.9-23.2,119.8-34.8,179.6
	c-3.2,16.7-9.5,21.4-26.8,22.3c-27.5,1.5-54.9,3.7-82.4,5.5c-19.2,1.2-38.4,2-57.6,3.2c-27.1,1.7-54.3,3.4-81.3,5.5
	c-13.7,1-23-8.2-21.2-22.1c8.3-62.7,19.5-124.8,35.9-185.9c3.8-14,7.5-28.1,11.6-42c5-16.5,13.2-22.4,30.3-22.5c5.8,0,11.6,0,17.4,0
	L2767.9,1828.3z M2697.9,2094l0.1,0.4c6.1-0.6,12.2-1.3,18.4-1.7c27.1-1.6,54.3-3.1,81.4-4.7c39.1-2.3,78.1-4.8,117.2-7
	c13.7-0.8,18.7-4.9,21.3-18.4c4.7-24.2,9.4-48.4,14.1-72.7c8.3-42.7,16.6-85.5,24.8-128.3c2.9-14.8-0.2-18.9-15.6-20
	c-8.3-0.6-16.7-0.3-25-0.7c-23.2-1.1-46.3-2.4-69.5-3.4c-25-1.1-50-1.9-75-2.9c-13-0.5-26.1-1.3-39.1-1.4
	c-13.5-0.1-20.6,5.5-24.9,18.4c-0.7,2.1-1.3,4.2-1.9,6.3c-17.7,61-31.4,123.2-40.8,186c-1.8,11.8-3.5,23.7-4.7,35.6
	c-1,9.8,4.2,15.1,13.9,15C2694.3,2094.5,2696.1,2094.2,2697.9,2094L2697.9,2094z"/>
<path class="st0" d="M2185.6,2025.2c0.8-20.6,1.6-41.3,2.6-62c1.2-25.3,2.6-50.7,3.9-76c0.6-10.5,1.2-21,1.8-31.5
	c0.8-12.3,8.7-19,21-17.7c2.9,0.3,5.8,0.8,8.6,0.8c26.5,0.3,53,0.4,79.6,0.9c33.8,0.6,67.5,1.3,101.2,2.2c20.7,0.5,41.3,1.4,62,2.2
	c11.8,0.4,18,6,17.6,17.3c-0.8,26.1-2.2,52.2-3.3,78.2c-0.4,9.1-0.6,18.1-0.9,27.2c-0.7,22.1-1.4,44.2-2.2,66.4
	c-0.4,9.8-1.1,19.5-1.4,29.3c-0.4,13.5-7.6,20.7-20.5,19.4c-17.7-1.7-35.4-3.1-53.1-4.8c-51.6-5-103.1-10.3-154.7-15
	c-15.1-1.4-30.4-1.6-45.6-2c-14.4-0.4-16.9-2.7-17-17.5c0-5.8,0-11.6,0-17.4L2185.6,2025.2z M2235.1,1844.4v-0.3
	c-6.2,0-12.4,0.1-18.5,0c-13.4-0.2-16.9,3-17.5,16.2c-1.5,30.8-3,61.5-4.4,92.3c-0.4,8.7-0.6,17.4-1.1,26.1c-1.1,21-2.4,42-3.2,62.9
	c-0.4,11.6,1.6,13.1,13.3,13.3c14.5,0.3,29.1-0.1,43.5,1.2c40,3.6,80,7.9,120,11.9c27.8,2.8,55.5,5.5,83.2,8.4
	c14.1,1.5,19.5-2.4,20.3-17c1.1-19.5,1.6-39.1,2.3-58.7c0.8-21.4,1.5-42.8,2.4-64.1c0.4-10.1,1.4-20.2,1.8-30.4
	c0.5-14.9,0.9-29.8,0.9-44.6c0-7.3-3.6-11-10.3-11.7c-7.2-0.7-14.4-1.3-21.7-1.5c-31.2-0.8-62.4-1.5-93.6-2.2
	C2313.5,1845.5,2274.3,1845,2235.1,1844.4L2235.1,1844.4z"/>
<path class="st0" d="M2437.9,2266.7c-34.9-2.2-68.2-4.3-101.5-6.4c-26.8-1.6-53.6-3.2-80.3-4.8c-23.2-1.4-46.3-2.9-69.4-4.4
	c-7.6-0.5-11.3-4.2-11.4-11.7c0-8.3,0.8-16.6,1.3-24.9c1.4-26.8,2.9-53.6,4.3-80.4c0.8-16.3,1.4-32.6,2.3-48.9
	c0.6-12.2,3.6-14.7,16.2-15.1c29.5-0.9,58.7,1.6,88,4.6c54.4,5.5,108.9,10.6,163.4,16c4,0.3,7.9,1,11.7,2.2
	c7.3,2.4,11.6,10.3,10.7,19.5c-2.2,20.9-4.4,41.8-6.8,62.7c-2.7,23.8-5.6,47.5-8.3,71.3c0,0.4,0,0.7,0,1.1
	C2455.8,2264,2456.1,2269.2,2437.9,2266.7z M2218.3,2074.3l-0.1,0.9c-5.8,0-11.6-0.1-17.4,0c-9.8,0.2-12,2.4-12.6,12.2
	c-0.8,15.9-1.5,31.9-2.2,47.8c-0.4,8.7-0.6,17.4-1.1,26.1c-1.3,25-2.8,50-4,74.9c-0.3,7.2,1.4,8.5,9.1,9c16.6,1.2,33.2,2.4,49.9,3.5
	c34.7,2.2,69.5,4.5,104.2,6.5c32.2,1.9,64.4,3.6,96.7,5.4c9.1,0.5,9.6,0.1,10.8-9.1c1.2-10.1,2.4-20.2,3.5-30.3
	c4-35.7,8-71.3,11.7-107c1.3-12.4-2.2-16.5-14.6-17.8c-28.1-2.9-56.3-5.5-84.4-8.3s-56.2-5.8-84.4-8.4
	C2261.6,2077.8,2240,2076.2,2218.3,2074.3L2218.3,2074.3z"/>
<path class="st0" d="M2484.5,2065.4c1.4-26.8,2.7-49.2,3.8-71.6c0.4-9.1,0.6-18.1,0.9-27.2c0.7-21.7,1.4-43.5,2.2-65.2
	c0.5-13.4,1.3-26.8,2.2-40.2c0.7-10.3,6.4-15.4,17-15.8c25.5-0.9,50.5-4.2,75-11.7c19.8-6.1,40.1-10.3,60.8-11.2
	c12.7-0.4,25.4,0.2,38,1.6c9.7,1,15.4,10.9,12.9,21.5c-2.6,10.9-6.1,21.7-9,32.5c-17.4,64.1-30.2,129.3-38.2,195.2
	c-1.6,13.8-9.7,27-28.9,25.1c-21.3-2.1-42.5-4.1-63.8-6.1c-15.9-1.5-31.7-3.6-47.6-4.6C2491.7,2086.6,2483.1,2082.5,2484.5,2065.4z
	 M2491.2,2049.4h-0.6c0,6.5-0.2,13.1,0.1,19.6s3.3,10.1,9.4,11.7c2.5,0.5,5,0.9,7.6,1c18,1.9,36,3.8,54,5.5c19.5,1.9,39,4,58.5,5.3
	c15.7,1,21.7-4.9,24-20.1c5.2-33.3,9.4-66.9,16.3-99.8c8.8-41.9,19.8-83.3,30-124.9c2.9-11.9-0.7-18.1-12.1-18.9
	c-25.9-1.9-51.5-0.5-76.6,6.5c-8,2.3-16.2,4.2-24.2,6.5c-20.7,6-41.9,8.3-63.4,8.7c-11,0.2-14.2,3.3-14.9,14.1
	c-0.6,8.7-1,17.3-1.4,26c-0.4,9.4-0.5,18.9-0.9,28.3c-1.1,22.1-2.4,44.1-3.4,66.2C2492.6,2006.6,2492,2028,2491.2,2049.4
	L2491.2,2049.4z"/>
<path class="st0" d="M2675.9,2281.9c-12.3,1-18.8-4.4-17.3-19.7c3.1-31.7,6-63.5,9.1-95.2c1.2-12.3,2-24.6,3.9-36.7
	c2.1-13.5,9.2-19.9,22.4-20.9c22.8-1.7,45.6-2.9,68.3-4.4c27.1-1.8,54.2-3.8,81.3-5.6c19.2-1.2,38.4-2.1,57.6-3.2
	c4.7-0.3,9.4-1,14-1.3c12.6-0.8,19.2,6.3,16.9,18.6c-7.4,38.9-14.9,77.7-22.5,116.5c-2.8,14.2-9.9,20.5-24.7,21.5
	c-17.7,1.2-35.5,2.3-53.2,2.4c-30.8,0.2-60.5,5.5-90,14c-18.4,5.3-37.4,8.8-56.1,13C2682.4,2281.6,2679.1,2281.6,2675.9,2281.9z
	 M2909.8,2101.2c-10.5,0.7-21,1.3-31.5,2c-31.5,2-62.9,4.1-94.4,6.1c-27.9,1.8-55.7,3.2-83.6,5.1c-17.5,1.2-22.9,6.9-24.4,24.1
	c-1.6,18.4-3.5,36.8-5.3,55.2c-2.3,23.8-4.7,47.6-6.8,71.4c-0.6,7.3,2.6,10.7,10.3,10.6c5.8,0.1,11.6-0.5,17.3-1.6
	c20.1-4.7,40.2-9.6,60.2-14.9c18.6-5,37.3-9.1,56.7-9.7c14.5-0.4,29-1.4,43.5-2c9.1-0.4,18.2,0,27.2-1c14.6-1.7,22.1-1.3,26.2-23
	c6.5-35,13.5-69.9,20.1-104.8C2928.4,2102.3,2926.8,2100.5,2909.8,2101.2z"/>
<path class="st0" d="M1183.1,2432.9c-31.4-3.8-64.6-7.3-97.5-12c-50.6-7.3-101.1-15.3-151.5-23.4c-29.3-4.8-58.5-10.5-87.8-15.8
	c-2.5-0.4-5-1-7.4-1.8c-4.8-1.5-7.1-5.3-7-9.9c0-15.4,11.2-24.8,26.8-22.2c17.2,2.9,34.2,6.6,51.4,9.4c58.3,9.4,116.7,19,175.1,27.6
	c34.8,5.2,69.7,8.8,104.6,13.1c11.4,1.4,15.3,6.1,14.7,17.3c0,0.4-0.1,0.7-0.1,1.1C1203.4,2436.1,1198.1,2432.9,1183.1,2432.9z
	 M837.3,2371.6c18.2,9.5,246.3,45.8,349.8,56c3.1,0.3,6.3-0.4,9.6-0.6c0.5-3.1,1-5.2,1.2-7.3c1.3-13.6,0.7-14.8-13.1-16.6
	c-37.7-4.9-75.6-8.9-113.3-14.4c-48.8-7.1-97.5-15-146.2-22.9c-23.3-3.8-46.4-8.5-69.6-12.6c-7.8-1.4-11.5,0.6-14.7,7.6
	C839.6,2364.2,838.7,2367.6,837.3,2371.6L837.3,2371.6z"/>
<path class="st0" d="M270.2,2370.4c-5-1.7-8.2-2.6-11.1-3.8c-77.9-31.1-155.8-62.2-233.7-93.4c-2.4-0.9-4.8-1.9-7-3
	c-12.8-6.4-19.8-17.8-18.1-31.8c1.3-11.2,3.3-22.2,6.1-33.1c3.5-13.7,15.2-20.6,29.2-17.9c39.2,7.5,78.4,15,117.6,22.5
	c66.4,12.9,113.9,71.1,117.8,131.7c0.4,5.8,1.2,11.6,1.2,17.3C272.2,2362.3,271,2365.7,270.2,2370.4z M265.9,2362.5
	c0.3-3.7,0.7-6.2,0.6-8.7c-2.1-66.9-46.3-119-103-135.2c-11.1-3.2-22.6-5.1-34-7.3c-31.3-6.1-62.7-12.1-94-18
	c-10.7-2-20.2,2.2-22.7,11.8c-3.1,12.3-5.2,24.8-6.4,37.4c-1,10,5,17.1,13.5,21.9c2.9,1.5,5.9,2.7,9,3.8
	c75.5,30.2,151,60.4,226.5,90.5C258.6,2359.9,261.9,2361,265.9,2362.5L265.9,2362.5z"/>
<path class="st0" d="M2639.7,2134.9c-3,32.1-6.1,64.2-9.1,96.3c-0.9,9.7-1.7,19.5-2.6,29.2c-1.2,12.1-8.3,18.3-20.4,17.5
	c-32.1-2.1-64.3-4.4-96.4-6.6c-10.5-0.7-21-1.2-31.4-1.9c-12.2-0.8-14.9-4.3-13.4-16.6c4.1-35.3,8.1-70.5,11.9-105.8
	c1.3-11.9,2.3-23.8,3.8-35.6c1.2-9.9,6.6-15.3,16.6-14.9c14.1,0.4,28.2,1.7,42.3,3c25.6,2.4,51.1,5.2,76.7,7.8
	c2.9,0.3,5.8,0.4,8.6,0.9c8.3,1.6,13.1,7.4,13.5,15.9C2639.8,2127.7,2639.7,2131.3,2639.7,2134.9z M2471.1,2261.9
	c5.3,0.9,9.2,1.9,13.1,2.2c40.5,2.6,81,5.1,121.5,7.5c11.4,0.7,15.4-2.5,16.5-13.4c2.9-29.2,5.7-58.4,8.4-87.6
	c1.3-13.7,2.9-27.4,3.8-41.1c0.7-10.9-2.4-14.3-13.2-15.8s-21.6-2.5-32.4-3.6c-27.4-2.8-54.8-5.3-82.2-8.2
	c-13.9-1.5-18.2,1.8-19.7,16.1c-4.2,38.2-8.6,76.3-12.9,114.5C2473,2241.8,2472.2,2251.1,2471.1,2261.9L2471.1,2261.9z"/>
<path class="st0" d="M2338.6,687.4c0.7,2.9,1.4,5.9,2.2,8.8c2.3,9,7.5,14.8,17.2,15.6c17.3,1.5,34.6,3,52,4.2c30,2.2,60,4.3,90,6.3
	c34,2.3,68,4.5,102,6.9c23.5,1.7,46.9,3.7,70.4,5.6c10.5,0.8,13.6-3.9,13.3-12.3c-1.1-27.5-2-55.1-2.1-82.7
	c-0.1-19,3.3-37.6,11.8-54.9c5.6-11.4,11.1-22.9,17-34.1c7-13.2,11-27.7,11.7-42.7c0.1-1.4,0.3-2.9,0.7-4.3c0.1-0.5,1-0.8,2.4-1.9
	c0.7,2,1.8,3.8,1.9,5.5c0.9,15.3-3.3,29.5-9.8,43.1c-5.9,12.1-12.1,24-18,36.1c-8.8,18.3-13.1,37.6-11.4,58c0,0.4,0,0.7,0,1.1
	c0.5,25.8,1.1,51.5,1.4,77.3c0.2,13.8-3.7,17.7-17.6,17c-22.4-1.1-44.8-3-67.3-4.5c-34.7-2.4-69.4-4.7-104.1-7.2
	c-37.6-2.7-75.2-5.5-112.7-8.3c-10.5-0.8-21-1.3-31.4-2.4c-14-1.4-22.7-10.4-23.6-24c-0.1-2.1,1.1-4.3,1.7-6.4L2338.6,687.4z"/>
<path class="st0" d="M2449.9,2395.6c3.3-29.2,6.3-56.1,9.3-83.1c0.9-8.3,1.9-16.6,3-24.8c1.4-10.9,3.7-13,14.9-12.5
	c18.1,0.8,36.2,1.9,54.3,3c19.9,1.3,39.8,2.8,59.6,4.3c5.8,0.4,11.6,0.8,17.3,1.6c10,1.4,15.6,7.5,15.2,17.8
	c-0.6,13.7-2.2,27.4-3.5,41.1c-1.5,16.2-3,32.5-4.6,48.7c-0.4,2.6-1,5.2-1.7,7.7L2449.9,2395.6z M2609.5,2393.8
	c0.9-9.5,1.7-17.8,2.5-26c2-20.6,4.2-41.1,5.8-61.7c0.9-11.6-3-16.1-14.6-17c-21.3-1.7-42.6-3.1-64-4.4c-19.2-1.2-38.4-2-57.5-3.5
	c-12-1-13-0.6-14.3,11.3c-2.8,24.9-5.8,49.7-8.6,74.6c-0.8,7.4-1.4,14.9-2.1,23.3L2609.5,2393.8z"/>
<path class="st0" d="M2320.4,498.9c-5.4-11.2,0.3-23.1,11.5-25.2c9.2-1.7,18.7-2,28.1-2.6c27.8-2,55.7-3.8,83.5-5.7
	c18.5-1.2,36.9-2,55.4-3.1c26.8-1.7,53.5-3.7,80.2-5.5c17.7-1.2,35.5-2.1,53.2-3.2c21.3-1.3,42.7-2.8,64-4
	c6.5-0.5,13.1-0.6,19.6-0.2c9.8,0.8,14.2,8.3,11.4,18.3c-0.7-0.1-1.8-0.1-1.9-0.4c-5.9-12.6-7.4-13.7-21.5-12.8
	c-37.2,2.5-74.4,5.3-111.7,7.7c-30.4,2-60.8,3.4-91.2,5.3c-26,1.7-52,3.8-78,5.5c-18.5,1.2-36.9,2.1-55.4,3.2
	c-9,0.5-18.1,1-27.1,1.8c-11.7,1.1-14.7,4-17.9,15.4C2322.2,494.8,2321.5,496,2320.4,498.9z"/>
<path class="st0" d="M2305.8,740.5l-1.9,2.5l-2.6-2.4c0.7-0.6,1.3-1.8,2-1.8S2304.8,739.8,2305.8,740.5z"/>
<path class="st1" d="M2916.8,906.5l-283.2,932.3c-11.6,38.1-46.8,64.2-86.6,64.2H1809l-9.8,146.2c-1.9,27.9-25,49.6-53,49.5h-36.6
	l-10.5,215.6c-2.1,43.1-38.7,76.3-81.8,74.2c-1.4-0.1-2.7-0.2-4.1-0.3l-948.7-96.5C549,2280,442,2238.5,438.3,2122.4
	c-2.1-67.4,103.2-364.1,151.5-599.8l110.8-745.7c8.9-44.7,49.5-76.1,95-73.4L2860,825.1c34.8,2,61.4,31.9,59.4,66.8
	C2919.1,896.8,2918.2,901.7,2916.8,906.5z"/>
<linearGradient id="SVGID_1_" gradientUnits="userSpaceOnUse" x1="1385.2111" y1="264.4912" x2="2117.2109" y2="2144.4912" gradientTransform="matrix(1 0 0 -1 -216.48 2623.7556)">
	<stop  offset="0" style="stop-color:#22BF9D"/>
	<stop  offset="1" style="stop-color:#2F3C67"/>
</linearGradient>
<path class="st2" d="M2879.8,774.5l-283.2,932.3c-11.6,38.1-46.8,64.2-86.6,64.2H1772l-9.8,146.3c-1.9,27.9-25,49.6-53,49.5h-36.6
	l-10.5,215.6c-2.1,43.1-38.7,76.3-81.8,74.2c-1.4-0.1-2.7-0.2-4.1-0.3l-948.7-96.6c-115.6-11.8-222.7-53.3-226.3-169.4
	c-2.1-67.4,103.2-364.1,151.5-599.8l110.9-745.8c8.9-44.7,49.5-76.1,95-73.4L2823.1,693c34.8,2.1,61.4,32,59.4,66.8
	C2882.1,764.8,2881.3,769.7,2879.8,774.5z"/>
<path class="st3" d="M1336.5,712.4h0.9c-3.2,0-6.3,0-9.5,0C1330.8,712.4,1333.7,712.5,1336.5,712.4z"/>
<polygon class="st3" points="1279.4,1441.9 1281.3,1448.1 1258.7,1375.1 "/>
<path class="st3" d="M1815.7,1193.1l-3,0.9c1.4-0.4,2.7-0.8,4.1-1.2C1816.4,1192.9,1816.1,1193,1815.7,1193.1z"/>
<path class="st3" d="M1177.8,721.2c0.3-2.7,0.5-5.5,0.7-8.3c0.1-1,0.1-2,0.2-3c-0.3,5.1-0.7,10.2-1.3,15.3
	C1177.6,723.8,1177.7,722.5,1177.8,721.2z"/>
<path class="st3" d="M1177.3,726.3c-0.5,5.1-1.2,10.3-1.9,15.4c0.7-4.7,1.3-9.3,1.8-14C1177.3,727.2,1177.3,726.7,1177.3,726.3z"/>
<path class="st3" d="M2059.2,1606.6c0.8-3.9,1.7-7.8,2.6-11.6c-0.9,3.8-1.8,7.5-2.6,11.3C2059.3,1606.3,2059.3,1606.5,2059.2,1606.6
	z"/>
<path class="st3" d="M2135,1084.2c-0.5,5.7-0.8,11.3-1.2,17C2134.2,1095.5,2134.6,1089.8,2135,1084.2L2135,1084.2z"/>
<path class="st3" d="M1543,1489.8c-0.6-2.5-1.2-5-1.7-7.5c0.5,2.4,1.1,4.8,1.7,7.2C1543,1489.6,1543,1489.7,1543,1489.8z"/>
<path class="st3" d="M2135.2,1082.4c0.4-5.2,0.9-10.3,1.5-15.4c0,0.3,0,0.5-0.1,0.8C2136.1,1072.6,2135.6,1077.5,2135.2,1082.4z"/>
<path class="st3" d="M1802.1,1299.5c5.2-1,10.4-1.9,15.6-2.7c-3,0.5-6,1-9,1.5C1806.5,1298.7,1804.3,1299.1,1802.1,1299.5z"/>
<path class="st3" d="M1938.5,1037.5c-0.4-1.9-0.8-3.7-1.2-5.6c0.1,0.3,0.1,0.7,0.2,1C1937.8,1034.5,1938.1,1036,1938.5,1037.5z"/>
<path class="st3" d="M2479.3,1709.3c1.6,0,3.2,0,4.8,0.1l-2.1-0.1C2481.2,1709.3,2480.3,1709.3,2479.3,1709.3z"/>
<polygon class="st3" points="2382.4,1145.9 2382.6,1146 2382.4,1145.9 "/>
<path class="st3" d="M2420.3,1118.1c-1.8,2.9-3.6,5.9-5.5,8.7c1.1-1.6,2.2-3.2,3.2-4.9C2418.8,1120.7,2419.5,1119.4,2420.3,1118.1z"
	/>
<path class="st4" d="M1156.7,850.8c-6.8-0.5-13.1,3.5-15.4,9.9l-54.1,148.3c-1.6,4.7,0.8,9.9,5.6,11.5c0.7,0.3,1.5,0.4,2.3,0.5
	c54.1,4.4,108.5-5.9,157.3-29.8c8.6-4.2,14.4-12.6,15.1-22.2l7.4-97.5c0.5-6.6-4.5-12.4-11.1-12.8c0,0-0.1,0-0.1,0l-21-1.5l-0.4,6
	l-60.7-4.5l0.5-6L1156.7,850.8z"/>
<path class="st4" d="M1589.8,1016.3c29.2,8.6,59.4,13,89.8,13.1c1.1,0,2.2-0.1,3.3-0.3c0.3,0,0.5-0.2,0.8-0.2
	c0.8-0.2,1.6-0.4,2.3-0.8l0.2-0.1c0.7-0.3,1.4-0.7,2.1-1.1c0.1-0.1,0.3-0.2,0.4-0.3c0.6-0.4,1.2-0.9,1.8-1.4
	c0.2-0.2,0.4-0.4,0.6-0.5c0.5-0.5,1-1,1.4-1.6c0.1-0.2,0.3-0.3,0.4-0.5c0.5-0.7,1-1.5,1.3-2.3c0.1-0.2,0.2-0.4,0.3-0.6
	c0.3-0.7,0.5-1.3,0.7-2c0.1-0.3,0.2-0.5,0.2-0.8c0.2-0.9,0.4-1.8,0.4-2.8l6.6-106.8c0-0.8,0-1.6-0.1-2.4c0-0.3-0.1-0.5-0.1-0.8
	c-0.1-0.5-0.2-1-0.4-1.5c-0.1-0.3-0.2-0.5-0.3-0.8c-0.2-0.5-0.4-1-0.7-1.4c-0.1-0.2-0.2-0.4-0.3-0.6c-0.4-0.6-0.8-1.3-1.3-1.8
	c0-0.1-0.1-0.1-0.2-0.2c-0.5-0.5-0.9-1-1.5-1.4c-0.2-0.2-0.4-0.3-0.6-0.5c-0.4-0.3-0.8-0.6-1.3-0.8l-0.8-0.4
	c-0.2-0.1-0.3-0.2-0.5-0.3s-0.6-0.2-0.9-0.3s-0.5-0.2-0.8-0.3c-0.8-0.2-1.5-0.3-2.3-0.4l-92.1-6.9c-7.1-0.5-13.4,4.9-13.9,12
	c0,0.1,0,0.1,0,0.2l-6.2,101C1577.8,1007.3,1582.6,1014.1,1589.8,1016.3z"/>
<path class="st4" d="M1560.4,1109.8c-0.3-3.6-3.4-6.3-6.9-6c0,0-0.1,0-0.1,0c-0.5,0-0.9,0.1-1.3,0.3l-70.2,20.9
	c-3.4,1-5.4,4.6-4.4,8.1v0.1l7.4,24c1.2,3.9,4.7,6.6,8.8,6.8l70.2,3.6c3.6,0.2,6.6-2.6,6.8-6.1c0-0.8-0.1-1.6-0.3-2.4L1560.4,1109.8
	z"/>
<path class="st4" d="M1534,1360.5c-0.9-3.8-2-7.6-3.1-11.4l-22-71.3c-1-3.3-4.4-5.2-7.7-4.4c-3.7,0.9-7.3,1.9-11,3l-53.3,16.5
	c-3.6,1.1-7.2,2.3-10.8,3.7c-3.2,1.2-4.9,4.7-3.9,8l25.4,82c0.2,0.6,0.4,1.1,0.7,1.7c0.1,0.2,0.2,0.4,0.4,0.6
	c0.1,0.2,0.3,0.5,0.4,0.7c0.1,0.1,0.1,0.2,0.2,0.2c0.1,0.2,0.3,0.3,0.4,0.5s0.5,0.5,0.8,0.8s0.3,0.3,0.5,0.4
	c0.3,0.3,0.7,0.5,1.1,0.7c0.1,0.1,0.2,0.1,0.3,0.2c0.5,0.3,1,0.5,1.6,0.6c0.1,0,0.3,0.1,0.4,0.1c0.4,0.1,0.8,0.2,1.2,0.3l0.6,0.1
	c0.4,0,0.8,0,1.2,0c0.2,0,0.4,0,0.6,0c0.6-0.1,1.2-0.2,1.7-0.3l67.8-21c0.6-0.2,1.1-0.4,1.6-0.7c0.2-0.1,0.3-0.2,0.5-0.3
	s0.6-0.4,0.9-0.6l0.5-0.4c0.3-0.2,0.5-0.5,0.8-0.8c0.1-0.1,0.3-0.3,0.4-0.4c0.3-0.3,0.5-0.7,0.8-1.1l0.2-0.3c0.3-0.5,0.5-1,0.7-1.5
	c0-0.1,0.1-0.3,0.1-0.4c0.1-0.4,0.2-0.8,0.3-1.2c0-0.2,0-0.4,0.1-0.6s0.1-0.4,0.1-0.6s0-0.2,0-0.3
	C1534.2,1362.1,1534.2,1361.3,1534,1360.5z"/>
<path class="st4" d="M943.2,1477.9l-12.7,60.3c-0.1,0.5-0.1,1-0.1,1.4c0,0.1,0,0.3,0,0.4c0,0.3,0.1,0.7,0.2,1c0,0.1,0,0.1,0,0.2
	c0,0.1,0.1,0.2,0.1,0.3c0.1,0.2,0.2,0.4,0.3,0.7c0.1,0.2,0.2,0.4,0.3,0.5c0.1,0.2,0.2,0.4,0.3,0.5c0.1,0.2,0.2,0.3,0.4,0.5
	c0.1,0.2,0.3,0.3,0.4,0.4c0.1,0.1,0.3,0.3,0.5,0.4c0.2,0.1,0.3,0.2,0.5,0.4l0.6,0.3c0.4,0.2,0.8,0.3,1.2,0.4l0.3,0.1h0.2
	c0.3,0.1,0.7,0.1,1,0.1c0.1,0,0.3,0,0.4,0c0.5,0,1-0.1,1.4-0.2l122-34.4c3.4-1,5.5-4.5,4.5-8c0,0,0,0,0,0c0-0.1,0-0.1,0-0.2
	l-17.3-56.1c-1.1-3.4-4.7-5.3-8.1-4.3l-89.8,27.8C946.4,1471.6,943.9,1474.4,943.2,1477.9z"/>
<path class="st4" d="M1160.2,1308c-0.8,18,1.5,36,6.8,53.3l4.4,14.3c1.6,5.1,7,8,12.2,6.4l70.6-21.8l40.9-12.6
	c5.1-1.6,10.2-3.4,15.1-5.4c3.1-1.3,4.8-4.7,3.8-7.9l-21.3-68.9c-1-3.2-4.3-5.2-7.6-4.4c-4,0.9-8,2-12,3.2l-44.3,13.7l-59.4,18.4
	C1164.1,1297.9,1160.4,1302.6,1160.2,1308z"/>
<path class="st4" d="M1152,825.4c-1.8,5,0.8,10.6,5.8,12.4c0.8,0.3,1.7,0.5,2.6,0.6l134.8,10.1l90.5,6.8l33.6,2.5
	c7.1,0.5,13.4-4.9,13.9-12c0,0,0-0.1,0-0.2l2.1-34.3l4.3-69.5c0.1-0.9,0.1-1.9,0.2-2.8c0.1-2.2,0.2-4.3,0.3-6.5
	c0.1-2.5,0.2-4.9,0.3-7.3c0-1,0-1.9-0.2-2.9c0-0.1,0-0.1,0-0.2c-0.1-0.5-0.3-0.9-0.4-1.3c-0.1-0.3-0.1-0.5-0.2-0.8
	c-0.3-0.7-0.6-1.4-1.1-2.1l-0.2-0.3c-0.4-0.6-0.8-1.1-1.2-1.6c-0.2-0.2-0.4-0.4-0.6-0.6c-0.4-0.4-0.7-0.7-1.2-1
	c-0.3-0.2-0.5-0.3-0.8-0.5c-0.4-0.3-0.8-0.5-1.2-0.7c-0.3-0.2-0.6-0.3-0.9-0.4c-0.4-0.2-0.9-0.3-1.3-0.5c-0.3-0.1-0.7-0.2-1-0.3
	c-0.5-0.1-1-0.2-1.5-0.2c-0.2,0-0.4-0.1-0.7-0.1h-0.5l-34.3,0.3l-55.7,0.5h-1c-2.8,0-5.7,0-8.6,0c3.2,0,6.3,0.1,9.5,0l-133.9-12.6
	l-9.4-1.9c-7-1.4-13.8,3.2-15.2,10.2c-0.1,0.6-0.2,1.1-0.2,1.7c-0.1,1-0.1,2-0.2,3c-0.2,2.8-0.4,5.5-0.7,8.3
	c-0.1,1.3-0.3,2.6-0.4,3.9c0.5-5.1,1-10.2,1.3-15.3l-3.3,31.8c0.7-5.1,1.4-10.2,1.9-15.4c0,0.5-0.1,0.9-0.1,1.4
	c-0.5,4.7-1.1,9.3-1.8,14l-5.1,18.8l-16.3,59.5L1152,825.4z"/>
<path class="st4" d="M1293.9,988.9l119.3-19.8c6.9,0.1,12.7-5.2,13.2-12.2l3.8-61.5l0.5-8.4c0.4-7.1-4.9-13.2-12-13.7l-82.7-6.2
	l-29.1-2.2c-7.1-0.5-13.4,4.9-13.9,12l-2.6,34.3l-5.3,71.2c-0.3,3.6,2.4,6.7,6,6.9C1292.1,989.3,1293.1,989.2,1293.9,988.9
	L1293.9,988.9z"/>
<path class="st4" d="M1139.4,1708.6l2.9,9.3c1.1,3.4,4.7,5.3,8.1,4.3c0,0,0,0,0,0l24.8-7.7l65.5-20.3c5-1.6,7.9-6.8,6.5-11.9
	c-0.5-1.8-1-3.7-1.6-5.5l-12.1-39.2l-1.2-3.7l-2.9-9.3l-1.2-3.7l-11-35.7c-1.6-5.1-7-8-12.2-6.4l-90.4,28c-3.4,1.1-5.3,4.7-4.3,8.1
	L1139.4,1708.6z"/>
<path class="st4" d="M1039,1909.6c0.3-3.6-2.3-6.7-5.9-7h-0.2l-147.8-9.8c-5.4-0.4-10,3.7-10.3,9.1c0,0,0,0,0,0c0,0.1,0,0.2,0,0.2
	l-2.3,55.3l-1.1,26.6l-4.1,99.4v1l-2,24.8c-0.1,0.8-0.2,1.6-0.3,2.4c-0.1,0.6-0.1,1.3,0,1.9c0.3,4.4,3.5,8,7.9,8.9l21.2,4
	c37.8,7.2,75.7,13.8,113.7,19.7c5.3,0.8,10.3-2.8,11.1-8.1c0,0,0,0,0,0c0-0.2,0.1-0.4,0.1-0.7l12-136l1.8-20.9L1039,1909.6z"/>
<path class="st4" d="M1455.5,972.6l90.6,27.2c3.4,1.6,6.8,3.1,10.2,4.5c3.3,1.4,7.1-0.2,8.5-3.4v0c0.3-0.7,0.5-1.4,0.5-2.1
	l6.2-101.3c0.4-7.1-4.9-13.2-12-13.7l-66.4-5l-13-1l-8.6-0.6l-8.9-0.7c-7.1-0.5-13.4,4.9-13.9,12c0,0.1,0,0.1,0,0.2l-4.4,70.3
	C1444,965.7,1448.8,971.6,1455.5,972.6z"/>
<path class="st4" d="M1255.3,1166.5c-0.7,0.2-1.4,0.6-1.9,1l-30,22.1c-28,20.7-48.3,50.2-57.7,83.8c-1,3.4,1,7,4.5,8c0,0,0,0,0,0
	c1.2,0.3,2.5,0.3,3.7,0l95.3-29.5c3.7-1.1,7.4-2.1,11.1-3c3.5-0.8,5.6-4.3,4.8-7.8c0,0,0,0,0,0c0-0.1-0.1-0.3-0.1-0.4l-21.6-69.8
	C1262.3,1167.4,1258.8,1165.5,1255.3,1166.5C1255.3,1166.5,1255.3,1166.5,1255.3,1166.5z"/>
<path class="st4" d="M1413.7,1277.3c1.1,3.4,4.7,5.3,8.1,4.3l0.3-0.1c3.3-1.2,6.7-2.4,10.1-3.4l53.3-16.5c3.4-1.1,6.8-2,10.2-2.9
	c3.5-0.9,5.6-4.4,4.7-7.9c0,0,0,0,0,0c0-0.1-0.1-0.2-0.1-0.3l-6.8-22.1c-1-3.4-4.7-5.3-8.1-4.3c0,0,0,0,0,0
	c-0.3,0.1-0.5,0.2-0.7,0.3l-22.4,8.4l-40.2,12.4c-3.4,1.1-6.8,2-10.2,2.9c-3.5,0.9-5.6,4.4-4.7,7.9c0,0,0,0,0,0l0.1,0.3
	L1413.7,1277.3z"/>
<path class="st4" d="M1678.9,1258.9c0-0.6,0-1.2-0.1-1.8c0-0.2-0.1-0.4-0.1-0.6c-0.1-0.4-0.2-0.8-0.3-1.2c-0.1-0.2-0.1-0.4-0.2-0.6
	c-0.2-0.4-0.3-0.8-0.5-1.1c-0.1-0.1-0.1-0.3-0.2-0.4c-0.3-0.5-0.6-0.9-1-1.4l-0.3-0.3c-0.3-0.3-0.6-0.6-1-0.9
	c-0.2-0.1-0.3-0.2-0.5-0.4c-0.3-0.2-0.7-0.4-1-0.6l-0.6-0.3c-0.1,0-0.2-0.1-0.3-0.2s-0.5-0.2-0.7-0.2s-0.5-0.2-0.7-0.2
	c-0.5-0.1-0.9-0.2-1.4-0.2c-0.1,0-0.2,0-0.3-0.1l0,0c-0.4,0-0.8,0-1.2,0c-0.2,0-0.3,0-0.5,0c-0.6,0.1-1.1,0.2-1.7,0.4l-23.8,7.4
	l-48.6,8.7l-58.9,3.2l-7,0.4c-3.6,0.2-6.3,3.3-6.1,6.8c0,0.5,0.1,1.1,0.3,1.6l0,0c0,0,0,0,0,0.1v0.1l21,68c0.8,2.6,1.6,5.3,2.3,7.9
	c0.2,0.6,0.4,1.2,0.7,1.8c0.1,0.3,0.3,0.5,0.5,0.8s0.3,0.5,0.5,0.8l0.1,0.1c0.1,0.1,0.2,0.3,0.3,0.4c0.3,0.3,0.5,0.6,0.8,0.9
	c0.1,0.1,0.3,0.3,0.5,0.4c0.3,0.3,0.6,0.5,1,0.7l0.5,0.3c0.4,0.2,0.8,0.4,1.2,0.5l0.4,0.2c0.5,0.2,1.1,0.3,1.6,0.4
	c0.2,0,0.3,0,0.5,0c0.4,0,0.8,0.1,1.3,0.1h0.6c0.4,0,0.8-0.1,1.3-0.2c0.1,0,0.2,0,0.4-0.1l0.4-0.1l97.9-30.3
	c11.6-3.6,19.7-14,20.5-26.1L1678.9,1258.9z"/>
<path class="st4" d="M1657.3,1591.5c-0.4-7-3-12.9-11.7-10.2l-368.5,114c-4.5,1.4-7.4,5.8-6.8,10.5c4,31.4,0.7,63.3-9.8,93.1
	l-32,91.3c-7.6,21.7,58.1,14.1,68.3,13.7c31-1.4,61.8-4.9,92.6-8.4c62.3-7.1,125.3-15,187.9-7.4c9.5,1.2,19.2,2.7,28.7,1.4
	c26.6-3.5,24.1-23.5,26.3-45.2l8.1-80l16.2-160C1657.2,1600.1,1657.4,1595.8,1657.3,1591.5z"/>
<path class="st4" d="M1237.5,1556.6l70.6-21.8l55.7-17.2c3.4-1.1,5.3-4.7,4.3-8.1l-14.3-46.4c-1.6-5.1-7-8-12.2-6.4l-52.6,16.3
	l-22.8,7c-10.5,3.3-21.1,6.4-31.7,9.3l-16.1,4.6c-0.6,0.2-1.1,0.4-1.7,0.7c-0.2,0.1-0.3,0.2-0.5,0.3c-0.3,0.2-0.7,0.4-1,0.6
	c-0.2,0.1-0.3,0.3-0.5,0.4c-0.3,0.3-0.6,0.6-0.9,0.9c-0.1,0.1-0.2,0.2-0.3,0.3c-0.4,0.4-0.7,0.9-1,1.4c-0.1,0.1-0.1,0.2-0.2,0.3
	c-0.2,0.4-0.4,0.8-0.5,1.2c-0.1,0.2-0.1,0.4-0.2,0.6c-0.1,0.4-0.2,0.7-0.3,1.1c0,0.2-0.1,0.4-0.1,0.6s0,0.2,0,0.3s0,0.5,0,0.7
	s0,0.6,0,0.8c0,0.4,0.1,0.8,0.2,1.2c0,0.2,0.1,0.4,0.1,0.6c0,0.1,0,0.2,0.1,0.2l13.6,44.1
	C1226.9,1555.3,1232.3,1558.2,1237.5,1556.6C1237.5,1556.6,1237.5,1556.6,1237.5,1556.6z"/>
<path class="st4" d="M1314.3,1357.3l-0.5,0.2l-14.2,5l-40.9,12.7l22.6,73.1l52.6-16.3c5.1-1.6,8-7,6.4-12.2l-18-58.1
	C1321.3,1358.2,1317.7,1356.3,1314.3,1357.3C1314.3,1357.3,1314.3,1357.3,1314.3,1357.3z"/>
<path class="st4" d="M1258.7,1375.1l-70.6,21.8c-5.1,1.6-8,7-6.4,12.2l16.6,53.7c0.3,0.9,0.7,1.7,1.2,2.5c0.1,0.1,0.1,0.2,0.1,0.3
	s0.2,0.2,0.3,0.3l0.4,0.5c0.2,0.3,0.5,0.5,0.8,0.8c0.1,0.1,0.3,0.3,0.4,0.4c0.4,0.3,0.8,0.6,1.2,0.8l0.2,0.1c0.5,0.3,1,0.5,1.5,0.7
	l0.5,0.1c0.4,0.1,0.8,0.2,1.1,0.3c0.2,0,0.4,0.1,0.6,0.1c0.4,0,0.8,0,1.2,0h0.6c0.6-0.1,1.2-0.2,1.7-0.3l17.2-4.9
	c10.4-2.9,20.7-6,31-9.2l22.8-7l-1.9-6.2L1258.7,1375.1z"/>
<path class="st4" d="M1056.5,1791.7c0.6,3.5,4,5.9,7.5,5.3c0,0,0,0,0,0c0.3,0,0.5-0.1,0.8-0.2l62.6-19.4l13.4-2.8
	c3.6-0.4,6.1-3.5,5.8-7.1c0,0,0,0,0,0c0-0.4-0.1-0.8-0.3-1.3l-6.8-21.8c-1.1-3.4-4.7-5.3-8.1-4.3l-75.5,23.3
	c-3.4,1.1-5.3,4.7-4.3,8.1L1056.5,1791.7z"/>
<path class="st4" d="M1067.8,1060.9c-4.6,7.2-6.5,16.8-10,26.3c-7.9,21.5-15.7,43-23.3,64.6c-15.3,43.2-29.9,86.6-44,130.2
	c-7.6,23.5,31.1,20.8,46.4,21.9c26.6,2.1,53.3,0.6,79.5-4.2c7.7-1.4,15.7-3.3,21.7-8.3c4.3-3.6,7.4-8.5,10.3-13.3l36.2-59.1
	c11.2-18.2,22.7-36.8,38-51.9c15.6-15.4,35.9-25.4,53.3-38.5c34.6-26.1,69.3-52.2,103.9-78.3c8.2-6.2,64.6-60.7,34.5-68
	c-0.7-0.2-1.4-0.3-2.1-0.3c-51.5-0.9-102.4,10.8-148.4,34l-179.6,34C1076.1,1051.5,1071.2,1055.5,1067.8,1060.9z"/>
<path class="st4" d="M1405.3,1059.1c0.4,0.5,1,0.9,1.7,1l21.8,5.4l39.4,37.2l2.5,8.1c1.1,3.4,4.6,5.3,8,4.3l74.4-22.1
	c3.9-1.2,6.7-4.7,6.9-8.7l1.3-21.8l1-17.1l1-17c0.3-4.2-2.2-8.1-6.1-9.6l-16.8-7.2c-4-1.9-8.1-3.6-12.2-5.3c-1.3-0.5-2.5-1-3.8-1.5
	c-2.9-1.2-5.8-2.3-8.8-3.3c-1.4-0.5-2.8-1-4.3-1.5c-3-1.1-6-2.1-9.1-3c-1.2-0.4-2.4-0.8-3.7-1.2c-4.2-1.3-8.5-2.5-12.8-3.6l-0.2-0.1
	c-3.3-0.9-6.7-1.7-10-2.4l-0.3-0.1c-2.6-0.6-5.1-1.1-7.7-1.6c-1.3-0.3-2.5-0.5-3.8-0.8c-3.8-0.7-7.7-1.3-11.6-1.9
	c-5.2-0.8-10,2.7-11,7.8l-35.8,61.5C1404.2,1055.7,1404.1,1057.8,1405.3,1059.1C1405.3,1059.1,1405.3,1059.1,1405.3,1059.1z"/>
<path class="st4" d="M1680.3,1225.1c0.3-0.4,0.5-0.7,0.8-1.1s0.3-0.5,0.5-0.8s0.4-0.8,0.6-1.3s0.3-0.6,0.3-0.8
	c0.2-0.5,0.3-1,0.4-1.5c0.1-0.3,0.2-0.5,0.2-0.8c0.2-0.8,0.3-1.6,0.3-2.3l1.8-29.9l3-48.4l1.3-21.2l3.7-61c0.4-7.1-5-13.3-12.2-13.7
	h-0.8l-95.8-14.1c-3.4-1-7,0.9-8.1,4.3c0,0,0,0,0,0c-0.1,0.5-0.2,1-0.3,1.5l-0.7,11.5l-1.1,17.1l-1.3,20.4c-1.4,22.6,1.3,45.3,8,67
	l9.8,31.9l18.7,60.4c1,3.1,4.1,5.1,7.4,4.4c7-1.3,14-3,20.8-5.2l34.1-10.6c0.7-0.2,1.4-0.5,2.1-0.8l0.1-0.1c0.2-0.1,0.4-0.3,0.7-0.4
	c0.5-0.3,0.9-0.5,1.3-0.8c0.3-0.2,0.5-0.4,0.7-0.5s0.8-0.6,1.1-0.9s0.4-0.4,0.7-0.7s0.6-0.7,0.9-1S1680.1,1225.4,1680.3,1225.1z"/>
<path class="st4" d="M1052.5,1752.5l75.5-23.3c3.4-1.1,5.3-4.7,4.3-8.1l-2.9-9.3l-1.1-3.7l-15-48.6l-12.8-41.5
	c-1.1-3.4-4.7-5.3-8.1-4.3l-75.5,23.4c-3.4,1.1-5.3,4.7-4.3,8.1c0,0,0,0,0,0l12.8,41.4l15,48.6l1.1,3.7l2.9,9.3
	C1045.5,1751.6,1049.1,1753.5,1052.5,1752.5C1052.5,1752.5,1052.5,1752.5,1052.5,1752.5z"/>
<path class="st4" d="M1075.1,1500.7c1,3.4,4.6,5.3,7.9,4.3l25.1-7.1l65.9-18.6c0.6-0.2,1.1-0.4,1.7-0.7c0.2-0.1,0.3-0.2,0.5-0.3
	c0.3-0.2,0.7-0.4,1-0.7c0.2-0.1,0.3-0.2,0.5-0.4c0.3-0.3,0.6-0.6,0.9-0.9c0.1-0.1,0.2-0.2,0.3-0.3c0.4-0.4,0.7-0.9,1-1.4
	c0.1-0.1,0.1-0.2,0.2-0.3c0.2-0.4,0.4-0.8,0.5-1.2c0.1-0.2,0.1-0.4,0.2-0.6c0.1-0.4,0.2-0.7,0.3-1.1c0-0.2,0.1-0.4,0.1-0.6
	s0-0.2,0-0.3s0-0.5,0-0.7c0-0.3,0-0.6,0-0.8c0-0.4-0.1-0.8-0.2-1.2c0-0.2,0-0.4-0.1-0.6c0-0.1-0.1-0.2-0.1-0.2l-16.3-52.7
	c-1.6-5.1-7-8-12.1-6.4c0,0,0,0,0,0l-42.7,13.2l-22.9,7.1l-24.8,7.7c-3.4,1.1-5.3,4.7-4.3,8.1L1075.1,1500.7z"/>
<path class="st4" d="M1111.2,1595.6l24.8-7.7l65.6-20.3c5.1-1.6,8-7,6.4-12.1c0,0,0,0,0,0l-13.9-45c-0.3-0.9-0.7-1.7-1.2-2.5
	c-0.1-0.1-0.1-0.2-0.1-0.3s-0.2-0.2-0.3-0.3s-0.3-0.3-0.4-0.5c-0.3-0.3-0.5-0.5-0.8-0.8c-0.1-0.1-0.3-0.3-0.4-0.4
	c-0.4-0.3-0.8-0.6-1.2-0.8l-0.2-0.1c-0.5-0.3-1-0.5-1.5-0.7l-0.5-0.1c-0.4-0.1-0.8-0.2-1.2-0.3l-0.6-0.1c-0.4,0-0.8,0-1.2,0h-0.6
	c-0.6,0-1.2,0.1-1.7,0.3l-91.2,25.7c-3.4,1-5.5,4.5-4.5,8c0,0,0,0,0,0c0,0,0,0.1,0,0.2l16.5,53.5
	C1104.1,1594.8,1107.8,1596.7,1111.2,1595.6C1111.2,1595.7,1111.2,1595.6,1111.2,1595.6z"/>
<path class="st4" d="M1592.3,1585.5L1592.3,1585.5l57.8-17.8c0.7-0.2,1.4-0.5,2.1-0.8c0.2-0.1,0.5-0.3,0.7-0.4s0.7-0.3,1-0.5
	c0.1,0,0.1-0.1,0.2-0.1c0.9-0.6,1.8-1.3,2.6-2.1l0.5-0.5c0.7-0.7,1.3-1.5,1.8-2.4c0.1-0.1,0.2-0.2,0.2-0.3c0.6-1,1-2,1.4-3
	c0.1-0.2,0.2-0.5,0.2-0.7c0.3-1.1,0.6-2.2,0.7-3.3c1-12.8,2-25.6,2.9-38.3c0.3-4.2,0.6-8.3,0.9-12.5c0.5-6.8,1-13.6,1.4-20.4
	c0.2-3.3,0.4-6.7,0.6-10.1l2.2-34.1l0.2-22.7l3-45.3c0.3-5.4-3.7-10-9.1-10.3c-1.2-0.1-2.4,0.1-3.5,0.4l-43.3,13.4l-22.2,4.8
	l-35.6,11c-0.5,0.2-1,0.4-1.4,0.6c-0.2,0.1-0.3,0.2-0.5,0.3c-0.3,0.2-0.6,0.3-0.9,0.5c-0.2,0.1-0.3,0.3-0.5,0.4s-0.5,0.4-0.7,0.6
	s-0.3,0.3-0.4,0.5s-0.4,0.4-0.6,0.7s-0.2,0.4-0.4,0.6s-0.3,0.5-0.4,0.7s-0.2,0.4-0.3,0.6s-0.2,0.5-0.3,0.8s-0.1,0.4-0.2,0.7
	c-0.1,0.3-0.1,0.5-0.2,0.8c0,0.2-0.1,0.5-0.1,0.7c0,0.2-0.1,0.3-0.1,0.5s0,0.4,0,0.7l-0.1,14.7l-1.2,25.8c-0.1,2.8-0.2,5.6-0.1,8.4
	c0,0.8,0,1.6,0,2.4c0,2.1,0.1,4.2,0.3,6.3c0,0.8,0.1,1.6,0.2,2.4c0.2,2.8,0.5,5.5,0.8,8.3c0,0.3,0.1,0.5,0.1,0.7
	c0.3,2.5,0.7,5,1.2,7.6c0.1,0.3,0.1,0.7,0.2,1c0.1,0.7,0.3,1.4,0.4,2.2c0.2,1,0.4,2.1,0.7,3.2s0.5,2.3,0.8,3.5s0.5,2.1,0.8,3.1
	c0.1,0.4,0.2,0.8,0.3,1.1c0.4,1.5,0.8,3,1.3,4.5l1.6,5.4l7.2,23.5l17.8,58.2C1585.2,1584.6,1588.8,1586.6,1592.3,1585.5
	C1592.3,1585.6,1592.3,1585.5,1592.3,1585.5z"/>
<path class="st4" d="M1463.3,861l7.2,0.5l8.8,0.7l13,1l67.7,5.1c7.1,0.5,13.4-4.9,13.9-12c0-0.1,0-0.1,0-0.2l7.9-129.3
	c0-0.8,0-1.5-0.1-2.3l-0.1-0.6c0-0.2,0-0.4-0.1-0.5s-0.2-0.6-0.3-0.9c-0.1-0.3-0.2-0.7-0.3-1c-0.2-0.5-0.4-0.9-0.6-1.4
	c-0.1-0.2-0.2-0.5-0.4-0.7c-0.4-0.6-0.8-1.2-1.3-1.8l-0.1-0.1c-0.5-0.6-1.1-1.1-1.7-1.6c-0.2-0.2-0.4-0.3-0.7-0.4
	c-0.4-0.3-0.9-0.6-1.3-0.8c-0.3-0.2-0.6-0.3-0.9-0.4c-0.4-0.2-0.9-0.4-1.4-0.5c-0.3-0.1-0.6-0.2-0.9-0.2c-0.5-0.1-1-0.2-1.5-0.3
	c-0.2,0-0.4-0.1-0.6-0.1s-0.6,0-0.9,0l-86.5,0.7l-10.9,0.1c-0.6,0-1.3,0.1-1.9,0.2c-0.1,0-0.2,0-0.2,0.1c-1,0.2-2,0.5-2.9,0.9
	c-0.2,0.1-0.3,0.2-0.5,0.3c-0.8,0.4-1.5,0.8-2.1,1.3c-0.2,0.2-0.4,0.3-0.7,0.5c-0.7,0.6-1.3,1.2-1.8,1.9l-0.3,0.3
	c-0.6,0.8-1.1,1.7-1.4,2.7c0,0.1-0.1,0.2-0.1,0.3c-0.1,0.3-0.2,0.7-0.3,1s-0.2,0.5-0.2,0.8c-0.2,0.8-0.3,1.5-0.3,2.3
	c-0.1,2.1-0.2,4.2-0.3,6.2c-0.2,3.4-0.3,6.8-0.6,10.3l-6.5,104.4C1450.9,854.4,1456.3,860.5,1463.3,861z"/>
<path class="st4" d="M1099.7,1408l48-14.8c5.1-1.6,8-7,6.4-12.2l-4.4-14.3l-7.8-53.1c0-3.6-2.8-6.5-6.4-6.5c-0.7,0-1.4,0.1-2,0.3
	l-10.7,3.3l-56.8,7.6c-2.9-0.1-5.6,1.8-6.4,4.6l-2.5,8.2c-1,3.3-1.9,6.6-2.7,9.9c-0.3,1.1-0.5,2.2-0.8,3.3c-0.5,2.2-1,4.4-1.4,6.7
	c-0.3,1.3-0.5,2.7-0.7,4c-0.3,2-0.7,4-1,6.1c-0.2,1.4-0.3,2.9-0.5,4.3s-0.3,2.7-0.5,4c0,0.6-0.1,1.1-0.1,1.7
	c-0.2,2.2-0.3,4.3-0.4,6.5c-0.1,1.6-0.2,3.1-0.2,4.7c0,2.3,0,4.5,0,6.8c0,1.4,0,2.9,0,4.4c0.1,2.5,0.3,5,0.5,7.5
	c0.1,1.2,0.1,2.4,0.2,3.6c0.3,3.7,0.8,7.4,1.4,11.1c0.5,3.5,3.9,6,7.4,5.4c0.3,0,0.6-0.1,0.9-0.2L1099.7,1408z"/>
<path class="st4" d="M559.7,1650.9c1.8,0.6,3.7,0.6,5.5,0.1c100-28.2,199.9-56.4,299.4-86.1c9.9-3,20-6.1,27.9-12.8
	c11.5-9.9,15.8-25.7,19.4-40.4c34.4-137.9,74-274.4,118.7-409.5c22.6-68.2,46.5-135.9,71.7-203.1c23.8-63.5,49.4-122.6,54.4-191
	c0.3-3.7,0.4-7.7-1.5-10.9c-2.6-4.2-7.8-5.7-12.6-6.8c-47-11.1-94.3-20.7-141.9-28.8c-18.5-3.2-110.5-30.4-112.5,1.7l-56.8,22.3
	l-15-14.2c-8.4-8-20-11.8-31.5-10.3l-41.6,5.2c-28.7,3.5-31.1,38.3-34.5,60.6l-1.3,8.3l2.1-0.2l-2.1,0.2l-55,357.8l-2.8,18.2
	l-51.1,332.4l-45.3,195.3C551.7,1643.8,554.6,1649.3,559.7,1650.9C559.7,1650.9,559.7,1650.9,559.7,1650.9z"/>
<path class="st4" d="M1192.4,1913.2c-0.3,0-0.7-0.1-1-0.1l-132.5-8.8c-3.5-0.2-6.6,2.4-6.9,5.9l-6.3,71.3l-1.8,20.9l-12.2,138.3
	c-0.4,5.1,3.2,9.7,8.3,10.5c43.6,6.4,87.4,12,131.2,16.8c8.4,0.9,10.3-6,10.8-12.5c0.7-9.3,1.4-18.6,2.1-27.9l4.3-55.7l8.6-111.4
	l2.2-28.6C1199.7,1924.6,1202.5,1914.9,1192.4,1913.2z"/>
<path class="st4" d="M1617.8,1901.5c-2.3-0.5-4.6-0.7-7-0.8c-46.6-1.6-93.2-3.1-139.7-0.4c-42.3,2.5-84.2,8.6-126.4,12.7
	c-21.5,2.1-43.1,3.7-64.7,4c-12.9,0.2-48-8.1-58.1,0.5c-11.8,10-7.8,57-9,72c-4.4,54.9-8.6,109.8-12.3,164.7
	c-2,28.7,50.6,21.5,71.1,23.2c35,2.8,70,5.1,105,6.9c25.6,1.3,51.2,2.9,76.8,3.2c26.4,0.3,52.8-2.2,79.3-1.1
	c14.5,0.6,29.3,2.3,43.4-1.1c19.9-4.9,36.3-19.1,43.9-38.1c5.3-13.6,5.7-28.6,6.1-43.3c1.4-60.1,2.8-120.2,4.2-180.2
	C1630.7,1911.1,1628.5,1903.8,1617.8,1901.5z"/>
<path class="st4" d="M891.6,1591.7c-3.7-2.8-8.9-1.7-13.4-0.5l-183.3,50l-92.7,25.3c-17.7,4.8-37.5,5.5-53.4,15.6
	c-18.5,11.7-19.1,31.6-25.7,51.3c-15.2,45.4-36.3,89.7-40.1,138.1c-6.6,84.9,46.9,174.5,130,199.6c35.5,10.7,71.9,18.1,108.3,24.8
	c20.2,3.7,71,15.9,87.5,5.8c29.4-17.3,25.4-130.7,34.7-208.7c11.3-113,31.9-182.7,50.9-285.5C895.5,1601.9,896.1,1595,891.6,1591.7z
	"/>
<path class="st4" d="M1402.7,1307.5c-0.4,0.1-0.8,0.3-1.2,0.5c-2.1,1.2-4.2,2.4-6.3,3.6l-50.5,30.6c-3.3,2-6.7,3.9-10.2,5.8
	c-2.7,1.5-4.1,4.7-3.2,7.6l18.9,61.1c0.2,0.6,0.4,1.1,0.7,1.7c0.1,0.2,0.2,0.4,0.3,0.6c0.1,0.2,0.3,0.5,0.4,0.7
	c0.1,0.1,0.1,0.2,0.2,0.2c0.1,0.2,0.3,0.3,0.4,0.5c0.2,0.3,0.5,0.5,0.8,0.8c0.2,0.1,0.3,0.3,0.5,0.4c0.4,0.3,0.7,0.5,1.1,0.7
	l0.3,0.2c0.5,0.3,1,0.5,1.6,0.6l0.4,0.1c0.4,0.1,0.8,0.2,1.2,0.3c0.2,0,0.4,0,0.6,0.1c0.4,0,0.8,0,1.2,0h0.6
	c0.6-0.1,1.2-0.2,1.7-0.3l66.2-20.5c0.6-0.2,1.1-0.4,1.6-0.7c0.2-0.1,0.3-0.2,0.5-0.3c0.3-0.2,0.7-0.4,1-0.7
	c0.2-0.1,0.3-0.3,0.5-0.4c0.3-0.3,0.6-0.6,0.9-0.9c0.1-0.1,0.2-0.2,0.3-0.3c0.3-0.4,0.7-0.9,0.9-1.4c0.1-0.1,0.1-0.2,0.2-0.3
	c0.2-0.4,0.4-0.8,0.5-1.2c0.1-0.2,0.1-0.4,0.2-0.6c0.1-0.4,0.2-0.7,0.2-1.1c0-0.2,0.1-0.4,0.1-0.6s0-0.2,0-0.3c0-0.3,0-0.5,0-0.8
	c0-0.2,0-0.4,0-0.7c-0.1-0.6-0.2-1.2-0.3-1.8l-24.3-78.7c-1-3.4-4.6-5.4-8-4.4C1402.7,1307.5,1402.7,1307.5,1402.7,1307.5z"/>
<path class="st4" d="M1425.3,1637.2l72.4-22.4c3.4-1,5.3-4.7,4.3-8.1c0,0,0,0,0,0l-18-58.2l-1.1-3.7l-2.9-9.3l-1.1-3.7l-8.7-28.1
	c-1.1-3.4-4.7-5.3-8.1-4.3l-72.4,22.4c-3.4,1.1-5.3,4.7-4.3,8.1c0,0,0,0,0,0l8.7,28.1l1.2,3.7l2.9,9.3l1.2,3.7l18,58.2
	C1418.2,1636.3,1421.8,1638.2,1425.3,1637.2z"/>
<path class="st4" d="M1522.5,1607.2l45.1-14c3.4-1.1,5.3-4.7,4.3-8.1l-17.8-58.3l-8.4-27.6l-0.4-1.3l-4-15.6c0.5,2.5,1.1,5,1.7,7.5
	c0-0.1,0-0.2-0.1-0.3c-0.6-2.4-1.1-4.8-1.7-7.2c-0.7-3.5-4.2-5.7-7.7-5l-0.6,0.2l-46.3,14.3c-3.4,1.1-5.3,4.7-4.3,8.1l2.8,9.2
	l9.9,31.9l1.2,3.7l18,58.2C1515.4,1606.3,1519,1608.2,1522.5,1607.2C1522.4,1607.2,1522.4,1607.2,1522.5,1607.2z"/>
<path class="st4" d="M1539.1,1407.3c0-0.2-0.1-0.4-0.1-0.7c-0.1-0.4-0.2-0.7-0.3-1.1c-0.1-0.2-0.2-0.5-0.3-0.7
	c-0.1-0.3-0.3-0.6-0.4-0.9c-0.1-0.2-0.3-0.4-0.4-0.6s-0.2-0.3-0.3-0.4s-0.3-0.3-0.4-0.4s-0.3-0.3-0.4-0.5c-0.3-0.3-0.7-0.6-1-0.9
	c-0.1-0.1-0.2-0.2-0.3-0.3c-0.5-0.3-0.9-0.6-1.4-0.9l-0.4-0.2c-0.4-0.2-0.8-0.3-1.2-0.4l-0.6-0.1c-0.4-0.1-0.9-0.2-1.3-0.2h-0.3
	h-0.1c-0.4,0-0.8,0-1.1,0h-0.5c-0.5,0.1-1.1,0.2-1.6,0.3l-59.3,18.3c-0.6,0.2-1.1,0.4-1.6,0.7c-0.2,0.1-0.3,0.2-0.5,0.3
	c-0.3,0.2-0.7,0.4-1,0.7l-0.5,0.4c-0.3,0.3-0.6,0.6-0.9,0.9c-0.1,0.1-0.2,0.2-0.3,0.3c-0.4,0.4-0.7,0.9-0.9,1.4
	c-0.1,0.1-0.1,0.2-0.2,0.3c-0.2,0.4-0.4,0.8-0.5,1.2c-0.1,0.2-0.1,0.4-0.2,0.6c-0.1,0.4-0.2,0.7-0.2,1.1c0,0.2-0.1,0.4-0.1,0.7
	c0,0.1,0,0.2,0,0.3c0,0.3,0,0.5,0,0.8s0,0.4,0,0.7c0.1,0.6,0.2,1.2,0.4,1.8l14.3,46.4c1,3.4,4.7,5.3,8.1,4.3c0,0,0,0,0,0l50.2-15.5
	c2.9-0.9,4.7-3.6,4.6-6.6l-0.2-19.5l1.3-29.8C1539.2,1408.5,1539.2,1407.9,1539.1,1407.3z"/>
<path class="st4" d="M988,1565.5c0,0.1,0,0.1,0,0.2l17.3,55.9c1.1,3.4,4.7,5.3,8.1,4.3l75.5-23.4c3.4-1.1,5.3-4.7,4.3-8.1
	c0,0,0,0,0,0l-16.7-54c-1-3.4-4.6-5.3-8-4.3l-76,21.4C989,1558.4,987,1562,988,1565.5C988,1565.5,988,1565.5,988,1565.5z"/>
<path class="st4" d="M1375.4,1533c-1-3.4-4.7-5.3-8.1-4.3c0,0,0,0,0,0l-55.8,17.2l-70.6,21.8c-5.1,1.6-8,7-6.4,12.2l11,35.7l1.1,3.7
	l141.8-43.6l-3.4-10.9L1375.4,1533z"/>
<path class="st4" d="M1264.4,1676.5c1.5,5.2,6.8,8.2,12,6.7c0,0,0,0,0,0l0.2-0.1l70.6-21.8l55.7-17.2c3.4-1,5.3-4.7,4.3-8.1
	c0,0,0,0,0,0l-15.8-51.2l-141.8,43.8l1.1,3.7l12.1,39.2C1263.4,1673.2,1263.9,1674.8,1264.4,1676.5z"/>
<path class="st4" d="M901.2,1680.1c-0.8,2.8-1.2,5.9-1.8,8.8c-2.1,11.4-4,22.8-5.9,34.3c-3.7,22.9-6.9,45.9-9.6,68.9
	c-0.6,4.8,0.6,10.6,6.6,10.2h0.2c0.4,0,0.9-0.1,1.3-0.3l135.9-42c3.4-1.1,5.3-4.7,4.3-8.1c0,0,0,0,0,0l-2.9-9.3l-1.2-3.7l-27.8-90
	c-1.1-3.4-4.7-5.3-8.1-4.3c0,0,0,0,0,0l-82.1,25.4C904.7,1671.7,902.5,1675.6,901.2,1680.1z"/>
<path class="st4" d="M1393.9,1257.3c-0.9-3-3.9-4.9-7-4.5c-4.4,0.5-8.8,0.9-13.2,1.2l-62.5,3.4l-1.8,0.1c-3.6,0.3-6.2,3.3-6,6.9
	c0,0.5,0.1,1,0.3,1.5l19.2,62c1.1,3.4,4.7,5.3,8.1,4.3c0.4-0.1,0.9-0.3,1.3-0.6c1.5-0.8,3-1.7,4.4-2.6l50.5-30.6
	c3.9-2.3,7.8-4.6,11.8-6.7c2.8-1.4,4.1-4.7,3.2-7.7L1393.9,1257.3z"/>
<path class="st4" d="M1386.1,1510.7l72.4-22.4c3.4-1.1,5.3-4.7,4.3-8.1l-14.3-46.4c-0.2-0.6-0.4-1.1-0.7-1.7
	c-0.1-0.2-0.2-0.4-0.3-0.6s-0.3-0.5-0.4-0.7s-0.2-0.2-0.2-0.2s-0.3-0.3-0.4-0.5c-0.3-0.3-0.5-0.5-0.8-0.8c-0.2-0.1-0.3-0.3-0.5-0.4
	c-0.3-0.3-0.7-0.5-1.1-0.7c-0.1-0.1-0.2-0.1-0.3-0.2c-0.5-0.3-1-0.5-1.6-0.6c-0.1-0.1-0.3-0.1-0.4-0.1c-0.4-0.1-0.8-0.2-1.2-0.3
	h-0.6c-0.4,0-0.8,0-1.2,0c-0.2,0-0.4,0-0.6,0c-0.6,0.1-1.2,0.2-1.7,0.3l-66.2,20.5c-0.6,0.2-1.1,0.4-1.6,0.7
	c-0.2,0.1-0.3,0.2-0.5,0.3c-0.3,0.2-0.7,0.4-1,0.7l-0.5,0.4c-0.3,0.3-0.6,0.6-0.9,0.9c-0.1,0.1-0.2,0.2-0.3,0.3
	c-0.4,0.4-0.7,0.9-0.9,1.4c-0.1,0.1-0.1,0.2-0.2,0.3c-0.2,0.4-0.4,0.8-0.5,1.2c-0.1,0.2-0.1,0.4-0.2,0.6c-0.1,0.4-0.2,0.7-0.2,1.1
	c0,0.2-0.1,0.4-0.1,0.6s0,0.2,0,0.3c0,0.3,0,0.5,0,0.8s0,0.4,0,0.7c0.1,0.6,0.2,1.2,0.4,1.8l14.3,46.4
	C1379.1,1509.8,1382.7,1511.7,1386.1,1510.7C1386.1,1510.7,1386.1,1510.7,1386.1,1510.7z"/>
<path class="st4" d="M1470.5,1175.8l-80.4-4.1c-3.6-0.2-6.6,2.6-6.8,6.1c0,0.8,0.1,1.5,0.3,2.3l15.9,51.4c1,3.3,4.4,5.2,7.7,4.4
	c3.7-0.9,7.3-1.9,11-3l40.2-12.4c7.2-2.2,14.3-4.9,21.2-8c4.5-2,6.8-7,5.3-11.7l-5.6-18.1
	C1478.2,1178.7,1474.6,1175.9,1470.5,1175.8z"/>
<path class="st4" d="M921.1,1583l-0.3,1.4l-13.4,64c0,0.1,0,0.1,0,0.2c-0.7,3.5,1.5,6.9,5,7.7c0,0,0,0,0,0c1.1,0.2,2.2,0.2,3.2-0.2
	l73.1-22.6c3.4-1,5.3-4.7,4.3-8.1c0,0,0,0,0,0l-17.4-56.4v-0.2c-1-3.4-4.6-5.3-8-4.3l-39.5,11.1
	C924.5,1576.7,921.9,1579.5,921.1,1583z"/>
<path class="st4" d="M1596.2,1242.9c0-0.5-0.1-1.1-0.3-1.6l-17.3-55.9c-0.8-2.6-3.1-4.4-5.9-4.6l-72.3-3.7c-3.6-0.2-6.6,2.6-6.8,6.1
	c0,0.8,0.1,1.5,0.3,2.3l19.6,63.4c0.9,2.8,3.6,4.7,6.5,4.6l70-3.8C1593.6,1249.6,1596.3,1246.6,1596.2,1242.9
	C1596.2,1243,1596.2,1243,1596.2,1242.9z"/>
<path class="st4" d="M1455.8,1106.6c-4.4-14.1-15.8-24.9-30.1-28.4l-29.7-7.3c-5.6-1.4-11.6-0.2-16.2,3.2l-104.7,77.4
	c-3.3,2.5-4.7,6.7-3.5,10.7l2.2,7.1c1.1,3.4,4.7,5.3,8.1,4.3l26.6-8.2l60.5-7.6l95,4.8c3.6,0.2,6.6-2.5,6.8-6.1
	c0-0.8-0.1-1.6-0.3-2.3L1455.8,1106.6z"/>
<path class="st4" d="M1598.9,871.1l90.2,6.7c0.8,0.1,1.5,0.1,2.3,0l0.6-0.1c0.7-0.1,1.3-0.3,2-0.5h0.2c0.6-0.2,1.1-0.4,1.6-0.7
	l0.4-0.2l0.5-0.3c0.5-0.3,1.1-0.7,1.5-1.1l0.3-0.2c0.5-0.5,1-1,1.5-1.6c0.1-0.1,0.2-0.3,0.3-0.5c0.4-0.5,0.7-1,1-1.5
	c0.1-0.1,0.2-0.3,0.2-0.4c0.3-0.6,0.6-1.3,0.8-2c0.1-0.2,0.1-0.4,0.2-0.6c0.2-0.7,0.3-1.3,0.4-2c0-0.1,0-0.2,0-0.2s0-0.1,0-0.2
	l7.9-129.6c0.7-12.5-8.8-23.2-21.3-24h-0.5c-9.7-0.4-19.5-0.5-29.2-0.4l-52,0.4c-0.8,0-1.6,0.1-2.4,0.3c-0.3,0.1-0.5,0.2-0.8,0.2
	c-0.5,0.1-1,0.3-1.5,0.5c-0.3,0.1-0.6,0.3-0.9,0.4s-0.8,0.4-1.2,0.6s-0.5,0.4-0.8,0.6c-0.4,0.2-0.7,0.5-1,0.8
	c-0.2,0.2-0.5,0.5-0.7,0.7c-0.3,0.3-0.6,0.6-0.9,1s-0.4,0.6-0.6,0.9c-0.2,0.4-0.5,0.7-0.7,1.1c-0.2,0.3-0.3,0.7-0.4,1
	c-0.2,0.4-0.3,0.8-0.4,1.2c-0.1,0.4-0.2,0.7-0.3,1.1s-0.1,0.5-0.2,0.8s-0.1,0.7-0.1,1l-8.2,133.2
	C1586.6,864.6,1591.9,870.6,1598.9,871.1z"/>
<path class="st4" d="M880.5,1824.1c-1.5,15.1-2.7,30.3-3.8,45.4c-0.4,5.3,3.7,10,9,10.4l0,0l148.6,9.8c3.5,0.2,6.6-2.4,6.9-5.9
	l4.3-48.3c1.8-20.2-0.3-40.5-6.2-59.9c-1-3.4-4.7-5.4-8.1-4.3l0,0l-37.7,11.7l-61.9,19.1l-44.3,13.7
	C883.6,1816.9,880.9,1820.2,880.5,1824.1z"/>
<path class="st4" d="M1359.8,1170.4c-2.1,0-4.1,0.2-6.2,0.2s-3.9,0.1-5.9,0.2c-2.4,0.2-4.8,0.5-7.2,0.8c-1.6,0.2-3.2,0.3-4.8,0.6
	c-3.2,0.5-6.3,1.1-9.4,1.8c-0.8,0.2-1.7,0.3-2.5,0.5c-3.9,0.9-7.8,1.9-11.7,3.1l-26.6,8.2c-3.4,1.1-5.3,4.7-4.3,8.1c0,0,0,0,0,0
	l13.6,44c1.4,4.4,5.6,7.2,10.1,6.8c1.8-0.2,3.6-0.3,5.3-0.4l62.5-3.4c2.5-0.1,5-0.3,7.5-0.6c3.6-0.3,6.2-3.5,5.8-7.1
	c0-0.4-0.1-0.9-0.3-1.3l-16.9-54.8c-0.2-0.5-0.4-1-0.6-1.5c-0.1-0.2-0.2-0.3-0.3-0.4c-0.2-0.3-0.3-0.6-0.5-0.9s-0.3-0.3-0.4-0.5
	s-0.4-0.5-0.6-0.7s-0.3-0.3-0.5-0.4s-0.4-0.4-0.7-0.6s-0.4-0.3-0.6-0.4s-0.4-0.3-0.7-0.4s-0.4-0.2-0.6-0.3s-0.5-0.2-0.8-0.3
	c-0.2-0.1-0.4-0.1-0.6-0.2c-0.3-0.1-0.6-0.2-0.9-0.2c-0.2,0-0.4,0-0.7,0S1360.2,1170.4,1359.8,1170.4L1359.8,1170.4L1359.8,1170.4z"
	/>
<path class="st4" d="M1240,1802.5c0.2-0.4,0.4-0.9,0.6-1.3l2.9-8.3c8.7-25,12-51.6,9.7-77.9c-0.5-5.3-5.2-9.3-10.6-8.8
	c-0.7,0.1-1.4,0.2-2,0.4l-86.7,26.8c-3.4,1.1-5.3,4.7-4.3,8.1l8.8,28.4c1,3.2,3.6,5.7,6.9,6.6l15.4,5.9l46.2,24.2
	C1231.6,1809.1,1237.5,1807.2,1240,1802.5C1240,1802.5,1240,1802.5,1240,1802.5z"/>
<path class="st4" d="M980.4,1318.9c-10.7,38.9-20.3,78.1-28.6,117.5l-1.6,7.6c-0.7,3.5,1.5,6.9,5,7.7c1.1,0.2,2.2,0.2,3.3-0.2
	l78.1-24.2c3.1-1,5-4.1,4.5-7.3l6-92.3l1-3.2c1-3.4-0.9-7-4.3-8.1c-0.4-0.1-0.9-0.2-1.3-0.3l-51.8-4.5
	C986,1311.4,981.7,1314.4,980.4,1318.9z"/>
<path class="st4" d="M1060.6,1890.5c1.4,0.8,3,1.2,4.7,1.3l130.6,8.5c18.1,1.2,26.4-41,30.7-54.8c2-6.5,3.8-13.6,1.6-20
	c-2.7-7.6-10.3-12.2-17.4-16.2c-34.5-19.3-60.4-28.3-99-16.3l-40.6,12.6c-16.7,5.2-11.4,16.7-12.6,31
	C1057.3,1849.5,1047.9,1883.3,1060.6,1890.5z"/>
<path class="st4" d="M2788.5,788.4c-3.3-1.2-6.7-1.9-10.2-2.3c-46.3-5.1-92.7-9-139.2-11.8c-23.2-1.4-46.5-2.5-69.8-3.3
	c-12.3-0.4-47.8-8.9-53,7.1l-0.2,0.5l-35,108c-0.9,2.7-1.7,5.4-2.4,8.1c-1.9,7,2.2,14.3,9.2,16.3c0,0,0,0,0,0
	c0.4,0.1,0.8,0.2,1.1,0.3l138.8,25.2l111.9,20.3l1.3,0.2c6.7,1.2,13.2-2.8,15.1-9.4l40-138.1
	C2799.5,798.2,2796.9,791.7,2788.5,788.4z"/>
<path class="st4" d="M1719.7,1020.1c0.1,0.4,0.2,0.8,0.3,1.2c0.1,0.2,0.1,0.4,0.2,0.6c0.2,0.4,0.3,0.8,0.5,1.2
	c0.1,0.1,0.1,0.3,0.2,0.4c0.3,0.5,0.6,1,1,1.4l0.3,0.3c0.3,0.3,0.6,0.6,1,0.9c0.2,0.1,0.3,0.2,0.5,0.4c0.3,0.2,0.7,0.4,1,0.6
	c0.2,0.1,0.4,0.2,0.6,0.3s0.2,0.1,0.3,0.2s0.2,0,0.3,0.1c0.6,0.2,1.3,0.4,2,0.5c0.2,0,0.4,0.1,0.6,0.1c0.1,0,0.2,0,0.3,0
	c0.8,0,1.6,0,2.4-0.1c19.9-3.6,39.5-9.1,58.4-16.3l20.2-7c4.2-1.3,7.1-5.2,7-9.6l0.4-16.2l4.3-64.4c0.3-5.4-3.8-10.1-9.2-10.6
	l-72-5.4c-0.8,0-1.6,0-2.4,0.1l-0.6,0.1c-0.7,0.1-1.4,0.3-2.1,0.5c-0.1,0-0.1,0-0.2,0.1c-0.6,0.2-1.1,0.4-1.7,0.7
	c-0.1,0.1-0.3,0.2-0.4,0.2l-0.5,0.3c-0.6,0.3-1.1,0.7-1.6,1.1l-0.3,0.2c-0.6,0.5-1.1,1-1.5,1.6c-0.1,0.2-0.2,0.3-0.4,0.5
	c-0.4,0.5-0.7,1-1,1.6c-0.1,0.1-0.2,0.3-0.2,0.4c-0.3,0.7-0.6,1.4-0.8,2.1c-0.1,0.2-0.1,0.4-0.2,0.6c-0.2,0.7-0.3,1.4-0.4,2.1
	c0,0.1,0,0.1,0,0.2s0,0.1,0,0.2l-5.2,84.2l-1.4,22.4c0,0.6,0,1.2,0.1,1.8C1719.6,1019.7,1719.7,1019.9,1719.7,1020.1z"/>
<path class="st4" d="M1731,872.3c0.1,0.5,0.2,1,0.4,1.5c0.1,0.3,0.3,0.6,0.4,0.9c0.2,0.4,0.4,0.9,0.6,1.3c0.2,0.3,0.4,0.6,0.6,0.9
	s0.5,0.8,0.8,1.1s0.5,0.5,0.7,0.8c0.3,0.3,0.7,0.6,1,0.9c0.3,0.2,0.6,0.4,0.8,0.7c0.4,0.3,0.8,0.5,1.2,0.7s0.6,0.3,1,0.5
	s0.8,0.3,1.3,0.5s0.7,0.2,1.1,0.3c0.2,0,0.3,0.1,0.4,0.1c0.6,0.1,1.2,0.2,1.8,0.3l176.8,13.2c7.3,0.6,13.7-4.9,14.2-12.2v-0.1
	l5-69.9l5.4-75.6c0.5-7.3-5-13.6-12.3-14.1c0,0,0,0,0,0l-70.8-5l-16.8,1.5l-77.5-5.5c-14.6-1.1-27.3,9.9-28.4,24.6c0,0,0,0,0,0
	c0,0.1,0,0.2,0,0.3l-7.9,128.9c0,0.8,0,1.7,0.1,2.5C1730.8,871.7,1730.9,872,1731,872.3z"/>
<path class="st4" d="M1959.8,990.5c3.7,2.3,8.5,3.9,14.7,4.5c51.9,5,103.8,10.1,155.6,15.9c2.6,0.3,5.3,0.6,7.6-0.4
	c3.9-1.6,5.8-6.1,6.3-10.3c2.4-18.9,4-37.9,6.2-56.8c0.6-5.5,1.2-11.3-1.3-16.2c-5.3-10.1-36.7-4.9-47.2-5.3l-112.5-4.6
	c-8.9-0.7-33.2-7-38.5,2.2c-2.2,3.7-2.1,8.2-2.1,12.5C1949.1,953.8,1943.1,979.9,1959.8,990.5z"/>
<path class="st4" d="M2335.2,1533.2c0.9-20.9,1.6-41.7,2-62.6c0.1-4,0.1-8.2-1.8-11.7c-7.7-14.3-95.7,12.6-112.2,15.9l-112.9,22.3
	c-3.8,0.8-6.8,3.7-7.8,7.4l-0.8,3.3l-5.7,24c-13.7,57.3-28.2,113.8-30.3,173.1c-0.1,4.1-0.2,8.4,1.9,12c8.5,14.5,59.3,7.5,74.6,7.9
	l83.1,1.8l57.6,1.3c15.5,0.3,35.7,5.6,38.1-15.4C2327.9,1652.9,2332.6,1593.2,2335.2,1533.2z"/>
<path class="st4" d="M1946.3,1328.5c0-0.6,0-1.2-0.1-1.8c0-0.2-0.1-0.4-0.1-0.7c0-0.3-0.1-0.5-0.2-0.8c0-0.1-0.1-0.2-0.1-0.3
	s-0.1-0.4-0.2-0.6c-0.1-0.4-0.3-0.7-0.5-1.1c-0.1-0.2-0.2-0.3-0.3-0.5c-0.2-0.4-0.5-0.7-0.8-1.1c-0.1-0.1-0.1-0.2-0.2-0.3
	c-0.4-0.4-0.8-0.8-1.3-1.2c-0.1-0.1-0.3-0.2-0.4-0.3c-0.3-0.3-0.7-0.5-1.1-0.7l-0.6-0.3c-0.4-0.2-0.7-0.3-1.1-0.4
	c-0.2-0.1-0.4-0.1-0.6-0.2c-0.6-0.2-1.2-0.3-1.8-0.3c-30.5-2.1-61.2-1.4-91.6,1.9c-0.6,0.1-1.1,0.2-1.6,0.3c-0.2,0-0.4,0.1-0.5,0.2
	c-0.3,0.1-0.7,0.2-1,0.4c-0.2,0.1-0.4,0.2-0.6,0.3s-0.6,0.3-0.8,0.5l-0.5,0.4c-0.2,0.2-0.5,0.4-0.7,0.6l-0.5,0.5
	c-0.2,0.2-0.4,0.5-0.6,0.7c-0.1,0.2-0.3,0.4-0.4,0.6c-0.2,0.3-0.3,0.6-0.5,0.8c-0.1,0.2-0.2,0.4-0.3,0.6c-0.1,0.3-0.2,0.7-0.3,1
	c-0.1,0.2-0.1,0.4-0.2,0.6c0,0,0,0.1,0,0.1c-0.1,0.5-0.2,1-0.2,1.5l-3.2,48.3c-0.2,3.6,2.6,6.8,6.2,7l95.9,6.3
	c3.7,0.2,6.8-2.5,7.1-6.2l0,0L1946.3,1328.5z"/>
<path class="st4" d="M2182.9,905.3c3.1,0.7,6.3,1,9.5,1l237.7,2.9c8.6,0.1,18.1-0.1,24.7-5.6c4.9-4.1,7.3-10.4,9.5-16.5
	c7.1-19.5,53.3-107.1,27.9-121.5c-4.4-2.5-9.7-2.9-14.8-3.2l-143.9-8.4l-73.6-4.3c-17.4-1-47.9-9.1-64.1-1.7
	c-15.5,7.1-13.5,66.7-15.2,82c-1.8,16.4-3.5,32.8-5.3,49.1C2174,893.9,2172.3,902.5,2182.9,905.3z"/>
<path class="st4" d="M2159.3,1156.4l85.9,5.7l13.4,0.1c20.3,0.2,39.2-10,50.2-27.1c2-3.1,1.1-7.2-2-9.1c0,0,0,0,0,0l-0.3-0.2
	c-25.5-14.5-54-23.1-83.4-25l-60.4-4c-5.5-0.3-10.2,3.8-10.6,9.3v0.1l-2.2,39.8C2149.7,1151.4,2153.8,1156.1,2159.3,1156.4z"/>
<path class="st4" d="M2237.7,1306.5c0.2-0.3,0.4-0.6,0.6-1s0.2-0.4,0.3-0.6s0.1-0.2,0.2-0.3s0.2-0.5,0.3-0.8s0.2-0.4,0.2-0.7
	c0.2-0.6,0.3-1.2,0.3-1.8l0,0l4.5-67.9c0.1-2.1-0.7-4.2-2.4-5.5c-1-0.8-2.2-1.3-3.5-1.5c-5.5-0.7-10.9-1.2-16.4-1.5l-57.3-3.8
	c-2.9-0.2-5.9-0.3-8.9-0.5c-5.4-0.2-10,4-10.3,9.4l-3.6,64.9c0,0.6,0,1.2,0.1,1.8c0,0.2,0.1,0.4,0.1,0.6c0,0.3,0.1,0.5,0.1,0.8
	c0,0.1,0.1,0.2,0.1,0.3s0.1,0.4,0.2,0.6c0.1,0.3,0.3,0.7,0.5,1c0.1,0.2,0.2,0.4,0.3,0.5c0.3,0.4,0.5,0.8,0.8,1.1
	c0.1,0.1,0.1,0.2,0.2,0.3c0.4,0.4,0.8,0.8,1.3,1.2c0.1,0.1,0.3,0.2,0.4,0.3c0.3,0.2,0.7,0.5,1.1,0.7l0.6,0.3
	c0.4,0.2,0.7,0.3,1.1,0.4l0.6,0.2c0.6,0.2,1.2,0.3,1.8,0.3l78,5.2c0.6,0,1.2,0,1.8-0.1l0.6-0.1c0.4-0.1,0.8-0.2,1.2-0.3l0.6-0.2
	c0.4-0.2,0.8-0.3,1.2-0.5c0.1-0.1,0.3-0.1,0.4-0.2c0.5-0.3,1-0.6,1.4-1c0.1-0.1,0.2-0.2,0.3-0.3c0.3-0.3,0.6-0.6,0.9-1
	C2237.5,1306.8,2237.6,1306.6,2237.7,1306.5z"/>
<path class="st4" d="M1830.3,1525.4c0.8,0,1.6,0,2.4-0.3l32-9.9l20.2-6.2l45.2-11.2c3-0.6,5.2-3.1,5.4-6.1l5.5-83.4
	c0.2-3.7-2.5-6.8-6.2-7c0,0,0,0,0,0l-95.9-6.3c-3.7-0.2-6.8,2.5-7.1,6.2l-6.1,91.4l-1.7,25.7
	C1823.9,1522,1826.7,1525.1,1830.3,1525.4z"/>
<path class="st4" d="M1688.3,1558.2c0.1,0.5,0.2,1,0.4,1.5c0.1,0.2,0.2,0.4,0.3,0.7c0.2,0.4,0.4,0.8,0.7,1.2
	c0.1,0.2,0.3,0.4,0.4,0.6c0.3,0.4,0.6,0.7,1,1.1c0.1,0.1,0.2,0.3,0.3,0.4l0.2,0.1c0.6,0.5,1.2,0.9,1.9,1.3l0.3,0.1
	c0.6,0.3,1.2,0.5,1.9,0.7c0.2,0.1,0.5,0.1,0.7,0.1s0.6,0.1,0.8,0.2s0.5,0,0.8,0s0.4,0,0.7,0c0.8,0,1.5-0.2,2.3-0.4l102.4-31.6
	c3.9-1.2,6.7-4.7,7-8.8l1-15.4l0.2-3.6l0.6-8.7c0-0.5,0-1-0.1-1.5c0,0,0-0.1,0-0.1s0-0.1,0-0.2c-0.1-0.6-0.3-1.1-0.5-1.6
	c0-0.1-0.1-0.2-0.1-0.3c-0.3-0.5-0.6-1-1-1.4l-0.3-0.3c-0.4-0.4-0.9-0.7-1.4-1l-0.1-0.1c-0.5-0.3-1.1-0.5-1.7-0.6
	c-0.1,0-0.1,0-0.2-0.1c-0.2,0-0.4-0.1-0.7-0.1l0,0l-9.3-0.6l-93.6-6.1c-0.6,0-1.2,0-1.8,0.1c-0.2,0-0.4,0.1-0.6,0.1
	c-0.4,0.1-0.8,0.2-1.1,0.3l-0.7,0.2c-0.3,0.1-0.7,0.3-1,0.5c-0.2,0.1-0.4,0.2-0.6,0.3l-0.3,0.1c-0.1,0.1-0.3,0.2-0.4,0.3
	c-0.4,0.3-0.8,0.6-1.1,0.9c-0.2,0.2-0.4,0.4-0.5,0.6c-0.3,0.4-0.6,0.7-0.8,1.1c-0.1,0.2-0.3,0.4-0.4,0.6c-0.2,0.4-0.5,0.9-0.6,1.4
	c-0.1,0.2-0.2,0.4-0.2,0.6c-0.2,0.7-0.3,1.4-0.4,2.2l-0.1,2l-0.6,9.2c-1.1,17-2.3,34-3.6,51c-0.1,0.7,0,1.5,0.1,2.2
	C1688.2,1557.8,1688.3,1558,1688.3,1558.2z"/>
<path class="st4" d="M1947.5,1287.3c0.2-0.3,0.4-0.6,0.6-1s0.2-0.4,0.3-0.6s0.1-0.2,0.1-0.3s0.2-0.5,0.3-0.8s0.2-0.4,0.2-0.7
	c0.2-0.6,0.3-1.2,0.3-1.8l4.5-68.3c0.2-3.6-2.6-6.8-6.2-7l-92.6-6.1c-5.5-0.4-10.2,3.8-10.6,9.2c0,0,0,0,0,0l-4.8,72.1
	c0,0.8,0,1.5,0.1,2.3c0,0.2,0.1,0.4,0.1,0.6c0.1,0.6,0.3,1.1,0.5,1.6c0.1,0.1,0.1,0.3,0.1,0.4s0.2,0.3,0.3,0.4s0.2,0.4,0.3,0.6
	c0.2,0.3,0.5,0.7,0.7,1c0.1,0.1,0.2,0.3,0.3,0.4c0.4,0.4,0.8,0.8,1.3,1.2c0.1,0.1,0.1,0.1,0.2,0.2c0.4,0.3,0.8,0.6,1.2,0.8
	c0.2,0.1,0.4,0.2,0.5,0.3c0.4,0.2,0.8,0.3,1.1,0.4l0.6,0.2c0.5,0.1,1.1,0.2,1.7,0.3h0.1l0,0c0.5,0,1.1,0,1.6,0l87.4-1.3h0.8
	c0.6,0,1.2,0,1.8-0.1c0.2,0,0.4-0.1,0.6-0.1c0.4-0.1,0.8-0.2,1.2-0.3l0.6-0.2c0.4-0.2,0.8-0.3,1.2-0.5c0.1-0.1,0.3-0.1,0.4-0.2
	c0.5-0.3,1-0.6,1.4-1c0.1-0.1,0.2-0.2,0.3-0.3c0.3-0.3,0.6-0.6,0.9-1C1947.3,1287.7,1947.4,1287.5,1947.5,1287.3z"/>
<path class="st4" d="M2431.3,1044.9l18.2-89.1l3.2-15.6c1.5-7.2-3.2-14.2-10.4-15.6c-0.8-0.2-1.7-0.3-2.6-0.3l-32.8-0.2l-38.3-0.3
	l-185.7-1.3c-6.8-0.1-12.6,5.1-13.3,11.8l-4.4,40.8l-3.2,29.8c-0.6,5.4,3.3,10.3,8.7,10.9l249.1,36.9
	C2425.2,1053.6,2430.2,1050.2,2431.3,1044.9z"/>
<path class="st4" d="M2148.1,1179l-0.9,15.3c-0.3,5.5,3.9,10.2,9.4,10.5c0,0,0,0,0,0h0.1c2.9,0.1,5.8,0.3,8.7,0.5l57.3,3.8
	c5.3,0.4,10.6,0.8,15.9,1.4c0.2,0,0.4,0,0.6,0s0.4,0,0.7,0s0.4-0.1,0.6-0.1c0.2,0,0.4-0.1,0.6-0.1c0.2-0.1,0.4-0.2,0.6-0.3
	c0.2-0.1,0.4-0.1,0.6-0.2s0.4-0.2,0.6-0.4s0.4-0.2,0.5-0.3s0.3-0.3,0.5-0.4c0.3-0.3,0.6-0.6,0.8-1c0.1-0.2,0.3-0.3,0.4-0.5
	c0.1-0.2,0.2-0.4,0.3-0.6c0.1-0.2,0.2-0.4,0.3-0.6c0.1-0.2,0.1-0.4,0.1-0.7c0.1-0.2,0.1-0.4,0.1-0.6c0,0,0,0,0-0.1l0,0
	c0-0.1,0-0.2,0-0.2l1.5-22.2c0.2-3.7-2.5-6.8-6.2-7c0,0,0,0,0,0l-82.6-5.4c-5.5-0.4-10.2,3.8-10.6,9.2c0,0,0,0,0,0
	C2148.1,1178.9,2148.1,1179,2148.1,1179z"/>
<path class="st4" d="M2341,1313.3c0.2-0.3,0.4-0.7,0.6-1c0.1-0.2,0.2-0.4,0.3-0.6c0.1-0.1,0.1-0.2,0.1-0.3c0.1-0.3,0.2-0.5,0.3-0.8
	s0.2-0.4,0.2-0.7c0.2-0.6,0.3-1.2,0.3-1.8l3.5-52.6c0.2-3.2-1.9-6.1-5.1-6.9l-44.7-10.7l-20.6-4.9c-4.4-1.1-8.9-2-13.4-2.9
	c-3.6-0.7-7.1,1.6-7.8,5.2c-0.1,0.3-0.1,0.6-0.1,0.8l-2.6,38.2l-1.8,27.6c0,0.6,0,1.2,0.1,1.8c0,0.2,0.1,0.4,0.1,0.7
	c0,0.3,0.1,0.5,0.2,0.8c0,0.1,0.1,0.2,0.1,0.3s0.1,0.4,0.2,0.6c0.1,0.4,0.3,0.7,0.5,1.1c0.1,0.2,0.2,0.4,0.3,0.5
	c0.2,0.4,0.5,0.8,0.8,1.1c0.1,0.1,0.2,0.2,0.2,0.3c0.4,0.4,0.8,0.8,1.3,1.2l0.4,0.3c0.3,0.3,0.7,0.5,1.1,0.7l0.6,0.3
	c0.4,0.2,0.7,0.3,1.1,0.4c0.2,0.1,0.4,0.1,0.6,0.2c0.6,0.2,1.2,0.3,1.8,0.3l72.8,4.8c0.6,0,1.2,0,1.8-0.1c0.2,0,0.4-0.1,0.6-0.1
	c0.4-0.1,0.8-0.2,1.2-0.3l0.6-0.2c0.4-0.2,0.8-0.3,1.2-0.5c0.1-0.1,0.3-0.1,0.4-0.2c0.5-0.3,1-0.6,1.4-1c0.1-0.1,0.2-0.2,0.3-0.3
	c0.3-0.3,0.6-0.6,0.9-1C2340.8,1313.6,2340.9,1313.5,2341,1313.3z"/>
<path class="st4" d="M2117.5,1218.1l-81-5.3l-59.6-3.9c-3.7-0.2-6.8,2.5-7.1,6.2l-4.5,68.3c-0.3,5.5,3.8,10.2,9.3,10.6l56.3,3.7
	l81.6,5.4c0.6,0,1.2,0,1.8-0.1c0.2,0,0.4-0.1,0.6-0.1c0.4-0.1,0.8-0.2,1.2-0.3l0.6-0.2c0.4-0.2,0.8-0.3,1.2-0.5l0.4-0.2
	c0.5-0.3,1-0.6,1.4-1l0.3-0.3c0.3-0.3,0.6-0.6,0.9-1c0.1-0.2,0.2-0.3,0.4-0.5c0.2-0.3,0.4-0.7,0.6-1c0.1-0.2,0.2-0.4,0.3-0.6
	s0.1-0.2,0.1-0.3s0.2-0.5,0.3-0.7s0.2-0.5,0.2-0.7c0.1-0.5,0.2-1,0.2-1.4c0-0.1,0-0.2,0.1-0.4v-0.1l3.6-65
	C2127,1223.1,2122.9,1218.5,2117.5,1218.1z"/>
<path class="st4" d="M1958,1493.5c0.4,0,0.8,0,1.2,0l53.5-2.4l5.4,0.1l12.6,0.3c16.6,0.3,33.2-0.4,49.6-2.1c4.2-0.5,7.6-3.5,8.6-7.6
	l8.9-37.5l4.8-20.3c1.3-5.3-2-10.7-7.3-12c0,0-0.1,0-0.1,0c-0.5-0.1-1.1-0.2-1.6-0.3l-70-4.6l-59.6-3.9c-3.7-0.2-6.8,2.5-7.1,6.2
	l0,0l-5.1,77.1C1951.6,1490.1,1954.4,1493.2,1958,1493.5z"/>
<path class="st4" d="M1833.7,1029.4c0.4,1.8,0.7,3.6,1.1,5.4l2.6,11.3l7.4,32.7l3.2,17.7c0.6,4.6,4.4,8.2,9.1,8.6l92.4,7.3h0.2
	c3.6,0.3,6.8-2.4,7.1-6c0,0,0,0,0,0c0-0.5,0-1.1-0.1-1.6c-1.1-6.4-2.6-12.7-4.4-18.9l-10.6-36.1l-0.3-0.9l-6.8-36.6
	c-0.4-5-4.5-8.9-9.5-9.1c-28.6-1.3-57.2,1.2-85.1,7.5c-5.1,1.1-8.5,6-7.7,11.2C1832.7,1024.3,1833.2,1026.9,1833.7,1029.4z
	 M1938.5,1037.5c-0.3-1.5-0.7-3.1-1-4.6c-0.1-0.3-0.1-0.7-0.2-1C1937.6,1033.8,1938.1,1035.6,1938.5,1037.5z"/>
<path class="st4" d="M2134.6,1100.8c0.1-5,0.1-9.9,0.1-14.9l-0.7,13.9l2.5-30.9l-1.3,11.9c5.6-21.1,14.8-54.9-14.7-58
	c-52.8-5.5-105.5-12.2-158.4-16.6c-18.6-1.9-7.9,26.8-5.7,35.1l17.6,66.4c0.7,2.6,1.4,5.3,3.3,7.1c11.6,11.5,43.7,17.8,59.2,23.1
	c20.2,7,74.3,31.7,91.7,9.8c2.8-3.5,3.5-8.1,4-12.5C2133.5,1123.9,2134.3,1112.4,2134.6,1100.8z"/>
<path class="st4" d="M2401.6,1118c8.3-12.3,15.2-25.6,20.4-39.5c1.9-5.1-0.7-10.9-5.8-12.8c0,0,0,0,0,0c-0.6-0.2-1.2-0.4-1.8-0.5
	c-20-3.4-40-6.8-60.1-10l-0.5-0.1c-21.1-3.4-42.3-6.6-63.5-9.8l-1.7-0.3c-12.9-1.9-25.9-3.7-38.9-5.5c-6.6-0.9-13.1-1.9-19.7-2.8
	c-20.1-2.7-40.3-5.4-60.5-7.9c-5.4-0.7-10.4,3.2-11.1,8.6c0,0,0,0,0,0c0,0.1,0,0.1,0,0.2l-0.9,8.4l-1.9,18l-0.5,4.8
	c-0.2,2.1-0.5,4.2-0.7,6.4c-0.5,5.5,3.5,10.3,9,10.9h0.3l60.1,4l76.3,26l26.1,9.4l42.8,28.8c3,2,7.2,1.2,9.2-1.8l4.5-6.6l-0.2-0.1
	l0,0l0.2,0.1l9.4-13.9l-0.1-0.1l0.1,0.1L2401.6,1118z"/>
<path class="st4" d="M1707.6,1212.3c-0.3,5.5,3.9,10.2,9.3,10.5c1.2,0.1,2.4-0.1,3.6-0.4l92.2-28.4l3-0.9c0.4-0.1,0.7-0.2,1.1-0.3
	c-1.4,0.4-2.8,0.8-4.1,1.2l12.7-3.4l0.4-0.1c0.2-0.1,0.4-0.1,0.6-0.2s0.5-0.2,0.7-0.3s0.5-0.2,0.7-0.4s0.4-0.2,0.6-0.3
	s0.5-0.3,0.7-0.5s0.4-0.3,0.6-0.4s0.4-0.4,0.6-0.6s0.3-0.3,0.5-0.5c0.2-0.2,0.4-0.5,0.5-0.7c0.1-0.2,0.3-0.4,0.4-0.5
	c0.2-0.3,0.3-0.5,0.4-0.8c0.1-0.2,0.2-0.4,0.3-0.6c0.1-0.3,0.2-0.7,0.3-1c0.1-0.2,0.1-0.3,0.2-0.5c0.1-0.5,0.2-1,0.2-1.6l3-44.9
	c1.2-18.4-0.2-37-4.3-55l-5.9-26.3l-4-17.5v-0.2l-2.7-13.9c-0.6-3.6-4-6.1-7.6-5.5c-0.3,0.1-0.7,0.1-1,0.3
	c-5.4,1.8-10.8,3.7-16.2,5.7l-66,17.8c-6.1,1-10.7,6.1-11.1,12.3l-5.5,89.2l-1,15.9L1707.6,1212.3z"/>
<path class="st4" d="M1824.2,1292.8c0.1-0.2,0.3-0.4,0.4-0.6s0.3-0.6,0.4-0.8s0.2-0.4,0.3-0.6s0.2-0.7,0.3-1c0-0.2,0.1-0.3,0.2-0.5
	c0.1-0.5,0.2-1.1,0.2-1.6l4.8-73.2c0.2-3.6-2.6-6.8-6.2-7c-0.7,0-1.5,0-2.2,0.2c-1.7,0.5-3.5,1-5.2,1.5l-2.8,0.9l-6.8,2.1
	l-89.1,27.5c-0.8,0.2-1.5,0.5-2.3,0.9c-0.3,0.1-0.5,0.3-0.8,0.4c-0.4,0.2-0.8,0.4-1.2,0.7c0,0-0.1,0.1-0.1,0.1
	c-0.9,0.6-1.8,1.4-2.6,2.2c-0.2,0.2-0.3,0.4-0.5,0.6c-0.7,0.8-1.3,1.6-1.9,2.6l-0.1,0.2c-0.6,1-1,2-1.3,3.1
	c-0.1,0.3-0.2,0.5-0.2,0.8c-0.3,1.1-0.5,2.2-0.6,3.4l-3.6,58.4c-0.2,4.4,3.2,8.2,7.6,8.4c0.9,0,1.9-0.1,2.7-0.3l26.9-8.3
	c5.4-1.7,10.8-3.3,16.3-4.8l22.9-3.7l37.8-7.3c-5.2,0.8-10.4,1.8-15.6,2.7c2.2-0.4,4.4-0.9,6.7-1.3c3-0.5,6-1,9-1.5
	c0.4-0.1,0.8-0.1,1.2-0.3c0.1,0,0.2-0.1,0.3-0.1s0.4-0.2,0.7-0.2s0.6-0.2,0.8-0.4s0.4-0.2,0.6-0.3s0.5-0.3,0.8-0.5l0.5-0.4
	c0.2-0.2,0.4-0.4,0.7-0.6s0.3-0.3,0.5-0.5S1824,1293,1824.2,1292.8z"/>
<path class="st4" d="M1812.5,1474.8c0.2-0.2,0.3-0.4,0.4-0.7c0.1-0.1,0.2-0.3,0.3-0.4c0.1-0.2,0.2-0.4,0.3-0.7
	c0.1-0.2,0.2-0.3,0.2-0.5c0.1-0.4,0.2-0.9,0.2-1.3l9.3-140.2c0.2-3.6-2.6-6.8-6.2-7c-0.5,0-1,0-1.6,0.1l-1.1,0.2l-7.5,2.7l-8.4,3
	c-16.4,3.3-32.6,7.5-48.6,12.4l-28.9,8.9c-11.8,3.6-20.2,14.2-21,26.5l-5.4,82.3c0,0.6,0,1.2,0.1,1.8c0,0.2,0.1,0.4,0.1,0.6
	c0.1,0.4,0.2,0.8,0.3,1.2c0.1,0.2,0.1,0.4,0.2,0.6c0.2,0.4,0.3,0.8,0.5,1.2c0.1,0.1,0.1,0.3,0.2,0.4c0.3,0.5,0.6,1,1,1.4
	c0.1,0.1,0.2,0.2,0.3,0.3c0.3,0.3,0.6,0.6,1,0.9l0.5,0.4c0.3,0.2,0.7,0.4,1,0.6c0.2,0.1,0.4,0.2,0.6,0.3c0.1,0,0.2,0.1,0.3,0.2
	s0.5,0.2,0.8,0.3s0.4,0.2,0.7,0.2c0.6,0.2,1.2,0.3,1.8,0.3l0,0l86.4,5.6l6.6,0.4l9.9,0.7l0,0c0.2,0,0.3,0,0.5,0c0.3,0,0.5,0,0.8,0
	c0.2,0,0.4-0.1,0.5-0.1c0.3,0,0.5-0.1,0.7-0.2c0.3-0.1,0.5-0.2,0.7-0.3s0.3-0.1,0.4-0.2c0.3-0.2,0.5-0.3,0.8-0.5
	c0.1-0.1,0.2-0.1,0.3-0.2c0.2-0.2,0.4-0.4,0.6-0.6C1812.3,1475.1,1812.4,1475,1812.5,1474.8z"/>
<path class="st4" d="M2689.3,1119.5c-1.1-0.4-2.2-0.8-3.3-1c-38.4-8-76.8-16.2-115.3-24c-37.8-7.7-81.9-23-120.4-23
	c-14.5-2.6-29.9,43.9-35.2,55l5.4-7.3c-23.5,31.5-42.7,62.3-52.8,100.8c-3.5,13.5-20,98.4,0.4,99.8c83.3,5.5,166.4,11.5,250,11.7
	c16.1,0,22.5-7.8,26.8-22.9c16-55.3,32-110.6,48.1-165.9C2695.6,1133.3,2698.9,1123.3,2689.3,1119.5z"/>
<path class="st4" d="M2732,971.7c-0.4-0.1-0.9-0.2-1.3-0.3c-78.6-14.2-157.1-30.7-236-42.8c-12.3-1.9-23-2.6-26.5,13.3
	c-7.6,34.8-13.9,70.2-21.1,105.2c-1.1,5.4,2.4,10.6,7.7,11.7c0,0,0,0,0,0l0.2,0.1l151,29.3l90.9,19c5.1,1,10.2-2,11.6-7l32.5-112.2
	C2743.2,981,2739.1,973.7,2732,971.7z"/>
<path class="st4" d="M1961.8,899.8c19,8.5,55.7,3.5,69.5,4.1c33.9,1.6,67.9,2,101.8,2.5c18.7,0.3,24.4-11.5,25.9-29
	c3.4-39.6,6.9-79.3,10.3-118.9c0.3-3.7,0.6-7.5-0.6-11.1c-6.1-17.3-85.1-12.6-99.6-13.6l-94.8-6.7c-22.6-1.6-16.7,49-17.8,63.3
	c-2.2,29.7-4.3,59.3-6.3,89c-0.2,3.1-0.4,6.4,0.6,9.4C1952.4,893.9,1956.4,897.4,1961.8,899.8z"/>
<path class="st4" d="M2128.8,1192.8l0.9-15.2c0.3-5.4-3.9-10.1-9.3-10.5l-23.9-1.6l-69.9-17.2l-15.3-6.8c-9.1-4-18.4-7.3-28-9.9
	c-3.5-0.9-7.2,1.1-8.1,4.7c-0.1,0.5-0.2,1-0.2,1.5c-0.1,2.1-0.2,4.2-0.3,6.3l-2.8,41.8c-0.2,3.6,2.6,6.8,6.2,7l59.6,3.9l80.6,5.3
	C2123.7,1202.5,2128.4,1198.3,2128.8,1192.8C2128.8,1192.8,2128.8,1192.8,2128.8,1192.8z"/>
<path class="st4" d="M1725.2,1728.8c-0.3,0-0.6-0.1-0.9-0.1l-26.2-0.6l-17.3-0.4h-0.1c-6.9-0.2-12.7,4.9-13.5,11.8l-4.9,42.9
	l-0.9,7.7c-4.1,36.1-6.7,72.3-7.8,108.6v0.1c-0.2,7.3,5.6,13.4,13,13.6c0,0,0,0,0,0l0,0h0.9l2.3,0.1l45.3,1c5.5,0.1,10-4.2,10.2-9.7
	c0,0,0,0,0,0v-0.1l0.8-78.5l2.2-34.7l5.8-50.5C1734.5,1734.3,1730.6,1729.4,1725.2,1728.8z"/>
<path class="st4" d="M2632.8,1360.2c-1.5-1-3.3-1.6-5.2-1.6c-70.9-2.5-141.8-4.6-212.4-9.2c-10.9-0.7-49.9-10-57.5,0.7
	c-1.4,2-1.7,4.7-1.9,7.2c-1.6,18.2-2.8,36.3-3.8,54.5c-0.8,15.3-2.8,27.9,17.5,23c74.1-18.1,149.7-31.5,225.7-37.7
	c8.2-0.7,16.7-1.3,24.2-4.7C2627.5,1388.9,2644.7,1368.8,2632.8,1360.2z"/>
<path class="st4" d="M2246.6,1457.6c0.2,0.1,0.5,0.1,0.7,0.2c10.8,1.3,26.6-5.1,37.2-7.2c11-2.2,40.5-3,47.8-11.9
	c5.9-7.2,3.6-26,4.2-35c1.1-14.8,2-29.6,3.1-44.4c0.3-3.6,0.4-7.4-1.4-10.4c-8.2-13.8-89.9-19.5-91.4,4
	C2245.9,1367,2233.1,1453.1,2246.6,1457.6z"/>
<path class="st4" d="M2236.5,1347.6c0-0.6,0-1.2-0.1-1.8c0-0.2-0.1-0.4-0.1-0.7s-0.1-0.6-0.2-0.8c0-0.1-0.1-0.2-0.1-0.3
	s-0.1-0.4-0.2-0.6c-0.1-0.4-0.3-0.7-0.5-1.1c-0.1-0.2-0.2-0.4-0.3-0.5c-0.2-0.4-0.5-0.7-0.8-1.1c-0.1-0.1-0.2-0.2-0.2-0.3
	c-0.4-0.4-0.8-0.8-1.3-1.2c-0.1-0.1-0.3-0.2-0.4-0.3c-0.3-0.3-0.7-0.5-1.1-0.7c-0.2-0.1-0.4-0.2-0.6-0.3c-0.4-0.2-0.8-0.3-1.1-0.4
	l-0.6-0.2c-0.6-0.2-1.2-0.3-1.8-0.3l-19.4-1.3l-23.2,1.1l-35.6-2.3c-0.7,0-1.4,0-2.2,0.1c-0.2,0-0.4,0.1-0.6,0.1
	c-0.5,0.1-1,0.2-1.5,0.4c-0.2,0.1-0.4,0.2-0.7,0.3c-0.4,0.2-0.8,0.4-1.2,0.7c-0.2,0.1-0.4,0.3-0.6,0.4c-0.4,0.3-0.8,0.7-1.2,1.1
	c-0.1,0.1-0.2,0.2-0.3,0.3v0.1c-0.6,0.7-1,1.4-1.4,2.2l-0.2,0.5c-0.3,0.8-0.6,1.7-0.7,2.6l-7.2,41h-4.9c-0.8,0-1.5,0.7-1.5,1.5v7.5
	c0,0.8,0.7,1.5,1.5,1.5h2.9c0.3,4.4,3.3,8.1,7.6,9.1c0.5,0.1,1.1,0.2,1.6,0.3l14.5,0.9l72.7,4.8c3.7,0.2,6.8-2.5,7.1-6.2l0,0
	L2236.5,1347.6z"/>
<path class="st4" d="M2348.8,1227.4c0-0.2,0.1-0.4,0.1-0.5l17.5-54.4c1.5-3,0.6-6.6-2.2-8.5l-34.4-23.1c-3-2.1-7.2-1.3-9.2,1.8
	c0,0,0,0,0,0c0,0-0.1,0.1-0.1,0.1l-56.2,33.2c-3.3,0.2-5.9,2.9-6.2,6.2l-1.6,24.9c-0.2,3.4,2.1,6.4,5.4,7l17.7,3.7l61.2,14.6
	C2344.4,1233.2,2348,1231,2348.8,1227.4C2348.8,1227.4,2348.8,1227.4,2348.8,1227.4z"/>
<path class="st4" d="M2114.4,1483.5c0.9,0.2,1.9,0.2,2.8,0l18.6-3.7l65.1-12.8l20.5-4c4.4-0.9,7.7-4.6,8-9.1l1.8-26.4
	c0.2-3.6-2.6-6.8-6.2-7l-92.4-6.1c-4.8-0.3-9.2,2.9-10.3,7.6l-12.8,53.6C2108.7,1479.1,2110.9,1482.7,2114.4,1483.5z"/>
<path class="st4" d="M2615.1,1409c-11-5.8-43.4,2.3-53.2,3.4c-21.6,2.4-43.1,5.3-64.6,8.6c-29,4.5-57.8,9.8-86.5,15.8
	c-14.6,3.1-57.7,3.8-59.1,23.8l-16.4,247.7c-0.3,4.6-0.6,9.4,1.2,13.6c8.1,19.3,44.1,6,57.7,2.3c33.1-9,67.3-13.9,101.6-14.4
	c6.9-0.1,14.1-0.1,20.1-3.5c8.3-4.7,12-14.4,15.1-23.3c8.5-24.4,17-48.9,25.6-73.3c6.9-19.8,23.4-48.4,23.4-68.9
	c6.4-19.3,13.7-38.3,20.2-57.5c4.3-12.9,26.1-59,17.5-72C2617.1,1410.3,2616.2,1409.5,2615.1,1409z"/>
<path class="st4" d="M2080.1,1512c-0.6-7.2-4.4-8.8-17.3-9.6c-14.7-0.9-29.5-0.9-44.2-0.5c-112.3,3-218.6,45.7-324.8,78.4
	c-6.4,2-11,7.7-11.6,14.4l-10.5,105c-2.7,27.2,131.2,17.6,150.7,18l197.3,4.1c7.3,0.2,15.5,0,20.8-5c4.6-4.2,5.8-10.8,6.9-16.9
	c10-58.5,24.5-117.3,32.3-175.6C2080.1,1520.2,2080.2,1516.1,2080.1,1512z"/>
<path class="st4" d="M1838.2,997.4l85.2-7.6c5.5,0.2,10.1-4.1,10.3-9.6c0-0.2,0-0.4,0-0.5l-0.9-54.5c-0.1-6.9-5.4-12.5-12.3-13
	l-75-5.6c-5.5-0.4-10.2,3.7-10.7,9.2v0.1l-4.3,64.1c-0.2,3.7-0.4,7.3-0.4,10.9c0,3.7,2.9,6.7,6.6,6.7
	C1837.2,997.5,1837.7,997.5,1838.2,997.4z"/>
<path class="st4" d="M1948.3,1125.6l-87.6-6.9c-5.5-0.4-10.3,3.7-10.7,9.1v0.1l-3.4,51.4c-0.2,3.7,2.6,6.8,6.2,7.1
	c0.3,0,0.6,0,0.9,0h24.3l70.8,4.7c3.7,0.2,6.8-2.5,7.1-6.2l0,0l2.8-41.8c0.2-3.5,0.3-6.9,0.4-10.4c0-3.4-2.6-6.3-6-6.6
	C1951.5,1125.9,1949.9,1125.8,1948.3,1125.6z"/>
<path class="st4" d="M2109.9,1393.9l3.3-13.8c3.1-13.1,5.4-26.4,6.9-39.7c0.1-0.7,0.1-1.3,0-2c0-0.3-0.1-0.6-0.2-0.9
	s-0.1-0.6-0.2-0.9v-0.1c-0.1-0.2-0.1-0.3-0.2-0.4c-0.1-0.4-0.3-0.8-0.5-1.2c-0.1-0.2-0.2-0.3-0.3-0.5c-0.2-0.3-0.4-0.7-0.7-1
	c-0.1-0.2-0.2-0.3-0.4-0.5c-0.3-0.3-0.6-0.7-0.9-0.9c-0.1-0.1-0.2-0.2-0.3-0.3c-0.4-0.4-0.9-0.7-1.4-1c-0.1-0.1-0.3-0.1-0.4-0.2
	c-0.4-0.2-0.8-0.4-1.2-0.5c-0.2-0.1-0.4-0.1-0.6-0.2c-0.4-0.1-0.9-0.2-1.3-0.3c-0.1,0-0.2-0.1-0.4-0.1h-0.4l-81.7-5.4l-56.3-3.7
	c-5.5-0.3-10.2,3.8-10.6,9.3l-3.7,56.1c-0.2,3.6,2.6,6.8,6.2,7l59.6,3.9l75.2,5C2104.4,1401.8,2108.7,1398.6,2109.9,1393.9z"/>
<radialGradient id="产业园高亮.svg_1_" cx="3363.2786" cy="891.5106" r="773.7827" gradientTransform="matrix(1 0 0 -1 -1724.776 2344.2546)" gradientUnits="userSpaceOnUse">
	<stop  offset="0" style="stop-color:#160E23;stop-opacity:0"/>
	<stop  offset="1" style="stop-color:#00FFA2;stop-opacity:0.3"/>
</radialGradient>
<path id="产业园高亮.svg" class="st5" d="M1155.1,723c-30,104.3-104.1,369.9-182.5,575.7c-55.2,144.9-70,273.2-70,273.2
	L858.3,1882c0,0-8.2,130.6-12.9,204.6c-13.4,43.7,7,48.4,26.7,53.5c114.8,14.7,529.6,67.5,693.7,85.7c36.9,5.4,74.7-20.7,74-73.6
	c4.8-119.4,13.6-335.6,16.5-408.8c0.7-10.4,11.1-19.4,27.5-19.3c70,3.7,258.3,9.4,334.3,13.4c15.2,1.7,35.2-4.7,36.8-24.7
	c15-91.6,63.7-389.5,63.7-389.5l221.1,12.5c3.9,1,15.1-5,12.9-14.2c-0.7-29.7-0.7-95.6,10.9-122.1c21.6-49.7,53.2-96.3,70.3-124.3
	c6-12.3-0.9-15.5-13.7-17.4c-57.5-6.9-207.4-24.9-257.5-32.5c-7.9-1.4-17.3-8.7-15.4-20.4c6.4-53.4,25.2-211.8,31.6-265.7
	c2.5-13-5.2-19.1-22.1-19c-134.6-5-788.8-29.6-949.1-39.5C1169.3,676.2,1164,677.3,1155.1,723z"/>
<radialGradient id="红色区域.svg_2_" cx="4116.3965" cy="534.5344" r="146.8985" gradientTransform="matrix(1 0 0 -1 -2214.8799 1975.8066)" gradientUnits="userSpaceOnUse">
	<stop  offset="0" style="stop-color:#FF5682;stop-opacity:0.41"/>
	<stop  offset="1" style="stop-color:#FF5682;stop-opacity:0.85"/>
</radialGradient>
<path id="红色区域.svg_1_" class="st6" d="M1701.6,1342.1c0,0-10.3,153.8-14.3,214.3c-1,14.3-1,26.6,16.4,20.2
	c258.2-93.9,380.6-82,380.6-82s31.8-152.5,31.8-179.3C1953.2,1279.1,1701.6,1342.1,1701.6,1342.1z"/>
<radialGradient id="蓝色区域1.svg_1_" cx="4285.9873" cy="791.3122" r="142.1027" gradientTransform="matrix(1 0 0 -1 -2298.0901 2043.4946)" gradientUnits="userSpaceOnUse">
	<stop  offset="0" style="stop-color:#46D6FF;stop-opacity:0.19"/>
	<stop  offset="0.6549" style="stop-color:#3E9FFF;stop-opacity:0.72"/>
</radialGradient>
<path id="蓝色区域1.svg" class="st7" d="M1834.6,1299.1c0.1,0,1.7-94,10.9-105.2c7.7-9.5,269.4,13,287.5,18
	c17.9,7.1,0.9,74.1,0,98c0.5,8.2-89.8-3.2-172.4-8.6C1895.9,1297,1834.6,1299.1,1834.6,1299.1z"/>
<radialGradient id="SVGID_2_" cx="1893.6398" cy="1010.6743" r="113.5387" gradientUnits="userSpaceOnUse">
	<stop  offset="0" style="stop-color:#46D6FF;stop-opacity:0.19"/>
	<stop  offset="0.6549" style="stop-color:#3E9FFF;stop-opacity:0.72"/>
</radialGradient>
<path class="st8" d="M1843.9,1100.6l-21.7-86.8c-0.4-1.8-0.7-3.6-0.6-5.5l2-87.7c0.3-11.9,10.6-21.1,22.5-20.1l79.4,7
	c10.7,0.9,18.8,9.9,18.8,20.6v80.5c0,1.7,0.2,3.3,0.6,4.9l20.2,81.8c3.3,13.5-7.4,26.4-21.2,25.6l-81.1-4.7
	C1853.7,1115.7,1846.1,1109.4,1843.9,1100.6z"/>
<radialGradient id="黄色区域1.svg_1_" cx="3344.1326" cy="-403.4503" r="147.9177" gradientTransform="matrix(1 0 0 -1 -1929.72 1637.8057)" gradientUnits="userSpaceOnUse">
	<stop  offset="0" style="stop-color:#958A2D;stop-opacity:0.541"/>
	<stop  offset="1" style="stop-color:#FFCE26;stop-opacity:0.561"/>
</radialGradient>
<path id="黄色区域1.svg" class="st9" d="M1197.4,2148.9c4.8-56.4,13.7-171.8,18-223c3.1-13,3.2-20.9,20.9-20.8
	c16.4,0.5,39.6,5.8,72.5,4.2c96.4-4.6,221.1-22.7,293.5-13.3c29-3.4,28.9,14.8,29.2,28.6c-0.5,65.2-3.4,159.6-4.8,211.3
	c-2,41.6-22.8,54.9-58.3,53.1c-78.8-1.3-266.4-5-345.4-10.9C1203.7,2174.2,1199.1,2156.2,1197.4,2148.9z"/>
<radialGradient id="紫色区域.svg_1_" cx="3216.1611" cy="760.2924" r="206.8351" gradientTransform="matrix(1 0 0 -1 -1911.66 2064.3066)" gradientUnits="userSpaceOnUse">
	<stop  offset="0" style="stop-color:#7200FF;stop-opacity:0.8"/>
	<stop  offset="1" style="stop-color:#E2D0FF;stop-opacity:0.34"/>
</radialGradient>
<path id="紫色区域.svg" class="st10" d="M1371.2,1169.2l75.5,231c4.6,12.2,0.7,17.8-7.9,20.5c-18.7,6.9-53,19.6-71.4,26.4
	c-5.3,2-12.9,3.3-15.3-4.9c-10.8-37.8-50.6-175.3-58.5-181.8c-9.1-7.5-38.8,7-133.1,35.9c5.9-86.2,95.2-135.9,95.2-135.9
	s7.4-9.2,19.4,26.2C1375.3,1152.4,1371.2,1169.2,1371.2,1169.2z"/>
<radialGradient id="SVGID_3_" cx="1484.1523" cy="1048.948" r="164.6775" gradientUnits="userSpaceOnUse">
	<stop  offset="0" style="stop-color:#7200FF;stop-opacity:0.8"/>
	<stop  offset="1" style="stop-color:#E2D0FF;stop-opacity:0.34"/>
</radialGradient>
<path class="st11" d="M1396.6,1054.9l33.4,16.1l31,30.1l14,23.1l89.4-31.1l7.4-75c-29.7-18.5-79-31.8-130.2-44.5L1396.6,1054.9z"/>
<radialGradient id="黄色区域3.svg_1_" cx="3060.595" cy="132.5833" r="119.7106" gradientTransform="matrix(1 0 0 -1 -1877.13 1826.1506)" gradientUnits="userSpaceOnUse">
	<stop  offset="0" style="stop-color:#958A2D;stop-opacity:0.541"/>
	<stop  offset="1" style="stop-color:#FFCE26;stop-opacity:0.561"/>
</radialGradient>
<path id="黄色区域3.svg" class="st12" d="M1155.4,1775.8l82.1,37.5c0,0,28.4-53.8,20.3-111.5c-31.5-101.1-28.9-130.6-42.6-127.7
	c-15.5,3.2-106.7,27.7-107.5,33.5c-1.2,8.4,35.5,120.6,35.5,120.6L1155.4,1775.8z"/>
<radialGradient id="SVGID_4_" cx="952.3694" cy="2019.8302" r="134.896" gradientUnits="userSpaceOnUse">
	<stop  offset="0" style="stop-color:#958A2D;stop-opacity:0.541"/>
	<stop  offset="1" style="stop-color:#FFCE26;stop-opacity:0.561"/>
</radialGradient>
<path class="st13" d="M880.1,1890.1l156.4,5.8c5.3,0.2,9.3,4.8,8.8,10l-20.4,235.3c-0.5,5.4-5.5,9.2-10.8,8.3L867,2122.7
	c-4.6-0.8-7.8-4.9-7.6-9.5l11.1-214.4C870.8,1893.8,875,1889.9,880.1,1890.1z"/>
</svg>
