<svg xmlns="http://www.w3.org/2000/svg" width="73.5" height="73.5" viewBox="0 0 73.5 73.5">
  <defs>
    <style>
      .cls-1 {
        fill: #151a37;
        fill-rule: evenodd;
      }
    </style>
  </defs>
  <path id="形状_710" data-name="形状 710" class="cls-1" d="M2489,1092.59a15,15,0,0,1-9.03-3.04,14.77,14.77,0,0,1-2.82-20.74,8.869,8.869,0,0,1,2.89-2.89,14.863,14.863,0,1,1,8.99,26.67H2489Zm-9.65-12.29a9.972,9.972,0,1,0,12.21-12.16,8.692,8.692,0,0,1-6.99,13.88A8.78,8.78,0,0,1,2479.35,1080.3Zm1.94-8.79a3.744,3.744,0,0,0-.52,1.9,3.826,3.826,0,0,0,6.54,2.65,3.747,3.747,0,0,0,1.11-2.7,3.822,3.822,0,0,0-3.82-3.8V1069l-0.01.56a3.691,3.691,0,0,0-1.89.53A9.465,9.465,0,0,0,2481.29,1071.51Zm7.74-8.04h0.04a14.28,14.28,0,1,1-.04,28.56h-0.04a14.261,14.261,0,0,1-11.38-22.9,8.129,8.129,0,0,1,2.75-2.75,14.346,14.346,0,0,1,8.67-2.91m-4.46,17.99a8.14,8.14,0,0,1-6.06-2.68,10.52,10.52,0,0,0,10.49,9.47h0.01a10.5,10.5,0,0,0,1.03-20.95,7.934,7.934,0,0,1,.58.58,8.13,8.13,0,0,1-6.05,13.58m0.03-3.71h0.01a4.375,4.375,0,1,0-.01-8.75h-0.02a4.227,4.227,0,0,0-2.21.63,10.319,10.319,0,0,0-1.54,1.56,4.252,4.252,0,0,0-.62,2.22,4.385,4.385,0,0,0,4.39,4.34m4.43-15.4a15.612,15.612,0,0,0-9.31,3.1,9.394,9.394,0,0,0-3.04,3.04,15.34,15.34,0,0,0,2.95,21.51,15.565,15.565,0,0,0,9.36,3.15h0.04a15.4,15.4,0,1,0,.04-30.8h-0.04Zm-4.46,20.23a9.284,9.284,0,0,0,6.22-2.39,9.23,9.23,0,0,0,2.09-10.99,9.391,9.391,0,1,1-12.47,12.4,9.291,9.291,0,0,0,4.16.98h0Zm-1.55-12.03a3.115,3.115,0,0,1,1.57-.43,3.255,3.255,0,1,1,.02,6.51l-0.01,1.12v-1.12a3.276,3.276,0,0,1-3.27-3.23,3.143,3.143,0,0,1,.43-1.57,8.964,8.964,0,0,1,1.26-1.28h0Zm5.98,47.89c-17.43,0-36.19-4.12-36.19-13.17,0-3.79,3.49-7.03,10.1-9.39a31.747,31.747,0,1,1,52.17,0c6.62,2.36,10.11,5.6,10.11,9.39C2525.19,1114.32,2506.43,1118.44,2489,1118.44Zm-22.71-18.53c-6.76,2.08-8.56,4.4-8.56,5.35,0,2.89,10.74,8.26,31.27,8.26s31.27-5.37,31.27-8.26c0-1.09-2.29-3.39-8.56-5.35-0.26.26-.51,0.51-0.78,0.76A31.814,31.814,0,0,1,2466.29,1099.91Zm22.71-48.96a26.8,26.8,0,1,0,26.9,26.8,26.932,26.932,0,0,0-26.9-26.8h0Zm0.01-4.33a31.155,31.155,0,0,1,25.18,49.54c6.83,2.3,10.43,5.42,10.43,9.11,0,8.29-17.92,12.61-35.62,12.61s-35.63-4.34-35.63-12.61c0-3.69,3.61-6.81,10.44-9.11a30.979,30.979,0,0,1-.02-36.81,31.225,31.225,0,0,1,25.22-12.73m-0.01,58.49a27.365,27.365,0,1,0-27.47-27.36,27.408,27.408,0,0,0,27.47,27.36m0,3.77a31.157,31.157,0,0,1-22.54-9.6c-6.39,1.91-9.29,4.34-9.29,5.98,0,3.69,12.12,8.82,31.83,8.82s31.83-5.13,31.83-8.82c0-1.64-2.96-4.07-9.29-5.98-0.32.33-.65,0.67-0.99,0.99a31.178,31.178,0,0,1-21.55,8.61m0.01-63.38a32.547,32.547,0,0,0-26.13,13.18,32.1,32.1,0,0,0-.84,36.92c-8.05,3.04-9.79,6.9-9.79,9.67,0,9.43,19.05,13.73,36.75,13.73s36.75-4.3,36.75-13.73c0-2.77-1.74-6.63-9.8-9.67a32.268,32.268,0,0,0-26.94-50.1h0Zm-0.01,58.49a26.24,26.24,0,1,1,26.34-26.24,26.322,26.322,0,0,1-26.34,26.24h0Zm0,8.97c-20.26,0-30.7-5.4-30.7-7.7,0-.74,1.93-2.84,7.83-4.71a32.392,32.392,0,0,0,45.19.53c0.19-.17.37-0.35,0.55-0.53,5.84,1.88,7.83,4,7.83,4.71,0,2.3-10.44,7.7-30.7,7.7h0Z" transform="translate(-2452.25 -1045.5)"/>
</svg>
