<svg id="组_5" data-name="组 5" xmlns="http://www.w3.org/2000/svg" xmlns:xlink="http://www.w3.org/1999/xlink" width="154" height="155" viewBox="0 0 154 155">
  <defs>
    <style>
      .cls-1 {
        fill: #49f2c4;
        filter: url(#filter);
      }

      .cls-2 {
        fill: #141936;
        fill-rule: evenodd;
      }
    </style>
    <filter id="filter" x="0" y="0" width="154" height="155" filterUnits="userSpaceOnUse">
      <feOffset result="offset" in="SourceAlpha"/>
      <feGaussianBlur result="blur" stdDeviation="4.472"/>
      <feFlood result="flood" flood-color="#11152f" flood-opacity="0.71"/>
      <feComposite result="composite" operator="in" in2="blur"/>
      <feBlend result="blend" in="SourceGraphic"/>
    </filter>
  </defs>
  <circle id="椭圆_2_拷贝_11" data-name="椭圆 2 拷贝 11" class="cls-1" cx="76.625" cy="77.188" r="57.375"/>
  <path id="形状_709" data-name="形状 709" class="cls-2" d="M2487.12,871.5a31.875,31.875,0,1,1-31.87,31.875A31.883,31.883,0,0,1,2487.12,871.5Zm9.37,45.156H2477.6a84.166,84.166,0,0,0,3.16,12.516,26.8,26.8,0,0,0,12.55.04Q2494.525,925.629,2496.49,916.655Zm13.64,0h-8.26a86.115,86.115,0,0,1-2.25,10.16A26.691,26.691,0,0,0,2510.13,916.658Zm-37.91,0h-8.11a26.737,26.737,0,0,0,10.33,10.064,86.524,86.524,0,0,1-2.22-10.067v0Zm-0.62-21.25h-9.82a26.624,26.624,0,0,0,0,15.934h9.76a82.391,82.391,0,0,1,.06-15.937v0Zm25.55,0h-20.21a77.173,77.173,0,0,0-.06,15.937h20.33A76.481,76.481,0,0,0,2497.15,895.408Zm15.32,0h-9.97a82.39,82.39,0,0,1,.05,15.937h9.92a26.286,26.286,0,0,0,1.21-7.971,26.557,26.557,0,0,0-1.21-7.969v0Zm-37.95-15.428a28.457,28.457,0,0,0-10.41,10.11h8.18A97.652,97.652,0,0,1,2474.52,879.98Zm12.6-3.168a26.608,26.608,0,0,0-6.32.757,89.865,89.865,0,0,0-3.12,12.524h18.73a90.439,90.439,0,0,0-3.13-12.564A26.539,26.539,0,0,0,2487.12,876.812Zm12.42,3.075c0.87,3.215,1.75,7.018,2.26,10.206h8.33A26.7,26.7,0,0,0,2499.54,879.887Z" transform="translate(-2412 -825)"/>
</svg>
