<svg id="组_7" data-name="组 7" xmlns="http://www.w3.org/2000/svg" xmlns:xlink="http://www.w3.org/1999/xlink" width="154" height="155" viewBox="0 0 154 155">
  <defs>
    <style>
      .cls-1 {
        fill: #49f2c4;
        filter: url(#filter);
      }

      .cls-2 {
        fill: #141935;
        fill-rule: evenodd;
      }
    </style>
    <filter id="filter" x="0" y="0" width="154" height="155" filterUnits="userSpaceOnUse">
      <feOffset result="offset" in="SourceAlpha"/>
      <feGaussianBlur result="blur" stdDeviation="4.472"/>
      <feFlood result="flood" flood-color="#11152f" flood-opacity="0.71"/>
      <feComposite result="composite" operator="in" in2="blur"/>
      <feBlend result="blend" in="SourceGraphic"/>
    </filter>
  </defs>
  <circle id="椭圆_2_拷贝_11" data-name="椭圆 2 拷贝 11" class="cls-1" cx="76.625" cy="76.78" r="57.375"/>
  <path id="形状_711" data-name="形状 711" class="cls-2" d="M2458.14,1300.24a2.986,2.986,0,0,1,0-5.93h61.71a2.985,2.985,0,0,1,0,5.93h-61.71Zm4.75-9.2c-3.94,0-7.38-3.92-7.38-8.38v-39.52c0-4.46,3.44-8.38,7.38-8.38h52.22c3.93,0,7.38,3.92,7.38,8.38v39.52c0,4.77-3.18,8.38-7.38,8.38h-52.22Zm0-50.35a2.155,2.155,0,0,0-2.12,2.45v39.52a2.151,2.151,0,0,0,2.12,2.44h52.22a2.149,2.149,0,0,0,2.11-2.44v-39.52a2.153,2.153,0,0,0-2.11-2.45h-52.22Zm52.22-5.67c3.79,0,7.12,3.79,7.12,8.12v39.52c0,4.87-3.33,8.12-7.12,8.12h-52.22c-3.8,0-7.12-3.79-7.12-8.12v-39.52c0-4.33,3.32-8.12,7.12-8.12h52.22m-52.22,50.34h52.22a2.41,2.41,0,0,0,2.37-2.7v-39.52a2.419,2.419,0,0,0-2.37-2.71h-52.22a2.42,2.42,0,0,0-2.38,2.71v39.52a2.412,2.412,0,0,0,2.38,2.7m56.96,9.21a2.727,2.727,0,0,1,0,5.41h-61.71a2.729,2.729,0,0,1,0-5.41h61.71m-4.74-60.07h-52.22c-4.07,0-7.64,4.04-7.64,8.64v39.52c0,4.6,3.57,8.64,7.64,8.64h52.22c4.35,0,7.64-3.72,7.64-8.64v-39.52c0-4.6-3.57-8.64-7.64-8.64h0Zm-52.22,50.34a1.911,1.911,0,0,1-1.86-2.18v-39.52a1.915,1.915,0,0,1,1.86-2.19h52.22a1.914,1.914,0,0,1,1.85,2.19v39.52a1.91,1.91,0,0,1-1.85,2.18h-52.22Zm56.96,9.2h-61.71a3.25,3.25,0,0,0,0,6.46h61.71a3.249,3.249,0,0,0,0-6.46h0Zm-53.64-12.21a2.655,2.655,0,0,1-2.63-2.96v-8.66c0-1.21,1.02-2.97,2.63-2.97a2.664,2.664,0,0,1,2.63,2.97v5.69h4.96a2.666,2.666,0,0,1,2.64,2.97,2.957,2.957,0,0,1-2.64,2.96h-7.59Zm0-23.27a2.659,2.659,0,0,1-2.63-2.97v-8.12a2.664,2.664,0,0,1,2.63-2.97h7.59a2.991,2.991,0,0,1,0,5.94h-4.96v5.69A2.532,2.532,0,0,1,2466.21,1258.56Zm7.59-13.8a2.733,2.733,0,0,1,0,5.42h-5.22v5.95a2.282,2.282,0,0,1-2.37,2.17,2.419,2.419,0,0,1-2.37-2.71v-8.12a2.419,2.419,0,0,1,2.37-2.71h7.59m-7.59,22.74a2.414,2.414,0,0,1,2.37,2.71v5.95h5.22a2.415,2.415,0,0,1,2.38,2.71,2.728,2.728,0,0,1-2.38,2.7h-7.59a2.41,2.41,0,0,1-2.37-2.7v-8.66c0-1.09.95-2.71,2.37-2.71m7.59-23.26h-7.59a2.942,2.942,0,0,0-2.89,3.23v8.12a2.942,2.942,0,0,0,2.89,3.23,2.8,2.8,0,0,0,2.89-2.69v-5.43h4.7a3.249,3.249,0,0,0,0-6.46h0Zm-7.59,22.74c-1.77,0-2.89,1.91-2.89,3.23v8.66a2.934,2.934,0,0,0,2.89,3.22h7.59a3.234,3.234,0,0,0,2.9-3.22,2.944,2.944,0,0,0-2.9-3.23h-4.7v-5.43a2.942,2.942,0,0,0-2.89-3.23h0Zm37.98,14.85a2.985,2.985,0,0,1,0-5.93h4.96v-5.69a2.654,2.654,0,1,1,5.27,0v8.66a2.663,2.663,0,0,1-2.64,2.96h-7.59Zm7.59-23.27a2.664,2.664,0,0,1-2.63-2.97v-5.15h-4.96a2.991,2.991,0,0,1,0-5.94h7.59a2.671,2.671,0,0,1,2.64,2.97v8.66A2.541,2.541,0,0,1,2511.78,1258.56Zm0-13.8a2.42,2.42,0,0,1,2.38,2.71v8.66a2.285,2.285,0,0,1-2.38,2.17,2.419,2.419,0,0,1-2.37-2.71v-5.41h-5.22a2.733,2.733,0,0,1,0-5.42h7.59m0,22.74a2.415,2.415,0,0,1,2.38,2.71v8.66a2.412,2.412,0,0,1-2.38,2.7h-7.59a2.727,2.727,0,0,1,0-5.41h5.22v-5.95a2.414,2.414,0,0,1,2.37-2.71m0-23.26h-7.59a3.249,3.249,0,0,0,0,6.46h4.7v4.89a2.942,2.942,0,0,0,2.89,3.23,2.805,2.805,0,0,0,2.9-2.69v-8.66a2.944,2.944,0,0,0-2.9-3.23h0Zm0,22.74a2.942,2.942,0,0,0-2.89,3.23v5.43h-4.7a3.243,3.243,0,0,0,0,6.45h7.59a2.935,2.935,0,0,0,2.9-3.22v-8.66a2.944,2.944,0,0,0-2.9-3.23h0Z" transform="translate(-2412 -1190)"/>
</svg>
