<svg id="图层_1" data-name="图层 1" xmlns="http://www.w3.org/2000/svg" viewBox="0 0 3840 2890"><title>地图区块-3-3</title><rect x="-30.9" y="-23" width="3894.7" height="2941" fill="#151a38"/><path d="M2295.2,2784.8c-7-1.4-14-3.2-21.1-4q-110.25-13.65-220.5-27-50.25-6.15-100.5-12.4c-13.1-1.7-17.2-7.1-16.4-20.5,2.7-45.7,5.4-91.4,7.8-137.1,1.6-29.2,13.1-52.5,38.7-67.9a72.24,72.24,0,0,1,39.5-10.4l113.3,2.4q113.25,2.4,226.6,4.9c10.9.2,11.5.7,10.9,12.2q-3.45,65.85-7.2,131.6c-1.9,33.7-3.8,67.5-5.8,101.2-.6,9.4-.6,18.9-6.4,27.1Zm69.5-264.1c-5.3,0-9.6.1-13.9,0l-127.5-2.7c-66.1-1.5-132.2-2.5-198.3-4.6-38.2-1.2-70.6,28.6-72.3,67.7-1.5,34.5-4,68.9-6,103.4-.7,12-1.4,24-2.1,35.9-.6,10.3.6,11.8,11,13.4,5,.8,10.1,1.1,15.2,1.7l189.3,23.1q84.3,10.5,168.6,21.3c20.6,2.7,22.5,1.4,23.7-19.3q6.15-109.95,12.4-219.9c.2-6-.1-12.1-.1-20Z" fill="#1f2547"/><path d="M428.2,1273.1c1.6-4.4,3.1-8.1,4.3-11.9Q504.8,1047.6,577,834a61,61,0,0,1,18.8-27.5c20.4-16.9,41.5-33,62.2-49.7,5.6-4.5,11.8-6.4,18.9-7.2,45.3-5.4,90.7-11.2,136-16.8,4.9-.6,9.9-.6,16.1-.9-2.5,16.6-4.7,31.9-7,47.2-7.8,50.6-15.5,101.1-23.4,151.7q-12.45,80.7-24.8,161.3-11.55,75.3-23.2,150.6-13.65,88.65-27.4,177.4c-8.3,53.8-16.9,107.5-24.6,161.4a1453.16,1453.16,0,0,1-57.2,247c-3.9,12.1-8.3,24-12.1,36.1-3.2,10.2-9.7,16.4-20.1,19.3q-160.35,45-320.8,90.3c-21.7,6.1-37-7.6-33.5-29.8.7-4.7,1-9.4,1.7-14.1q8.25-62,16.6-124c4.4-33.8,9.8-67.5,12.6-101.4,3-35,3.5-70.2,5.2-105.4,1.1-24.6,2.4-49.2,3.5-73.9.4-9.8.6-19.6.9-29.4.5-21,.9-42.1,1.4-63.1l3-126.3c.1-5.8,1-11.6,1.3-17.3.6-10,4.7-14.5,15-14.7,17.8-.3,35.6.1,53.4-.2C388.7,1274.5,407.9,1273.7,428.2,1273.1Zm3.7,6.9H368.5c-16,0-32-.1-48,0-11.3.1-13.7,2.8-14.1,14.3-.6,15.2-1.6,30.4-2.1,45.6-.9,29.7-1.5,59.5-2.2,89.2q-1.2,49.5-2.2,99.1c-.2,10.2-.4,20.3-.9,30.5-1.1,24.6-2.3,49.2-3.4,73.9-.9,20.3-1,40.6-2.8,60.8-2.2,25.6-5.6,51.2-8.9,76.7-5.3,41-11,81.9-16.5,122.9-2.4,18-4.8,35.9-7,53.9-1.4,12.1,5.3,21.4,16.5,22.8,3.8.4,7.9-.7,11.6-1.8q154.2-43.2,308.2-86.7c23.7-6.7,22.5-5.6,30.8-29.9,25.6-75.8,46.2-153,59.1-232,8.3-50.8,15.8-101.8,23.7-152.7q15-97.35,30.1-194.6,12.45-80.7,24.7-161.3,13.65-89.25,27.6-178.5,11.55-74.7,23-149.5c2.2-14.5,4.2-29,6.5-44.5-4.6.3-7.8.3-11,.7-45.3,5.6-90.7,11.1-136,16.9a26.53,26.53,0,0,0-12.6,5.5c-20.7,16-41.2,32.2-61.5,48.8a59.15,59.15,0,0,0-18.8,27.4Q509.85,1052.15,437,1266.7c-1.5,4.1-3.2,8.1-5.1,13.3Z" fill="#1f2547"/><path d="M879.2,94.7c.9,3.1,1.9,5.1,2.1,7.2,1.8,30.4,3.9,60.8,5.2,91.2,1,24.3,2,48.6,1.3,72.9-1.6,58-5.2,115.9-13.9,173.3Q857,550.6,840.1,662c-1.9,12.5-4.1,25-5.8,37.6-.8,5.8-3.4,7.6-9.2,8.2-56.9,6.8-113.7,14-170.5,21-10.9,1.3-24.7-10.4-25.5-23.5-.8-12.2-.8-24.8,1.1-36.9,4.2-26.2,8.3-52.5,6.6-79-1.6-25.3-5.2-50.5-9-75.5-7.2-48.8-15.1-97.5-22.7-146.2-2.2-14.3-4.5-28.6-7-43.8-6.4-.6-12.4-1.6-18.5-1.7-26.9-.4-53.8-.5-80.6-.9-33.7-.6-67.5-1.4-101.2-2.2-13-.3-26.1-.9-39.1-1.3-13.2-.4-17.2-6-11.8-18.1,7.7-17.2,16-34.2,24.1-51.3,22.8-47.9,46-95.6,68.1-143.8,6.7-14.6,18.3-21.1,35-14.7a275.88,275.88,0,0,0,105.6,18.2c27.2-.6,54.3-2.7,81.4-4.1,8.3-.4,16.7-.6,25-.9,34.8-1.4,69.6-2.8,104.3-4.4,26.1-1.2,52.1-2.8,78.2-4.2C872,94.6,875.6,94.7,879.2,94.7ZM602.7,318.5c.8,4,1.6,7.4,2.2,10.9,9.2,58.4,18.5,116.8,27.4,175.3,3.4,21.9,7,43.7,8.9,65.8,3.1,35.6-.1,71-6.6,106.2-1.7,9.4-1.2,19.7.6,29.1,2.3,12.5,12.1,18.4,23.8,16.9q59.4-7.5,118.7-14.9l49.6-6.2c.8-3.2,1.5-5.6,1.9-8q20.1-132.3,40.2-264.7c8.2-54.6,11.6-109.6,12.7-164.8,1-49-1.2-98-5.2-146.9-.5-5.6-1.5-11.2-2.4-17-6.3.4-11.7.8-17.1,1-19.9.9-39.8,1.7-59.8,2.7-25.7,1.2-51.4,2.6-77.1,3.9-20.3,1-40.6,1.8-60.9,2.7-25.3,1.2-50.7,3.2-76,3.7A310.35,310.35,0,0,1,470.3,95.5c-13.1-4.8-19-2.3-24.7,9.7q-46.65,97.95-93,195.9c-1.2,2.5-1.8,5.3-3.2,9.5,5.1.9,9.1,2.1,13.2,2.2q44.1,1.35,88.2,2.2c21.4.4,42.9.5,64.3.9q36.45.6,73,1.4C592.4,317.3,596.7,318,602.7,318.5Z" fill="#1f2547"/><path d="M949.5,98.1c12.7-.9,24.2-2,35.7-2.6,25-1.2,50-1.9,75-3.1,32.9-1.7,65.8-3.9,98.8-5.6,26.1-1.3,52.2-2,78.3-3.2,31.1-1.3,62.3-3.1,93.4-4.1,17.8-.6,22.9,4.8,24.1,22.9,2.4,36.5,4.9,73,7.3,109.6,2.2,32.5,4.4,65.1,6.5,97.6q4.35,63.45,8.8,126.9,3.15,46.65,6.5,93.3,4.2,60.15,8.3,120.4c1.3,18.1,2.7,36.1,3.9,54.2a66.12,66.12,0,0,1,0,10.9c-.8,8.8-6.9,15.2-15.7,14.8-8.6-.4-18-.8-25.5-4.4-30.7-14.4-63.8-19.3-96.5-25.8-31-6.1-61.9-12.3-93.2-16.8-23.3-3.4-46.9-4.2-70.4-6-9.4-.7-18.8-1.5-28.2-1.3a996.64,996.64,0,0,0-117,9c-13.3,1.8-26.6,3.5-39.9,5.2-1.3.2-2.8-.3-5.7-.8,1-7,1.9-13.6,2.9-20.2,11.8-77.4,24.2-154.8,35.2-232.3,4.8-33.7,7.4-67.7,9.6-101.7,2.2-35.1,3.9-70.3,3.4-105.4-.5-40.6-3.7-81.1-5.7-121.6C949.4,105.1,949.5,102.3,949.5,98.1ZM910.6,684c16-2,29.9-3.9,43.9-5.4,24.5-2.6,49-5.7,73.6-7a612.81,612.81,0,0,1,66.4,0c27.8,1.5,55.7,3.5,83.3,7.7,34.8,5.2,69.2,12.8,103.8,19.3,23.2,4.4,46.3,8.5,68,18.7,7.7,3.7,16.5,5.3,25,7,10.3,2.1,15.6-2.6,15.9-13.4a50.44,50.44,0,0,0,0-5.5q-2.25-34.2-4.7-68.3-4.2-60.15-8.3-120.4c-1.7-25-3.2-49.9-5-74.9-2.7-38-5.5-75.9-8.1-113.9-1.8-26-3.3-52.1-5-78.1-1.9-27.5-4-54.9-5.9-82.4-1.6-22.4-2.9-44.8-4.4-67.2-.8-10.9-7-16.8-17.6-16.3q-30.45,1.2-60.8,2.9c-32.9,1.8-65.8,3.8-98.8,5.6-28.2,1.6-56.5,3-84.7,4.3-33,1.6-65.9,2.6-98.9,4.6-10.6.7-21.7-1.4-32.2,2.9,0,4.8-.3,9.2,0,13.5,3,39.1,5.2,78.2,4.7,117.4-.4,27.9-1,55.9-2.2,83.8-1.2,25.7-2,51.5-5.5,77-10.4,75.8-22,151.4-33.1,227.1C916.9,642.8,913.9,662.4,910.6,684Z" fill="#1f2547"/><path d="M3190.8,1499.5c24.7,0,49.4.1,74.1,0q150.45-.6,300.8-1.4h5.4c14.7.1,19.7,6.7,15.5,20.8q-16.95,57.45-34.2,114.8-38.7,129.45-77.3,258.8c-1.2,4.2-2.4,8.5-4.7,12.1a18.52,18.52,0,0,1-16.3,9.3c-6.5.1-13.1.2-19.6,0-12.7-.5-25.3-1.6-38-2-23.9-.9-47.9-1.4-71.8-2.3-38-1.4-76.1-2.8-114.1-4.4-35.9-1.4-71.7-2.9-107.6-4.3-31.1-1.3-62.3-2.9-93.4-4.2-13.8-.6-27.5-1.2-41.3-1.4-16.3-.3-19.7-4.7-14.4-20,20.8-60.8,42.4-121.3,62.4-182.4,18.5-56.6,35.4-113.7,53.1-170.5,1-3.1,1.6-6.4,2.9-9.4,3.8-8.9,10.6-13.5,20.4-13.4,18.5.1,37.1,0,55.6,0Zm-234.4,388.4c6,.9,10.1,1.9,14.3,2.1,22.5.9,44.9,1.6,67.4,2.3,9.4.3,18.9.5,28.3.9,24.2,1.1,48.5,2.4,72.8,3.4,22.5.9,44.9,1.5,67.4,2.4,31.5,1.3,63,2.9,94.5,4.1,23.6.9,47.1,1.5,70.7,2.3,10.1.3,20.3.8,30.4,1.1,16.7.6,33.3,1.3,50,1.7,7.9.2,12.9-4.1,15.6-11.3.6-1.7,1-3.5,1.5-5.2l110.5-369.3c4.9-16.5,3.5-18.5-13.5-18.5l-417.4.8h-48c-17.6,0-20.6,2.3-25.5,18.8-9,30.3-17.3,60.8-27.2,90.7-28.1,84.8-56.9,169.3-85.4,253.9C2960.7,1874,2958.9,1879.8,2956.4,1887.9Z" fill="#1f2547"/><path d="M1942.3,756.5c-14.5,0-29.1-.1-43.6,0q-75.15.75-150.3,1.6c-11.2.1-15.4-3.2-16.3-14.1q-1.35-18.45-2.1-36.9c-.9-23.2-1.4-46.4-2.3-69.6-1.2-30.8-2.8-61.6-4.1-92.4-.9-21-1.5-42-2.4-63.1-1.1-25.4-2.3-50.7-3.4-76-.4-8.3-.4-16.7-.7-25-.8-21.8-1.2-43.5-2.6-65.2-1-16,7.8-27.8,26.4-29.1,27.5-2,54.9-4.4,82.4-6.5,35-2.7,70.1-5.3,105.1-7.8,26.8-1.9,53.5-3.5,80.3-5.3,9-.6,18-1.5,27.1-2,15.8-1,22.6,5,22,20.7-.9,21.7-2.7,43.4-4,65.1-1.2,19.5-2,39.1-3.2,58.7-1.7,27.9-3.7,55.7-5.5,83.5-1.2,19.2-2,38.4-3.2,57.6-1.8,28.6-3.8,57.1-5.6,85.7-1.2,19.5-2,39.1-3.2,58.7-.7,11.6-1.1,23.2-2.3,34.7-1.5,14.8-14.3,26.5-29.6,26.8-19.6.2-39.3-.1-58.9-.1Zm-69.8-4.4v-.8h119.9a84.22,84.22,0,0,0,8.7-.2c12.8-1.6,22.8-10.9,23.9-23.1,1.6-17.7,2.6-35.4,3.7-53.1,1.2-19.5,1.9-39.1,3.1-58.7,1.8-28.9,3.8-57.8,5.6-86.8,1.2-18.8,2-37.7,3.1-56.5,1.8-28.6,3.7-57.1,5.6-85.7,1.4-21,2.9-41.9,4.2-62.9.8-13,1.8-26,2.2-39.1.3-10.5-5.5-15.8-15.4-15-22.7,1.8-45.5,3.7-68.2,5.4-34.3,2.5-68.7,4.7-103,7.1-29.3,2-58.6,3.9-87.8,6.2-13,1-26,2.2-38.9,4.1-13.9,2.1-19.4,8.9-19.3,22.9,0,5.4,1.1,10.8,1.2,16.2.8,23.6,1.5,47.1,2.2,70.7.3,9.1.5,18.1.8,27.2,1.1,26.4,2.4,52.9,3.5,79.3.9,20.3,1.6,40.6,2.4,60.9q2.1,51,4.2,102.2c1,22.8,1.8,45.7,3,68.5.5,9.4,2.3,11.1,10.9,11.2Z" fill="#1f2547"/><path d="M3712.5,935.2c-.4,15.7-2.5,31-7.6,46q-26.4,76.8-52.7,153.5c-4.4,12.9-8.6,15.5-21.9,13.2q-102.3-18.45-204.6-37.2l-199.2-36.3a61.15,61.15,0,0,1-8.5-1.8c-9-2.7-13.7-9.5-12.8-18.9a52.32,52.32,0,0,1,2.2-9.5q20.4-70.65,40.9-141.2c1.6-5.6,2.8-11.3,4.2-16.9,2.8-11,9.3-18,20.9-19.2,15.9-1.6,31.7-3,47.6-4.3q58.5-5.1,117-10c31.1-2.6,62.1-4.9,93.2-7.5,39-3.2,78-6.7,117-10,11.9-1,23.9-1.9,35.8-2.2,9.5-.3,13.8,3.1,15.3,11.9,4.6,27.5,8.9,55.2,13.2,82.7C3712.9,930,3712.5,932.6,3712.5,935.2ZM3677,838.6c-42.9,3.7-84,7.4-125.2,10.8-38.3,3.2-76.6,6.2-114.9,9.3l-105.1,8.7c-17,1.4-33.9,2.7-50.9,4.2-15.5,1.3-20.3,5.6-23.7,20.6-1.2,5.3-2.6,10.6-4.1,15.8q-20.1,70.2-40.4,140.3c-3.6,12.7-.6,17.6,12.2,20,16,3,32.1,5.9,48.2,8.8q110.85,20.1,221.7,40.3,67.5,12.3,135,24.5c11.7,2.1,13.6,1,17.5-10.5q26.1-76.2,52.2-152.5c6.3-18.4,9.3-37.5,6.5-56.9-3.6-24.8-8-49.4-12.3-74.1-1.4-7.9-3-9-10.8-9.3C3680.3,838.5,3677.8,838.6,3677,838.6Z" fill="#1f2547"/><path d="M2375.3,2467.6h-57.9c-2.5,0-5.1-.5-7.6-.5-26.1-.4-52.3-.5-78.4-1-34.1-.6-68.2-1.4-102.3-2.2q-45.15-1.05-90.3-2.2c-9.1-.2-18.2-.6-27.1-1.6-27.8-3.2-53.2-27.4-56.7-55.5-1.8-14.3-.8-28.9-.5-43.4.6-25.8,1.7-51.5,2.3-77.3,1.1-45.7,2-91.4,3-137.2.3-13.6,6.8-20.5,20-20.3q61.5.9,123,2.2c20.3.4,40.6,2.3,60.9,1.9,27.1-.6,53.5,4.2,80.1,7.4,24.5,2.9,48.8,7.1,73.3,9.5,18.7,1.8,37.7,1.6,56.5,2.1,13.5.4,16.7,4.1,16,18-1.3,26.1-2,52.2-3.2,78.3s-2.6,52.1-3.9,78.2c-.9,19.6-1.7,39.1-2.7,58.7C2378.4,2410.9,2376.8,2439.1,2375.3,2467.6Zm-6.2-5.4c.8-5,1.7-9,1.9-12.9,1.6-29.3,3-58.6,4.4-87.9,1.5-30.4,2.9-60.8,4.4-91.2s2.9-60.8,4.3-91.2a130.16,130.16,0,0,0,0-15.3c-.4-6.2-2.5-8.1-8.8-8.8-2.2-.1-4.4-.2-6.5-.1-34.9.3-69.5-2.9-103.9-8.3-48.4-7.5-97.1-12.3-146.2-11.4-3.3.1-6.5,0-9.8-.1q-63.15-1.5-126.2-2.9c-13.1-.3-16.8,3.7-17.2,16.6-.4,13.8-1.1,27.5-1.3,41.3q-1.5,76.2-2.9,152.4c-.3,15.2-.7,30.5-1.6,45.7-2.2,34.5,24.9,65.1,59.3,66.5,21.7.9,43.5,1.7,65.2,2.2,49.3,1.2,98.7,2.1,148,3.2,30.8.7,61.7,1.5,92.5,2.1,14.4.3,28.9.1,44.4.1Z" fill="#1f2547"/><path d="M1662.7,758c-17.8.7-35.5,1.8-53.3,1.9-48.3.1-96.4-2.8-144-11.7-8.6-1.6-17.1-3.5-25.7-5-13.8-2.4-25-16.1-25.6-30-1.1-26.1-3.1-52.1-5-78.2-2.5-36.2-5.3-72.3-7.8-108.5-1.9-27.5-3.6-55-5.3-82.5-.8-12.7-1.9-25.3-2.1-38-.3-14.3,4.9-21.1,18.8-25.6q45.6-14.7,91.3-29.2,75.9-24,151.7-47.8c5.9-1.9,11.9-3.5,17.9-4.8a52.92,52.92,0,0,1,11.9-1.3c10.2.1,16.2,5.8,16.6,16.1.9,19.6,1.4,39.2,2.3,58.7,1,22.8,2.3,45.6,3.4,68.4.4,9.4.6,18.9.9,28.3.7,23.2,1.3,46.4,2.3,69.6,1.2,30.8,2.8,61.6,4.1,92.4.9,20.7,1.6,41.3,2.4,62,.6,15.6,1.1,31.2,1.9,46.8.7,13.6-3.7,18.5-17.5,18.7-13.1.1-26.2,0-39.3,0C1662.7,758.4,1662.7,758.2,1662.7,758Zm-34.2-4.6h67.6a63.2,63.2,0,0,0,8.7-.2c6.6-1,9.3-4.6,9.1-11.3-1-26.1-1.9-52.2-2.9-78.3-.3-9.1-.5-18.2-.9-27.2-1.1-26.1-2.4-52.2-3.5-78.2-.9-20.7-1.5-41.3-2.4-62-1.3-30.4-2.9-60.9-4.1-91.3-.9-23.6-1.5-47.1-2.3-70.7-.2-6.2-.3-12.4-.9-18.5-.9-9.8-6.7-14-16.4-12.2-3.2.6-6.4,1.4-9.5,2.3-36.8,11.3-73.6,22.4-110.3,33.9q-71.7,22.5-143.3,45.6c-15,4.8-19.1,10.8-18.3,26.5.4,7.2,1.2,14.4,1.7,21.7q3.15,45.6,6.2,91.1c1.1,17,2,34,3.2,51,1.7,24.9,3.7,49.9,5.5,74.8,1.5,20.6,2.7,41.2,4.4,61.8,1.2,14.6,8.3,22.8,22.3,25.7,42,8.7,84.3,14.7,127.3,15.5,19.6.3,39.3,0,58.8,0Z" fill="#1f2547"/><path d="M3237.9,532.5c-.2-1.8-.5-3.6-.6-5.4-.8-14.6,6.2-24.4,20.6-27.8,18.7-4.4,37.5-8.5,56.3-12.6q73.8-16.35,147.8-32.5c11.3-2.4,22.9-4.1,34.4-5.6,15.5-2,19.6,1.3,22.1,16.5,3.7,22.9,7.1,45.9,11.2,68.7a214.11,214.11,0,0,0,29.8,76.7q12.45,19.8,24.8,39.8a208.81,208.81,0,0,1,30.4,93.3c1.4,17.7,3.2,35.4,4.7,53.1,1.1,13.1-3,17.5-16.4,18.6-46.9,4-93.8,8.2-140.8,12.1-31.4,2.6-62.9,4.9-94.3,7.5-28.9,2.4-57.8,4.8-86.6,7.4-13.3,1.2-23.5-6.8-24.4-20.3-2.3-34.3-4.3-68.7-6.6-103.1-2.5-36.5-5.3-73-7.8-109.5-1.2-18.1-2-36.2-3.1-54.3-.5-7.6-1.1-15.2-1.7-22.8ZM3613,789.3c-.7-7.9-1.7-15.9-2.1-23.8-1.9-35.1-8.1-69.3-25.5-100.4-9.8-17.4-20.7-34.1-31.2-51.2a229.91,229.91,0,0,1-31.3-83c-3.6-22.2-7.1-44.4-10.8-66.6-1.6-9.6-4.3-11.6-13.9-10.1-12.9,2-25.9,3.6-38.6,6.3q-78.15,17-156.2,34.5c-14.9,3.3-29.8,6.5-44.6,10.2-10.1,2.5-16.4,10.1-16.1,19.3.3,11.2,1.3,22.4,2,33.6,1.8,26,3.7,52,5.4,78,1.2,18.1,2,36.2,3.2,54.3,1.8,26.7,3.8,53.5,5.6,80.2,1.1,16.3,1.9,32.6,3.1,48.8.8,11.5,7,17,18.4,16.9,2.5,0,5.1,0,7.6-.2,20.2-1.8,40.4-3.8,60.6-5.6q65.55-5.55,131.1-10.9c38.3-3.1,76.5-6.5,114.8-9.1C3616.9,809.2,3613.9,805.8,3613,789.3Z" fill="#1f2547"/><path d="M1813,2537.4c-2.9-.3-5-.7-7.1-.8-20.3-.3-40.7-.3-61-.9-26.4-.9-52.8-2.2-79.3-3.4-21.4-1-42.7-1.8-64.1-3.1-29.6-1.8-59.3-3.8-88.9-6.1-22-1.7-44-3.9-66-6.1-9.8-1-11-2.6-11.3-12.2a48.64,48.64,0,0,1,0-5.4c.3-13.6,6.4-18.4,20.2-17.1,23.1,2.3,46.2,4.3,69.2,6.3,23.8,2,47.6,4,71.5,5.5,21.7,1.4,43.4,2.2,65.2,3.2,27.9,1.2,55.8,2.6,83.6,3.5,20,.6,39.9.5,59.9,1,16.7.3,33.4.5,50,1.5,31.3,1.9,59.8,31.3,60,62.9.1,20.2-1.9,40.5-3,60.8l-3.3,63c-.6,10.5-1.1,21-2.2,31.4-.9,9-5.2,13.2-14.2,12.8-12.3-.6-24.5-2.2-36.8-3.4-15.9-1.5-31.8-2.9-47.6-4.5-9.5-1-12.4-5.1-11.4-14.6,3.6-35,7-69.9,10.4-104.9,2-20.5,4-41.1,6-61.6C1813.2,2542.9,1813,2540.8,1813,2537.4Zm6.9-5c-6.1,62.4-12,123.9-18.1,186.2,4.7,1,8.1,2,11.6,2.4,5.7.8,11.5,1.2,17.3,1.8,19.1,1.9,38.2,3.9,57.4,5.5,9.5.8,11.2-.8,12.8-10.4a116.94,116.94,0,0,0,1.2-11.9c1.1-20.6,2-41.3,3.2-62,1.3-24.6,3.6-49.2,4-73.8.6-32.6-25.8-60.1-58.2-62.1-8-.5-16-.7-24-.9-27.2-.5-54.4-.7-81.7-1.5-24.7-.7-49.3-1.8-74-2.9q-37.5-1.65-74.9-3.6c-17-.9-34.1-1.8-51-3.2-30.7-2.5-61.4-5.5-92.1-8.1-8.9-.8-12.4,2.6-12.9,11.9-.6,9.6.6,11,10.7,11.9,32.1,2.9,64.2,6.1,96.4,8.5,35.4,2.6,70.9,4.9,106.4,6.5,33.3,1.6,66.7,2.2,100.1,3.1,20,.6,39.9,1,59.9,1.5,2,.3,4,.7,5.9,1.1Z" fill="#1f2547"/><path d="M2513.9,793c-34.7-2.3-69.4-4.5-104.1-6.9q-61.8-4.2-123.6-8.7t-123.6-8.8c-24.6-1.8-49.1-4.4-73.7-5.4-15.2-.7-32.5-13.9-31-36.2q2.25-34.2,4.3-68.3c1.2-18.1,2.3-36.2,3.7-54.2,1-12.3,10.1-21.4,22.8-22.4,17.4-1.3,34.7-2,52.1-3.2,26.4-1.8,52.8-3.8,79.1-5.5,18.1-1.2,36.2-2,54.3-3.2,26.7-1.8,53.5-3.8,80.2-5.5,18.8-1.2,37.6-2,56.5-3.2,26-1.7,52-3.7,78-5.5,1.1-.1,2.2-.1,3.3-.2,19.7-1.6,28.6,5.4,30.2,26.1,3.9,50.9,8.7,101.8,13.2,152.7,1.2,13.7,2.7,27.4,3.8,41.1,1.1,13.1-3.5,17.8-16.8,17.8h-8.7Zm19.5-23c-3.2-35.1-6.2-69-9.3-103-2.7-29.9-5.4-59.9-8.3-89.8-1-10.9-6.1-15.4-16.9-15.8a84.22,84.22,0,0,0-8.7.2c-30,2.1-60,4.3-90,6.3-33.6,2.3-67.2,4.4-100.9,6.6s-67.2,4.4-100.9,6.5c-35.4,2.3-70.9,4.5-106.3,6.6-12.7.8-20.2,7.7-21.2,20.4-1,11.9-1.6,23.9-2.3,35.8-1.5,26.8-2.9,53.6-4.6,80.3-1.3,21.5,8.2,32.3,30,33.6,16.3,1,32.6,1.9,48.8,3.1,33.9,2.5,67.9,5.3,101.8,7.7,27.5,2,55,3.4,82.4,5.4,33.9,2.4,67.9,5.2,101.8,7.7,30,2.2,60,4.3,89.9,6.5,11.8.9,14.8-2,14.2-14a19.22,19.22,0,0,0,.5-4.1Z" fill="#1f2547"/><path d="M248.3,2083.6c0-14.5-1.3-29.1.3-43.5,2.6-23.8,16.9-38.7,39.7-45.2,34.6-9.9,69.1-19.6,103.7-29.4q95.4-26.85,190.7-53.6a54.38,54.38,0,0,1,13.9-2.1c7.6,0,12.2,4.8,11.9,12.4a53.26,53.26,0,0,1-3,13.7q-28.05,85.95-56.2,171.8c-3.7,11.4-6.9,22.9-10.1,34.5-16.9,60.2-65.5,102.5-127.3,109.6-20.3,2.3-40.5-.4-60.5-4.6-28.8-6-57.7-11.3-86.6-16.6-22.8-4.2-29.2-13.2-26.1-36.5,2.5-18.3,4.8-36.7,6.3-55.1s1.8-36.9,2.6-55.4Zm147.1,163c46.7-.8,84.8-19.5,113.8-56.3,13.7-17.4,20.6-37.9,27.2-58.9,20.7-66.1,42.5-131.9,63.8-197.9,1.7-5.3,5.7-11.1.5-16.3-4.7-4.8-10.5-1.3-15.4.1q-146.25,41-292.3,82.4c-27.1,7.7-39.4,24.5-39.8,52.6-.2,17.4-1.3,34.8-1.2,52.2.1,32.7-3.6,65.1-8.1,97.4a18.27,18.27,0,0,0,11.3,20.1,30.56,30.56,0,0,0,7.3,2.1c27.4,5.2,54.9,10.5,82.3,15.6,16.7,3.1,33.2,8,50.6,6.9Z" fill="#1f2547"/><path d="M2862.6,2479c.9-11.7,1.4-22.1,2.4-32.5,1.9-20.2,4-40.4,6-60.6,1.4-14.6,4.5-16.8,18.8-18.4a406.5,406.5,0,0,0,43.9-7.5c21.2-4.8,42-11.9,63.4-15.8,18.4-3.3,37.5-3.8,56.3-4.8,29.3-1.6,58.7-2.4,88-3.9,28.8-1.5,57.2-.3,85.4,6.8,37,9.3,74.1,17.7,111.2,26.6,1.8.4,3.5.9,5.2,1.4,11.5,3.5,15.1,12.2,9,22.8-5.4,9.5-11.2,18.7-16.8,28.1-9.4,15.6-19,31-28.1,46.7-7.4,12.8-17.6,19.2-33,18.7-15.9-.5-31.9,1.2-47.9,1.1-41.8-.4-83.5-1.3-125.2-2.1-31.9-.6-63.9-1.4-95.8-2.1-32.7-.7-65.3-1.4-98-2.2C2893,2480.8,2878.6,2479.8,2862.6,2479Zm6-5.4q3.15.6,6.3.9,44.1,1.2,88.2,2.2c30.5.7,61,1.5,91.4,2.2,33.8.8,67.5,1.8,101.2,2.1,39.2.4,78.5-.1,117.7.2,12.4.1,21.6-4.4,27.9-15.3,9.1-15.7,18.8-31.1,28.2-46.6,5.5-9,11-18,16.3-27.1,5.8-9.9,4-14.1-7.2-17.1-1.1-.3-2.1-.4-3.2-.7-29.7-7.1-59.4-13.9-89-21.3-35.7-8.9-71.3-15.6-108.6-11.9-31.7,3.1-63.7,4.2-95.6,4.4-28.8.2-56.1,6.2-83.5,13.9-23.1,6.5-46,13.2-70.4,13.6-7.7.1-10.2,2.9-11.1,10.6-2.1,19.4-4,38.9-5.9,58.4-.9,10.4-1.8,20.8-2.7,31.5Z" fill="#1f2547"/><path d="M2964.2,580.9c-.9,10-.6,18.7-2.7,26.8a227.88,227.88,0,0,1-11.5,32.8c-5,11.7-11.3,22.8-16.8,34.2a90.66,90.66,0,0,0-9.4,41c.5,28.3.9,56.6,1.4,84.9.2,12.4,3.9,16,16.2,16.9q62.4,4.35,124.7,8.8l123.6,8.7c7.2.5,14.4,1.5,21.6,2,11.1.7,15.7-3.3,15.4-14.4-.4-14.8-1.4-29.7-2.3-44.5-1.6-26-3.2-52.1-4.9-78.1-2.5-36.5-5.3-73-7.8-109.5-1.2-17.4-2.2-34.8-3-52.1s-6.8-22.2-23.9-20.7c-18.4,1.6-36.9,2.1-55.4,3.3-27.1,1.8-54.2,3.8-81.3,5.6-18.8,1.2-37.7,2.1-56.5,3.1-2.2.1-4.4,0-6.5.2-15.6,1.8-15.6,1.8-23.6,14.7-4-2.6-3.3-6.2-1.7-9.4a16.65,16.65,0,0,1,14.6-9.9l46.7-3c27.1-1.8,54.2-3.8,81.3-5.6,18.5-1.2,36.9-2,55.4-3.1,9.4-.6,18.8-1.3,28.2-2,19.2-1.5,26.7,5.2,28,24.3,2.5,36.5,5.3,73,7.8,109.5,2,30,3.4,60.1,5.3,90.1,1.6,25.3,3.7,50.6,5.5,75.9.3,4.3.2,8.7.1,13.1-.2,12.3-6.7,18.8-19,18.5-11.6-.4-23.2-1.4-34.7-2.2-17.7-1.3-35.4-2.9-53.1-4.2q-44-3.15-87.8-6.1c-32.9-2.3-65.8-4.7-98.7-7-13.5-.9-19.7-7-19.9-20.7-.4-31.6-.6-63.2-.8-94.8-.1-13,4-25,9.5-36.6,5.2-11.2,10.8-22.2,16.5-33.2,7.7-15.1,12.5-30.9,13.3-47.9C2958.1,587,2957.6,583.5,2964.2,580.9Z" fill="#1f2547"/><path d="M3137.3,1475.5c-8.4,0-16.7.1-25.1,0-16.3-.2-25.5-11.9-21.1-27.6,11.2-39.8,22.8-79.5,34.2-119.3q32.1-111.45,64.4-222.8c.6-2.1,1.2-4.2,1.9-6.3,4.2-14.1,10.4-17.8,25.2-15.1,14.3,2.6,28.6,5.1,42.8,7.7,26,4.8,52.1,9.4,78.1,14.4,14.7,2.8,17.1,8,9.8,20.9-27.8,48.5-55.3,97.2-83.5,145.5-29.1,49.8-51.5,102.4-70.3,156.7-3.9,11.3-8.2,22.5-12.4,33.7-3.7,9.8-6.6,11.9-16.8,12C3155.4,1475.6,3146.4,1475.5,3137.3,1475.5Zm209.8-360.4c-5.9-1.5-9.6-2.7-13.4-3.4-18.5-3.5-37.1-6.8-55.6-10.2q-31-5.7-62.1-11.3c-11.5-2-15.1.3-18.6,11.1-.4,1.4-.9,2.8-1.3,4.1q-16.95,58.65-33.8,117.1c-21.6,74.6-42.8,149.3-64.9,223.7-4.2,14.2,4.5,24.6,17.4,23.7,15.9-1.1,32-.5,47.9-.1,7.3.2,11.4-2.6,13.7-9.5,4.9-14.4,10.5-28.6,15.6-43,16.6-47.3,36.1-93.4,61.1-137q44-76.5,87.7-153.1C3342.6,1123.9,3344.3,1120.5,3347.1,1115.1Z" fill="#1f2547"/><path d="M565.6,2481.5c8.4-17.8,20.2-31.4,35.6-40.6,30-17.8,60-35.7,92.7-48.1,46.7-17.6,94.7-20.4,143.5-11q89.25,17.1,178.6,34.1c11.6,2.2,17.6,8.2,15.4,16.9-3.1,12.2-6.2,20.9-21.9,18q-54-10.2-108-20.5c-28.2-5.3-56.2-11.9-84.6-15.5-56.6-7.3-120.9,21.9-150.4,84.4-.9,2-1.7,4-2.7,6-4.4,8.8-10.2,11.2-19.7,8.2-2.8-.9-5.4-2.2-8.1-3.2-20.3-8-40.5-16-60.8-24.1C572.5,2484.8,569.7,2483.3,565.6,2481.5Zm8.3-2.8c10.5,4.2,19.9,8,29.3,11.8,13.8,5.5,27.6,11.1,41.5,16.4,8.2,3.1,10.8,1.9,14.6-5.9,1.1-2.3,2.1-4.6,3.2-6.9,28.9-60.3,96.4-96.1,165.6-83.8,35.3,6.3,70.5,13.5,105.8,20.2l75.9,14.4c4,.8,8.6,1.9,10.9-2.1,2.4-4.2,4.7-9.4,4.5-14.1-.2-5.7-6.2-6.1-10.9-7.1-1.4-.3-2.8-.6-4.3-.9q-78.6-15-157.1-29.9c-27-5.1-54-10-81.8-8.1-29.7,2-58.5,7.4-85.3,20-26.2,12.3-51.7,26.4-77.1,40.4C594.3,2451.2,582.9,2463,573.9,2478.7Z" fill="#1f2547"/><path d="M2055.7,2056c0-8.2.2-14.4,0-20.6-1.3-33.2,3.7-65.8,7.3-98.6.5-4.7.8-9.4,1.6-14,1.3-8.6,5.9-13.1,14.6-13,19.9.2,39.9,1.1,59.8,1.7,2.5.1,5.1.3,7.6.3,26.5.3,53,.4,79.5.9,33.4.6,66.7,1.3,100.1,2.2,18.8.5,37.7.9,56.5,2,13.8.8,18.9,7.5,18.2,21.3-1.3,27.2-2.1,54.4-3.4,81.5-1.2,25.7-2.7,51.4-4.1,77.1-.5,9.4-.8,18.8-1.5,28.2-.8,11.4-4.2,14.5-15.7,14.8-33.1.9-66-.7-98.7-5.9-27.9-4.5-56.1-7.7-84.1-11.2a237.56,237.56,0,0,0-23.9-1.2c-26.9-.5-53.7-.8-80.6-1.3-6.9-.1-13.8-.5-20.6-1-8.9-.6-13.1-4.8-13.2-13.9-.2-14.2.1-28.3.3-42.5A50.08,50.08,0,0,1,2055.7,2056Zm294.7,78c9.3,0,17.3.2,25.3-.1,7.6-.3,9.9-2.3,10.4-9.7,1-14.1,1.6-28.2,2.3-42.4q1.5-28.8,2.8-57.6c1.3-27.2,2.4-54.3,3.8-81.5,1.1-21.1-4.6-19.1-20.3-21.4h-1.1l-157.8-3c-25.4-.5-50.8-.8-76.2-1.4-19.2-.5-38.4-1.4-57.6-2-7-.2-11,2.9-11.7,10-3.6,32.8-9.3,65.3-8.9,98.5.2,13.4-.1,26.9-.4,40.3-.2,13-.9,26.1-.8,39.1.1,7.9,2.7,10,10.8,10.3,21.8.8,43.5,2.4,65.2,2,41.2-.8,81.7,4.4,122.4,9.8C2289.6,2129,2320.2,2135.5,2350.4,2134Z" fill="#1f2547"/><path d="M2984.4,1907.9c21,.9,42.1,1.7,63.1,2.6,26.4,1.1,52.9,2.4,79.3,3.4,12.7.5,25.4.5,38.1.9,6.1.2,12.3.6,18.4,1.4,11.1,1.4,16.4,8.1,15,19.7-1.1,9.4-3.2,18.6-5,27.9q-17.4,89.85-34.8,179.6c-3.2,16.7-9.5,21.4-26.8,22.3-27.5,1.5-54.9,3.7-82.4,5.5-19.2,1.2-38.4,2-57.6,3.2-27.1,1.7-54.2,3.4-81.3,5.5-13.7,1-23-8.2-21.2-22.1,8.3-62.7,19.5-124.8,35.9-185.9,3.8-14,7.5-28.1,11.6-42,5-16.5,13.2-22.4,30.3-22.5h17.4Zm-70,265.6.1.4c6.1-.6,12.2-1.3,18.4-1.7,27.1-1.6,54.3-3.1,81.4-4.7,39.1-2.3,78.1-4.8,117.2-7,13.7-.8,18.7-4.9,21.3-18.4q7-36.3,14.1-72.7,12.45-64.05,24.8-128.3c2.9-14.8-.2-18.9-15.6-20-8.3-.6-16.7-.3-25-.7-23.2-1.1-46.3-2.4-69.5-3.4-25-1.1-50-1.9-75-2.9-13-.5-26.1-1.3-39.1-1.4-13.5-.1-20.6,5.5-24.9,18.4-.7,2.1-1.3,4.2-1.9,6.2a1424.76,1424.76,0,0,0-40.8,186c-1.8,11.8-3.5,23.7-4.7,35.6-1,9.8,4.2,15.1,13.9,15a32.34,32.34,0,0,0,5.3-.4Z" fill="#1f2547"/><path d="M2402.1,2104.7c.8-20.6,1.6-41.3,2.6-62,1.2-25.3,2.6-50.7,3.9-76l1.8-31.5c.8-12.3,8.7-19,21-17.7a86,86,0,0,0,8.6.8c26.5.3,53,.4,79.6.9q50.7.9,101.2,2.2c20.7.5,41.3,1.4,62,2.2,11.8.4,18,6,17.6,17.3-.8,26.1-2.2,52.2-3.3,78.2-.4,9.1-.6,18.1-.9,27.2q-1,33.15-2.2,66.4c-.4,9.8-1.1,19.5-1.4,29.3-.4,13.5-7.6,20.7-20.5,19.4-17.7-1.7-35.4-3.1-53.1-4.8-51.6-5-103.1-10.3-154.7-15-15.1-1.4-30.4-1.6-45.6-2-14.4-.4-16.9-2.7-17-17.5v-17.4Zm49.5-180.8v-.3c-6.2,0-12.4.1-18.5,0-13.4-.2-16.9,3-17.5,16.2-1.5,30.8-3,61.5-4.4,92.3-.4,8.7-.6,17.4-1.1,26.1-1.1,21-2.4,42-3.2,62.9-.4,11.6,1.6,13.1,13.2,13.3,14.5.3,29.1-.1,43.5,1.2,40,3.6,80,7.9,120,11.9,27.8,2.8,55.5,5.5,83.2,8.4,14.1,1.5,19.5-2.4,20.3-17,1.1-19.5,1.6-39.1,2.3-58.7.8-21.4,1.5-42.8,2.4-64.1.4-10.1,1.4-20.2,1.8-30.4.5-14.9.9-29.8.9-44.6,0-7.3-3.6-11-10.3-11.7-7.2-.7-14.4-1.3-21.7-1.5q-46.8-1.2-93.6-2.2c-38.9-.7-78.1-1.2-117.3-1.8Z" fill="#1f2547"/><path d="M2654.3,2346.2l-101.5-6.4-80.3-4.8q-34.8-2.1-69.4-4.4c-7.6-.5-11.3-4.2-11.4-11.7,0-8.3.8-16.6,1.2-24.9,1.4-26.8,2.9-53.6,4.3-80.4.8-16.3,1.4-32.6,2.3-48.9.6-12.2,3.6-14.7,16.2-15.1,29.5-.9,58.7,1.6,88,4.6,54.4,5.5,108.9,10.6,163.4,16a51.44,51.44,0,0,1,11.7,2.2c7.3,2.4,11.6,10.3,10.7,19.5-2.2,20.9-4.4,41.8-6.8,62.7-2.7,23.8-5.6,47.5-8.3,71.3v1.1C2672.3,2343.5,2672.6,2348.8,2654.3,2346.2Zm-219.5-192.3-.1.9c-5.8,0-11.6-.1-17.4,0-9.8.2-12,2.4-12.6,12.2-.8,15.9-1.5,31.9-2.2,47.8-.4,8.7-.6,17.4-1.1,26.1-1.3,25-2.8,50-4,74.9-.3,7.2,1.4,8.5,9.1,9,16.6,1.2,33.2,2.4,49.9,3.5,34.7,2.2,69.5,4.5,104.2,6.5,32.2,1.9,64.4,3.6,96.7,5.4,9.1.5,9.6.1,10.8-9.1,1.2-10.1,2.4-20.2,3.5-30.2,4-35.7,8-71.3,11.7-107,1.3-12.4-2.2-16.5-14.6-17.8-28.1-2.9-56.3-5.5-84.4-8.3s-56.2-5.8-84.4-8.4c-21.8-2.1-43.5-3.7-65.1-5.5Z" fill="#1f2547"/><path d="M2701,2144.9c1.4-26.8,2.7-49.2,3.8-71.6.4-9.1.6-18.1.9-27.2.7-21.7,1.4-43.5,2.2-65.2.5-13.4,1.3-26.8,2.2-40.2.7-10.3,6.4-15.4,17-15.8,25.5-.9,50.5-4.2,75-11.7,19.8-6.1,40.1-10.3,60.8-11.2a267.83,267.83,0,0,1,38,1.6c9.7,1,15.4,10.9,12.9,21.5-2.6,10.9-6.1,21.7-9,32.5a1379.69,1379.69,0,0,0-38.2,195.2c-1.6,13.8-9.7,27-28.9,25.1-21.3-2.1-42.5-4.1-63.8-6.1-15.9-1.5-31.7-3.6-47.6-4.6C2708.2,2166.2,2699.6,2162.1,2701,2144.9Zm6.7-16h-.6c0,6.5-.2,13.1.1,19.6s3.3,10.1,9.4,11.7a47.89,47.89,0,0,0,7.6,1c18,1.9,36,3.8,54,5.5,19.5,1.9,39,4,58.5,5.3,15.7,1,21.7-4.9,24-20.1,5.2-33.3,9.4-66.9,16.3-99.8,8.8-41.9,19.8-83.3,30-124.9,2.9-11.9-.7-18.1-12.1-18.9-25.9-1.9-51.5-.5-76.6,6.5-8,2.2-16.2,4.2-24.2,6.5-20.7,6-41.9,8.3-63.4,8.7-11,.2-14.2,3.3-14.9,14.1-.6,8.7-1,17.3-1.4,26-.4,9.4-.5,18.9-.9,28.3-1.1,22.1-2.4,44.1-3.4,66.2-1,21.6-1.7,43-2.4,64.3Z" fill="#1f2547"/><path d="M2892.4,2361.5c-12.3,1-18.8-4.4-17.3-19.7,3.1-31.7,6-63.5,9.1-95.2,1.2-12.2,2-24.6,3.9-36.7,2.1-13.5,9.2-19.9,22.4-20.9,22.8-1.7,45.6-2.9,68.3-4.4,27.1-1.8,54.2-3.8,81.3-5.6,19.2-1.2,38.4-2.1,57.6-3.2,4.7-.3,9.4-1,14-1.3,12.6-.8,19.2,6.3,16.9,18.6q-11.1,58.35-22.5,116.5c-2.8,14.2-9.9,20.5-24.7,21.5-17.7,1.2-35.5,2.3-53.2,2.4-30.8.2-60.5,5.5-90,14-18.4,5.3-37.4,8.8-56.1,13C2898.9,2361.1,2895.6,2361.1,2892.4,2361.5Zm233.9-180.7c-10.5.7-21,1.3-31.5,2-31.5,2-62.9,4.1-94.4,6.1-27.9,1.8-55.7,3.2-83.6,5.1-17.5,1.2-22.9,6.9-24.4,24.1-1.6,18.4-3.5,36.8-5.3,55.2-2.3,23.8-4.7,47.6-6.8,71.4-.6,7.2,2.6,10.7,10.2,10.6a83.79,83.79,0,0,0,17.3-1.6c20.1-4.7,40.2-9.6,60.2-14.9,18.6-5,37.3-9.1,56.7-9.7,14.5-.4,29-1.4,43.5-2,9.1-.4,18.2,0,27.2-1,14.6-1.7,22.1-1.3,26.2-23,6.5-35,13.5-69.9,20.1-104.8C3144.9,2181.8,3143.2,2180,3126.3,2180.8Z" fill="#1f2547"/><path d="M1399.6,2512.4c-31.4-3.8-64.6-7.3-97.5-12-50.6-7.3-101.1-15.2-151.5-23.4-29.3-4.8-58.5-10.5-87.8-15.8a47,47,0,0,1-7.4-1.8c-4.8-1.5-7.1-5.2-7-9.9,0-15.4,11.2-24.8,26.8-22.2,17.2,2.9,34.2,6.6,51.4,9.4,58.3,9.4,116.7,19,175.1,27.6,34.8,5.2,69.7,8.8,104.6,13.1,11.4,1.4,15.3,6.1,14.7,17.3,0,.4-.1.7-.1,1.1C1419.9,2515.6,1414.6,2512.4,1399.6,2512.4Zm-345.8-61.3c18.2,9.5,246.3,45.8,349.8,56,3.1.3,6.3-.4,9.6-.6.5-3.1,1-5.2,1.2-7.3,1.3-13.6.7-14.8-13.1-16.6-37.7-4.9-75.6-8.9-113.3-14.4-48.8-7.1-97.5-15-146.2-22.9-23.3-3.8-46.4-8.5-69.6-12.6-7.8-1.4-11.5.6-14.7,7.6-1.4,3.4-2.3,6.9-3.7,10.8Z" fill="#1f2547"/><path d="M486.7,2449.9c-5-1.7-8.1-2.6-11.1-3.8q-116.85-46.65-233.7-93.4a73.66,73.66,0,0,1-7-3c-12.8-6.4-19.8-17.8-18.1-31.8a247.16,247.16,0,0,1,6.1-33.1c3.5-13.7,15.2-20.6,29.2-17.9l117.6,22.5c66.4,12.9,113.9,71.1,117.8,131.7.4,5.8,1.2,11.6,1.2,17.3C488.6,2441.8,487.5,2445.2,486.7,2449.9Zm-4.3-7.9a79.27,79.27,0,0,0,.6-8.7c-2.1-66.9-46.3-119-103-135.2-11.1-3.2-22.6-5.1-34-7.3-31.3-6.1-62.7-12.1-94-18-10.7-2-20.2,2.2-22.7,11.8a249.87,249.87,0,0,0-6.4,37.4c-1,10,5,17.1,13.5,21.9a71.37,71.37,0,0,0,9,3.8q113.25,45.3,226.5,90.5c3.2,1.3,6.5,2.4,10.5,3.8Z" fill="#1f2547"/><path d="M2856.2,2214.5c-3,32.1-6.1,64.2-9.1,96.2-.9,9.7-1.7,19.5-2.6,29.2-1.2,12.1-8.3,18.3-20.4,17.5-32.1-2.1-64.3-4.4-96.4-6.6-10.5-.7-21-1.2-31.4-1.9-12.2-.8-14.9-4.3-13.4-16.6,4.1-35.3,8.1-70.5,11.9-105.8,1.3-11.9,2.3-23.8,3.8-35.6,1.2-9.9,6.6-15.2,16.6-14.9,14.1.4,28.2,1.7,42.3,3,25.6,2.4,51.1,5.2,76.7,7.8,2.9.3,5.8.4,8.6.9,8.3,1.6,13.1,7.4,13.5,15.9C2856.3,2207.2,2856.2,2210.8,2856.2,2214.5Zm-168.6,127c5.3.9,9.2,1.9,13.1,2.2q60.75,3.9,121.5,7.5c11.4.7,15.4-2.5,16.5-13.4q4.35-43.8,8.4-87.6c1.3-13.7,2.9-27.4,3.8-41.1.7-10.9-2.4-14.3-13.2-15.8s-21.6-2.5-32.4-3.6c-27.4-2.8-54.8-5.3-82.2-8.2-13.9-1.5-18.2,1.8-19.7,16.1-4.2,38.2-8.6,76.3-12.9,114.5-1.1,9.2-1.8,18.6-2.9,29.4Z" fill="#1f2547"/><path d="M2555.1,766.9c.7,2.9,1.4,5.9,2.2,8.8,2.3,9,7.5,14.8,17.2,15.6,17.3,1.5,34.6,3,52,4.2q45,3.3,90,6.3c34,2.3,68,4.5,102,6.9,23.5,1.7,46.9,3.7,70.4,5.6,10.5.8,13.6-3.9,13.3-12.3-1.1-27.5-2-55.1-2.1-82.7-.1-19,3.3-37.6,11.8-54.9,5.6-11.4,11.1-22.9,17-34.1a101,101,0,0,0,11.7-42.7,19.4,19.4,0,0,1,.7-4.2c.1-.5,1-.8,2.4-1.9.7,2,1.8,3.8,1.9,5.5.9,15.3-3.2,29.5-9.8,43.1-5.9,12.1-12.1,24-18,36.1-8.8,18.3-13.1,37.6-11.4,58v1.1c.5,25.8,1.1,51.5,1.4,77.3.2,13.8-3.7,17.7-17.6,17-22.4-1.1-44.8-3-67.3-4.5-34.7-2.4-69.4-4.7-104.1-7.2q-56.4-4-112.7-8.3c-10.5-.8-21-1.3-31.4-2.4-14-1.4-22.7-10.4-23.6-24-.1-2.1,1.1-4.3,1.7-6.4Z" fill="#1f2547"/><path d="M2666.4,2475.1c3.3-29.2,6.3-56.1,9.3-83.1.9-8.3,1.9-16.6,3-24.8,1.4-10.9,3.7-13,14.9-12.5,18.1.8,36.2,1.9,54.3,3,19.9,1.3,39.8,2.8,59.6,4.2,5.8.4,11.6.8,17.3,1.6,10,1.4,15.6,7.5,15.2,17.8-.6,13.7-2.2,27.4-3.5,41.1-1.5,16.2-3,32.5-4.6,48.7a66,66,0,0,1-1.7,7.7Zm159.5-1.8c.9-9.5,1.7-17.8,2.5-26,2-20.6,4.2-41.1,5.8-61.7.9-11.6-3-16.1-14.6-17-21.3-1.7-42.6-3.1-64-4.4-19.2-1.2-38.4-2-57.5-3.5-12-1-13-.6-14.3,11.3-2.8,24.9-5.8,49.7-8.6,74.6-.8,7.4-1.4,14.9-2.1,23.3Z" fill="#1f2547"/><path d="M2536.8,578.5c-5.4-11.2.3-23.1,11.5-25.2,9.2-1.7,18.7-2,28.1-2.6,27.8-2,55.7-3.8,83.5-5.7,18.5-1.2,36.9-2,55.4-3.1,26.8-1.7,53.5-3.7,80.2-5.5,17.7-1.2,35.5-2.1,53.2-3.2,21.3-1.3,42.7-2.8,64-4a142.47,142.47,0,0,1,19.6-.2c9.8.8,14.2,8.3,11.4,18.3-.7-.1-1.8-.1-1.9-.4-5.9-12.6-7.4-13.7-21.5-12.8-37.2,2.5-74.4,5.3-111.7,7.7-30.4,2-60.8,3.4-91.2,5.3-26,1.7-52,3.8-78,5.5-18.5,1.2-36.9,2.1-55.4,3.2-9,.5-18.1,1-27.1,1.8-11.7,1.1-14.7,4-17.9,15.4A54,54,0,0,1,2536.8,578.5Z" fill="#1f2547"/><path d="M1646.6,1391.1l19.5,61.1a9.11,9.11,0,0,0,11.4,6l51.6-15.6a9.31,9.31,0,0,0,6.2-11.4l-18.3-61.8a9.17,9.17,0,0,0-11.5-6.2h-.1l-52.8,16.3a9.28,9.28,0,0,0-6,11.6Z" fill="none" stroke="#000" stroke-miterlimit="10"/><path d="M1803.7,2348.1c-1.4,0-2.7,0-4.1-.1l-4.4-.3-948.7-96.6c-66.5-6.8-119.4-22.4-157.3-46.3-47-29.8-71.8-72.8-73.5-127.9-1.1-35.4,25.7-128.9,59.6-247.4,32.1-112,68.5-239,91.9-353.4L878.1,730.3v-.1a96.64,96.64,0,0,1,94.5-77.6c1.9,0,3.8.1,5.7.2L3042.7,774.4a68.42,68.42,0,0,1,64.1,72.1,76.6,76.6,0,0,1-2.9,16l-283.2,932.4a95.51,95.51,0,0,1-91.4,67.8H1996.1l-9.5,141.5a58.25,58.25,0,0,1-57.8,54.2h-32l-10.3,210.8A82.68,82.68,0,0,1,1803.7,2348.1Z" fill="#151a38"/><path d="M972.7,657.5c1.8,0,3.6.1,5.4.2L3042.5,779.3a63.34,63.34,0,0,1,59.4,66.8,72.62,72.62,0,0,1-2.7,14.9L2816,1793.3a90.61,90.61,0,0,1-86.6,64.2H1991.5l-9.8,146.2a53,53,0,0,1-52.8,49.5h-36.8l-10.5,215.6a78,78,0,0,1-77.9,74.3c-1.3,0-2.6,0-3.9-.1l-4.1-.3L847,2246.1c-115.6-11.8-222.7-53.3-226.3-169.4-2.1-67.4,103.2-364.1,151.5-599.8L883.1,731.1a91.65,91.65,0,0,1,89.6-73.6m0-10h0a101.67,101.67,0,0,0-99.4,81.6v.4L762.4,1475c-23.4,114.2-59.8,241-91.8,352.9-34.1,118.9-61,212.8-59.8,248.9,1.8,56.9,27.3,101.3,75.8,132,38.5,24.4,92.2,40.2,159.5,47.1l948.7,96.6h.4c.7,0,1.4.1,2,.1s1.4.1,2.1.2h.2c1.4.1,2.9.1,4.4.1a88,88,0,0,0,87.9-83.8l10-206.1H1929a63,63,0,0,0,62.8-58.8l9.2-136.9h728.5a100.58,100.58,0,0,0,96.1-71.3l283.2-932.3v-.2a86.83,86.83,0,0,0,3.1-16.9v-.2a73.51,73.51,0,0,0-68.8-77.4L978.8,647.7c-2-.1-4.1-.2-6.1-.2Z" fill="#00edff"/><path d="M1387.6,794l-5.7,11a50.33,50.33,0,0,0-3.5,8.3l-100.4,307-87,255.1a34.71,34.71,0,0,0-1.3,4.6L1125,1642.7c-.4,1.6-.7,3.2-1,4.8l-41.1,269.8q-.45,3.15-.6,6.3l-8.2,237.5a54.57,54.57,0,0,0,44.3,55.5l200.8,38.6c1.8.3,3.7.6,5.5.8l426.7,37.5,2.6.3c10.8,1.4,97,10.4,102.7-70,4.5-64.2,11.2-271.7,14.3-371.9a54.47,54.47,0,0,1,56.8-52.8l284.3,11.8a54.52,54.52,0,0,0,55.5-42.7l71.9-325a54.52,54.52,0,0,1,56.5-42.7l106.9,6.2a54.63,54.63,0,0,0,57.5-49l4-39.3a56.35,56.35,0,0,1,7.2-22.2l64.8-110.3a52.15,52.15,0,0,1,8.6-11.2c6.6-6.5,16.1-20.6-14-30-27.5-8.6-139.7-25.3-207.1-34.9a54.58,54.58,0,0,1-46.6-59.5l18.3-182.1a54.65,54.65,0,0,0-51.7-60l-905.3-43.5A54.83,54.83,0,0,0,1387.6,794Z" fill="#00b57a" opacity="0.24" style="isolation:isolate"/><path d="M2522.3,820l-1.9,2.5-2.6-2.4c.7-.6,1.3-1.8,2-1.8S2521.3,819.3,2522.3,820Z" fill="none" stroke="#1197a5" stroke-miterlimit="10" stroke-width="2"/><polygon points="1495.9 1521.5 1497.8 1527.7 1475.2 1454.6 1495.9 1521.5" fill="none" stroke="#1197a5" stroke-miterlimit="10" stroke-width="2"/><path d="M2032.2,1272.6l-3,.9,4.1-1.2Z" fill="none" stroke="#1197a5" stroke-miterlimit="10" stroke-width="2"/><path d="M1394.3,800.7c.3-2.7.5-5.5.7-8.3.1-1,.1-2,.2-3-.3,5.1-.7,10.2-1.3,15.2C1394.1,803.3,1394.2,802,1394.3,800.7Z" fill="none" stroke="#1197a5" stroke-miterlimit="10" stroke-width="2"/><path d="M1393.8,805.8c-.5,5.1-1.2,10.3-1.9,15.4.7-4.7,1.2-9.3,1.8-14C1393.7,806.7,1393.8,806.2,1393.8,805.8Z" fill="none" stroke="#1197a5" stroke-miterlimit="10" stroke-width="2"/><path d="M2275.7,1686.1c.8-3.9,1.7-7.8,2.6-11.6-.9,3.8-1.8,7.5-2.6,11.3C2275.8,1685.9,2275.7,1686,2275.7,1686.1Z" fill="none" stroke="#1197a5" stroke-miterlimit="10" stroke-width="2"/><path d="M2351.5,1163.7c-.5,5.7-.8,11.3-1.2,17,.4-5.7.8-11.4,1.2-17Z" fill="none" stroke="#1197a5" stroke-miterlimit="10" stroke-width="2"/><path d="M2351.7,1161.9c.4-5.2.9-10.3,1.5-15.4a2.49,2.49,0,0,1-.1.8C2352.5,1152.2,2352.1,1157,2351.7,1161.9Z" fill="none" stroke="#1197a5" stroke-miterlimit="10" stroke-width="2"/><path d="M2018.5,1379.1q7.8-1.5,15.6-2.7l-9,1.5C2023,1378.2,2020.8,1378.7,2018.5,1379.1Z" fill="none" stroke="#1197a5" stroke-miterlimit="10" stroke-width="2"/><path d="M2155,1117c-.4-1.9-.8-3.7-1.2-5.6.1.3.1.7.2,1A34.13,34.13,0,0,0,2155,1117Z" fill="none" stroke="#1197a5" stroke-miterlimit="10" stroke-width="2"/><path d="M2695.8,1788.8c1.6,0,3.2,0,4.8.1l-2.1-.1Z" fill="none" stroke="#1197a5" stroke-miterlimit="10" stroke-width="2"/><path d="M776.2,1730.4a9.38,9.38,0,0,0,5.5.1c100-28.2,199.9-56.4,299.4-86.1,9.9-3,20-6.1,27.9-12.8,11.5-9.9,15.8-25.7,19.4-40.4q51.6-206.85,118.7-409.5,33.9-102.3,71.7-203.1c23.8-63.5,49.4-122.6,54.4-191,.3-3.7.4-7.7-1.5-10.9-2.6-4.2-7.8-5.7-12.6-6.8q-70.5-16.65-141.9-28.8c-18.5-3.2-110.5-30.4-112.5,1.7l-56.8,22.3-15-14.2a38.51,38.51,0,0,0-31.5-10.3l-41.6,5.2c-28.7,3.5-31.1,38.3-34.5,60.6l-1.3,8.3,2.1-.2-2.1.2-55,357.8-2.8,18.2-51.1,332.4-45.3,195.3a9.62,9.62,0,0,0,6.4,12Z" fill="none" stroke="#1197a5" stroke-miterlimit="10" stroke-width="2"/><path d="M1108.1,1671.2c-3.7-2.8-8.9-1.7-13.4-.5l-183.3,50L818.7,1746c-17.7,4.8-37.5,5.5-53.4,15.6-18.5,11.7-19.1,31.6-25.7,51.3-15.2,45.4-36.3,89.7-40.1,138.1-6.6,84.9,46.9,174.5,130,199.6,35.5,10.7,71.9,18.1,108.3,24.8,20.2,3.7,98.6,29.2,115.1,19.1,40.1-24.6,19.2-153,19.6-191.7.9-104.5,19.4-213,38.4-315.8C1112,1681.4,1112.6,1674.6,1108.1,1671.2Z" fill="none" stroke="#1197a5" stroke-miterlimit="10" stroke-width="2"/><path d="M1553,791.9h-8.6C1547.3,791.9,1550.2,792,1553,791.9Z" fill="none" stroke="#1197a5" stroke-miterlimit="10" stroke-width="2" opacity="0.74" style="isolation:isolate"/><path d="M1373.2,930.3a15.11,15.11,0,0,0-15.4,9.9l-54.1,148.3a9,9,0,0,0,5.6,11.5,8.56,8.56,0,0,0,2.3.5,302.14,302.14,0,0,0,157.3-29.8,26.9,26.9,0,0,0,15.1-22.2l7.4-97.5a11.92,11.92,0,0,0-11.1-12.8h-.1l-21-1.5-.4,6-60.7-4.5.5-6Z" fill="none" stroke="#1197a5" stroke-miterlimit="10" stroke-width="2" opacity="0.74" style="isolation:isolate"/><path d="M1806.3,1095.8a321.41,321.41,0,0,0,89.8,13.1,18.41,18.41,0,0,0,3.3-.3c.3,0,.5-.2.8-.2a9,9,0,0,0,2.3-.8l.2-.1a21.16,21.16,0,0,0,2.1-1.1,1.38,1.38,0,0,1,.4-.3,22,22,0,0,0,1.8-1.4,2.65,2.65,0,0,1,.6-.5,10.7,10.7,0,0,0,1.4-1.6c.1-.2.3-.3.4-.5a10.46,10.46,0,0,0,1.3-2.3l.3-.6a15.87,15.87,0,0,0,.7-2,2.35,2.35,0,0,0,.2-.8,12.61,12.61,0,0,0,.4-2.8l6.6-106.8a19.27,19.27,0,0,0-.1-2.4c0-.3-.1-.5-.1-.8a8.33,8.33,0,0,0-.4-1.5c-.1-.3-.2-.5-.3-.8a6.11,6.11,0,0,0-.7-1.4l-.3-.6a11.8,11.8,0,0,0-1.3-1.8c0-.1-.1-.1-.2-.2a10,10,0,0,0-1.5-1.4c-.2-.2-.4-.3-.6-.5a5.67,5.67,0,0,0-1.3-.8l-.8-.4c-.2-.1-.3-.2-.5-.3a9.44,9.44,0,0,0-.9-.3,2.35,2.35,0,0,0-.8-.2,18.46,18.46,0,0,0-2.3-.4l-92.1-6.9a13.05,13.05,0,0,0-13.9,12v.2l-6.2,101A16.49,16.49,0,0,0,1806.3,1095.8Z" fill="none" stroke="#1197a5" stroke-miterlimit="10" stroke-width="2" opacity="0.74" style="isolation:isolate"/><path d="M1368.5,904.9a9.72,9.72,0,0,0,5.8,12.4,11,11,0,0,0,2.6.6L1511.7,928l90.5,6.8,33.6,2.5a13.05,13.05,0,0,0,13.9-12v-.2l2.1-34.3,4.3-69.5c.1-.9.1-1.9.2-2.8.1-2.2.2-4.3.3-6.5.1-2.5.2-4.9.3-7.3a14.15,14.15,0,0,0-.2-2.9v-.2c-.1-.5-.3-.9-.4-1.3s-.1-.5-.2-.8a10.6,10.6,0,0,0-1.1-2.1l-.2-.3c-.4-.6-.8-1.1-1.2-1.6l-.6-.6a5.8,5.8,0,0,0-1.2-1,5.58,5.58,0,0,0-.8-.5,7.46,7.46,0,0,0-1.2-.7,3.55,3.55,0,0,0-.9-.4c-.4-.2-.9-.3-1.3-.5a3.55,3.55,0,0,0-1-.2,7.72,7.72,0,0,0-1.5-.2c-.2,0-.4-.1-.7-.1h-.5l-34.3.3-55.7.5h-9.6c3.2,0,6.3.1,9.5,0L1420,779.3l-9.4-1.9a13,13,0,0,0-15.2,10.2,9.85,9.85,0,0,0-.2,1.7c-.1,1-.1,2-.2,3-.2,2.8-.4,5.5-.7,8.3-.1,1.3-.2,2.6-.4,3.9.5-5.1,1-10.2,1.3-15.2l-3.3,31.8c.7-5.1,1.4-10.2,1.9-15.4,0,.5-.1.9-.1,1.4-.5,4.7-1.1,9.3-1.8,14l-5.1,18.8-16.3,59.5Z" fill="none" stroke="#1197a5" stroke-miterlimit="10" stroke-width="2" opacity="0.74" style="isolation:isolate"/><path d="M1510.4,1068.4l119.3-19.8a13.06,13.06,0,0,0,13.2-12.2l3.8-61.5.5-8.4a12.94,12.94,0,0,0-12-13.7l-82.7-6.2-29.1-2.2a13.05,13.05,0,0,0-13.9,12l-2.6,34.2-5.3,71.2a6.36,6.36,0,0,0,6,6.9,6.55,6.55,0,0,0,2.8-.3Z" fill="none" stroke="#1197a5" stroke-miterlimit="10" stroke-width="2" opacity="0.74" style="isolation:isolate"/><path d="M1672,1052.1l90.6,27.2q5.1,2.4,10.2,4.5a6.55,6.55,0,0,0,8.5-3.4h0a5.37,5.37,0,0,0,.5-2.1L1788,977a12.94,12.94,0,0,0-12-13.7l-66.4-5-13-1-8.6-.6-8.9-.7a13.05,13.05,0,0,0-13.9,12v.2l-4.4,70.3A13.15,13.15,0,0,0,1672,1052.1Z" fill="none" stroke="#1197a5" stroke-miterlimit="10" stroke-width="2" opacity="0.74" style="isolation:isolate"/><path d="M1679.8,940.5l7.2.5,8.8.7,13,1,67.7,5.1a13.05,13.05,0,0,0,13.9-12v-.2l7.9-129.3a17.7,17.7,0,0,0-.1-2.3l-.1-.6a.75.75,0,0,0-.1-.5,4.65,4.65,0,0,1-.3-.9c-.1-.3-.2-.7-.3-1-.2-.5-.4-.9-.6-1.4a2.51,2.51,0,0,0-.4-.7,20.28,20.28,0,0,0-1.3-1.8l-.1-.1a12.88,12.88,0,0,0-1.7-1.6,1.61,1.61,0,0,0-.7-.4,9.13,9.13,0,0,0-1.3-.8,3.55,3.55,0,0,0-.9-.4,5.78,5.78,0,0,0-1.4-.5,2.92,2.92,0,0,0-.9-.2,7.72,7.72,0,0,0-1.5-.2c-.2,0-.4-.1-.6-.1h-.9l-86.5.7-10.9.1a12.25,12.25,0,0,0-1.9.2c-.1,0-.2,0-.2.1a14,14,0,0,0-2.9.9c-.2.1-.3.2-.5.2a10.71,10.71,0,0,0-2.1,1.3,4.23,4.23,0,0,1-.7.5,10.71,10.71,0,0,0-1.8,1.9l-.2.3a8.67,8.67,0,0,0-1.4,2.7c0,.1-.1.2-.1.3-.1.3-.2.7-.3,1a2.35,2.35,0,0,0-.2.8,9.08,9.08,0,0,0-.3,2.3c-.1,2.1-.2,4.2-.3,6.2-.2,3.4-.3,6.8-.6,10.2l-6.5,104.4A13.13,13.13,0,0,0,1679.8,940.5Z" fill="none" stroke="#1197a5" stroke-miterlimit="10" stroke-width="2" opacity="0.74" style="isolation:isolate"/><path d="M1815.4,950.7l90.2,6.7a8.85,8.85,0,0,0,2.3,0l.6-.1a14.62,14.62,0,0,0,2-.5h.2a7.74,7.74,0,0,0,1.6-.7l.4-.2.5-.3a8.28,8.28,0,0,0,1.5-1.1l.3-.2c.5-.5,1-1,1.5-1.6a2.19,2.19,0,0,0,.3-.5,13,13,0,0,0,1-1.5.52.52,0,0,0,.2-.4,11.92,11.92,0,0,0,.8-2c.1-.2.1-.4.2-.6a14.16,14.16,0,0,0,.4-2v-.4l7.9-129.6a22.75,22.75,0,0,0-21.2-24h-.5c-9.7-.4-19.5-.5-29.2-.4l-52,.4a19.42,19.42,0,0,0-2.4.2,2.35,2.35,0,0,1-.8.2,8.8,8.8,0,0,0-1.5.5c-.3.1-.6.3-.9.4a13.35,13.35,0,0,0-1.2.6,5.55,5.55,0,0,0-.8.6,3.92,3.92,0,0,0-1,.8l-.7.7a9,9,0,0,0-.9,1c-.3.4-.4.6-.6.9s-.5.7-.7,1.1a4.18,4.18,0,0,0-.4,1,5.64,5.64,0,0,0-.4,1.2c-.1.4-.2.7-.3,1.1s-.1.5-.2.8a3.4,3.4,0,0,0-.1,1L1803.3,937A13.3,13.3,0,0,0,1815.4,950.7Z" fill="none" stroke="#1197a5" stroke-miterlimit="10" stroke-width="2" opacity="0.74" style="isolation:isolate"/><path d="M1776.9,1189.3a6.47,6.47,0,0,0-6.9-6h-.1a5.07,5.07,0,0,0-1.3.2l-70.2,20.9a6.55,6.55,0,0,0-4.4,8.1v.1l7.4,24a9.65,9.65,0,0,0,8.8,6.8l70.2,3.6a6.48,6.48,0,0,0,6.8-6.1,9.86,9.86,0,0,0-.3-2.4Z" fill="none" stroke="#1197a5" stroke-miterlimit="10" stroke-width="2"/><path d="M1750.4,1440c-.9-3.8-2-7.6-3.1-11.4l-22-71.3a6.46,6.46,0,0,0-7.7-4.4c-3.7.9-7.3,1.9-11,3l-53.3,16.5c-3.6,1.1-7.2,2.3-10.8,3.7a6.5,6.5,0,0,0-3.9,8l25.4,82a12.2,12.2,0,0,0,.7,1.7,2.09,2.09,0,0,0,.4.6c.1.2.3.5.4.7s.1.2.2.2c.1.2.3.3.4.5a5.93,5.93,0,0,0,.8.8c.3.3.3.3.5.4a4.13,4.13,0,0,0,1.1.7c.1.1.2.1.3.2a4.42,4.42,0,0,0,1.6.6c.1,0,.3.1.4.1a5,5,0,0,0,1.2.2l.6.1h1.8c.6-.1,1.2-.2,1.7-.3l67.8-21a7.74,7.74,0,0,0,1.6-.7c.2-.1.3-.2.5-.3s.6-.4.9-.6l.5-.4a6,6,0,0,0,.8-.8l.4-.4a10.47,10.47,0,0,0,.8-1.1l.2-.3a10.09,10.09,0,0,0,.7-1.5c0-.1.1-.3.1-.4l.3-1.2a1.27,1.27,0,0,1,.1-.6,1.27,1.27,0,0,0,.1-.6v-.3C1750.7,1441.6,1750.6,1440.8,1750.4,1440Z" fill="none" stroke="#1197a5" stroke-miterlimit="10" stroke-width="2"/><path d="M1159.7,1557.4l-12.7,60.3a7.08,7.08,0,0,0-.1,1.4v.4a3.55,3.55,0,0,0,.2,1v.2c0,.1.1.2.1.3a1.45,1.45,0,0,1,.2.7,2.19,2.19,0,0,0,.3.5,2.19,2.19,0,0,0,.3.5,1.76,1.76,0,0,0,.4.5c.1.2.3.3.4.4a2.18,2.18,0,0,0,.5.4,1.76,1.76,0,0,1,.5.4l.6.3a5.64,5.64,0,0,0,1.2.4l.3.1h.2a3.4,3.4,0,0,0,1,.1h.4a5.9,5.9,0,0,0,1.4-.2l122-34.4a6.5,6.5,0,0,0,4.5-8h0v-.2l-17.3-56.1a6.58,6.58,0,0,0-8.1-4.3l-89.8,27.8A10.28,10.28,0,0,0,1159.7,1557.4Z" fill="none" stroke="#1197a5" stroke-miterlimit="10" stroke-width="2"/><path d="M1376.7,1387.6a157.9,157.9,0,0,0,6.8,53.3l4.4,14.3a9.74,9.74,0,0,0,12.2,6.4l70.6-21.8,40.9-12.6c5.1-1.6,10.2-3.4,15.1-5.4a6.52,6.52,0,0,0,3.8-7.9l-21.3-68.9a6.44,6.44,0,0,0-7.6-4.4c-4,.9-8,2-12,3.2l-44.3,13.7-59.4,18.4A12.61,12.61,0,0,0,1376.7,1387.6Z" fill="none" stroke="#1197a5" stroke-miterlimit="10" stroke-width="2"/><path d="M1471.8,1246a5.73,5.73,0,0,0-1.9,1l-30,22.1a156.69,156.69,0,0,0-57.7,83.8,6.46,6.46,0,0,0,4.5,8h0a7.72,7.72,0,0,0,3.7,0l95.3-29.5q5.55-1.65,11.1-3a6.46,6.46,0,0,0,4.8-7.8h0c0-.1-.1-.3-.1-.4l-21.6-69.8a6.64,6.64,0,0,0-8.1-4.4Z" fill="none" stroke="#1197a5" stroke-miterlimit="10" stroke-width="2"/><path d="M1630.2,1356.8a6.58,6.58,0,0,0,8.1,4.3l.3-.1c3.3-1.2,6.7-2.4,10.1-3.4l53.3-16.5c3.4-1.1,6.8-2,10.2-2.9a6.47,6.47,0,0,0,4.7-7.9h0c0-.1-.1-.2-.1-.3l-6.8-22.1a6.53,6.53,0,0,0-8.1-4.3h0c-.2.1-.5.2-.7.3l-22.4,8.4-40.2,12.4c-3.4,1.1-6.8,2-10.2,2.9a6.47,6.47,0,0,0-4.7,7.9h0l.1.3Z" fill="none" stroke="#1197a5" stroke-miterlimit="10" stroke-width="2"/><path d="M1895.4,1338.5a10.87,10.87,0,0,0-.1-1.8c0-.2-.1-.4-.1-.6l-.3-1.2c-.1-.2-.1-.4-.2-.6a11.73,11.73,0,0,0-.5-1.1c-.1-.1-.1-.3-.2-.4a12.13,12.13,0,0,0-1-1.4l-.3-.3a9,9,0,0,0-1-.9,1.76,1.76,0,0,1-.5-.4c-.3-.2-.7-.4-1-.6l-.6-.3c-.1,0-.2-.1-.3-.2a1.45,1.45,0,0,0-.7-.2c-.2,0-.5-.2-.7-.2a6.75,6.75,0,0,0-1.4-.2.37.37,0,0,1-.3-.1h-1.7a10.46,10.46,0,0,0-1.7.4l-23.8,7.4-48.6,8.7-58.9,3.2-7,.4a6.47,6.47,0,0,0-6.1,6.8,4.53,4.53,0,0,0,.3,1.6h0v.2l21,68c.8,2.6,1.6,5.2,2.3,7.9a13.36,13.36,0,0,0,.7,1.8,3.51,3.51,0,0,0,.5.8c.2.3.3.5.5.8l.1.1a1.38,1.38,0,0,1,.3.4c.3.3.5.6.8.9a2.18,2.18,0,0,0,.5.4,3.59,3.59,0,0,0,1,.7l.5.3a6.12,6.12,0,0,0,1.2.5l.4.2a9.36,9.36,0,0,0,1.6.4h.5c.4,0,.8.1,1.3.1h.6a6.88,6.88,0,0,0,1.3-.2.76.76,0,0,0,.4-.1l.4-.1,97.9-30.3a29.29,29.29,0,0,0,20.5-26.1Z" fill="none" stroke="#1197a5" stroke-miterlimit="10" stroke-width="2"/><path d="M1530.8,1436.8l-.5.2-14.2,5-40.9,12.7,22.6,73.1,52.6-16.3a9.74,9.74,0,0,0,6.4-12.2l-18-58.1a6.4,6.4,0,0,0-8-4.4Z" fill="none" stroke="#1197a5" stroke-miterlimit="10" stroke-width="2"/><path d="M1475.2,1454.6l-70.6,21.8a9.74,9.74,0,0,0-6.4,12.2l16.6,53.7a11.51,11.51,0,0,0,1.2,2.5.37.37,0,0,1,.1.3c0,.1.2.2.3.3l.4.5a6,6,0,0,0,.8.8l.4.4a8.34,8.34,0,0,0,1.2.8l.2.1a10.09,10.09,0,0,0,1.5.7l.5.1a5.16,5.16,0,0,0,1.1.2c.2,0,.4.1.6.1h1.8c.6-.1,1.2-.2,1.7-.3l17.2-4.9c10.4-2.9,20.7-6,31-9.2l22.8-7-1.9-6.2Z" fill="none" stroke="#1197a5" stroke-miterlimit="10" stroke-width="2"/><path d="M1284.3,1140.4c-4.6,7.2-6.5,16.8-10,26.3q-11.85,32.25-23.3,64.6-22.95,64.8-44,130.2c-7.6,23.5,31.1,20.8,46.4,21.9a307,307,0,0,0,79.5-4.2c7.7-1.4,15.7-3.3,21.7-8.3,4.3-3.6,7.4-8.5,10.3-13.3l36.2-59.1c11.2-18.2,22.7-36.8,38-51.9,15.6-15.4,35.9-25.4,53.3-38.5q51.9-39.15,103.9-78.3c8.2-6.2,64.6-60.7,34.5-68a7.61,7.61,0,0,0-2.1-.3,317.19,317.19,0,0,0-148.4,34l-179.6,34C1292.6,1131.1,1287.7,1135.1,1284.3,1140.4Z" fill="none" stroke="#1197a5" stroke-miterlimit="10" stroke-width="2"/><path d="M1621.8,1138.7a2.7,2.7,0,0,0,1.7,1l21.8,5.4,39.4,37.2,2.5,8.1a6.47,6.47,0,0,0,8,4.3l74.4-22.1a9.73,9.73,0,0,0,6.9-8.7l1.3-21.8,1-17.1,1-17a9.57,9.57,0,0,0-6.1-9.6l-16.8-7.2c-4-1.9-8.1-3.6-12.2-5.3-1.3-.5-2.5-1-3.8-1.5-2.9-1.2-5.8-2.3-8.8-3.3-1.4-.5-2.8-1-4.3-1.5-3-1.1-6-2.1-9.1-3-1.2-.4-2.4-.8-3.7-1.2-4.2-1.3-8.5-2.5-12.8-3.6l-.2-.1c-3.3-.9-6.7-1.7-10-2.4l-.3-.1c-2.6-.6-5.1-1.1-7.7-1.6-1.3-.2-2.5-.5-3.8-.8-3.8-.7-7.7-1.3-11.6-1.9a9.73,9.73,0,0,0-11,7.8l-35.8,61.5a3.36,3.36,0,0,0,0,4.5Z" fill="none" stroke="#1197a5" stroke-miterlimit="10" stroke-width="2"/><path d="M1896.8,1304.7c.3-.4.5-.7.8-1.1a9.22,9.22,0,0,0,.5-.8,13.39,13.39,0,0,0,.6-1.2c.2-.4.2-.6.3-.8a8.33,8.33,0,0,0,.4-1.5,1.88,1.88,0,0,0,.2-.8,9.69,9.69,0,0,0,.3-2.3l1.8-29.9,3-48.4,1.3-21.2,3.7-61a13,13,0,0,0-12.2-13.7h-.8l-95.8-14.1a6.58,6.58,0,0,0-8.1,4.3h0l-.3,1.5-.7,11.5-1.1,17.1-1.2,20.4a187.75,187.75,0,0,0,8,67l9.8,31.9L1826,1322a6.4,6.4,0,0,0,7.4,4.4,166.43,166.43,0,0,0,20.8-5.2l34.1-10.6a18,18,0,0,0,2.1-.8l.1-.1a5.74,5.74,0,0,0,.7-.4,5.67,5.67,0,0,0,1.3-.8,3,3,0,0,1,.7-.5,7.29,7.29,0,0,0,1.1-.9l.7-.7c.3-.3.6-.7.9-1S1896.6,1304.9,1896.8,1304.7Z" fill="none" stroke="#1197a5" stroke-miterlimit="10" stroke-width="2"/><path d="M1291.6,1580.3a6.36,6.36,0,0,0,7.9,4.3l25.1-7.1,65.9-18.6a12.2,12.2,0,0,0,1.7-.7c.2-.1.3-.2.5-.3a6.07,6.07,0,0,0,1-.7,1.76,1.76,0,0,0,.5-.4l.9-.9.3-.3a7.1,7.1,0,0,0,1-1.4c.1-.1.1-.2.2-.3a6.12,6.12,0,0,0,.5-1.2c.1-.2.1-.4.2-.6a4.25,4.25,0,0,0,.2-1.1c0-.2.1-.4.1-.6v-1.8a5,5,0,0,0-.2-1.2,1.27,1.27,0,0,0-.1-.6.35.35,0,0,0-.1-.2l-16.3-52.7a9.68,9.68,0,0,0-12.1-6.4h0l-42.7,13.2-22.9,7.1-24.8,7.7a6.58,6.58,0,0,0-4.3,8.1Z" fill="none" stroke="#1197a5" stroke-miterlimit="10" stroke-width="2"/><path d="M1316.2,1487.5l48-14.8a9.74,9.74,0,0,0,6.4-12.2l-4.4-14.3-7.8-53.1a6.45,6.45,0,0,0-8.4-6.2l-10.7,3.3-56.8,7.6a6.45,6.45,0,0,0-6.4,4.6l-2.5,8.2q-1.5,5-2.7,9.9c-.3,1.1-.5,2.2-.8,3.3-.5,2.2-1,4.4-1.4,6.7-.3,1.3-.5,2.7-.7,4-.3,2-.7,4-1,6.1-.2,1.4-.3,2.9-.5,4.3s-.3,2.7-.5,4c0,.6-.1,1.1-.1,1.7-.2,2.2-.3,4.3-.4,6.5-.1,1.6-.2,3.1-.2,4.7V1473c.1,2.5.3,5,.5,7.5.1,1.2.1,2.4.2,3.6.3,3.7.8,7.4,1.4,11.1a6.46,6.46,0,0,0,7.4,5.4,2.92,2.92,0,0,0,.9-.2Z" fill="none" stroke="#1197a5" stroke-miterlimit="10" stroke-width="2"/><path d="M1619.1,1387a6.12,6.12,0,0,0-1.2.5c-2.1,1.2-4.2,2.4-6.2,3.6l-50.5,30.6c-3.3,2-6.7,3.9-10.2,5.8a6.59,6.59,0,0,0-3.2,7.6l18.9,61.1a12.2,12.2,0,0,0,.7,1.7l.3.6c.1.2.3.5.4.7s.1.2.2.2c.1.2.3.3.4.5a6,6,0,0,0,.8.8c.2.1.3.3.5.4a6.73,6.73,0,0,0,1.1.7l.3.2a4.42,4.42,0,0,0,1.6.6l.4.1a5,5,0,0,0,1.2.2,1.27,1.27,0,0,1,.6.1h1.8c.6-.1,1.2-.2,1.7-.3l66.2-20.5a7.74,7.74,0,0,0,1.6-.7c.2-.1.3-.2.5-.3a6.07,6.07,0,0,0,1-.7,1.76,1.76,0,0,0,.5-.4l.9-.9.3-.3a6.71,6.71,0,0,0,.9-1.4c.1-.1.1-.2.2-.3a6.12,6.12,0,0,0,.5-1.2c.1-.2.1-.4.2-.6a4.25,4.25,0,0,0,.2-1.1c0-.2.1-.4.1-.6v-1.8l-.3-1.8-24.3-78.7a6.55,6.55,0,0,0-8.1-4.4Z" fill="none" stroke="#1197a5" stroke-miterlimit="10" stroke-width="2"/><path d="M1610.4,1336.8a6.46,6.46,0,0,0-7-4.5q-6.6.75-13.2,1.2l-62.5,3.4-1.8.1a6.48,6.48,0,0,0-6,6.9,4,4,0,0,0,.3,1.5l19.2,62a6.58,6.58,0,0,0,8.1,4.3,3.79,3.79,0,0,0,1.3-.6c1.5-.8,3-1.7,4.4-2.6l50.5-30.6c3.9-2.3,7.8-4.6,11.8-6.7a6.51,6.51,0,0,0,3.2-7.7Z" fill="none" stroke="#1197a5" stroke-miterlimit="10" stroke-width="2"/><path d="M1687,1255.3l-80.4-4.1a6.48,6.48,0,0,0-6.8,6.1,7.8,7.8,0,0,0,.3,2.2l15.9,51.4a6.46,6.46,0,0,0,7.7,4.4c3.7-.9,7.3-1.9,11-3l40.2-12.4a180.72,180.72,0,0,0,21.2-8,9.59,9.59,0,0,0,5.3-11.7l-5.6-18.1A9.55,9.55,0,0,0,1687,1255.3Z" fill="none" stroke="#1197a5" stroke-miterlimit="10" stroke-width="2"/><path d="M1812.6,1322.5a4.53,4.53,0,0,0-.3-1.6L1795,1265a6.56,6.56,0,0,0-5.9-4.6l-72.3-3.7a6.48,6.48,0,0,0-6.8,6.1,7.8,7.8,0,0,0,.3,2.2l19.6,63.4a6.66,6.66,0,0,0,6.5,4.6l70-3.8a6.28,6.28,0,0,0,6.2-6.7Z" fill="none" stroke="#1197a5" stroke-miterlimit="10" stroke-width="2"/><path d="M1672.3,1186.1a42.08,42.08,0,0,0-30.1-28.4l-29.7-7.3a19.46,19.46,0,0,0-16.2,3.2L1491.6,1231a9.8,9.8,0,0,0-3.5,10.7l2.2,7.1a6.58,6.58,0,0,0,8.1,4.3l26.6-8.2,60.5-7.6,95,4.8a6.41,6.41,0,0,0,6.8-6.1,8.52,8.52,0,0,0-.3-2.3Z" fill="none" stroke="#1197a5" stroke-miterlimit="10" stroke-width="2"/><path d="M1576.3,1249.9c-2.1,0-4.1.2-6.2.2s-3.9.1-5.9.2c-2.4.2-4.8.5-7.2.8-1.6.2-3.2.3-4.8.6-3.2.5-6.3,1.1-9.4,1.8-.8.2-1.7.3-2.5.5-3.9.9-7.8,1.9-11.7,3.1l-26.6,8.2a6.58,6.58,0,0,0-4.3,8.1h0l13.6,44a9.72,9.72,0,0,0,10.1,6.8c1.8-.2,3.6-.3,5.3-.4l62.5-3.4q3.75-.15,7.5-.6a6.38,6.38,0,0,0,5.8-7.1,3.08,3.08,0,0,0-.3-1.3l-16.9-54.8-.6-1.5a1.38,1.38,0,0,0-.3-.4c-.2-.3-.3-.6-.5-.9s-.3-.3-.4-.5a3.74,3.74,0,0,0-.6-.7,1.76,1.76,0,0,0-.5-.4c-.2-.1-.4-.4-.7-.6a6.13,6.13,0,0,0-.6-.4,4.35,4.35,0,0,0-.7-.4,3.33,3.33,0,0,1-.6-.3,6.89,6.89,0,0,0-.8-.3c-.2-.1-.4-.1-.6-.2a2.92,2.92,0,0,0-.9-.2h-.7c-.3,0-.2.1-.5.1Z" fill="none" stroke="#1197a5" stroke-miterlimit="10" stroke-width="2"/><path d="M1196.9,1398.5q-16.05,58.35-28.6,117.5l-1.6,7.6a6.56,6.56,0,0,0,5,7.7,5.78,5.78,0,0,0,3.2-.2l78.1-24.2a6.6,6.6,0,0,0,4.5-7.3l6-92.3,1-3.2a6.58,6.58,0,0,0-4.3-8.1l-1.3-.3-51.8-4.5A9.91,9.91,0,0,0,1196.9,1398.5Z" fill="none" stroke="#1197a5" stroke-miterlimit="10" stroke-width="2"/><path d="M3005,867.9a39.54,39.54,0,0,0-10.2-2.2q-69.45-7.65-139.2-11.8-34.8-2.1-69.8-3.3c-12.3-.4-47.8-8.9-53,7.1l-.2.5-35,108q-1.35,4-2.4,8.1a13.35,13.35,0,0,0,9.2,16.3h0c.4.1.8.2,1.1.3l138.8,25.2,111.9,20.3,1.3.2a13.23,13.23,0,0,0,15.1-9.4l40-138.1C3016,877.7,3013.4,871.2,3005,867.9Z" fill="none" stroke="#1197a5" stroke-miterlimit="10" stroke-width="2"/><path d="M1936.2,1099.6l.3,1.2c.1.2.1.4.2.6.2.4.3.8.5,1.2.1.1.1.3.2.4a7.1,7.1,0,0,0,1,1.4l.3.3a9,9,0,0,0,1,.9,1.76,1.76,0,0,1,.5.4c.3.2.7.4,1,.6l.6.3a.77.77,0,0,1,.3.2c.1.1.2,0,.3.1a11.7,11.7,0,0,0,2,.5c.2,0,.4.1.6.1h.3a19.27,19.27,0,0,0,2.4-.1,328.68,328.68,0,0,0,58.4-16.3l20.2-7a9.87,9.87,0,0,0,7-9.6l.4-16.2,4.3-64.4a10.15,10.15,0,0,0-9.2-10.6l-72-5.4a19.27,19.27,0,0,0-2.4.1l-.6.1a16,16,0,0,0-2.1.5c-.1,0-.1,0-.2.1a12.2,12.2,0,0,0-1.7.7.76.76,0,0,1-.4.2l-.5.3a9.06,9.06,0,0,0-1.6,1.1l-.3.2a7.52,7.52,0,0,0-1.5,1.6,1.76,1.76,0,0,1-.4.5,8.64,8.64,0,0,0-1,1.6.52.52,0,0,0-.2.4,18,18,0,0,0-.8,2.1c-.1.2-.1.4-.2.6a15.52,15.52,0,0,0-.4,2.1v.4l-5.2,84.2-1.4,22.4a10.87,10.87,0,0,0,.1,1.8A.52.52,0,0,1,1936.2,1099.6Z" fill="none" stroke="#1197a5" stroke-miterlimit="10" stroke-width="2"/><path d="M2176.3,1070c3.7,2.3,8.5,3.9,14.7,4.5,51.9,5,103.8,10.1,155.6,15.9,2.6.3,5.3.6,7.6-.4,3.9-1.6,5.8-6.1,6.3-10.3,2.4-18.9,4-37.9,6.2-56.8.6-5.5,1.2-11.3-1.3-16.2-5.3-10.1-36.7-4.9-47.2-5.3l-112.5-4.6c-8.9-.7-33.2-7-38.5,2.2-2.2,3.7-2.1,8.2-2.1,12.5C2165.6,1033.3,2159.6,1059.4,2176.3,1070Z" fill="none" stroke="#1197a5" stroke-miterlimit="10" stroke-width="2"/><path d="M2551.7,1612.8c.9-20.9,1.6-41.7,2-62.6.1-4,.1-8.2-1.8-11.7-7.7-14.3-95.7,12.6-112.2,15.9l-112.9,22.3a10.32,10.32,0,0,0-7.8,7.4l-.8,3.3-5.7,24c-13.7,57.3-28.2,113.8-30.3,173.1-.1,4.1-.2,8.4,1.9,12,8.5,14.5,59.3,7.5,74.6,7.9l83.1,1.8,57.6,1.3c15.5.3,35.7,5.6,38.1-15.4Q2547.85,1702.55,2551.7,1612.8Z" fill="none" stroke="#1197a5" stroke-miterlimit="10" stroke-width="2"/><path d="M2399.4,984.8a43.18,43.18,0,0,0,9.5,1l237.7,2.9c8.6.1,18.1-.1,24.7-5.6,4.9-4.1,7.3-10.4,9.5-16.5,7.1-19.5,53.3-107.1,27.9-121.5-4.4-2.5-9.7-2.9-14.8-3.2L2550,833.5l-73.6-4.3c-17.4-1-47.9-9.1-64.1-1.7-15.5,7.1-13.5,66.7-15.2,82-1.8,16.4-3.5,32.8-5.3,49.1C2390.5,973.4,2388.7,982,2399.4,984.8Z" fill="none" stroke="#1197a5" stroke-miterlimit="10" stroke-width="2"/><path d="M2164,1366.9a8.79,8.79,0,0,0,.6-1l.3-.6c.1-.2.1-.2.1-.3s.2-.5.3-.8a1.85,1.85,0,0,0,.2-.7,5.66,5.66,0,0,0,.3-1.8l4.5-68.3a6.67,6.67,0,0,0-6.2-7l-92.6-6.1a10,10,0,0,0-10.6,9.2h0l-4.8,72.1a17.7,17.7,0,0,0,.1,2.3c0,.2.1.4.1.6a7.49,7.49,0,0,0,.5,1.6c.1.1.1.2.1.4s.2.3.2.4a3.29,3.29,0,0,0,.3.6c.2.3.5.7.7,1,.1.1.2.3.3.4a15.38,15.38,0,0,0,1.3,1.2l.2.2a8.34,8.34,0,0,0,1.2.8,2.19,2.19,0,0,1,.5.3,7.6,7.6,0,0,0,1.1.4l.6.2c.5.1,1.1.2,1.7.3h1.7l87.4-1.2h.8a10.87,10.87,0,0,0,1.8-.1c.2,0,.4-.1.6-.1l1.2-.3.6-.2c.4-.2.8-.3,1.2-.5.1-.1.3-.1.4-.2a7.1,7.1,0,0,0,1.4-1l.3-.3a9,9,0,0,0,.9-1A1.48,1.48,0,0,0,2164,1366.9Z" fill="none" stroke="#1197a5" stroke-miterlimit="10" stroke-width="2"/><path d="M2647.8,1124.4l18.2-89.1,3.2-15.6a13.17,13.17,0,0,0-10.4-15.6,10.9,10.9,0,0,0-2.6-.3l-32.8-.2-38.3-.3-185.7-1.3a13.25,13.25,0,0,0-13.3,11.8l-4.4,40.8-3.2,29.8a9.88,9.88,0,0,0,8.7,10.9l249.1,36.9A10,10,0,0,0,2647.8,1124.4Z" fill="none" stroke="#1197a5" stroke-miterlimit="10" stroke-width="2"/><path d="M2334,1297.6l-81-5.3-59.6-3.9a6.69,6.69,0,0,0-7.1,6.2l-4.5,68.3a10,10,0,0,0,9.3,10.6l56.3,3.7,81.6,5.4a10.87,10.87,0,0,0,1.8-.1c.2,0,.4-.1.6-.1l1.2-.3.6-.2c.4-.2.8-.3,1.2-.5l.4-.2a7.1,7.1,0,0,0,1.4-1l.3-.3a9,9,0,0,0,.9-1,1.76,1.76,0,0,1,.4-.5c.2-.3.4-.7.6-1l.3-.6c.1-.2.1-.2.1-.3a6.37,6.37,0,0,0,.2-.7c0-.2.2-.5.2-.7a7.84,7.84,0,0,0,.2-1.4.76.76,0,0,1,.1-.4v-.1l3.6-65A9.81,9.81,0,0,0,2334,1297.6Z" fill="none" stroke="#1197a5" stroke-miterlimit="10" stroke-width="2"/><path d="M2050.1,1108.9c.4,1.8.7,3.6,1.1,5.4l2.6,11.3,7.4,32.7,3.2,17.7a10,10,0,0,0,9.1,8.6l92.4,7.3h.2a6.6,6.6,0,0,0,7.1-6h0a8.6,8.6,0,0,0-.1-1.6,172.77,172.77,0,0,0-4.4-18.9l-10.6-36.1-.3-.9-6.8-36.6a9.92,9.92,0,0,0-9.5-9.1,320.18,320.18,0,0,0-85.1,7.5,9.92,9.92,0,0,0-7.7,11.2C2049.2,1103.8,2049.6,1106.4,2050.1,1108.9ZM2155,1117c-.3-1.5-.7-3.1-1-4.6-.1-.3-.1-.7-.2-1A50.54,50.54,0,0,0,2155,1117Z" fill="none" stroke="#1197a5" stroke-miterlimit="10" stroke-width="2"/><path d="M2351.1,1180.3c.1-5,.1-9.9.1-14.9l-.7,13.9,2.5-30.9-1.3,11.9c5.6-21.1,14.8-54.9-14.7-58-52.8-5.5-105.5-12.2-158.4-16.6-18.6-1.9-7.9,26.8-5.7,35.1l17.6,66.4c.7,2.6,1.4,5.2,3.3,7.1,11.6,11.5,43.7,17.8,59.2,23.1,20.2,7,74.2,31.7,91.7,9.8,2.8-3.5,3.5-8.1,4-12.5C2350,1203.5,2350.8,1191.9,2351.1,1180.3Z" fill="none" stroke="#1197a5" stroke-miterlimit="10" stroke-width="2"/><path d="M1924.1,1291.8a10,10,0,0,0,9.3,10.5,11.07,11.07,0,0,0,3.6-.4l92.2-28.4,3-.9,1.1-.3c-1.4.4-2.8.8-4.1,1.2l12.7-3.4.4-.1c.2-.1.4-.1.6-.2s.5-.2.7-.3a2.51,2.51,0,0,0,.7-.4c.2-.2.4-.2.6-.3a3,3,0,0,0,.7-.5,2.09,2.09,0,0,1,.6-.4c.2-.1.4-.4.6-.6l.5-.5a3,3,0,0,0,.5-.7,2.18,2.18,0,0,1,.4-.5,3,3,0,0,0,.4-.8l.3-.6c.1-.3.2-.7.3-1s.1-.3.2-.5a7.77,7.77,0,0,0,.2-1.6l3-44.9a191.87,191.87,0,0,0-4.3-55l-5.9-26.3-4-17.5v-.2l-2.7-13.9a6.65,6.65,0,0,0-7.6-5.5c-.3.1-.7.1-1,.2q-8.1,2.7-16.2,5.7l-66,17.8a13.31,13.31,0,0,0-11.1,12.3l-5.5,89.2-1,15.9Z" fill="none" stroke="#1197a5" stroke-miterlimit="10" stroke-width="2"/><path d="M2040.7,1372.3c.1-.2.3-.4.4-.6l.4-.8.3-.6c.1-.2.2-.7.3-1s.1-.3.2-.5a8.75,8.75,0,0,0,.2-1.6l4.8-73.2a6.67,6.67,0,0,0-6.2-7,8.2,8.2,0,0,0-2.2.2l-5.2,1.5-2.8.9-6.8,2.1-89.1,27.5a11,11,0,0,0-2.3.9c-.3.1-.5.3-.8.4a7.46,7.46,0,0,0-1.2.7l-.1.1a17.83,17.83,0,0,0-2.6,2.2c-.2.2-.3.4-.5.6a17.42,17.42,0,0,0-1.9,2.6l-.1.2a12,12,0,0,0-1.3,3.1,2.35,2.35,0,0,0-.2.8,18.57,18.57,0,0,0-.6,3.4l-3.6,58.4a8,8,0,0,0,7.6,8.4,11.76,11.76,0,0,0,2.7-.3l26.9-8.3c5.4-1.7,10.8-3.2,16.3-4.8l22.9-3.7,37.8-7.3c-5.2.8-10.4,1.8-15.6,2.7,2.2-.4,4.4-.9,6.7-1.2l9-1.5c.4-.1.8-.1,1.2-.2.1,0,.2-.1.3-.1a3.1,3.1,0,0,1,.7-.2,1.23,1.23,0,0,0,.8-.4c.2-.2.4-.2.6-.3a9.22,9.22,0,0,0,.8-.5l.5-.4a4.35,4.35,0,0,1,.7-.6c.3-.2.3-.3.5-.5S2040.5,1372.5,2040.7,1372.3Z" fill="none" stroke="#1197a5" stroke-miterlimit="10" stroke-width="2"/><path d="M2905.8,1199a20.74,20.74,0,0,0-3.3-1c-38.4-8-76.8-16.2-115.3-24-37.8-7.7-81.9-23-120.4-23-14.5-2.6-29.9,43.9-35.2,55l5.4-7.3c-23.5,31.5-42.7,62.3-52.8,100.8-3.5,13.5-20,98.4.4,99.8,83.3,5.5,166.4,11.5,250,11.7,16.1,0,22.5-7.8,26.8-22.9q24-82.95,48.1-165.9C2912.1,1212.8,2915.4,1202.9,2905.8,1199Z" fill="none" stroke="#1197a5" stroke-miterlimit="10" stroke-width="2"/><path d="M2948.5,1051.2l-1.3-.3c-78.6-14.2-157.1-30.7-236-42.8-12.3-1.9-23-2.6-26.5,13.3-7.6,34.8-13.9,70.2-21.1,105.2a9.93,9.93,0,0,0,7.7,11.7h0l.2.1,151,29.3,90.9,19a10,10,0,0,0,11.6-7l32.5-112.2A12.92,12.92,0,0,0,2948.5,1051.2Z" fill="none" stroke="#1197a5" stroke-miterlimit="10" stroke-width="2"/><path d="M1947.4,951.8a8.33,8.33,0,0,0,.4,1.5c.1.3.3.6.4.9s.4.9.6,1.3l.6.9a7.63,7.63,0,0,0,.8,1.1,5,5,0,0,1,.7.8c.3.3.7.6,1,.9a2.7,2.7,0,0,1,.8.7,7.46,7.46,0,0,0,1.2.7l1,.5c.4.2.8.3,1.3.5a6.15,6.15,0,0,0,1.1.3c.2,0,.3.1.4.1l1.8.3,176.8,13.2a13.16,13.16,0,0,0,14.2-12.2v-.1l5-69.9,5.4-75.6a13.22,13.22,0,0,0-12.3-14.1h0l-70.8-5-16.8,1.5-77.5-5.5a26.54,26.54,0,0,0-28.4,24.6h0v.2l-7.9,128.9a20.9,20.9,0,0,0,.1,2.5C1947.3,951.3,1947.4,951.5,1947.4,951.8Z" fill="none" stroke="#1197a5" stroke-miterlimit="10" stroke-width="2"/><path d="M2178.2,979.4c19,8.5,55.7,3.5,69.5,4.1,33.9,1.6,67.9,2,101.8,2.5,18.7.3,24.4-11.5,25.9-29q5.1-59.4,10.3-118.9c.3-3.7.6-7.5-.6-11.1-6.1-17.2-85.1-12.6-99.6-13.6l-94.8-6.7c-22.6-1.6-16.7,49-17.8,63.3-2.2,29.7-4.3,59.3-6.3,89-.2,3.1-.4,6.4.6,9.4C2168.9,973.4,2172.9,976.9,2178.2,979.4Z" fill="none" stroke="#1197a5" stroke-miterlimit="10" stroke-width="2"/><path d="M2345.2,1272.3l.9-15.2a10.07,10.07,0,0,0-9.3-10.5l-23.9-1.6-69.9-17.2-15.3-6.8a198,198,0,0,0-28-9.9,6.6,6.6,0,0,0-8.1,4.7,7.72,7.72,0,0,0-.2,1.5c-.1,2.1-.2,4.2-.3,6.2l-2.8,41.8a6.67,6.67,0,0,0,6.2,7l59.6,3.9,80.6,5.3a9.61,9.61,0,0,0,10.5-9.2C2345.3,1272.4,2345.3,1272.3,2345.2,1272.3Z" fill="none" stroke="#1197a5" stroke-miterlimit="10" stroke-width="2"/><path d="M1759.5,1569.3c-.6-2.5-1.2-5-1.7-7.5.5,2.4,1.1,4.8,1.7,7.2Z" fill="none" stroke="#1197a5" stroke-miterlimit="10" stroke-width="2"/><path d="M1355.9,1788.2l2.9,9.3a6.58,6.58,0,0,0,8.1,4.3h0l24.8-7.7,65.5-20.3a9.77,9.77,0,0,0,6.5-11.9c-.5-1.8-1-3.7-1.6-5.5l-12.1-39.2-1.2-3.7-2.9-9.3-1.2-3.7-11-35.7a9.74,9.74,0,0,0-12.2-6.4l-90.4,28a6.58,6.58,0,0,0-4.3,8.1Z" fill="none" stroke="#1197a5" stroke-miterlimit="10" stroke-width="2"/><path d="M1255.5,1989.2a6.43,6.43,0,0,0-5.9-7h-.2l-147.8-9.8a9.6,9.6,0,0,0-10.3,9.1h0v.2L1089,2037l-1.1,26.6-4.1,99.4v1l-2,24.8-.3,2.4a6.05,6.05,0,0,0,0,1.9,9.77,9.77,0,0,0,7.9,8.9l21.2,4q56.7,10.8,113.7,19.7a9.72,9.72,0,0,0,11.1-8.1h0c0-.2.1-.4.1-.7l12-136,1.8-20.9Z" fill="none" stroke="#1197a5" stroke-miterlimit="10" stroke-width="2"/><path d="M1873.8,1671c-.4-7-3-12.9-11.7-10.2l-368.5,114a9.73,9.73,0,0,0-6.8,10.5,203,203,0,0,1-9.8,93.1l-32,91.3c-7.6,21.7,58.1,14.1,68.3,13.7,31-1.4,61.8-4.9,92.6-8.4,62.3-7.1,125.3-15,187.9-7.4,9.5,1.2,19.2,2.7,28.7,1.4,26.6-3.5,24.1-23.5,26.3-45.2l8.1-80,16.2-160A77.29,77.29,0,0,0,1873.8,1671Z" fill="none" stroke="#1197a5" stroke-miterlimit="10" stroke-width="2"/><path d="M1454,1636.1l70.6-21.8,55.7-17.2a6.58,6.58,0,0,0,4.3-8.1l-14.3-46.4a9.74,9.74,0,0,0-12.2-6.4l-52.6,16.3-22.8,7c-10.5,3.3-21.1,6.4-31.7,9.3l-16.1,4.6a12.2,12.2,0,0,0-1.7.7c-.2.1-.3.2-.5.3s-.7.4-1,.6a1.76,1.76,0,0,0-.5.4l-.9.9-.3.3a7.1,7.1,0,0,0-1,1.4c-.1.1-.1.2-.2.3a6.12,6.12,0,0,0-.5,1.2c-.1.2-.1.4-.2.6a4.25,4.25,0,0,0-.2,1.1c0,.2-.1.4-.1.6v1.8a5,5,0,0,0,.2,1.2c0,.2.1.4.1.6s0,.2.1.2l13.6,44.1a9.74,9.74,0,0,0,12.2,6.4Z" fill="none" stroke="#1197a5" stroke-miterlimit="10" stroke-width="2"/><path d="M1273,1871.3a6.54,6.54,0,0,0,7.5,5.3h0a2.35,2.35,0,0,0,.8-.2l62.6-19.4,13.4-2.8a6.5,6.5,0,0,0,5.8-7.1h0a5,5,0,0,0-.2-1.2l-6.8-21.8a6.58,6.58,0,0,0-8.1-4.3l-75.5,23.3a6.58,6.58,0,0,0-4.3,8.1Z" fill="none" stroke="#1197a5" stroke-miterlimit="10" stroke-width="2"/><path d="M1269,1832l75.5-23.3a6.58,6.58,0,0,0,4.3-8.1l-2.9-9.3-1.1-3.7-15-48.6-12.8-41.5a6.58,6.58,0,0,0-8.1-4.3l-75.5,23.4a6.58,6.58,0,0,0-4.3,8.1h0l12.8,41.4,15,48.6,1.1,3.7,2.9,9.3a6.58,6.58,0,0,0,8.1,4.3Z" fill="none" stroke="#1197a5" stroke-miterlimit="10" stroke-width="2"/><path d="M1327.7,1675.2l24.8-7.7,65.6-20.3a9.68,9.68,0,0,0,6.4-12.1h0l-13.9-45a11.51,11.51,0,0,0-1.2-2.5.37.37,0,0,1-.1-.3c0-.1-.2-.2-.3-.3a2.18,2.18,0,0,1-.4-.5l-.8-.8-.4-.4a8.34,8.34,0,0,0-1.2-.8l-.2-.1a10.09,10.09,0,0,0-1.5-.7l-.5-.1a5,5,0,0,0-1.2-.2l-.6-.1h-1.8a4.67,4.67,0,0,0-1.7.3l-91.2,25.7a6.5,6.5,0,0,0-4.5,8h0v.2l16.5,53.5a6.67,6.67,0,0,0,8.2,4.2Z" fill="none" stroke="#1197a5" stroke-miterlimit="10" stroke-width="2"/><path d="M1808.8,1665.1h0l57.8-17.8a18,18,0,0,0,2.1-.8c.2-.1.5-.3.7-.4a9.25,9.25,0,0,0,1-.5c.1,0,.1-.1.2-.1a17.09,17.09,0,0,0,2.6-2.1l.5-.5a10.77,10.77,0,0,0,1.8-2.4c.1-.1.2-.2.2-.3a20.18,20.18,0,0,0,1.4-3,1.85,1.85,0,0,0,.2-.7,19.42,19.42,0,0,0,.7-3.3c1-12.8,2-25.6,2.9-38.3.3-4.2.6-8.3.9-12.5.5-6.8,1-13.6,1.4-20.4.2-3.3.4-6.7.6-10.1l2.2-34.1.2-22.7,3-45.3a9.67,9.67,0,0,0-9.1-10.3,10.2,10.2,0,0,0-3.5.4l-43.3,13.4-22.2,4.8-35.6,11c-.5.2-1,.4-1.4.6-.2.1-.3.2-.5.3s-.6.3-.9.5-.3.3-.5.4a3.74,3.74,0,0,0-.7.6,1.76,1.76,0,0,0-.4.5c-.1.2-.4.4-.6.7a3.11,3.11,0,0,1-.4.6,2.51,2.51,0,0,0-.4.7l-.3.6a6.89,6.89,0,0,0-.3.8c-.1.3-.1.4-.2.7s-.1.5-.2.8-.1.5-.1.7-.1.3-.1.5v.7l-.1,14.7-1.2,25.8c-.1,2.8-.2,5.6-.1,8.4v2.4c0,2.1.1,4.2.2,6.3a19.42,19.42,0,0,0,.2,2.4c.2,2.8.5,5.5.8,8.3,0,.2.1.5.1.7.3,2.5.7,5,1.2,7.6.1.3.1.7.2,1,.1.7.3,1.4.4,2.2.2,1,.4,2.1.7,3.2s.5,2.3.8,3.5.5,2.1.8,3.1c.1.4.2.8.3,1.1.4,1.5.8,3,1.3,4.5l1.6,5.4,7.2,23.5,17.8,58.2a6.67,6.67,0,0,0,8.1,4Z" fill="none" stroke="#1197a5" stroke-miterlimit="10" stroke-width="2"/><path d="M1408.9,1992.7c-.3,0-.7-.1-1-.1l-132.5-8.8a6.53,6.53,0,0,0-6.9,5.9l-6.3,71.2-1.8,20.9-12.2,138.3a9.86,9.86,0,0,0,8.3,10.5q65.4,9.6,131.2,16.8c8.4.9,10.3-6,10.8-12.5l2.1-27.9,4.3-55.7,8.6-111.4,2.2-28.6C1416.2,2004.1,1418.9,1994.4,1408.9,1992.7Z" fill="none" stroke="#1197a5" stroke-miterlimit="10" stroke-width="2"/><path d="M1834.3,1981.1a40.55,40.55,0,0,0-7-.8c-46.6-1.6-93.2-3.1-139.7-.4-42.3,2.5-84.2,8.6-126.4,12.7-21.5,2.1-43.1,3.7-64.7,4-12.9.2-48-8.1-58.1.5-11.8,10-7.8,57-9,72-4.4,54.9-8.6,109.8-12.3,164.7-2,28.7,50.6,21.5,71.1,23.2q52.5,4.2,105,6.9c25.6,1.3,51.2,2.9,76.8,3.2,26.4.3,52.8-2.2,79.3-1.1,14.5.6,29.3,2.2,43.4-1.1a63.7,63.7,0,0,0,43.9-38.1c5.3-13.6,5.7-28.6,6.1-43.2q2.1-90.15,4.2-180.2C1847.1,1990.6,1845,1983.4,1834.3,1981.1Z" fill="none" stroke="#1197a5" stroke-miterlimit="10" stroke-width="2"/><path d="M1641.7,1716.7l72.4-22.4a6.53,6.53,0,0,0,4.3-8.1h0l-18-58.2-1.1-3.7-2.9-9.3-1.1-3.7-8.7-28.1a6.58,6.58,0,0,0-8.1-4.3l-72.4,22.4a6.58,6.58,0,0,0-4.3,8.1h0l8.7,28.1,1.2,3.7,2.9,9.3,1.2,3.7,18,58.2A6.13,6.13,0,0,0,1641.7,1716.7Z" fill="none" stroke="#1197a5" stroke-miterlimit="10" stroke-width="2"/><path d="M1738.9,1686.7l45.1-14a6.58,6.58,0,0,0,4.3-8.1l-17.8-58.3-8.4-27.6-.4-1.3-4-15.6c.5,2.5,1.1,5,1.7,7.5a.37.37,0,0,0-.1-.3c-.6-2.4-1.1-4.8-1.7-7.2a6.51,6.51,0,0,0-7.7-5l-.6.2-46.3,14.3a6.58,6.58,0,0,0-4.3,8.1l2.8,9.2,9.9,31.9,1.2,3.7,18,58.2a6.89,6.89,0,0,0,8.3,4.3Z" fill="none" stroke="#1197a5" stroke-miterlimit="10" stroke-width="2"/><path d="M1755.6,1486.8c0-.2-.1-.4-.1-.7s-.2-.7-.3-1.1c-.1-.2-.2-.5-.3-.7s-.3-.6-.4-.9-.3-.4-.4-.6a1.38,1.38,0,0,0-.3-.4l-.4-.4a2.18,2.18,0,0,1-.4-.5c-.3-.3-.7-.6-1-.9l-.3-.3c-.5-.3-.9-.6-1.4-.9l-.4-.2a5.64,5.64,0,0,0-1.2-.4l-.6-.1a5.85,5.85,0,0,0-1.3-.2h-2l-1.6.3-59.3,18.3a7.74,7.74,0,0,0-1.6.7c-.2.1-.3.2-.5.3a6.07,6.07,0,0,0-1,.7l-.5.4-.9.9-.3.3a4.19,4.19,0,0,0-.9,1.4c-.1.1-.1.2-.2.3a6.12,6.12,0,0,0-.5,1.2c-.1.2-.1.4-.2.6a4.25,4.25,0,0,0-.2,1.1c0,.2-.1.4-.1.7v1.8a11.63,11.63,0,0,0,.4,1.8l14.3,46.4a6.53,6.53,0,0,0,8.1,4.3h0l50.2-15.5a6.58,6.58,0,0,0,4.6-6.6l-.2-19.5,1.3-29.8A10.87,10.87,0,0,1,1755.6,1486.8Z" fill="none" stroke="#1197a5" stroke-miterlimit="10" stroke-width="2"/><path d="M1204.5,1645v.2l17.3,55.9a6.58,6.58,0,0,0,8.1,4.3l75.5-23.4a6.58,6.58,0,0,0,4.3-8.1h0l-16.7-54a6.43,6.43,0,0,0-8-4.3l-76,21.4a6.42,6.42,0,0,0-4.5,8Z" fill="none" stroke="#1197a5" stroke-miterlimit="10" stroke-width="2"/><path d="M1591.9,1612.5a6.53,6.53,0,0,0-8.1-4.3h0l-55.8,17.2-70.6,21.8a9.74,9.74,0,0,0-6.4,12.2l11,35.7,1.1,3.7,141.8-43.6-3.4-10.9Z" fill="none" stroke="#1197a5" stroke-miterlimit="10" stroke-width="2"/><path d="M1480.8,1756a9.66,9.66,0,0,0,12,6.7h0l.2-.1,70.6-21.8,55.7-17.2a6.53,6.53,0,0,0,4.3-8.1h0l-15.8-51.2L1466,1708.1l1.1,3.7,12.1,39.2A36,36,0,0,1,1480.8,1756Z" fill="none" stroke="#1197a5" stroke-miterlimit="10" stroke-width="2"/><path d="M1117.7,1759.6c-.8,2.8-1.2,5.9-1.8,8.8-2.1,11.4-4,22.8-5.9,34.3q-5.55,34.35-9.6,68.9c-.6,4.8.6,10.6,6.6,10.2h.2a3.08,3.08,0,0,0,1.3-.3l135.9-42a6.58,6.58,0,0,0,4.3-8.1h0l-2.9-9.3-1.2-3.7-27.8-90a6.58,6.58,0,0,0-8.1-4.3h0l-82.1,25.4C1121.2,1751.2,1118.9,1755.1,1117.7,1759.6Z" fill="none" stroke="#1197a5" stroke-miterlimit="10" stroke-width="2"/><path d="M1602.6,1590.2l72.4-22.4a6.58,6.58,0,0,0,4.3-8.1l-14.3-46.4a12.2,12.2,0,0,0-.7-1.7l-.3-.6c-.1-.2-.3-.5-.4-.7s-.2-.2-.2-.2a2.74,2.74,0,0,1-.4-.5l-.8-.8c-.2-.1-.3-.3-.5-.4a4.13,4.13,0,0,0-1.1-.7c-.1-.1-.2-.1-.3-.2a4.42,4.42,0,0,0-1.6-.6.6.6,0,0,0-.4-.1,5,5,0,0,0-1.2-.2h-2.4c-.6.1-1.2.2-1.7.3l-66.2,20.5a7.74,7.74,0,0,0-1.6.7c-.2.1-.3.2-.5.3a6.07,6.07,0,0,0-1,.7l-.5.4-.9.9-.3.3a4.19,4.19,0,0,0-.9,1.4c-.1.1-.1.2-.2.3a6.12,6.12,0,0,0-.5,1.2c-.1.2-.1.4-.2.6a4.25,4.25,0,0,0-.2,1.1c0,.2-.1.4-.1.6v1.8a11.63,11.63,0,0,0,.4,1.8l14.3,46.4a6.38,6.38,0,0,0,8,4.3Z" fill="none" stroke="#1197a5" stroke-miterlimit="10" stroke-width="2"/><path d="M1137.6,1662.6l-.3,1.4-13.4,64v.2a6.56,6.56,0,0,0,5,7.7h0a5.78,5.78,0,0,0,3.2-.2l73.1-22.6a6.53,6.53,0,0,0,4.3-8.1h0l-17.4-56.4v-.2a6.43,6.43,0,0,0-8-4.3l-39.5,11.1A9.61,9.61,0,0,0,1137.6,1662.6Z" fill="none" stroke="#1197a5" stroke-miterlimit="10" stroke-width="2"/><path d="M1097,1903.6c-1.5,15.1-2.7,30.3-3.8,45.4a9.8,9.8,0,0,0,9,10.4h0l148.6,9.8a6.53,6.53,0,0,0,6.9-5.9l4.3-48.3a157.6,157.6,0,0,0-6.2-59.9,6.45,6.45,0,0,0-8.1-4.3h0l-37.7,11.7-61.9,19.1-44.3,13.7A9.68,9.68,0,0,0,1097,1903.6Z" fill="none" stroke="#1197a5" stroke-miterlimit="10" stroke-width="2"/><path d="M1456.4,1882c.2-.4.4-.9.6-1.3l2.9-8.3a187.53,187.53,0,0,0,9.7-77.9,9.76,9.76,0,0,0-10.6-8.8,11.8,11.8,0,0,0-2,.4l-86.7,26.8a6.58,6.58,0,0,0-4.3,8.1l8.8,28.4a10,10,0,0,0,6.9,6.6l15.4,5.9,46.2,24.2a9.64,9.64,0,0,0,13.1-4.1Z" fill="none" stroke="#1197a5" stroke-miterlimit="10" stroke-width="2"/><path d="M1277.1,1970a10.64,10.64,0,0,0,4.7,1.3l130.6,8.5c18.1,1.2,26.4-41,30.7-54.8,2-6.5,3.8-13.6,1.6-20-2.7-7.6-10.3-12.2-17.4-16.2-34.5-19.3-60.4-28.3-99-16.3l-40.6,12.6c-16.7,5.2-11.4,16.7-12.6,31C1273.8,1929,1264.4,1962.8,1277.1,1970Z" fill="none" stroke="#1197a5" stroke-miterlimit="10" stroke-width="2"/><path d="M1941.7,1808.3c-.3,0-.6-.1-.9-.1l-26.2-.6-17.3-.4h-.1a13.2,13.2,0,0,0-13.5,11.8l-4.9,42.9-.9,7.7q-6.15,54.15-7.8,108.6v.1a13.29,13.29,0,0,0,13,13.6h.9l2.3.1,45.3,1a10,10,0,0,0,10.2-9.7h0v-.1l.8-78.5,2.2-34.7,5.8-50.5A10.29,10.29,0,0,0,1941.7,1808.3Z" fill="none" stroke="#1197a5" stroke-miterlimit="10" stroke-width="2"/><path d="M2849.3,1439.7a9.39,9.39,0,0,0-5.2-1.6c-70.9-2.5-141.8-4.6-212.4-9.2-10.9-.7-49.9-10-57.5.7-1.4,2-1.7,4.7-1.9,7.2-1.6,18.2-2.8,36.3-3.8,54.5-.8,15.3-2.8,27.9,17.5,23,74.1-18.1,149.7-31.5,225.7-37.7,8.2-.7,16.7-1.3,24.2-4.7C2844,1468.4,2861.1,1448.4,2849.3,1439.7Z" fill="none" stroke="#1197a5" stroke-miterlimit="10" stroke-width="2"/><path d="M2463.1,1537.1c.2.1.5.1.7.2,10.8,1.2,26.6-5.1,37.2-7.2,11-2.2,40.5-3,47.8-11.9,5.9-7.2,3.6-26,4.2-35,1.1-14.8,2-29.6,3.1-44.4.2-3.6.4-7.4-1.4-10.4-8.2-13.8-89.9-19.5-91.4,4C2462.4,1446.5,2449.6,1532.6,2463.1,1537.1Z" fill="none" stroke="#1197a5" stroke-miterlimit="10" stroke-width="2"/><path d="M2453,1427.2a10.87,10.87,0,0,0-.1-1.8c0-.2-.1-.4-.1-.7a1.88,1.88,0,0,0-.2-.8c0-.1-.1-.2-.1-.3a2.07,2.07,0,0,0-.2-.6,5.36,5.36,0,0,0-.5-1.1,2.19,2.19,0,0,0-.3-.5,7.63,7.63,0,0,0-.8-1.1c-.1-.1-.2-.2-.2-.3a15.38,15.38,0,0,0-1.3-1.2c-.1-.1-.3-.2-.4-.3a4.13,4.13,0,0,0-1.1-.7l-.6-.3a7.6,7.6,0,0,0-1.1-.4l-.6-.2a5.66,5.66,0,0,0-1.8-.3l-19.4-1.3-23.2,1.1-35.6-2.3a17,17,0,0,0-2.2.1c-.2,0-.4.1-.6.1a8.33,8.33,0,0,0-1.5.4,4.88,4.88,0,0,1-.7.3,7.46,7.46,0,0,0-1.2.7c-.2.1-.4.3-.6.4a12,12,0,0,0-1.2,1.1l-.3.3v.1a10.23,10.23,0,0,0-1.4,2.2l-.2.5a11.07,11.07,0,0,0-.7,2.6l-7.2,41h-4.9a1.54,1.54,0,0,0-1.5,1.5v7.5a1.54,1.54,0,0,0,1.5,1.5h2.9a9.91,9.91,0,0,0,7.6,9.1,8.75,8.75,0,0,0,1.6.2l14.5.9,72.7,4.8a6.69,6.69,0,0,0,7.1-6.2h0Z" fill="none" stroke="#1197a5" stroke-miterlimit="10" stroke-width="2"/><path d="M2598.9,1225.4l.2.1Z" fill="none" stroke="#1197a5" stroke-miterlimit="10" stroke-width="2"/><path d="M2636.8,1197.6c-1.8,2.9-3.6,5.9-5.5,8.7,1.1-1.6,2.2-3.2,3.2-4.9C2635.3,1200.2,2636,1198.9,2636.8,1197.6Z" fill="none" stroke="#1197a5" stroke-miterlimit="10" stroke-width="2"/><path d="M2375.8,1235.9l85.9,5.7,13.4.1a58.91,58.91,0,0,0,50.2-27.1,6.51,6.51,0,0,0-2-9.1h0l-.3-.2a194.06,194.06,0,0,0-83.4-25l-60.4-4a10,10,0,0,0-10.6,9.3v.1l-2.2,39.8A10,10,0,0,0,2375.8,1235.9Z" fill="none" stroke="#1197a5" stroke-miterlimit="10" stroke-width="2"/><path d="M2454.2,1386a8.79,8.79,0,0,0,.6-1l.3-.6a.77.77,0,0,1,.2-.3,3.39,3.39,0,0,0,.3-.8,1.85,1.85,0,0,0,.2-.7,5.66,5.66,0,0,0,.3-1.8h0l4.5-67.9a6.46,6.46,0,0,0-2.4-5.5,7.34,7.34,0,0,0-3.5-1.5c-5.5-.7-10.9-1.2-16.4-1.5l-57.3-3.8c-2.9-.2-5.9-.3-8.9-.5a10,10,0,0,0-10.3,9.4l-3.6,64.9a10.87,10.87,0,0,0,.1,1.8c0,.2.1.4.1.6s.1.5.1.8c0,.1.1.2.1.3a2.07,2.07,0,0,0,.2.6,4.67,4.67,0,0,0,.5,1,2.19,2.19,0,0,0,.3.5,10.47,10.47,0,0,0,.8,1.1c.1.1.1.2.2.3a15.38,15.38,0,0,0,1.3,1.2c.1.1.3.2.4.3a10.54,10.54,0,0,0,1.1.7l.6.3a4.87,4.87,0,0,0,1.1.4l.6.2a5.66,5.66,0,0,0,1.8.3l78,5.2a10.87,10.87,0,0,0,1.8-.1l.6-.1,1.2-.3.6-.2c.4-.2.8-.3,1.2-.5.1-.1.3-.1.4-.2a7.1,7.1,0,0,0,1.4-1l.3-.3a9,9,0,0,0,.9-1Q2454.05,1386.3,2454.2,1386Z" fill="none" stroke="#1197a5" stroke-miterlimit="10" stroke-width="2"/><path d="M2364.6,1258.5l-.9,15.3a10,10,0,0,0,9.4,10.5h.1c2.9.1,5.8.3,8.7.5l57.3,3.8c5.3.4,10.6.8,15.9,1.4h1.3c.3,0,.4-.1.6-.1s.4-.1.6-.1a1.42,1.42,0,0,1,.6-.2c.2-.1.4-.1.6-.2a2.09,2.09,0,0,0,.6-.4c.2-.2.4-.2.5-.3a2.18,2.18,0,0,1,.5-.4,3.92,3.92,0,0,0,.8-1c.1-.2.3-.3.4-.5l.3-.6.3-.6a1.48,1.48,0,0,0,.1-.7,1.27,1.27,0,0,0,.1-.6v-.1h0v-.2l1.5-22.2a6.54,6.54,0,0,0-6.2-7h0l-82.6-5.4a10,10,0,0,0-10.6,9.2h0C2364.6,1258.4,2364.6,1258.5,2364.6,1258.5Z" fill="none" stroke="#1197a5" stroke-miterlimit="10" stroke-width="2"/><path d="M2557.5,1392.8c.2-.3.4-.7.6-1l.3-.6a.37.37,0,0,0,.1-.3,6.89,6.89,0,0,0,.3-.8,1.85,1.85,0,0,0,.2-.7,5.66,5.66,0,0,0,.3-1.8l3.5-52.6a6.68,6.68,0,0,0-5.1-6.9l-44.7-10.7-20.6-4.9c-4.4-1.1-8.9-2-13.4-2.9a6.62,6.62,0,0,0-7.8,5.2,2.49,2.49,0,0,0-.1.8l-2.6,38.2-1.8,27.6a10.87,10.87,0,0,0,.1,1.8c0,.2.1.4.1.7a2.35,2.35,0,0,0,.2.8c0,.1.1.2.1.3a2.07,2.07,0,0,0,.2.6,5.36,5.36,0,0,0,.5,1.1,2.19,2.19,0,0,0,.3.5,4.44,4.44,0,0,0,.8,1.1c.1.1.2.2.2.3a15.38,15.38,0,0,0,1.3,1.2l.4.3a4.13,4.13,0,0,0,1.1.7l.6.3a4.87,4.87,0,0,0,1.1.4c.2.1.4.1.6.2a5.66,5.66,0,0,0,1.8.3l72.8,4.8a10.87,10.87,0,0,0,1.8-.1c.2,0,.4-.1.6-.1l1.2-.3.6-.2c.4-.2.8-.3,1.2-.5.1-.1.3-.1.4-.2a7.1,7.1,0,0,0,1.4-1l.3-.3a9,9,0,0,0,.9-1C2557.2,1393.1,2557.4,1393,2557.5,1392.8Z" fill="none" stroke="#1197a5" stroke-miterlimit="10" stroke-width="2"/><path d="M2618.1,1197.5a189.5,189.5,0,0,0,20.4-39.5,10,10,0,0,0-5.8-12.8h0a12.09,12.09,0,0,0-1.8-.5c-20-3.4-40-6.8-60.1-10l-.5-.1c-21.1-3.4-42.3-6.6-63.5-9.8l-1.7-.3c-12.9-1.9-25.9-3.7-38.9-5.5-6.6-.9-13.1-1.9-19.7-2.8-20.1-2.7-40.3-5.4-60.5-7.9a10,10,0,0,0-11.1,8.6h0v.2l-.9,8.4-1.9,18-.5,4.8c-.2,2.1-.5,4.2-.7,6.4a10.05,10.05,0,0,0,9,10.9h.3l60.1,4,76.2,26,26.1,9.4,42.8,28.8a6.7,6.7,0,0,0,9.2-1.8l4.5-6.6-.2-.1h0l.2.1,9.4-13.9-.1-.1.1.1Z" fill="none" stroke="#1197a5" stroke-miterlimit="10" stroke-width="2"/><path d="M2565.3,1306.9a4.33,4.33,0,0,1,.1-.5l17.5-54.4a6.62,6.62,0,0,0-2.2-8.5l-34.4-23.1a6.52,6.52,0,0,0-9.2,1.8h0l-.1.1-56.2,33.2a6.75,6.75,0,0,0-6.2,6.2l-1.6,24.9a6.65,6.65,0,0,0,5.4,7l17.7,3.7,61.2,14.6a6.71,6.71,0,0,0,8-5Z" fill="none" stroke="#1197a5" stroke-miterlimit="10" stroke-width="2"/><path d="M2330.9,1563.1a6.61,6.61,0,0,0,2.8,0l18.6-3.7,65.1-12.8,20.5-4a10,10,0,0,0,8-9.1l1.8-26.4a6.67,6.67,0,0,0-6.2-7l-92.4-6.1a10,10,0,0,0-10.3,7.6l-12.8,53.6A6.64,6.64,0,0,0,2330.9,1563.1Z" fill="none" stroke="#1197a5" stroke-miterlimit="10" stroke-width="2"/><path d="M2831.6,1488.5c-11-5.8-43.4,2.3-53.2,3.4q-32.4,3.6-64.6,8.6-43.5,6.75-86.5,15.8c-14.6,3.1-57.7,3.8-59.1,23.8l-16.4,247.7c-.3,4.6-.6,9.4,1.2,13.6,8.1,19.3,44.1,6,57.7,2.3a410.49,410.49,0,0,1,101.6-14.4c6.9-.1,14.1-.1,20.1-3.5,8.3-4.7,12-14.4,15.1-23.3,8.5-24.4,17-48.9,25.6-73.3,6.9-19.8,23.4-48.4,23.4-68.9,6.4-19.3,13.7-38.2,20.2-57.5,4.3-12.9,26.1-59,17.5-72A6.48,6.48,0,0,0,2831.6,1488.5Z" fill="none" stroke="#1197a5" stroke-miterlimit="10" stroke-width="2"/><path d="M2054.6,1076.9l85.2-7.6a10,10,0,0,0,10.3-9.6v-.5l-.9-54.5a13.18,13.18,0,0,0-12.3-13l-75-5.6a10,10,0,0,0-10.7,9.2v.1l-4.2,64.1c-.2,3.7-.4,7.3-.4,10.9a6.62,6.62,0,0,0,6.6,6.7C2053.7,1077,2054.2,1077,2054.6,1076.9Z" fill="none" stroke="#1197a5" stroke-miterlimit="10" stroke-width="2"/><path d="M2164.8,1205.2l-87.6-6.9a10,10,0,0,0-10.7,9.1v.1l-3.4,51.4a6.76,6.76,0,0,0,6.2,7.1h25.2l70.8,4.7a6.69,6.69,0,0,0,7.1-6.2h0l2.8-41.8c.2-3.5.3-6.9.4-10.4a6.63,6.63,0,0,0-6-6.6A41.19,41.19,0,0,0,2164.8,1205.2Z" fill="none" stroke="#1197a5" stroke-miterlimit="10" stroke-width="2"/><path d="M2162.8,1408a10.87,10.87,0,0,0-.1-1.8c0-.2-.1-.4-.1-.7a2.35,2.35,0,0,0-.2-.8c0-.1-.1-.2-.1-.3a2.07,2.07,0,0,0-.2-.6,5.36,5.36,0,0,0-.5-1.1c-.1-.2-.2-.3-.3-.5a7.63,7.63,0,0,0-.8-1.1c-.1-.1-.1-.2-.2-.3a15.38,15.38,0,0,0-1.3-1.2,1.38,1.38,0,0,0-.4-.3,4.13,4.13,0,0,0-1.1-.7l-.6-.3a4.87,4.87,0,0,0-1.1-.4c-.2-.1-.4-.1-.6-.2a5.66,5.66,0,0,0-1.8-.3,519.08,519.08,0,0,0-91.6,1.9c-.6.1-1.1.2-1.6.3a.76.76,0,0,0-.5.2,4.18,4.18,0,0,0-1,.4l-.6.3a3.51,3.51,0,0,0-.8.5l-.5.4c-.2.2-.5.4-.7.6l-.5.5c-.2.2-.4.5-.6.7s-.3.4-.4.6a5.58,5.58,0,0,1-.5.8l-.3.6c-.1.3-.2.7-.3,1s-.1.4-.2.6v.1a7.72,7.72,0,0,0-.2,1.5l-3.2,48.3a6.67,6.67,0,0,0,6.2,7l95.9,6.3a6.69,6.69,0,0,0,7.1-6.2h0Z" fill="none" stroke="#1197a5" stroke-miterlimit="10" stroke-width="2"/><path d="M2046.8,1604.9a6.61,6.61,0,0,0,2.4-.3l32-9.9,20.2-6.2,45.2-11.2a6.69,6.69,0,0,0,5.4-6.1l5.5-83.4a6.54,6.54,0,0,0-6.2-7h0l-95.9-6.3a6.69,6.69,0,0,0-7.1,6.2l-6.1,91.4-1.7,25.7A6.85,6.85,0,0,0,2046.8,1604.9Z" fill="none" stroke="#1197a5" stroke-miterlimit="10" stroke-width="2"/><path d="M1904.8,1637.8a8.33,8.33,0,0,0,.4,1.5,4.88,4.88,0,0,1,.3.7,7.46,7.46,0,0,0,.7,1.2c.1.2.3.4.4.6a10,10,0,0,0,1,1.1c.1.1.2.3.3.4l.2.1a12.74,12.74,0,0,0,1.9,1.3l.2.1a10.66,10.66,0,0,0,1.9.7,1.7,1.7,0,0,0,.7.1,2.35,2.35,0,0,1,.8.2c.2.1.5,0,.8,0h.7a9.26,9.26,0,0,0,2.3-.4l102.4-31.6a10,10,0,0,0,7-8.8l1-15.4.2-3.6.6-8.7a7.57,7.57,0,0,0-.1-1.5v-.3a7.49,7.49,0,0,0-.5-1.6c0-.1-.1-.2-.1-.3a7.1,7.1,0,0,0-1-1.4l-.3-.2a7.1,7.1,0,0,0-1.4-1l-.1-.1a4.92,4.92,0,0,0-1.7-.6c-.1,0-.1,0-.2-.1s-.4-.1-.7-.1h0l-9.3-.6-93.6-6.1a10.87,10.87,0,0,0-1.8.1c-.2,0-.4.1-.6.1-.4.1-.8.2-1.1.3l-.7.2a4.67,4.67,0,0,0-1,.5l-.6.3-.2.1a1.38,1.38,0,0,1-.4.3,10.63,10.63,0,0,0-1.1.9,2.65,2.65,0,0,0-.5.6,7.63,7.63,0,0,0-.8,1.1c-.1.2-.3.4-.4.6a5.91,5.91,0,0,0-.6,1.4,1.42,1.42,0,0,0-.2.6,14.35,14.35,0,0,0-.4,2.2l-.1,2-.6,9.2q-1.65,25.5-3.6,51a8.13,8.13,0,0,0,.1,2.2A.71.71,0,0,0,1904.8,1637.8Z" fill="none" stroke="#1197a5" stroke-miterlimit="10" stroke-width="2"/><path d="M2174.5,1573h1.2l53.5-2.4,5.4.1,12.6.3a409.77,409.77,0,0,0,49.6-2.1,10,10,0,0,0,8.6-7.6l8.9-37.5,4.8-20.3a10,10,0,0,0-7.3-12h-.1a8.75,8.75,0,0,0-1.6-.2l-70-4.6-59.6-3.9a6.69,6.69,0,0,0-7.1,6.2h0l-5.1,77.1A6.64,6.64,0,0,0,2174.5,1573Z" fill="none" stroke="#1197a5" stroke-miterlimit="10" stroke-width="2"/><path d="M2029,1554.3a1.61,1.61,0,0,0,.4-.7c.1-.1.2-.3.3-.4a4.88,4.88,0,0,0,.3-.7c.1-.2.2-.3.2-.5a5.85,5.85,0,0,0,.2-1.3l9.3-140.2a6.67,6.67,0,0,0-6.2-7,9.15,9.15,0,0,0-1.6.1l-1.1.2-7.5,2.7-8.4,3c-16.4,3.3-32.6,7.5-48.6,12.4l-28.9,8.9a29.8,29.8,0,0,0-21,26.5l-5.4,82.3a10.87,10.87,0,0,0,.1,1.8c0,.2.1.4.1.6l.3,1.2c.1.2.1.4.2.6.2.4.3.8.5,1.2.1.1.1.3.2.4a7.1,7.1,0,0,0,1,1.4l.3.3a9,9,0,0,0,1,.9l.5.4c.3.2.7.4,1,.6l.6.3c.1,0,.2.1.3.2a3.39,3.39,0,0,0,.8.3,1.85,1.85,0,0,0,.7.2,5.66,5.66,0,0,0,1.8.3h0l86.4,5.6,6.6.4,9.9.7h1.3a4.33,4.33,0,0,0,.5-.1,1.45,1.45,0,0,0,.7-.2c.2-.1.5-.2.7-.3s.3-.1.4-.2c.3-.2.5-.3.8-.5.1-.1.2-.1.3-.2l.6-.6A6.13,6.13,0,0,0,2029,1554.3Z" fill="none" stroke="#1197a5" stroke-miterlimit="10" stroke-width="2"/><path d="M2296.6,1591.5c-.6-7.2-4.4-8.8-17.3-9.6-14.7-.9-29.5-.9-44.2-.5-112.2,3-218.6,45.7-324.8,78.4a16.67,16.67,0,0,0-11.6,14.4l-10.5,105c-2.7,27.2,131.2,17.6,150.7,18l197.3,4.1c7.3.2,15.5,0,20.8-5,4.6-4.2,5.8-10.8,6.9-16.9,10-58.5,24.5-117.3,32.3-175.6A100.46,100.46,0,0,0,2296.6,1591.5Z" fill="none" stroke="#1197a5" stroke-miterlimit="10" stroke-width="2"/><path d="M2326.4,1473.5l3.3-13.8a336.34,336.34,0,0,0,6.9-39.7,6.7,6.7,0,0,0,0-2,2.92,2.92,0,0,0-.2-.9c-.1-.3-.1-.6-.2-.9v-.1c-.1-.2-.1-.3-.2-.4a6.12,6.12,0,0,0-.5-1.2c-.1-.2-.2-.3-.3-.5a6.07,6.07,0,0,0-.7-1,1.76,1.76,0,0,0-.4-.5,7.64,7.64,0,0,0-.9-.9l-.3-.3a7.1,7.1,0,0,0-1.4-1c-.1-.1-.3-.1-.4-.2a6.12,6.12,0,0,0-1.2-.5c-.2-.1-.4-.1-.6-.2l-1.3-.3c-.1,0-.2-.1-.4-.1h-.4l-81.7-5.4-56.3-3.7a10,10,0,0,0-10.6,9.3l-3.7,56.1a6.67,6.67,0,0,0,6.2,7l59.6,3.9,75.2,5A10.46,10.46,0,0,0,2326.4,1473.5Z" fill="none" stroke="#1197a5" stroke-miterlimit="10" stroke-width="2"/><path d="M1387.6,794l-5.7,11a50.33,50.33,0,0,0-3.5,8.3l-100.4,307-87,255.1a34.71,34.71,0,0,0-1.3,4.6L1125,1642.7c-.4,1.6-.7,3.2-1,4.8l-41.1,269.8q-.45,3.15-.6,6.3l-8.2,237.5a54.57,54.57,0,0,0,44.3,55.5l200.8,38.6c1.8.3,3.7.6,5.5.8l426.7,37.5,2.6.3c10.8,1.4,97,10.4,102.7-70,4.5-64.2,11.2-271.7,14.3-371.9a54.47,54.47,0,0,1,56.8-52.8l284.3,11.8a54.52,54.52,0,0,0,55.5-42.7l71.9-325a54.52,54.52,0,0,1,56.5-42.7l106.9,6.2a54.63,54.63,0,0,0,57.5-49l4-39.3a56.35,56.35,0,0,1,7.2-22.2l64.8-110.3a52.15,52.15,0,0,1,8.6-11.2c6.6-6.5,16.1-20.6-14-30-27.5-8.6-139.7-25.3-207.1-34.9a54.58,54.58,0,0,1-46.6-59.5l18.3-182.1a54.65,54.65,0,0,0-51.7-60l-905.3-43.5A54.83,54.83,0,0,0,1387.6,794Z" fill="none" stroke="#00cc82" stroke-miterlimit="10" stroke-width="12"/><g id="图层_2" data-name="图层 2"><path id="page-3-rightMap-pop-j" d="M1197.6,1622.6l82.8-17.1a12.13,12.13,0,0,1,14.1,8.4l55,183.1a12.2,12.2,0,0,1-8,15.1l-226.3,70.2a12.16,12.16,0,0,1-15.6-13.6l35.6-218.2a12,12,0,0,1,8.1-9.5l52.9-18A5.73,5.73,0,0,1,1197.6,1622.6Z" fill="#912ff5" opacity="0.42" style="isolation:isolate"/><path id="page-3-rightMap-pop-n" d="M1201.1,1381.7l65.2,10a10.28,10.28,0,0,0,3.5,0l78.8-10.9a12.13,12.13,0,0,1,13.4,8.8l22.5,82.8,24.8,77.4a12.1,12.1,0,0,1-8,15.3l-99.4,30.5a12.06,12.06,0,0,1-15.4-8.9l-13.7-61.1a12.17,12.17,0,0,0-14.6-9.2l-83.3,19.5a12.19,12.19,0,0,1-14.7-14.3l27.2-130.4A12.15,12.15,0,0,1,1201.1,1381.7Z" fill="#83c83f" opacity="0.42" style="isolation:isolate"/><path id="page-3-rightMap-pop-o" d="M1464.9,1244.3l-55.3,46.3a11.26,11.26,0,0,0-3,3.8l-37.8,73.8a12.06,12.06,0,0,0-1.3,6.7l3.5,35.1a10.27,10.27,0,0,0,.5,2.4l43.2,138.8a12.12,12.12,0,0,0,15.3,7.9l318.4-102.5a12.18,12.18,0,0,0,7.9-15.2l-58.1-182.6a12,12,0,0,0-10.7-8.4l-97.6-7.3a11.11,11.11,0,0,0-2.6.1l-90.5,13.1a12,12,0,0,1-12.9-7.3h0A12.11,12.11,0,0,0,1464.9,1244.3Z" fill="#dd303c" opacity="0.42" style="isolation:isolate"/><path d="M1688.4,1213.3l74.4,225.1a12.13,12.13,0,0,0,15.3,7.7l115.4-37.5a12,12,0,0,0,8.4-11.5l.5-64.3a12.12,12.12,0,0,0-14.9-11.9l-51.9,12a12.1,12.1,0,0,1-14.3-8.2l-32.2-101.4a14.62,14.62,0,0,1-.5-2l-4.6-33.2a12,12,0,0,0-15.2-10l-72.1,19.6A12.23,12.23,0,0,0,1688.4,1213.3Z" fill="#dd303c" opacity="0.42" style="isolation:isolate"/><path id="page-3-rightMap-pop-k" d="M1418.2,1587.2l56.3,172.5a12.21,12.21,0,0,0,10.2,8.3l7.6.8a12.69,12.69,0,0,0,5.1-.5l122.5-39.4a12.19,12.19,0,0,0,7.9-15.1l-54.1-175.7a12.21,12.21,0,0,0-15.3-8l-132.3,41.8A12,12,0,0,0,1418.2,1587.2Z" fill="#e32168" opacity="0.42" style="isolation:isolate"/><path id="page-3-rightMap-pop-m" d="M1682.5,1491l199.9-59.8a12.14,12.14,0,0,1,14.8,7.3l2.3,6.1a12,12,0,0,1,.7,5.3l-15.7,188a12.25,12.25,0,0,1-8.5,10.6l-136.6,42.4a12.18,12.18,0,0,1-15.3-8.3l-49.9-176.7A12.29,12.29,0,0,1,1682.5,1491Z" fill="#0aa64c" opacity="0.42" style="isolation:isolate"/><path id="page-3-rightMap-pop-h" d="M1104.7,1890.8l358.1-112.1a12.16,12.16,0,0,1,14.2,5.7h0a12.53,12.53,0,0,1,1.5,7.1l-6.6,67.2a20,20,0,0,1-.5,2.6l-38.7,118.2a12,12,0,0,1-12.5,8.3l-319.1-25.3a12.2,12.2,0,0,1-11.2-12.8l1.9-32.2a20.24,20.24,0,0,1,.4-2.6l4.5-15.7A12.26,12.26,0,0,1,1104.7,1890.8Z" fill="#193e64" opacity="0.42" style="isolation:isolate"/><path id="page-3-rightMap-pop-g" d="M1425.2,2005.1l-17.4,234.5a12.08,12.08,0,0,1-11.9,11.2l-23.1.4a14.77,14.77,0,0,1-2.1-.1l-274.1-43.2a12,12,0,0,1-9.7-8.5l-9.1-30.5a12.39,12.39,0,0,1-.5-4.3l11.9-184.2a12.13,12.13,0,0,1,13-11.3l311.8,23A12.11,12.11,0,0,1,1425.2,2005.1Z" fill="#779abf" opacity="0.42" style="isolation:isolate"/><path id="page-3-rightMap-pop-e" d="M1923,1419.8l119.6-29.4a8.72,8.72,0,0,1,3.2-.3l284.7,7.6a12.16,12.16,0,0,1,11.8,13.2l-2.7,31.2a15.72,15.72,0,0,1-.4,2.3l-39.8,137.5a12.17,12.17,0,0,1-12.8,8.7L2174,1580.4a12.58,12.58,0,0,0-4.3.4l-258.3,69.8a12.19,12.19,0,0,1-15.3-12.7l17.5-207.3A12.59,12.59,0,0,1,1923,1419.8Z" fill="#16c699" opacity="0.42" style="isolation:isolate"/><path id="page-3-rightMap-pop-f" d="M1492.4,1772.4l374.9-116.6a12,12,0,0,1,11.7,2.6l2.9,2.6a11.92,11.92,0,0,1,3.9,10.6l-18.2,136.9-10.5,70.3a5.7,5.7,0,0,0-.1,1.3l-6.2,148.8-1.9,167.4a105.25,105.25,0,0,1-14.6,52.4h0a41.43,41.43,0,0,1-28.6,19.8h0a451.62,451.62,0,0,1-108.3,5.3l-270.9-19.2a12.23,12.23,0,0,1-11.3-12.9l16.8-245.3a14.5,14.5,0,0,1,.6-3l43.8-130.2a14,14,0,0,0,.6-2.8l6.7-77.3A12.93,12.93,0,0,1,1492.4,1772.4Z" fill="#6367f9" opacity="0.42" style="isolation:isolate"/><path id="page-3-rightMap-pop-i" d="M1309.6,1604.4l88-24.2a12.18,12.18,0,0,1,14.8,8l54.4,171.5a12.24,12.24,0,0,1-7.9,15.3l-88.9,28.1a12.26,12.26,0,0,1-15.3-8l-53.5-175.4A12.16,12.16,0,0,1,1309.6,1604.4Z" fill="#26ddff" opacity="0.42" style="isolation:isolate"/><path id="page-3-rightMap-pop-l" d="M1585.1,1522.1l66.7-20a12.18,12.18,0,0,1,15.1,8.1l53.2,172.4a12.13,12.13,0,0,1-8.1,15.2l-65.5,20a12.12,12.12,0,0,1-15.1-8l-54.3-172.3A12.12,12.12,0,0,1,1585.1,1522.1Z" fill="#034433" opacity="0.42" style="isolation:isolate"/><path id="page-3-rightMap-pop-c" d="M1938.7,813.1l-28.1,579.6a16.21,16.21,0,0,0,13.7,16.8h0a16.74,16.74,0,0,0,6.3-.3l117-28.1a14.63,14.63,0,0,1,4.1-.4l279.1,6.3a16.17,16.17,0,0,0,16.5-15l20.2-279.9,17.8-247.8a16,16,0,0,0-3.3-11l-15.3-19.9a16,16,0,0,0-12.1-6.3l-368.8-17.3a67.49,67.49,0,0,0-39.6,10.5h0A16.18,16.18,0,0,0,1938.7,813.1Z" fill="#078add" opacity="0.42" style="isolation:isolate"/><path id="page-3-rightMap-pop-d" d="M2386.1,1102.3l151.1,25.6c.3.1.6.1.9.2l95.4,23.9a12.14,12.14,0,0,1,7.5,18l-48,80.4a16,16,0,0,0-1.2,2.7l-36,119.6a11.69,11.69,0,0,1-2.6,4.6l-19.6,21.7a12.27,12.27,0,0,1-9.6,4l-156.2-7.2a12.13,12.13,0,0,1-11.6-12.8l15.8-269.5A12.07,12.07,0,0,1,2386.1,1102.3Z" fill="#e5a46f" opacity="0.42" style="isolation:isolate"/><path id="page-3-rightMap-pop-b" d="M1664.4,802.9l-13.5,237.4a12.19,12.19,0,0,0,8.2,12.2l128.7,44.6a11.7,11.7,0,0,0,2,.5l111.9,18.8a12.06,12.06,0,0,0,14.1-11.4l14.7-299.6a12.15,12.15,0,0,0-12.1-12.7l-241.8-1.2A12.16,12.16,0,0,0,1664.4,802.9Z" fill="#ee9123" opacity="0.42" style="isolation:isolate"/><path id="page-3-rightMap-pop-a" d="M1444.6,770.6l155.9,7.6a55.24,55.24,0,0,1,52.5,56.7l-6.2,223.2a55,55,0,0,1-3.2,17l-5,14.1a55.43,55.43,0,0,1-17.7,24.7l-81.8,64.8c-1.1.8-2.1,1.6-3.2,2.4l-83.6,56.8a55,55,0,0,0-19.4,23.3l-42.6,96.2a55.16,55.16,0,0,1-46.5,32.7l-75.2,5.4a55.17,55.17,0,0,1-16.2-1.2l-3.1-.7a55.12,55.12,0,0,1-40.1-71.3l170.2-509a54.16,54.16,0,0,1,7.8-15.1h0A66.41,66.41,0,0,1,1444.6,770.6Z" fill="#d2b81d" opacity="0.42" style="isolation:isolate"/></g></svg>