<svg id="图层_1" data-name="图层 1" xmlns="http://www.w3.org/2000/svg" xmlns:xlink="http://www.w3.org/1999/xlink" viewBox="0 0 1604.42 1241.48"><defs><linearGradient id="radial-gradient-10" x1="547.71" y1="1090.52" x2="883.63" y2="227.77" gradientUnits="userSpaceOnUse"><stop offset="0" stop-color="#22bf9d"/><stop offset="1" stop-color="#2f3c67"/></linearGradient><radialGradient id="radial-gradient-3" cx="851.81" cy="937.77" r="355.89" gradientTransform="matrix(1, 0, 0, -1, -84.41, 1603.3)" gradientUnits="userSpaceOnUse"><stop offset="0" stop-color="#00f0ff" stop-opacity="0"/><stop offset="1" stop-color="#00f0ff"/></radialGradient><radialGradient id="radial-gradient-7" cx="918.28" cy="1231.86" r="25.37" gradientTransform="matrix(1.9, 0, 0, -2.02, -859.8, 2964.24)" gradientUnits="userSpaceOnUse"><stop offset="0" stop-color="#46d6ff" stop-opacity="0.4"/><stop offset="1" stop-color="#0072ff"/></radialGradient><radialGradient id="radial-gradient-7-2" cx="940.61" cy="1029.41" r="13.73" gradientTransform="matrix(1.93, 0, 0, -1.91, -894.9, 2547.9)" xlink:href="#radial-gradient-7"/><radialGradient id="radial-gradient-4" cx="692.79" cy="1002.61" r="64.32" gradientTransform="matrix(1, 0, 0, -1, -84.41, 1603.3)" gradientUnits="userSpaceOnUse"><stop offset="0" stop-color="#7200ff" stop-opacity="0.4"/><stop offset="1" stop-color="#e2d0ff"/></radialGradient><radialGradient id="radial-gradient-4-2" cx="774.23" cy="1110.99" r="33.86" xlink:href="#radial-gradient-4"/><radialGradient id="radial-gradient-2" cx="704.31" cy="836.14" r="79.4" gradientTransform="matrix(0.79, 0, 0, -0.98, -4.25, 1592.71)" gradientUnits="userSpaceOnUse"><stop offset="0" stop-color="#958a2d" stop-opacity="0.54"/><stop offset="1" stop-color="#ffce26" stop-opacity="0.56"/></radialGradient><radialGradient id="radial-gradient-2-2" cx="748.27" cy="652.17" r="68.84" gradientTransform="matrix(1, 0, 0, -1, -84.41, 1603.3)" xlink:href="#radial-gradient-2"/><radialGradient id="radial-gradient-2-3" cx="532.66" cy="672.16" r="57.99" gradientTransform="matrix(1, 0, 0, -1, -84.41, 1603.3)" xlink:href="#radial-gradient-2"/><radialGradient id="radial-gradient-11" cx="919.4" cy="896.9" r="56.96" gradientTransform="matrix(1.24, 0, 0, -1.16, -256.51, 1707.36)" gradientUnits="userSpaceOnUse"><stop offset="0" stop-color="#e84cba" stop-opacity="0.58"/><stop offset="1" stop-color="#e84cba" stop-opacity="0.77"/></radialGradient></defs><title>map1</title><path d="M965.31,1249.32c-3.22-.63-6.42-1.46-9.67-1.86q-50.6-6.26-101.21-12.38-23.07-2.82-46.13-5.71c-6-.76-7.89-3.28-7.53-9.42,1.23-21,2.48-41.93,3.59-62.91.71-13.4,6-24.1,17.75-31.14a33.2,33.2,0,0,1,18.12-4.79q26,.54,52,1.09l104,2.24c5,.11,5.29.32,5,5.59q-1.58,30.21-3.28,60.42-1.27,23.22-2.64,46.43c-.26,4.29-.27,8.69-2.94,12.44Zm31.88-121.23c-2.45,0-4.42,0-6.39,0q-29.25-.6-58.51-1.25c-30.34-.67-60.68-1.16-91-2.1a32.28,32.28,0,0,0-33.17,31c-.69,15.83-1.83,31.63-2.77,47.44q-.48,8.25-1,16.48c-.26,4.72.26,5.4,5.07,6.17,2.3.37,4.64.51,6.95.79q43.43,5.31,86.85,10.62,38.7,4.8,77.38,9.79c9.47,1.23,10.33.64,10.86-8.84q2.85-50.45,5.69-100.89C997.32,1134.54,997.19,1131.73,997.19,1128.09Z" transform="translate(-11.37 -7.84)" style="fill:#373c55"/><path d="M108.54,555.58c.75-2,1.41-3.74,2-5.46q33.15-98,66.28-196a27.77,27.77,0,0,1,8.65-12.61c9.36-7.77,19-15.16,28.52-22.79a16.12,16.12,0,0,1,8.67-3.32c20.81-2.49,41.6-5.16,62.4-7.72,2.25-.27,4.54-.26,7.38-.41-1.13,7.63-2.15,14.65-3.22,21.67q-5.34,34.8-10.71,69.59-5.68,37-11.37,74-5.31,34.55-10.64,69.1-6.28,40.71-12.56,81.42c-3.8,24.68-7.77,49.34-11.29,74.06a667.63,667.63,0,0,1-26.22,113.32c-1.81,5.55-3.82,11-5.57,16.59a12.48,12.48,0,0,1-9.23,8.87Q118,856.56,44.43,877.34c-10,2.8-17-3.51-15.39-13.68.34-2.14.48-4.31.76-6.45,2.54-19,5.12-37.93,7.61-56.9,2-15.51,4.47-31,5.8-46.56,1.38-16.06,1.63-32.23,2.39-48.35.53-11.3,1.09-22.6,1.59-33.9.2-4.49.29-9,.39-13.49.23-9.65.43-19.31.65-29q.69-29,1.4-57.95c.07-2.66.44-5.3.6-8,.26-4.6,2.17-6.67,6.86-6.74,8.17-.12,16.34.06,24.51-.07C90.42,556.2,99.23,555.85,108.54,555.58Zm1.68,3.17H81.11c-7.34,0-14.68,0-22,0-5.2.05-6.28,1.28-6.49,6.58-.28,7-.75,14-1,20.94-.41,13.65-.71,27.3-1,41q-.53,22.72-1,45.45c-.11,4.67-.2,9.33-.4,14-.49,11.3-1.07,22.6-1.58,33.9-.42,9.31-.47,18.65-1.28,27.92-1,11.76-2.56,23.49-4.07,35.2-2.43,18.81-5,37.6-7.55,56.4-1.1,8.24-2.22,16.49-3.19,24.75-.65,5.56,2.42,9.84,7.58,10.44a14.52,14.52,0,0,0,5.33-.8q70.72-19.86,141.43-39.8c10.87-3.06,10.35-2.57,14.12-13.72,11.76-34.8,21.17-70.2,27.1-106.46,3.82-23.33,7.25-46.72,10.86-70.09q6.9-44.65,13.81-89.32,5.69-37,11.33-74,6.3-41,12.66-81.92,5.29-34.29,10.56-68.6c1-6.65,1.94-13.33,3-20.42-2.12.14-3.6.16-5.05.34-20.8,2.55-41.61,5.07-62.39,7.77a12.57,12.57,0,0,0-5.8,2.51q-14.25,11-28.22,22.37a27.14,27.14,0,0,0-8.63,12.58q-33.25,98.51-66.67,197C111.87,554.52,111.12,556.35,110.22,558.75Z" transform="translate(-11.37 -7.84)" style="fill:#373c55"/><path d="M315.5,14.81a16.88,16.88,0,0,1,.94,3.3c.84,14,1.79,27.89,2.38,41.85.47,11.15.9,22.33.6,33.47C318.7,120,317.05,146.61,313,173q-7.77,51.1-15.55,102.2c-.88,5.76-1.9,11.49-2.66,17.27-.36,2.65-1.57,3.46-4.2,3.78-26.1,3.12-52.18,6.42-78.26,9.65-5,.62-11.31-4.77-11.7-10.76a75.91,75.91,0,0,1,.52-16.92c1.92-12,3.79-24.1,3-36.25-.72-11.6-2.4-23.16-4.11-34.67-3.31-22.39-6.93-44.74-10.43-67.1-1-6.56-2.09-13.12-3.2-20.09-2.92-.28-5.69-.73-8.46-.78-12.34-.2-24.67-.21-37-.42-15.48-.26-31-.63-46.45-1-6-.14-12-.43-18-.61s-7.91-2.78-5.43-8.32c3.54-7.9,7.34-15.69,11.06-23.52,10.45-22,21.11-43.85,31.24-66,3.06-6.68,8.39-9.67,16-6.74A126.33,126.33,0,0,0,178,21.08c12.47-.29,24.92-1.24,37.38-1.87,3.82-.19,7.65-.27,11.48-.43,16-.67,31.92-1.29,47.88-2,12-.56,23.91-1.3,35.87-1.93C312.21,14.73,313.85,14.81,315.5,14.81ZM188.61,117.51c.37,1.82.75,3.4,1,5,4.21,26.81,8.46,53.62,12.59,80.44,1.55,10,3.21,20.08,4.08,30.18,1.41,16.35,0,32.58-3,48.73a37.24,37.24,0,0,0,.27,13.35c1.07,5.75,5.54,8.44,10.9,7.77q27.24-3.44,54.48-6.82l22.78-2.86c.35-1.47.69-2.57.86-3.7q9.26-60.74,18.44-121.48c3.74-25.06,5.34-50.31,5.84-75.62a662,662,0,0,0-2.37-67.39c-.22-2.59-.72-5.15-1.1-7.82-2.91.18-5.38.37-7.85.48-9.15.42-18.29.8-27.44,1.24-11.79.56-23.59,1.2-35.39,1.76-9.31.45-18.62.81-27.93,1.26-11.64.56-23.26,1.46-34.9,1.68a142.36,142.36,0,0,1-52-8.56c-6-2.2-8.72-1.06-11.34,4.44Q95.18,64.54,73.86,109.5a43.5,43.5,0,0,0-1.47,4.34,45.83,45.83,0,0,0,6.06,1q20.22.6,40.46,1c9.83.2,19.67.24,29.51.4q16.74.27,33.47.65C183.88,117,185.86,117.26,188.61,117.51Z" transform="translate(-11.37 -7.84)" style="fill:#373c55"/><path d="M347.76,16.36c5.83-.43,11.1-.94,16.39-1.19,11.47-.53,23-.85,34.42-1.43,15.11-.77,30.21-1.8,45.32-2.56,12-.6,23.94-.94,35.92-1.45,14.29-.61,28.57-1.41,42.87-1.87,8.16-.27,10.51,2.2,11.06,10.51l3.36,50.28q1.5,22.39,3,44.8,2,29.12,4,58.22,1.49,21.41,3,42.8,1.9,27.61,3.8,55.24c.58,8.29,1.23,16.58,1.8,24.87a30.91,30.91,0,0,1,0,5c-.36,4-3.16,7-7.19,6.78s-8.24-.38-11.71-2c-14.09-6.61-29.27-8.86-44.27-11.81-14.21-2.79-28.43-5.63-42.75-7.7-10.67-1.54-21.52-1.93-32.3-2.74-4.3-.33-8.63-.68-12.94-.61a448.75,448.75,0,0,0-53.7,4.14q-9.15,1.25-18.3,2.38a12.64,12.64,0,0,1-2.59-.35c.45-3.19.85-6.23,1.31-9.26,5.43-35.54,11.12-71,16.17-106.62,2.19-15.46,3.41-31.09,4.39-46.68,1-16.11,1.78-32.27,1.57-48.39-.25-18.62-1.69-37.22-2.6-55.82C347.7,19.58,347.76,18.27,347.76,16.36ZM329.91,285.22c7.32-.91,13.71-1.79,20.13-2.46,11.24-1.18,22.48-2.61,33.75-3.21a281.55,281.55,0,0,1,30.47,0c12.77.7,25.58,1.62,38.21,3.52,16,2.39,31.75,5.89,47.62,8.87,10.64,2,21.26,3.87,31.2,8.55,3.56,1.68,7.6,2.43,11.49,3.23,4.74,1,7.15-1.2,7.3-6.14,0-.84,0-1.67,0-2.51l-2.16-31.35q-1.9-27.63-3.81-55.24c-.78-11.45-1.48-22.91-2.27-34.36-1.22-17.41-2.52-34.82-3.72-52.24-.82-12-1.5-23.9-2.31-35.85-.86-12.61-1.83-25.21-2.7-37.81-.71-10.29-1.33-20.58-2-30.87-.35-5-3.19-7.69-8.09-7.48q-14,.57-27.92,1.33c-15.11.82-30.21,1.75-45.32,2.58q-19.43,1.07-38.87,2c-15.12.71-30.25,1.2-45.36,2.12-4.88.3-10-.63-14.78,1.35,0,2.22-.14,4.21,0,6.17,1.38,17.94,2.41,35.89,2.14,53.88-.18,12.82-.43,25.64-1,38.44-.54,11.8-.9,23.66-2.5,35.34-4.76,34.78-10.09,69.49-15.21,104.22C332.81,266.3,331.41,275.32,329.91,285.22Z" transform="translate(-11.37 -7.84)" style="fill:#373c55"/><path d="M1376.32,659.48c11.34,0,22.68,0,34,0q69-.29,138-.62h2.5c6.76.06,9.05,3.07,7.12,9.56q-7.82,26.36-15.71,52.69-17.73,59.39-35.47,118.76a24.08,24.08,0,0,1-2.14,5.56,8.46,8.46,0,0,1-7.48,4.26c-3,0-6,.11-9,0-5.82-.25-11.62-.71-17.44-.93-11-.4-22-.65-32.94-1.05q-26.19-.95-52.38-2-24.69-1-49.37-2c-14.3-.61-28.59-1.31-42.88-1.93-6.31-.28-12.63-.55-19-.67-7.49-.14-9-2.15-6.61-9.18,9.56-27.9,19.46-55.69,28.64-83.71,8.51-26,16.26-52.16,24.35-78.25a41.87,41.87,0,0,1,1.31-4.3,9.39,9.39,0,0,1,9.37-6.16c8.51,0,17,0,25.52,0ZM1268.73,837.7c2.75.41,4.64.87,6.55.94,10.31.41,20.62.72,30.93,1.06,4.33.14,8.66.21,13,.4,11.12.5,22.25,1.1,33.38,1.56,10.31.43,20.62.69,30.93,1.11,14.46.6,28.91,1.32,43.37,1.89,10.81.43,21.63.7,32.44,1.05,4.66.15,9.32.35,14,.52,7.64.28,15.29.59,22.94.8,3.64.1,5.92-1.87,7.14-5.18.29-.78.44-1.6.68-2.4q25.35-84.74,50.69-169.48c2.27-7.57,1.62-8.49-6.17-8.47q-95.79.16-191.57.36c-7.33,0-14.67,0-22,0-8,0-9.46,1.07-11.71,8.64-4.12,13.89-7.91,27.9-12.47,41.64-12.9,38.9-26.13,77.68-39.21,116.52C1270.72,831.32,1269.91,834,1268.73,837.7Z" transform="translate(-11.37 -7.84)" style="fill:#373c55"/><path d="M803.35,318.49c-6.67,0-13.34-.06-20,0q-34.5.33-69,.74c-5.15.06-7.09-1.48-7.46-6.46-.42-5.64-.76-11.28-1-16.93-.4-10.65-.63-21.3-1.06-32-.56-14.13-1.28-28.25-1.88-42.38-.41-9.65-.7-19.3-1.11-29-.49-11.63-1.08-23.26-1.58-34.89-.17-3.83-.17-7.67-.3-11.5-.36-10-.56-20-1.18-29.94-.46-7.35,3.56-12.73,12.12-13.35,12.6-.91,25.19-2,37.79-3Q772.84,98,797,96.29c12.27-.87,24.56-1.61,36.84-2.44,4.15-.27,8.29-.66,12.44-.93,7.23-.48,10.38,2.28,10.09,9.5-.41,10-1.25,19.92-1.85,29.88-.53,9-.92,17.95-1.48,26.92-.79,12.78-1.72,25.55-2.52,38.33-.55,8.8-.93,17.62-1.48,26.42-.82,13.11-1.75,26.21-2.56,39.33-.55,9-.94,17.95-1.44,26.92-.3,5.31-.52,10.64-1.06,15.93a13.86,13.86,0,0,1-13.58,12.29c-9,.15-18,0-27,0Zm-32-2v-.38h55a31.39,31.39,0,0,0,4-.09c5.88-.72,10.48-5,11-10.61.71-8.11,1.21-16.24,1.69-24.37.53-9,.89-17.95,1.43-26.92.81-13.28,1.76-26.54,2.59-39.82.53-8.63.9-17.28,1.44-25.91.81-13.11,1.7-26.22,2.57-39.32.64-9.62,1.31-19.24,1.93-28.87.39-6,.84-12,1-17.93.14-4.82-2.52-7.23-7.08-6.87-10.44.83-20.87,1.71-31.31,2.46-15.76,1.13-31.52,2.17-47.28,3.26-13.43.92-26.87,1.8-40.3,2.83-6,.45-11.93,1-17.85,1.88-6.37.94-8.88,4.07-8.86,10.51,0,2.48.49,5,.58,7.45.37,10.81.69,21.63,1,32.44.13,4.16.21,8.33.39,12.49.51,12.13,1.08,24.26,1.6,36.39.39,9.31.72,18.62,1.09,27.93q.94,23.45,1.92,46.88c.43,10.48.84,21,1.39,31.43.22,4.29,1.05,5.1,5,5.11Q742.8,316.52,771.32,316.48Z" transform="translate(-11.37 -7.84)" style="fill:#373c55"/><path d="M1615.74,400.5a70.34,70.34,0,0,1-3.49,21.09q-12.11,35.22-24.18,70.44c-2,5.93-4,7.14-10.06,6q-47-8.47-93.88-17.05-45.7-8.31-91.4-16.65a36.66,36.66,0,0,1-3.91-.82c-4.14-1.22-6.3-4.35-5.87-8.65a24.62,24.62,0,0,1,1-4.36q9.38-32.42,18.76-64.81c.74-2.56,1.3-5.17,1.94-7.76,1.26-5,4.25-8.26,9.58-8.8,7.27-.73,14.56-1.36,21.85-2q26.84-2.32,53.67-4.59c14.25-1.19,28.52-2.25,42.77-3.43,17.9-1.49,35.78-3.08,53.68-4.57,5.47-.45,11-.87,16.43-1,4.36-.12,6.34,1.43,7,5.47,2.11,12.64,4.07,25.31,6,38A22.69,22.69,0,0,1,1615.74,400.5Zm-16.32-44.34c-19.68,1.71-38.56,3.39-57.45,5-17.57,1.48-35.15,2.83-52.72,4.26q-24.12,2-48.23,4c-7.79.64-15.58,1.24-23.37,1.91-7.09.61-9.3,2.59-10.88,9.45-.56,2.44-1.21,4.85-1.9,7.25q-9.25,32.19-18.53,64.37c-1.67,5.81-.26,8.06,5.62,9.16,7.36,1.38,14.74,2.7,22.11,4l101.74,18.48q31,5.64,61.93,11.26c5.39,1,6.22.44,8-4.81q12-35,24-70c2.88-8.46,4.28-17.19,3-26.09-1.67-11.37-3.66-22.68-5.63-34-.63-3.64-1.37-4.12-4.95-4.25C1601,356.13,1599.8,356.16,1599.42,356.16Z" transform="translate(-11.37 -7.84)" style="fill:#373c55"/><path d="M1002.06,1103.74c-9.33,0-18,0-26.6,0-1.16,0-2.31-.23-3.48-.25-12-.16-24-.24-36-.45-15.66-.28-31.31-.65-47-1q-20.73-.46-41.45-1c-4.16-.11-8.33-.25-12.46-.73-12.76-1.46-24.42-12.57-26-25.48-.8-6.55-.36-13.26-.22-19.9.25-11.82.77-23.63,1.06-35.45.51-21,.91-42,1.39-63,.14-6.24,3.12-9.39,9.18-9.31q28.23.38,56.45,1c9.32.2,18.64,1,27.94.86,12.42-.26,24.54,2,36.75,3.4,11.24,1.34,22.4,3.27,33.66,4.34,8.6.82,17.28.76,25.93,1,6.21.16,7.68,1.89,7.37,8.26-.59,12-.93,24-1.47,35.93s-1.2,23.92-1.78,35.88c-.43,9-.76,18-1.22,26.93C1003.5,1077.72,1002.77,1090.65,1002.06,1103.74Zm-2.82-2.48c.35-2.31.79-4.11.89-5.92q1.07-20.17,2-40.36,1-20.93,2-41.86t2-41.87a65.38,65.38,0,0,0,0-7c-.17-2.86-1.13-3.73-4-4-1-.09-2,0-3,0a295.51,295.51,0,0,1-47.7-3.79c-22.22-3.44-44.56-5.66-67.09-5.22-1.5,0-3,0-4.5,0-19.31-.44-38.62-.94-57.92-1.31-6-.12-7.72,1.72-7.9,7.62-.2,6.32-.49,12.64-.62,18.95-.47,23.31-.86,46.62-1.34,69.93-.14,7-.3,14-.74,21-1,15.82,11.42,29.9,27.2,30.52,10,.4,20,.77,29.94,1,22.64.54,45.28,1,67.92,1.46,14.15.31,28.3.71,42.45,1C985.45,1101.36,992.1,1101.26,999.24,1101.26Z" transform="translate(-11.37 -7.84)" style="fill:#373c55"/><path d="M675.05,319.21c-8.15.3-16.31.84-24.46.86-22.17,0-44.25-1.29-66.1-5.36-3.93-.73-7.84-1.59-11.78-2.27-6.32-1.09-11.46-7.4-11.72-13.76-.5-12-1.45-23.92-2.28-35.87-1.16-16.59-2.42-33.17-3.56-49.76-.87-12.62-1.63-25.25-2.42-37.87-.36-5.81-.85-11.62-1-17.44-.13-6.55,2.25-9.69,8.62-11.75q20.93-6.77,41.91-13.38,34.8-11,69.62-21.93c2.7-.84,5.44-1.58,8.21-2.18a24.31,24.31,0,0,1,5.44-.59c4.7,0,7.41,2.64,7.63,7.4.42,9,.65,18,1,26.95.47,10.47,1.07,20.93,1.56,31.4.21,4.33.27,8.66.41,13,.34,10.65.61,21.31,1,32,.57,14.13,1.28,28.26,1.89,42.39.41,9.49.72,19,1.09,28.46.28,7.15.5,14.3.88,21.45.32,6.25-1.68,8.51-8,8.56-6,.06-12,0-18,0Zm-15.66-2.11h31a25.36,25.36,0,0,0,4-.12c3-.48,4.27-2.12,4.15-5.19q-.66-18-1.33-35.93c-.16-4.16-.22-8.33-.4-12.49-.51-12-1.09-23.93-1.59-35.9-.4-9.48-.7-19-1.11-28.45-.6-14-1.32-27.93-1.88-41.89-.44-10.82-.7-21.64-1-32.46-.09-2.83-.14-5.67-.4-8.48-.41-4.49-3.07-6.43-7.53-5.61a39.2,39.2,0,0,0-4.37,1.07c-16.88,5.16-33.79,10.27-50.64,15.56-21.94,6.89-43.83,13.92-65.74,20.92-6.87,2.19-8.77,5-8.39,12.16.18,3.32.55,6.62.78,9.94q1.46,20.91,2.85,41.82c.52,7.81.92,15.62,1.46,23.42.8,11.45,1.69,22.89,2.52,34.33.68,9.46,1.23,18.93,2,28.37.56,6.68,3.79,10.47,10.23,11.81,19.26,4,38.7,6.74,58.4,7.1C641.4,317.24,650.39,317.1,659.39,317.1Z" transform="translate(-11.37 -7.84)" style="fill:#373c55"/><path d="M1397.92,215.69c-.1-.83-.25-1.65-.3-2.48-.38-6.69,2.86-11.19,9.45-12.75,8.59-2,17.23-3.89,25.85-5.8,22.6-5,45.2-10,67.82-14.89,5.2-1.12,10.49-1.88,15.77-2.55,7.11-.89,9,.61,10.12,7.59,1.71,10.52,3.24,21.07,5.14,31.55a97.9,97.9,0,0,0,13.68,35.19q5.74,9.09,11.36,18.26a95.92,95.92,0,0,1,14,42.82c.65,8.12,1.47,16.23,2.14,24.35.49,6-1.38,8-7.54,8.55-21.53,1.83-43.06,3.75-64.59,5.56-14.42,1.21-28.85,2.26-43.28,3.44-13.25,1.08-26.51,2.18-39.75,3.38-6.11.56-10.77-3.13-11.18-9.3-1-15.76-2-31.54-3-47.3-1.13-16.75-2.41-33.5-3.55-50.25-.57-8.3-.94-16.61-1.44-24.92-.21-3.48-.51-7-.78-10.44Zm172.14,117.87c-.33-3.64-.77-7.28-1-10.93-.88-16.13-3.69-31.8-11.68-46.07-4.48-8-9.52-15.66-14.31-23.47A104.91,104.91,0,0,1,1528.75,215c-1.67-10.18-3.27-20.37-4.94-30.55-.73-4.42-2-5.31-6.4-4.63-5.92.91-11.89,1.63-17.73,2.9-23.92,5.17-47.81,10.51-71.7,15.81-6.83,1.52-13.67,3-20.46,4.69-4.65,1.16-7.53,4.62-7.4,8.86.15,5.15.58,10.3.93,15.44.82,11.94,1.71,23.87,2.5,35.81.54,8.3.91,16.62,1.45,24.92.81,12.27,1.73,24.53,2.56,36.8.51,7.47.87,15,1.41,22.42.38,5.25,3.23,7.79,8.43,7.75,1.17,0,2.34,0,3.5-.1,9.27-.84,18.53-1.77,27.8-2.56q30.06-2.55,60.14-5c17.56-1.44,35.12-3,52.7-4.18C1571.83,342.67,1570.47,341.14,1570.06,333.56Z" transform="translate(-11.37 -7.84)" style="fill:#373c55"/><path d="M744.05,1135.75c-1.32-.15-2.29-.33-3.26-.35-9.33-.14-18.66-.12-28-.42-12.14-.39-24.26-1-36.39-1.57-9.8-.44-19.61-.81-29.41-1.41q-20.4-1.24-40.79-2.81c-10.11-.79-20.2-1.8-30.28-2.83-4.52-.46-5.06-1.18-5.2-5.58,0-.83,0-1.66,0-2.5.15-6.24,3-8.46,9.29-7.82,10.58,1.07,21.18,2,31.78,2.87,10.93.92,21.86,1.84,32.8,2.54,10,.64,19.94,1,29.91,1.47,12.8.57,25.59,1.18,38.38,1.59,9.16.29,18.33.25,27.49.44,7.65.15,15.31.22,23,.68,14.35.87,27.42,14.37,27.51,28.88.06,9.29-.88,18.59-1.37,27.89-.51,9.63-1,19.27-1.53,28.9-.27,4.82-.52,9.64-1,14.43-.42,4.15-2.39,6.08-6.52,5.89-5.64-.26-11.25-1-16.87-1.55-7.28-.68-14.57-1.32-21.85-2.06-4.37-.45-5.68-2.32-5.23-6.72q2.44-24.06,4.79-48.14,1.4-14.14,2.77-28.29C744.13,1138.31,744.05,1137.32,744.05,1135.75Zm3.16-2.26c-2.78,28.62-5.53,56.86-8.31,85.46,2.18.47,3.74.91,5.34,1.12,2.63.36,5.29.57,7.94.83,8.77.85,17.54,1.77,26.33,2.51,4.37.36,5.15-.39,5.85-4.76a49.86,49.86,0,0,0,.58-5.45c.5-9.47.94-19,1.45-28.43.61-11.29,1.65-22.58,1.84-33.88.25-15-11.82-27.56-26.7-28.49-3.66-.23-7.32-.32-11-.39-12.49-.24-25-.33-37.47-.67-11.32-.31-22.63-.83-33.94-1.32q-17.21-.76-34.4-1.68c-7.81-.41-15.62-.84-23.41-1.48-14.09-1.16-28.16-2.52-42.25-3.73-4.1-.34-5.67,1.22-5.94,5.46s.26,5,4.92,5.46c14.75,1.33,29.48,2.79,44.24,3.88,16.26,1.2,32.53,2.24,48.81,3,15.31.72,30.63,1,45.95,1.43,9.15.26,18.31.44,27.47.68A26.72,26.72,0,0,1,747.21,1133.49Z" transform="translate(-11.37 -7.84)" style="fill:#373c55"/><path d="M1065.69,335.28c-15.93-1.06-31.86-2.08-47.78-3.17q-28.36-2-56.73-4t-56.72-4c-11.27-.82-22.53-2-33.81-2.5A15.21,15.21,0,0,1,856.41,305c.7-10.45,1.31-20.91,2-31.37.54-8.29,1-16.59,1.7-24.87a11,11,0,0,1,10.46-10.28c8-.61,16-.92,23.92-1.45,12.1-.8,24.2-1.73,36.31-2.53,8.3-.55,16.61-.92,24.91-1.47,12.28-.8,24.54-1.74,36.82-2.53,8.63-.56,17.28-.91,25.91-1.48,11.94-.79,23.88-1.69,35.81-2.54.5,0,1,0,1.5-.07,9-.75,13.12,2.48,13.85,12,1.8,23.37,4,46.72,6.05,70.08.55,6.29,1.25,12.57,1.76,18.87.48,6-1.59,8.14-7.72,8.18h-4Zm8.92-10.55c-1.45-16.11-2.84-31.68-4.25-47.24-1.25-13.75-2.48-27.49-3.8-41.22-.48-5-2.8-7.08-7.75-7.23a38.15,38.15,0,0,0-4,.09c-13.76,1-27.52,2-41.28,2.87-15.43,1-30.86,2-46.29,3s-30.86,2-46.28,3q-24.4,1.55-48.79,3c-5.85.35-9.25,3.51-9.72,9.35-.45,5.47-.73,10.95-1,16.43-.7,12.28-1.34,24.57-2.09,36.86-.61,9.88,3.74,14.82,13.78,15.43,7.47.46,14.94.89,22.4,1.44,15.58,1.15,31.15,2.42,46.74,3.54,12.6.9,25.22,1.56,37.83,2.46,15.58,1.11,31.15,2.39,46.73,3.55,13.76,1,27.52,2,41.28,3,5.4.41,6.77-.89,6.54-6.41C1074.58,325.85,1074.61,325,1074.61,324.73Z" transform="translate(-11.37 -7.84)" style="fill:#373c55"/><path d="M26,927.5c0-6.65-.58-13.37.14-20,1.18-10.9,7.73-17.73,18.23-20.73Q68.14,880,91.94,873.33q43.77-12.33,87.54-24.59a24.22,24.22,0,0,1,6.36-1c3.48,0,5.61,2.18,5.46,5.68a24.08,24.08,0,0,1-1.36,6.28q-12.87,39.43-25.8,78.83c-1.7,5.23-3.16,10.53-4.64,15.82-7.75,27.64-30.05,47-58.43,50.31-9.31,1.07-18.58-.19-27.78-2.1-13.21-2.73-26.47-5.17-39.73-7.62-10.47-2-13.4-6.08-12-16.76,1.14-8.4,2.22-16.82,2.9-25.27s.82-16.95,1.2-25.42Zm67.5,74.8c21.44-.37,38.91-8.93,52.21-25.82,6.29-8,9.44-17.4,12.46-27,9.5-30.35,19.51-60.54,29.28-90.81.78-2.43,2.6-5.1.24-7.49-2.17-2.22-4.79-.6-7.08,0Q113.52,870,46.47,889C34,892.52,28.37,900.26,28.2,913.13c-.1,8-.59,16-.56,23.94.05,15-1.65,29.89-3.74,44.72A8.43,8.43,0,0,0,29.1,991a16.09,16.09,0,0,0,3.35,1c12.59,2.4,25.17,4.83,37.78,7.15C77.9,1000.57,85.48,1002.82,93.49,1002.3Z" transform="translate(-11.37 -7.84)" style="fill:#373c55"/><path d="M1225.7,1109c.38-5.35.65-10.14,1.1-14.92.86-9.28,1.83-18.54,2.74-27.81.65-6.69,2.06-7.7,8.62-8.42a176,176,0,0,0,20.13-3.45c9.74-2.22,19.28-5.47,29.09-7.23,8.47-1.51,17.19-1.73,25.82-2.2,13.46-.73,26.94-1.08,40.4-1.8,13.22-.7,26.26-.14,39.19,3.11,17,4.26,34,8.14,51,12.18.81.2,1.61.42,2.41.66,5.26,1.62,6.91,5.61,4.15,10.48-2.47,4.35-5.12,8.59-7.71,12.88-4.31,7.13-8.71,14.22-12.92,21.41-3.42,5.85-8.1,8.82-15.13,8.6-7.3-.24-14.64.56-22,.48-19.16-.2-38.32-.59-57.47-1-14.66-.28-29.31-.65-44-1-15-.34-30-.62-45-1C1239.66,1109.78,1233.05,1109.33,1225.7,1109Zm2.74-2.45a28.21,28.21,0,0,0,2.89.42q20.22.54,40.46,1,21,.51,42,1c15.49.35,31,.83,46.47,1,18,.17,36,0,54,.08,5.7,0,9.9-2,12.81-7,4.2-7.2,8.61-14.27,12.93-21.41,2.5-4.13,5-8.25,7.48-12.42,2.67-4.55,1.84-6.46-3.33-7.85-.48-.13-1-.19-1.47-.3-13.61-3.25-27.25-6.4-40.83-9.78-16.38-4.08-32.73-7.16-49.85-5.47-14.55,1.44-29.24,1.93-43.88,2-13.19.08-25.76,2.84-38.3,6.37-10.58,3-21.13,6.09-32.29,6.25-3.51.06-4.69,1.33-5.08,4.88-1,8.92-1.82,17.87-2.69,26.81C1229.27,1096.83,1228.88,1101.59,1228.44,1106.52Z" transform="translate(-11.37 -7.84)" style="fill:#373c55"/><path d="M1272.31,237.93c-.43,4.57-.31,8.57-1.26,12.3a103,103,0,0,1-5.27,15c-2.3,5.35-5.19,10.45-7.71,15.71a41.26,41.26,0,0,0-4.3,18.82c.25,13,.41,26,.66,39,.12,5.68,1.81,7.35,7.45,7.75q28.62,2,57.23,4,28.37,2,56.73,4c3.32.24,6.62.69,9.94.9,5.08.31,7.2-1.54,7.08-6.6-.17-6.82-.66-13.63-1.08-20.44-.72-12-1.44-23.91-2.26-35.86-1.15-16.76-2.42-33.5-3.58-50.26q-.81-12-1.39-23.92c-.4-8-3.14-10.18-11-9.51-8.45.72-16.94,1-25.41,1.53-12.45.81-24.88,1.75-37.32,2.56-8.64.55-17.28,1-25.92,1.43-1,0-2,0-3,.11-7.14.82-7.14.83-10.83,6.74-1.83-1.2-1.49-2.82-.76-4.32a7.58,7.58,0,0,1,6.68-4.53c7.14-.46,14.28-.9,21.42-1.39,12.44-.84,24.87-1.76,37.32-2.56,8.46-.55,16.94-.94,25.42-1.45,4.31-.25,8.62-.57,12.93-.9,8.82-.66,12.24,2.38,12.84,11.14,1.13,16.76,2.45,33.5,3.56,50.26.91,13.78,1.55,27.57,2.45,41.36.75,11.61,1.71,23.21,2.53,34.82.14,2,.1,4,.06,6-.11,5.66-3.06,8.65-8.72,8.47-5.32-.17-10.63-.63-15.93-1-8.13-.61-16.24-1.33-24.37-1.92-13.43-1-26.87-1.86-40.31-2.81-15.1-1.06-30.19-2.16-45.29-3.21-6.18-.43-9-3.21-9.12-9.5-.21-14.51-.29-29-.38-43.52,0-6,1.83-11.49,4.35-16.8,2.43-5.12,5-10.17,7.58-15.22a53.29,53.29,0,0,0,6.1-22C1269.51,240.74,1269.3,239.12,1272.31,237.93Z" transform="translate(-11.37 -7.84)" style="fill:#373c55"/><path d="M1351.74,648.48c-3.83,0-7.67,0-11.5,0-7.48-.11-11.7-5.45-9.67-12.65,5.14-18.27,10.45-36.5,15.72-54.74Q1361,530,1375.83,478.85c.27-1,.56-1.91.84-2.87,1.94-6.48,4.77-8.16,11.57-6.93,6.55,1.19,13.11,2.36,19.66,3.56,11.95,2.18,23.9,4.33,35.84,6.59,6.74,1.28,7.84,3.69,4.47,9.59-12.73,22.27-25.36,44.61-38.31,66.75-13.35,22.83-23.62,47-32.26,71.92-1.8,5.2-3.75,10.34-5.68,15.48-1.69,4.49-3,5.47-7.71,5.53C1360.08,648.52,1355.91,648.48,1351.74,648.48Zm96.32-165.4c-2.71-.7-4.42-1.24-6.17-1.57-8.5-1.59-17-3.13-25.53-4.68-9.5-1.73-19-3.49-28.49-5.18-5.27-.93-6.95.12-8.55,5.1-.21.63-.43,1.26-.61,1.9q-7.77,26.88-15.53,53.76c-9.89,34.23-19.65,68.5-29.79,102.66-1.94,6.52,2.07,11.27,8,10.88,7.3-.49,14.66-.24,22-.06,3.36.08,5.23-1.18,6.31-4.36,2.25-6.61,4.82-13.13,7.13-19.73,7.64-21.73,16.57-42.87,28-62.89q20.13-35.11,40.26-70.24C1446,487.13,1446.76,485.53,1448.06,483.08Z" transform="translate(-11.37 -7.84)" style="fill:#373c55"/><path d="M171.61,1110.12c3.85-8.16,9.25-14.39,16.34-18.6,13.74-8.17,27.52-16.41,42.55-22.06,21.43-8,43.45-9.38,65.88-5.07q41,7.88,81.95,15.67c5.3,1,8.08,3.74,7.07,7.75-1.42,5.6-2.85,9.6-10,8.25-16.53-3.11-33.05-6.3-49.57-9.43-12.93-2.44-25.79-5.45-38.81-7.13-26-3.33-55.47,10-69,38.72-.43.91-.78,1.85-1.22,2.74-2,4-4.7,5.15-9,3.75-1.27-.41-2.47-1-3.71-1.49l-27.88-11C174.78,1111.62,173.46,1111,171.61,1110.12Zm3.77-1.27c4.84,1.94,9.15,3.69,13.47,5.41,6.34,2.53,12.66,5.1,19.05,7.53,3.78,1.44,5,.87,6.71-2.71.51-1,1-2.12,1.48-3.17,13.28-27.65,44.23-44.09,76-38.44,16.22,2.89,32.37,6.18,48.56,9.26,11.61,2.22,23.23,4.38,34.83,6.61,1.86.35,3.95.87,5-1s2.14-4.31,2.06-6.45c-.09-2.61-2.86-2.82-5-3.26l-2-.4q-36-6.87-72.11-13.72c-12.41-2.36-24.76-4.58-37.56-3.72-13.63.91-26.85,3.41-39.15,9.19-12,5.66-23.74,12.1-35.39,18.54C184.75,1096.22,179.55,1101.61,175.38,1108.85Z" transform="translate(-11.37 -7.84)" style="fill:#373c55"/><path d="M855.39,914.87c0-3.78.09-6.62,0-9.45-.58-15.21,1.7-30.2,3.35-45.25.23-2.15.38-4.31.71-6.45.61-3.94,2.69-6,6.71-6,9.15.11,18.3.5,27.44.78,1.17,0,2.33.13,3.5.14,12.16.13,24.32.19,36.48.4q23,.39,45.94,1c8.65.21,17.3.42,25.93.91,6.34.37,8.66,3.44,8.36,9.77-.58,12.47-1,24.94-1.57,37.41-.55,11.8-1.25,23.59-1.88,35.38-.23,4.32-.39,8.64-.69,13-.37,5.23-1.91,6.66-7.2,6.79a243.79,243.79,0,0,1-45.31-2.72c-12.81-2.07-25.71-3.54-38.6-5.13a105.42,105.42,0,0,0-11-.55c-12.33-.24-24.65-.38-37-.61-3.16-.06-6.32-.24-9.48-.47-4.07-.3-6-2.18-6.06-6.4-.1-6.49.06-13,.14-19.49C855.22,916.59,855.36,915.26,855.39,914.87Zm135.25,35.79c4.26,0,7.93.11,11.59,0,3.48-.12,4.52-1.06,4.76-4.44.45-6.48.73-13,1-19.44q.68-13.21,1.29-26.42c.58-12.47,1.09-24.93,1.74-37.39.5-9.69-2.1-8.78-9.31-9.85a4.13,4.13,0,0,0-.5,0l-72.42-1.38c-11.65-.22-23.3-.37-35-.66-8.81-.22-17.62-.63-26.43-.9-3.2-.09-5,1.33-5.38,4.59-1.64,15-4.27,30-4.07,45.19.08,6.16-.06,12.33-.17,18.49-.09,6-.43,12-.36,18,0,3.62,1.25,4.57,5,4.7,10,.37,20,1.11,29.93.92,18.9-.35,37.52,2,56.18,4.49C962.72,948.35,976.81,951.32,990.64,950.66Z" transform="translate(-11.37 -7.84)" style="fill:#373c55"/><path d="M1281.59,846.87q14.48.6,28.94,1.19c12.14.52,24.27,1.11,36.41,1.59,5.82.23,11.66.23,17.49.43,2.82.09,5.65.28,8.45.63,5.1.65,7.54,3.72,6.89,9.06-.52,4.3-1.48,8.54-2.31,12.79q-8,41.22-16,82.43c-1.49,7.66-4.37,9.82-12.32,10.25-12.62.69-25.22,1.72-37.83,2.52-8.8.56-17.62.91-26.43,1.45-12.44.78-24.89,1.56-37.32,2.51-6.29.48-10.58-3.75-9.73-10.13,3.8-28.76,8.93-57.27,16.48-85.31,1.74-6.44,3.43-12.89,5.34-19.27,2.28-7.56,6.08-10.27,13.9-10.32,2.67,0,5.33,0,8,0Zm-32.13,121.92,0,.2c2.81-.26,5.61-.61,8.43-.78,12.45-.75,24.91-1.42,37.36-2.16,17.93-1.07,35.86-2.19,53.79-3.23,6.31-.37,8.6-2.27,9.79-8.46q3.21-16.67,6.45-33.35,5.71-29.43,11.41-58.86c1.31-6.81-.11-8.65-7.16-9.18-3.82-.29-7.66-.15-11.49-.32-10.63-.49-21.26-1.1-31.89-1.56-11.47-.5-23-.89-34.43-1.33-6-.23-12-.61-18-.65-6.2,0-9.43,2.52-11.41,8.45-.32,1-.61,1.91-.89,2.87a654.9,654.9,0,0,0-18.72,85.34c-.83,5.43-1.61,10.87-2.17,16.33-.47,4.49,1.93,6.94,6.37,6.9C1247.8,969,1248.63,968.86,1249.46,968.79Z" transform="translate(-11.37 -7.84)" style="fill:#373c55"/><path d="M1014.39,937.19c.38-9.47.72-19,1.16-28.43.55-11.63,1.18-23.26,1.8-34.89.25-4.82.54-9.63.83-14.44.35-5.67,4-8.73,9.62-8.12a37.83,37.83,0,0,0,4,.36c12.17.15,24.34.2,36.51.41q23.22.39,46.45,1c9.49.24,19,.63,28.45,1,5.43.2,8.24,2.73,8.09,7.95-.35,12-1,23.94-1.5,35.9-.18,4.17-.29,8.33-.43,12.49-.34,10.15-.66,20.3-1,30.45-.16,4.49-.49,9-.63,13.46-.2,6.21-3.48,9.48-9.4,8.89-8.11-.8-16.24-1.41-24.35-2.19-23.68-2.3-47.33-4.72-71-6.9-7-.64-14-.73-20.94-.91-6.61-.17-7.75-1.24-7.79-8,0-2.67,0-5.33,0-8Zm22.7-83v-.16c-2.84,0-5.67,0-8.5,0-6.14-.08-7.74,1.35-8,7.41q-1,21.18-2,42.36c-.18,4-.28,8-.48,12-.48,9.63-1.13,19.25-1.46,28.88-.18,5.34.71,6,6.08,6.11,6.66.14,13.35,0,20,.54,18.38,1.65,36.72,3.63,55.08,5.48,12.73,1.29,25.47,2.53,38.2,3.88,6.47.69,8.93-1.12,9.31-7.78.5-9,.73-18,1.06-26.93.36-9.81.68-19.63,1.09-29.44.19-4.64.64-9.28.8-13.93.24-6.83.42-13.66.42-20.49,0-3.33-1.63-5-4.71-5.36-3.3-.33-6.62-.58-9.94-.67q-21.46-.57-42.93-1C1073.05,854.76,1055.07,854.51,1037.09,854.22Z" transform="translate(-11.37 -7.84)" style="fill:#373c55"/><path d="M1130.12,1048c-16-1-31.3-2-46.58-2.92-12.28-.76-24.57-1.45-36.86-2.21q-15.93-1-31.87-2c-3.46-.23-5.2-1.91-5.21-5.38,0-3.82.37-7.64.57-11.45q1-18.45,2-36.88c.39-7.48.67-15,1-22.44.29-5.59,1.67-6.74,7.44-6.93,13.52-.43,26.95.72,40.38,2.09,25,2.55,50,4.89,75,7.35a25.65,25.65,0,0,1,5.38,1c3.34,1.1,5.33,4.75,4.9,8.94q-1.47,14.4-3.11,28.77c-1.24,10.91-2.55,21.81-3.82,32.72,0,.16,0,.33,0,.5C1138.37,1046.8,1138.5,1049.2,1130.12,1048Zm-100.76-88.26,0,.42c-2.67,0-5.34-.05-8,0-4.52.11-5.53,1.09-5.76,5.6-.37,7.31-.69,14.63-1,21.94-.18,4-.28,8-.49,12-.6,11.46-1.28,22.92-1.82,34.39-.16,3.29.63,3.88,4.16,4.13,7.62.53,15.25,1.12,22.88,1.61,15.94,1,31.88,2.06,47.82,3,14.78.88,29.57,1.64,44.36,2.46,4.15.23,4.41,0,4.93-4.16.57-4.62,1.09-9.25,1.61-13.88,1.81-16.37,3.67-32.74,5.38-49.12.6-5.71-1-7.58-6.72-8.16-12.91-1.33-25.82-2.54-38.73-3.83s-25.81-2.66-38.73-3.88C1049.26,961.36,1039.31,960.6,1029.36,959.77Z" transform="translate(-11.37 -7.84)" style="fill:#373c55"/><path d="M1151.52,955.64c.65-12.29,1.22-22.58,1.73-32.87.21-4.16.28-8.32.42-12.48.33-10,.63-19.95,1-29.93.24-6.14.59-12.29,1-18.42.32-4.72,2.92-7.07,7.77-7.24a132.43,132.43,0,0,0,34.41-5.37,111.63,111.63,0,0,1,27.9-5.14,120.78,120.78,0,0,1,17.42.74c4.47.46,7.08,5,5.92,9.85-1.2,5-2.78,9.94-4.12,14.92a631,631,0,0,0-17.53,89.6c-.75,6.35-4.45,12.38-13.27,11.53q-14.64-1.41-29.28-2.81c-7.28-.7-14.54-1.66-21.84-2.11C1154.84,965.41,1150.89,963.53,1151.52,955.64Zm3.07-7.31h-.26c0,3-.09,6,0,9a5.23,5.23,0,0,0,4.29,5.38,23.55,23.55,0,0,0,3.47.47c8.26.86,16.53,1.74,24.8,2.55,8.94.86,17.87,1.84,26.83,2.41,7.19.46,10-2.22,11-9.2,2.36-15.3,4.31-30.69,7.49-45.81,4-19.22,9.1-38.23,13.78-57.31,1.34-5.45-.32-8.31-5.54-8.69-11.87-.86-23.63-.24-35.16,3-3.69,1-7.42,1.92-11.1,3a113.52,113.52,0,0,1-29.1,4c-5,.11-6.51,1.53-6.82,6.47q-.39,6-.64,12c-.18,4.33-.22,8.66-.43,13-.49,10.13-1.1,20.25-1.56,30.39C1155.26,928.7,1155,938.51,1154.59,948.33Z" transform="translate(-11.37 -7.84)" style="fill:#373c55"/><path d="M1239.36,1055c-5.67.48-8.61-2-7.93-9,1.41-14.56,2.77-29.13,4.17-43.7.54-5.62.91-11.27,1.78-16.84,1-6.19,4.24-9.15,10.29-9.59,10.44-.78,20.9-1.35,31.35-2,12.44-.84,24.87-1.76,37.31-2.55,8.8-.56,17.61-.95,26.41-1.46,2.15-.13,4.29-.45,6.44-.59,5.77-.39,8.83,2.9,7.76,8.55q-5.07,26.76-10.31,53.47c-1.28,6.5-4.57,9.4-11.34,9.86-8.13.55-16.28,1.06-24.42,1.11a152.06,152.06,0,0,0-41.29,6.41c-8.46,2.43-17.16,4-25.76,6A38.72,38.72,0,0,1,1239.36,1055Zm107.34-82.92-14.44.91c-14.44.93-28.88,1.9-43.32,2.81-12.79.8-25.58,1.48-38.36,2.33-8,.54-10.51,3.18-11.19,11.09-.72,8.45-1.6,16.88-2.41,25.32-1,10.93-2.16,21.85-3.14,32.78-.3,3.33,1.21,4.9,4.7,4.88a36.36,36.36,0,0,0,7.94-.76c9.24-2.15,18.46-4.4,27.63-6.84,8.56-2.28,17.13-4.2,26-4.45,6.65-.19,13.3-.63,19.94-.91,4.17-.17,8.36,0,12.49-.46,6.7-.79,10.15-.62,12-10.54,3-16,6.18-32.06,9.24-48.1C1355.25,972.6,1354.48,971.78,1346.7,972.11Z" transform="translate(-11.37 -7.84)" style="fill:#373c55"/><path d="M554.29,1124.32c-14.4-1.75-29.62-3.33-44.76-5.51-23.21-3.35-46.39-7-69.54-10.75-13.47-2.18-26.87-4.81-40.29-7.25a30.06,30.06,0,0,1-3.4-.82,4.4,4.4,0,0,1-3.23-4.54c0-7.07,5.15-11.39,12.27-10.2,7.88,1.31,15.69,3,23.58,4.32,26.77,4.32,53.53,8.7,80.35,12.68,16,2.37,32,4,48,6,5.21.65,7,2.81,6.73,7.94,0,.16,0,.33-.06.49C563.64,1125.79,561.19,1124.3,554.29,1124.32Zm-158.66-28.16c8.37,4.38,113,21,160.53,25.72a29,29,0,0,0,4.39-.27c.23-1.41.45-2.37.54-3.34.59-6.24.3-6.79-6-7.61-17.32-2.25-34.69-4.08-52-6.58-22.4-3.24-44.74-6.86-67.08-10.5-10.68-1.73-21.29-3.9-31.94-5.8-3.6-.64-5.3.28-6.76,3.5C396.66,1092.76,396.25,1094.36,395.63,1096.16Z" transform="translate(-11.37 -7.84)" style="fill:#373c55"/><path d="M135.38,1095.62c-2.32-.78-3.74-1.2-5.12-1.74L23,1051c-1.09-.43-2.18-.85-3.22-1.37-5.88-2.91-9.07-8.14-8.32-14.61a117.26,117.26,0,0,1,2.8-15.21c1.59-6.29,7-9.45,13.39-8.23q27,5.13,54,10.33c30.47,5.92,52.29,32.62,54.06,60.43.17,2.65.55,5.3.56,8A33.07,33.07,0,0,1,135.38,1095.62Zm-2-3.64c.13-1.71.31-2.86.27-4-.95-30.72-21.23-54.62-47.26-62-5.11-1.46-10.39-2.34-15.61-3.36q-21.57-4.2-43.16-8.27c-4.92-.94-9.29,1-10.42,5.42a112,112,0,0,0-2.93,17.17c-.44,4.58,2.28,7.86,6.19,10.06a32.88,32.88,0,0,0,4.14,1.74l103.93,41.54C130,1090.83,131.57,1091.33,133.39,1092Z" transform="translate(-11.37 -7.84)" style="fill:#373c55"/><path d="M1222.74,987.57q-2.1,22.08-4.18,44.17c-.42,4.47-.76,8.94-1.2,13.41-.55,5.56-3.81,8.4-9.35,8-14.76-1-29.51-2-44.26-3-4.81-.33-9.62-.57-14.43-.87-5.58-.35-6.81-2-6.16-7.61q2.8-24.27,5.47-48.56c.61-5.44,1.08-10.91,1.73-16.35.54-4.52,3.05-7,7.62-6.85,6.47.2,12.94.78,19.39,1.39,11.75,1.11,23.47,2.37,35.21,3.57,1.32.13,2.67.16,4,.42a7.24,7.24,0,0,1,6.18,7.29C1222.8,984.24,1222.74,985.9,1222.74,987.57Zm-77.35,58.29c2.45.42,4.22.89,6,1q27.88,1.77,55.77,3.46c5.22.32,7.07-1.14,7.56-6.17q2-20.1,3.87-40.21c.6-6.29,1.34-12.57,1.73-18.87.31-5-1.08-6.57-6-7.24s-9.91-1.14-14.86-1.64c-12.58-1.27-25.16-2.42-37.73-3.77-6.37-.69-8.33.84-9,7.36-1.93,17.53-4,35-5.91,52.56C1146.24,1036.61,1145.88,1040.9,1145.39,1045.86Z" transform="translate(-11.37 -7.84)" style="fill:#373c55"/><path d="M1084.59,323.29c.33,1.35.65,2.7,1,4,1.05,4.12,3.46,6.79,7.88,7.17,8,.68,15.9,1.36,23.86,1.94q20.64,1.51,41.3,2.89c15.59,1.07,31.19,2.07,46.79,3.19,10.77.77,21.53,1.7,32.3,2.55,4.81.38,6.26-1.77,6.11-5.65-.49-12.65-.94-25.3-1-37.95a55.85,55.85,0,0,1,5.42-25.18c2.59-5.23,5.11-10.49,7.81-15.66a45.6,45.6,0,0,0,5.36-19.59,8,8,0,0,1,.34-1.94c.07-.24.45-.39,1.08-.88a10.35,10.35,0,0,1,.87,2.54c.44,7-1.49,13.53-4.5,19.76-2.69,5.55-5.57,11-8.24,16.56a50.89,50.89,0,0,0-5.25,26.63c0,.16,0,.33,0,.5.22,11.82.5,23.64.64,35.47.07,6.3-1.69,8.1-8.08,7.78-10.29-.53-20.58-1.36-30.86-2.06-15.93-1.09-31.86-2.15-47.78-3.29q-25.87-1.85-51.74-3.79c-4.81-.35-9.63-.6-14.42-1.08-6.41-.65-10.43-4.79-10.81-11a9.61,9.61,0,0,1,.79-2.94Z" transform="translate(-11.37 -7.84)" style="fill:#373c55"/><path d="M1135.66,1107.2c1.51-13.39,2.89-25.77,4.29-38.14.43-3.8.87-7.6,1.36-11.39.64-5,1.69-6,6.82-5.73,8.31.37,16.62.85,24.92,1.39,9.12.58,18.24,1.27,27.36,2,2.65.19,5.31.37,7.93.74,4.6.65,7.17,3.42,7,8.18-.28,6.3-1,12.59-1.6,18.88q-1,11.18-2.11,22.35a35.86,35.86,0,0,1-.79,3.54Zm73.21-.82c.42-4.37.78-8.15,1.14-11.93.9-9.44,1.91-18.87,2.67-28.32.42-5.33-1.39-7.38-6.71-7.79-9.78-.77-19.58-1.41-29.37-2-8.8-.56-17.62-.9-26.41-1.61-5.48-.44-5.94-.26-6.56,5.17-1.29,11.41-2.64,22.81-3.93,34.22-.38,3.4-.62,6.83-1,10.68Z" transform="translate(-11.37 -7.84)" style="fill:#373c55"/><path d="M1076.2,236.8c-2.5-5.11.16-10.6,5.26-11.56a110.84,110.84,0,0,1,12.9-1.21q19.16-1.36,38.32-2.61c8.47-.54,17-.89,25.42-1.44,12.27-.79,24.54-1.72,36.82-2.53,8.13-.53,16.28-.95,24.42-1.45,9.79-.6,19.58-1.27,29.37-1.83a64.4,64.4,0,0,1,9-.08c4.48.37,6.51,3.81,5.23,8.38-.31-.06-.81,0-.89-.2-2.7-5.78-3.42-6.3-9.86-5.87-17.08,1.15-34.16,2.44-51.25,3.55-13.94.91-27.91,1.57-41.85,2.45-11.95.77-23.88,1.74-35.82,2.54-8.47.56-17,.95-25.42,1.45-4.15.24-8.3.46-12.44.85-5.36.51-6.76,1.81-8.2,7.07C1077.05,234.9,1076.75,235.45,1076.2,236.8Z" transform="translate(-11.37 -7.84)" style="fill:#373c55"/><path d="M1069.52,347.66l-.86,1.17-1.18-1.11c.31-.3.6-.8.93-.83S1069.08,347.34,1069.52,347.66Z" transform="translate(-11.37 -7.84)" style="fill:#373c55"/><path d="M1349.9,423.82l-130,427.85a41.56,41.56,0,0,1-39.76,29.47H841.53L837,948.25A24.36,24.36,0,0,1,812.74,971H795.93l-4.8,99a35.83,35.83,0,0,1-39.41,33.91l-435.35-44.31c-53-5.39-102.18-24.46-103.83-77.74-1-30.94,47.35-167.1,69.52-275.26l50.86-342.23a42,42,0,0,1,43.61-33.67l947.33,55.82A29,29,0,0,1,1349.9,423.82Z" transform="translate(-11.37 -7.84)" style="fill:#150e22"/><path d="M1332.94,363.22,1203,791.06a41.55,41.55,0,0,1-39.76,29.48H824.58l-4.5,67.11a24.36,24.36,0,0,1-24.3,22.73H779l-4.8,99a35.83,35.83,0,0,1-39.41,33.91L299.42,998.94c-53-5.4-102.18-24.46-103.84-77.75-1-30.93,47.35-167.09,69.52-275.26L316,303.71A41.94,41.94,0,0,1,359.57,270l947.34,55.83A29,29,0,0,1,1332.94,363.22Z" transform="translate(-11.37 -7.84)" style="fill:url(#radial-gradient-10)"/><g id="dfdfvdv"><path id="lkjh" d="M624.72,334.77h.43c-1.45,0-2.9,0-4.35,0Z" transform="translate(-11.37 -7.84)" style="fill:none"/><polygon id="gv" points="587.13 661.72 588.01 664.56 577.65 631.04 587.13 661.72" style="fill:none"/><path id="fd" d="M844.62,555.34l-1.39.42c.62-.19,1.25-.37,1.88-.54Z" transform="translate(-11.37 -7.84)" style="fill:none"/><path id="gfd" d="M551.9,338.79c.12-1.26.22-2.53.31-3.79l.09-1.4q-.22,3.51-.58,7C551.78,340,551.85,339.4,551.9,338.79Z" transform="translate(-11.37 -7.84)" style="fill:none"/><path id="gfd-2" data-name="gfd" d="M551.67,341.12c-.25,2.36-.53,4.71-.87,7.06q.47-3.19.81-6.42Z" transform="translate(-11.37 -7.84)" style="fill:none"/><path id="tfd" d="M956.37,745.1c.38-1.78.78-3.55,1.21-5.33-.41,1.72-.81,3.44-1.18,5.17Z" transform="translate(-11.37 -7.84)" style="fill:none"/><path id="hhgfd" d="M991.16,505.37q-.31,3.92-.54,7.83.23-3.93.54-7.85Z" transform="translate(-11.37 -7.84)" style="fill:none"/><path d="M719.48,691.52c-.29-1.14-.55-2.29-.79-3.45.23,1.11.48,2.21.76,3.31Z" transform="translate(-11.37 -7.84)" style="fill:none"/><path d="M991.23,504.56q.3-3.54.67-7.08l0,.35C991.63,500.07,991.42,502.32,991.23,504.56Z" transform="translate(-11.37 -7.84)" style="fill:none"/><path d="M838.35,604.2c2.39-.44,4.78-.87,7.18-1.25-1.38.22-2.74.44-4.11.68C840.39,603.81,839.38,604,838.35,604.2Z" transform="translate(-11.37 -7.84)" style="fill:none"/><path d="M901,484c-.19-.86-.38-1.72-.54-2.58,0,.15,0,.31.07.47C900.62,482.55,900.79,483.25,901,484Z" transform="translate(-11.37 -7.84)" style="fill:none"/><path d="M1149.16,792.24l2.22,0-1,0Z" transform="translate(-11.37 -7.84)" style="fill:none"/><polygon points="1093.33 525.84 1093.41 525.9 1093.33 525.84 1093.33 525.84" style="fill:none"/><path d="M1122.05,521c-.81,1.35-1.63,2.69-2.51,4,.5-.74,1-1.48,1.46-2.23C1121.37,522.14,1121.7,521.54,1122.05,521Z" transform="translate(-11.37 -7.84)" style="fill:none"/><path d="M542.19,398.27a7,7,0,0,0-7.09,4.54l-24.84,68.05a4.1,4.1,0,0,0,2.52,5.28,4.45,4.45,0,0,0,1.07.23A138.68,138.68,0,0,0,586,462.72,12.39,12.39,0,0,0,593,452.55l3.39-44.77a5.52,5.52,0,0,0-5.16-5.89l-9.62-.71-.21,2.74-27.86-2.05.21-2.75Z" transform="translate(-11.37 -7.84)" style="fill:#160d22"/><path d="M741,474.22a145.73,145.73,0,0,0,41.23,6,7.48,7.48,0,0,0,1.5-.15L784,480a6.13,6.13,0,0,0,1.05-.34l.11,0a8.9,8.9,0,0,0,1-.52l.17-.12a8.57,8.57,0,0,0,.82-.64l.26-.25a8.67,8.67,0,0,0,.64-.72l.18-.23a6.8,6.8,0,0,0,.62-1,2.55,2.55,0,0,0,.13-.29,8.16,8.16,0,0,0,.33-.9c0-.13.07-.24.1-.37a7.48,7.48,0,0,0,.2-1.27l3-49a6.42,6.42,0,0,0,0-1.08c0-.12,0-.23-.06-.35a5,5,0,0,0-.17-.69l-.12-.37c-.09-.22-.19-.44-.3-.65l-.15-.29a7,7,0,0,0-.6-.83l-.09-.08a5.71,5.71,0,0,0-.66-.64l-.29-.2c-.19-.14-.38-.26-.58-.38l-.37-.18a2.53,2.53,0,0,0-.23-.12,3.84,3.84,0,0,0-.41-.13l-.36-.12a6.37,6.37,0,0,0-1.06-.19l-42.26-3.16a6,6,0,0,0-6.38,5.49v.08l-2.84,46.32A7.45,7.45,0,0,0,741,474.22Z" transform="translate(-11.37 -7.84)" style="fill:#160d22"/><path d="M727.46,517.14a3,3,0,0,0-3.19-2.74,3.24,3.24,0,0,0-.62.12l-32.2,9.58a3,3,0,0,0-2,3.7v0l3.41,11a4.44,4.44,0,0,0,4,3.13l32.21,1.63a3,3,0,0,0,3.12-2.82,3.16,3.16,0,0,0-.16-1.1Z" transform="translate(-11.37 -7.84)" style="fill:#160d22"/><path d="M715.32,632.17c-.42-1.75-.9-3.5-1.44-5.23l-10.12-32.72a3,3,0,0,0-3.54-2q-2.54.62-5,1.38l-24.47,7.57c-1.67.52-3.31,1.08-4.94,1.69a3,3,0,0,0-1.79,3.66l11.64,37.64a4.31,4.31,0,0,0,.32.77l.16.26c.07.11.13.22.2.32l.1.11c.06.08.13.15.19.22l.37.37.21.17a4.45,4.45,0,0,0,.51.33l.15.09a4.55,4.55,0,0,0,.72.3l.2,0a3.47,3.47,0,0,0,.56.11l.28,0h.55l.26,0a4.53,4.53,0,0,0,.8-.16l31.09-9.62a4.3,4.3,0,0,0,.73-.3l.23-.14a4,4,0,0,0,.43-.28l.22-.19c.13-.11.24-.22.36-.34l.18-.21a5.85,5.85,0,0,0,.34-.48s.06-.09.08-.14a4.32,4.32,0,0,0,.32-.69c0-.06,0-.13,0-.2a3.27,3.27,0,0,0,.13-.54,2.54,2.54,0,0,0,0-.29,2.66,2.66,0,0,0,0-.28s0-.08,0-.13A4.62,4.62,0,0,0,715.32,632.17Z" transform="translate(-11.37 -7.84)" style="fill:#160d22"/><path d="M444.21,686.05l-5.81,27.67a3.09,3.09,0,0,0-.06.67,1.1,1.1,0,0,0,0,.18,2.42,2.42,0,0,0,.07.47s0,.07,0,.1a.78.78,0,0,0,.05.14c0,.1.07.2.12.3s.08.17.13.25l.15.24.19.23.19.2.22.18.24.17.25.14.26.11.3.1.15,0h.09a2.59,2.59,0,0,0,.48,0h.18a2.53,2.53,0,0,0,.66-.11l56-15.77a3,3,0,0,0,2.06-3.67s0,0,0-.07l-8-25.75a3,3,0,0,0-3.72-2l-41.2,12.74A4.46,4.46,0,0,0,444.21,686.05Z" transform="translate(-11.37 -7.84)" style="fill:#160d22"/><path d="M543.79,608.11a71.68,71.68,0,0,0,3.12,24.44l2,6.58a4.46,4.46,0,0,0,5.58,2.94l32.39-10,18.77-5.81c2.35-.73,4.67-1.55,7-2.48a3,3,0,0,0,1.72-3.63l-9.77-31.61a3,3,0,0,0-3.5-2q-2.77.63-5.51,1.47l-20.34,6.29L548,602.7A5.94,5.94,0,0,0,543.79,608.11Z" transform="translate(-11.37 -7.84)" style="fill:#160d22"/><path d="M540.06,386.59a4.46,4.46,0,0,0,2.68,5.71,4.36,4.36,0,0,0,1.18.25l61.86,4.63,41.54,3.11,15.43,1.15a6,6,0,0,0,6.38-5.49v-.07l1-15.76,2-31.9c0-.43,0-.86.07-1.29.06-1,.11-2,.16-3s.1-2.25.14-3.37a5.83,5.83,0,0,0-.11-1.33s0-.06,0-.08a4.14,4.14,0,0,0-.18-.6c0-.12-.06-.25-.11-.37a5.83,5.83,0,0,0-.48-1,1.47,1.47,0,0,1-.1-.13,5.65,5.65,0,0,0-.56-.73,3.07,3.07,0,0,0-.26-.25,4.69,4.69,0,0,0-.53-.47c-.11-.09-.24-.16-.36-.24a6.16,6.16,0,0,0-.55-.33l-.42-.19-.62-.22-.43-.11c-.23-.05-.47-.07-.71-.1s-.2,0-.3,0h-.26l-15.75.13-25.57.21h-.43l-3.92,0c1.45,0,2.9,0,4.35,0L563.7,329l-4.31-.85a5.94,5.94,0,0,0-7,4.68,6.65,6.65,0,0,0-.1.78l-.09,1.4c-.09,1.26-.19,2.53-.31,3.79,0,.61-.12,1.21-.18,1.81q.36-3.5.58-7l-1.5,14.58c.34-2.35.62-4.7.87-7.06l-.06.64q-.35,3.23-.81,6.42l-2.35,8.6L541,384.08Z" transform="translate(-11.37 -7.84)" style="fill:#160d22"/><path d="M605.17,461.62l54.74-9.09A5.94,5.94,0,0,0,666,447l1.75-28.2.24-3.87a5.94,5.94,0,0,0-5.49-6.3l-37.94-2.84-13.34-1a6,6,0,0,0-6.38,5.49l-1.17,15.71-2.44,32.67a3,3,0,0,0,2.75,3.18A2.71,2.71,0,0,0,605.17,461.62Z" transform="translate(-11.37 -7.84)" style="fill:#160d22"/><path d="M534.25,791.94l1.32,4.26a3,3,0,0,0,3.72,2l11.36-3.51,30.08-9.3a4.46,4.46,0,0,0,3-5.45c-.23-.85-.47-1.69-.73-2.53l-5.57-18-.52-1.7-1.32-4.26-.53-1.71L570,735.32a4.46,4.46,0,0,0-5.58-3L522.91,745.2a3,3,0,0,0-2,3.72Z" transform="translate(-11.37 -7.84)" style="fill:#160d22"/><path d="M488.19,884.18a3,3,0,0,0-2.7-3.22h-.07l-67.82-4.48a4.46,4.46,0,0,0-4.75,4.15.37.37,0,0,1,0,.11l-1,25.39-.51,12.21-1.89,45.6,0,.47-.9,11.4c0,.37-.08.73-.13,1.1a5.06,5.06,0,0,0,0,.87,4.44,4.44,0,0,0,1.39,2.92,4.38,4.38,0,0,0,2.22,1.14l9.74,1.85q26,5,52.18,9.06a4.45,4.45,0,0,0,5.09-3.72c0-.1,0-.2,0-.3l5.5-62.4.84-9.57Z" transform="translate(-11.37 -7.84)" style="fill:#160d22"/><path d="M679.31,454.16l41.59,12.48q2.33,1.08,4.69,2.07a3,3,0,0,0,4.12-2.55l2.85-46.45a6,6,0,0,0-5.5-6.3l-30.46-2.28-6-.45-3.92-.29-4.07-.3a6,6,0,0,0-6.38,5.48v.08l-2,32.26A6,6,0,0,0,679.31,454.16Z" transform="translate(-11.37 -7.84)" style="fill:#160d22"/><path d="M587.43,543.14a3,3,0,0,0-.89.44l-13.75,10.16a71.72,71.72,0,0,0-26.46,38.44,3,3,0,0,0,2.07,3.66,2.91,2.91,0,0,0,1.68,0l43.73-13.52c1.68-.52,3.38-1,5.09-1.39a3,3,0,0,0,2.21-3.58c0-.07,0-.13-.05-.19l-9.91-32A3,3,0,0,0,587.43,543.14Z" transform="translate(-11.37 -7.84)" style="fill:#160d22"/><path d="M660.12,594a3,3,0,0,0,3.72,2l.15-.05q2.28-.85,4.62-1.57l24.47-7.56q2.32-.72,4.7-1.32a3,3,0,0,0,2.15-3.61.83.83,0,0,0,0-.15l-3.14-10.15a3,3,0,0,0-3.72-2l-.33.13-10.3,3.87L664,579.29c-1.55.48-3.12.92-4.7,1.31a3,3,0,0,0-2.15,3.61.83.83,0,0,0,0,.15Z" transform="translate(-11.37 -7.84)" style="fill:#160d22"/><path d="M781.84,585.57a4.31,4.31,0,0,0,0-.81c0-.09,0-.18,0-.26a4.56,4.56,0,0,0-.13-.53l-.09-.27a4.9,4.9,0,0,0-.24-.52c0-.06-.06-.12-.1-.18a4.53,4.53,0,0,0-.45-.63l-.13-.12a4.37,4.37,0,0,0-.44-.42l-.22-.16a4,4,0,0,0-.44-.27l-.26-.14-.13-.07-.34-.11-.33-.1a3.57,3.57,0,0,0-.64-.11l-.16,0h0a5,5,0,0,0-.55,0h-.24a4.08,4.08,0,0,0-.77.17l-10.93,3.37-22.31,4-27,1.49-3.21.18a3,3,0,0,0-2.81,3.13,3,3,0,0,0,.13.72h0s0,0,0,0v0l9.65,31.2c.37,1.2.71,2.41,1,3.62a4.26,4.26,0,0,0,.3.82,3.37,3.37,0,0,0,.22.35,4.05,4.05,0,0,0,.21.35l0,0c0,.06.11.11.15.17a5.33,5.33,0,0,0,.4.42l.2.17a3.19,3.19,0,0,0,.44.31l.22.14a3.87,3.87,0,0,0,.55.25l.17.07a5.11,5.11,0,0,0,.75.18l.22,0a5.49,5.49,0,0,0,.58,0l.27,0a5.4,5.4,0,0,0,.58-.09l.17,0,.17-.05L771.18,618a13.37,13.37,0,0,0,9.4-12Z" transform="translate(-11.37 -7.84)" style="fill:#160d22"/><path d="M771.92,738.17c-.2-3.19-1.36-5.92-5.35-4.68L597.45,785.78a4.45,4.45,0,0,0-3.11,4.83,93.32,93.32,0,0,1-4.49,42.74l-14.67,41.91c-3.48,10,26.67,6.47,31.33,6.26,14.21-.63,28.36-2.22,42.49-3.85,28.58-3.27,57.49-6.9,86.23-3.38,4.38.54,8.81,1.24,13.18.66,12.21-1.61,11.05-10.79,12.06-20.72l3.72-36.71q3.7-36.71,7.43-73.42A36.46,36.46,0,0,0,771.92,738.17Z" transform="translate(-11.37 -7.84)" style="fill:#160d22"/><path d="M579.29,722.16l32.39-10,25.57-7.91a3,3,0,0,0,2-3.72l-6.58-21.28a4.47,4.47,0,0,0-5.58-3l-24.15,7.47L592.44,687q-7.25,2.24-14.53,4.29l-7.4,2.09a3.85,3.85,0,0,0-.76.29l-.23.13a4.53,4.53,0,0,0-.46.3l-.22.17a5.18,5.18,0,0,0-.41.4l-.14.15a4.09,4.09,0,0,0-.45.64,1.11,1.11,0,0,0-.07.16,3.87,3.87,0,0,0-.25.55c0,.09,0,.18-.08.26a4.64,4.64,0,0,0-.11.51,1.45,1.45,0,0,0,0,.29l0,.15c0,.11,0,.22,0,.32s0,.26,0,.39a4.51,4.51,0,0,0,.1.53c0,.09,0,.17,0,.26l0,.11,6.26,20.23A4.46,4.46,0,0,0,579.29,722.16Z" transform="translate(-11.37 -7.84)" style="fill:#160d22"/><path d="M614.51,630.71l-.21.08-6.51,2.28L589,638.87l10.37,33.53,24.14-7.47a4.46,4.46,0,0,0,3-5.58l-8.25-26.67A3,3,0,0,0,614.51,630.71Z" transform="translate(-11.37 -7.84)" style="fill:#160d22"/><path d="M589,638.87l-32.39,10a4.46,4.46,0,0,0-2.94,5.58l7.61,24.62a4.26,4.26,0,0,0,.56,1.13.75.75,0,0,0,.06.13l.13.15a2.11,2.11,0,0,0,.19.23l.37.37c.06,0,.12.12.19.17a4.35,4.35,0,0,0,.57.38l.07.05a4.87,4.87,0,0,0,.71.3,1.55,1.55,0,0,0,.23.06,4.87,4.87,0,0,0,.52.12l.29,0a4.64,4.64,0,0,0,.53,0H566a5.22,5.22,0,0,0,.79-.14l7.91-2.23q7.16-2,14.25-4.21l10.46-3.23-.88-2.84Z" transform="translate(-11.37 -7.84)" style="fill:#160d22"/><path d="M496.22,830.08a3,3,0,0,0,3.44,2.41,2.22,2.22,0,0,0,.37-.09l28.74-8.89,6.16-1.26a3,3,0,0,0,2.65-3.26,2.62,2.62,0,0,0-.12-.57l-3.1-10a3,3,0,0,0-3.72-2L496,817.16a3,3,0,0,0-2,3.7Z" transform="translate(-11.37 -7.84)" style="fill:#160d22"/><path d="M501.4,494.7c-2.1,3.29-3,7.72-4.6,12.06q-5.44,14.79-10.7,29.65-10.5,29.73-20.19,59.73c-3.49,10.79,14.25,9.52,21.29,10.06a140.19,140.19,0,0,0,36.47-1.94c3.54-.65,7.19-1.52,10-3.79a23.42,23.42,0,0,0,4.74-6.1L555,567.26c5.12-8.36,10.42-16.89,17.45-23.8,7.17-7.06,16.46-11.64,24.47-17.69l47.69-35.94c3.75-2.83,29.64-27.87,15.83-31.23a4.62,4.62,0,0,0-1-.13,145.67,145.67,0,0,0-68.11,15.61l-82.41,15.61A10.68,10.68,0,0,0,501.4,494.7Z" transform="translate(-11.37 -7.84)" style="fill:#160d22"/><path d="M656.3,493.88a1.42,1.42,0,0,0,.78.48l10,2.48,18.09,17.07,1.14,3.69a3,3,0,0,0,3.69,2l34.14-10.17a4.47,4.47,0,0,0,3.18-4l.61-10,.48-7.82.48-7.81a4.45,4.45,0,0,0-2.8-4.41L718.39,472c-1.84-.86-3.71-1.66-5.58-2.44l-1.75-.7c-1.34-.54-2.67-1.05-4-1.54l-2-.71c-1.38-.48-2.77-.94-4.16-1.38-.57-.18-1.13-.37-1.7-.54q-2.91-.89-5.85-1.65l-.11,0c-1.52-.39-3-.76-4.59-1.1l-.15,0c-1.17-.26-2.35-.49-3.53-.72l-1.75-.35c-1.77-.32-3.54-.62-5.31-.87a4.46,4.46,0,0,0-5,3.59l-16.43,28.23A1.49,1.49,0,0,0,656.3,493.88Z" transform="translate(-11.37 -7.84)" style="fill:#160d22"/><path d="M782.47,570.05a5.76,5.76,0,0,0,.35-.51l.22-.38a6.11,6.11,0,0,0,.27-.58c.06-.12.12-.25.17-.38s.14-.45.2-.68.07-.23.09-.34a6.53,6.53,0,0,0,.15-1.08l.84-13.71,1.36-22.21.6-9.74,1.71-28a5.94,5.94,0,0,0-5.57-6.3h-.37l-44-6.47a3,3,0,0,0-3.71,2,2.62,2.62,0,0,0-.12.68l-.33,5.28-.48,7.83-.57,9.36A86.45,86.45,0,0,0,737,535.57l4.52,14.63,8.57,27.72a3,3,0,0,0,3.39,2A85.66,85.66,0,0,0,763,577.6l15.66-4.85a7.93,7.93,0,0,0,1-.37l.05,0,.32-.17c.21-.12.42-.23.61-.36s.22-.17.33-.25.35-.27.51-.41l.3-.3c.15-.15.29-.3.43-.46S782.39,570.17,782.47,570.05Z" transform="translate(-11.37 -7.84)" style="fill:#160d22"/><path d="M494.4,812l34.66-10.72a3,3,0,0,0,2-3.72l-1.32-4.26-.53-1.7-6.9-22.3-5.87-19a3,3,0,0,0-3.72-2L478,759.08a3,3,0,0,0-2,3.72l5.88,19,6.9,22.3.52,1.71,1.32,4.26A3,3,0,0,0,494.4,812Z" transform="translate(-11.37 -7.84)" style="fill:#160d22"/><path d="M504.75,696.53a3,3,0,0,0,3.65,2l11.53-3.25,30.24-8.52a5.45,5.45,0,0,0,.76-.3l.22-.13a3.64,3.64,0,0,0,.46-.3,1.84,1.84,0,0,0,.22-.17,4,4,0,0,0,.42-.4l.14-.15a4.83,4.83,0,0,0,.44-.64l.08-.15a5.55,5.55,0,0,0,.24-.56c0-.08.05-.17.08-.26a4.21,4.21,0,0,0,.12-.51c0-.09,0-.19,0-.29s0-.1,0-.15,0-.21,0-.32,0-.26,0-.38-.06-.36-.09-.54,0-.17,0-.26l0-.1-7.49-24.21a4.46,4.46,0,0,0-5.58-2.95L520.55,660,510,663.3l-11.37,3.51a3,3,0,0,0-2,3.72Z" transform="translate(-11.37 -7.84)" style="fill:#160d22"/><path d="M521.33,740.08l11.37-3.51,30.11-9.31a4.48,4.48,0,0,0,3-5.58L559.37,701a4.58,4.58,0,0,0-.56-1.13.45.45,0,0,0-.06-.12l-.12-.16-.2-.23a4.08,4.08,0,0,0-.36-.36l-.2-.18a4.35,4.35,0,0,0-.57-.38l-.07,0a3.73,3.73,0,0,0-.71-.31l-.23-.06a3,3,0,0,0-.52-.11l-.28,0h-.8a5.45,5.45,0,0,0-.79.14l-41.84,11.79a3,3,0,0,0-2.06,3.67l0,.07,7.58,24.54A3,3,0,0,0,521.33,740.08Z" transform="translate(-11.37 -7.84)" style="fill:#160d22"/><path d="M742.1,735.45h0l26.5-8.2a6.85,6.85,0,0,0,1-.38l.32-.18c.16-.08.31-.15.46-.24l.08-.07a7.22,7.22,0,0,0,1.18-1l.21-.23a6.93,6.93,0,0,0,.85-1.09l.1-.14a7.4,7.4,0,0,0,.63-1.37c0-.11.07-.22.1-.33a7.59,7.59,0,0,0,.31-1.52q.7-8.79,1.35-17.6l.39-5.73c.22-3.12.44-6.25.64-9.38l.3-4.62,1-15.65.08-10.41L779,636.59a4.46,4.46,0,0,0-4.16-4.74,4.34,4.34,0,0,0-1.6.19l-19.89,6.15-10.17,2.21-16.36,5.05a6.5,6.5,0,0,0-.66.27l-.21.13a3.26,3.26,0,0,0-.4.24c-.08,0-.14.12-.22.18a4,4,0,0,0-.31.27l-.2.22-.26.3-.16.26c-.07.11-.14.22-.2.33s-.09.19-.14.29-.1.23-.14.35l-.09.32c0,.12-.06.24-.08.37s0,.22,0,.33,0,.15,0,.23,0,.2,0,.3l0,6.75-.54,11.86c-.06,1.28-.07,2.56-.07,3.84l0,1.12c0,1,.06,1.92.11,2.88,0,.36,0,.72.07,1.08.1,1.27.21,2.54.38,3.81,0,.11,0,.22,0,.33.16,1.16.34,2.31.55,3.47,0,.15,0,.31.07.47.06.33.14.65.21,1,.1.49.19,1,.3,1.45s.25,1.07.38,1.61.23,1,.36,1.43c0,.17.08.34.13.51.19.69.38,1.37.59,2.06L727,696l3.29,10.79,8.15,26.72A3,3,0,0,0,742.1,735.45Z" transform="translate(-11.37 -7.84)" style="fill:#160d22"/><path d="M682.92,403l3.32.25,4,.3,6,.45,31.07,2.32a5.94,5.94,0,0,0,6.37-5.48v-.08l3.63-59.33a6.27,6.27,0,0,0,0-1.06c0-.1,0-.19,0-.29s0-.17,0-.25-.08-.27-.12-.41-.09-.31-.14-.45-.19-.43-.3-.64a3.41,3.41,0,0,0-.17-.33,6.27,6.27,0,0,0-.6-.83l0,0a6.13,6.13,0,0,0-.79-.74l-.3-.2a6.1,6.1,0,0,0-.6-.38l-.4-.18a6.56,6.56,0,0,0-.62-.23,3.39,3.39,0,0,0-.43-.11q-.35-.08-.69-.12l-.26,0h-.41l-39.71.33-5,0a6.65,6.65,0,0,0-.88.07l-.1,0a5.68,5.68,0,0,0-1.35.4l-.21.11a5.19,5.19,0,0,0-1,.61l-.31.24a6.91,6.91,0,0,0-.83.88l-.12.14a5.8,5.8,0,0,0-.66,1.23,1.27,1.27,0,0,0-.07.12c0,.15-.08.3-.13.46s-.08.24-.11.37a6.28,6.28,0,0,0-.14,1.06c0,1-.07,1.91-.12,2.87-.07,1.56-.16,3.13-.25,4.7l-3,47.91A6,6,0,0,0,682.92,403Z" transform="translate(-11.37 -7.84)" style="fill:#160d22"/><path d="M516,654l22-6.81a4.45,4.45,0,0,0,2.94-5.57L539,635l-3.57-24.36a3,3,0,0,0-2.95-3,2.76,2.76,0,0,0-.9.13l-4.92,1.52-26.07,3.47a3,3,0,0,0-2.95,2.1l-1.16,3.76c-.46,1.5-.88,3-1.25,4.54-.13.5-.23,1-.35,1.52-.23,1-.46,2-.66,3.07-.12.61-.21,1.23-.31,1.84-.16.93-.32,1.86-.45,2.79-.09.66-.16,1.32-.23,2s-.16,1.23-.22,1.84c0,.25,0,.51,0,.76-.09,1-.14,2-.18,3,0,.71-.08,1.42-.1,2.13,0,1,0,2.07,0,3.1,0,.67,0,1.34,0,2,0,1.14.13,2.28.21,3.42,0,.56.06,1.11.12,1.67.15,1.69.36,3.39.62,5.07a3,3,0,0,0,3.39,2.49,2,2,0,0,0,.42-.1Z" transform="translate(-11.37 -7.84)" style="fill:#160d22"/><path d="M268.23,765.44a4.43,4.43,0,0,0,2.55,0c45.87-12.92,91.72-25.87,137.39-39.5,4.53-1.35,9.2-2.78,12.78-5.86,5.3-4.56,7.23-11.79,8.92-18.57q23.67-94.95,54.48-187.93,15.56-46.91,32.89-93.21c10.91-29.12,22.69-56.27,25-87.64.12-1.71.19-3.54-.7-5-1.17-1.93-3.59-2.62-5.79-3.14Q503.38,317,470.6,311.39c-8.49-1.46-50.69-13.94-51.63.78l-26.05,10.26-6.9-6.52a17.82,17.82,0,0,0-14.45-4.74l-19.08,2.36c-13.16,1.63-14.29,17.56-15.83,27.83l-.58,3.79,1-.07-1,.08L310.84,509.34l-1.28,8.33L286.11,670.23l-20.8,89.62A4.46,4.46,0,0,0,268.23,765.44Z" transform="translate(-11.37 -7.84)" style="fill:#160d22"/><path d="M558.58,885.81l-.46,0-60.82-4a3,3,0,0,0-3.16,2.7l-2.88,32.7-.85,9.57-5.59,63.47a4.46,4.46,0,0,0,3.79,4.8q30,4.42,60.21,7.73c3.85.42,4.74-2.75,5-5.73q.5-6.39,1-12.78l2-25.56,3.92-51.12,1-13.13C561.92,891,563.19,886.61,558.58,885.81Z" transform="translate(-11.37 -7.84)" style="fill:#160d22"/><path d="M753.78,880.47a18,18,0,0,0-3.22-.36c-21.37-.72-42.78-1.44-64.12-.17-19.41,1.15-38.66,3.94-58,5.81-9.88,1-19.79,1.69-29.71,1.83-5.94.08-22-3.72-26.66.22-5.42,4.61-3.56,26.17-4.12,33.06q-3.06,37.78-5.66,75.6c-.91,13.18,23.22,9.87,32.64,10.63q24.07,1.95,48.19,3.17c11.72.59,23.51,1.35,35.25,1.47,12.13.12,24.25-1,36.38-.53,6.66.28,13.43,1,19.92-.5a29.33,29.33,0,0,0,20.16-17.49c2.45-6.25,2.64-13.13,2.79-19.84q.95-41.36,1.92-82.71C759.69,884.84,758.72,881.52,753.78,880.47Z" transform="translate(-11.37 -7.84)" style="fill:#160d22"/><path d="M420.53,738.25c-1.7-1.27-4.08-.77-6.13-.21l-84.13,23-42.56,11.62c-8.1,2.21-17.23,2.54-24.49,7.14-8.5,5.39-8.77,14.51-11.79,23.53-7,20.83-16.66,41.18-18.39,63.38-3,39,21.51,80.08,59.67,91.58,16.3,4.91,33,8.33,49.72,11.38,9.28,1.7,45.26,13.39,52.82,8.77,18.42-11.3,8.84-70.21,9-88,.42-48,8.9-97.76,17.61-144.91C422.33,742.94,422.6,739.81,420.53,738.25Z" transform="translate(-11.37 -7.84)" style="fill:#160d22"/><path d="M655.06,607.84a2.78,2.78,0,0,0-.56.24c-1,.53-1.93,1.09-2.87,1.66l-23.16,14q-2.29,1.38-4.66,2.64a3,3,0,0,0-1.45,3.51L631,658a5.13,5.13,0,0,0,.33.76l.16.26a3.45,3.45,0,0,0,.2.32l.09.11.2.23.37.36.21.17a4,4,0,0,0,.5.34,1.29,1.29,0,0,1,.16.09,4.81,4.81,0,0,0,.71.29l.2,0a3.82,3.82,0,0,0,.57.11,2.4,2.4,0,0,0,.28,0h.54l.26,0a4.36,4.36,0,0,0,.8-.16l30.4-9.4a3.85,3.85,0,0,0,.75-.32L668,651c.16-.1.3-.2.45-.31s.14-.11.21-.18a4,4,0,0,0,.41-.41l.13-.15a4.57,4.57,0,0,0,.43-.65,1.11,1.11,0,0,0,.07-.16,3.88,3.88,0,0,0,.23-.56c0-.09.05-.18.08-.26s.07-.34.1-.51,0-.2,0-.3a.68.68,0,0,0,0-.14,2.42,2.42,0,0,0,0-.38c0-.1,0-.2,0-.3a4.57,4.57,0,0,0-.16-.82L658.78,609.8A3,3,0,0,0,655.06,607.84Z" transform="translate(-11.37 -7.84)" style="fill:#160d22"/><path d="M665.43,759.16l33.24-10.28a3,3,0,0,0,2-3.72l-8.25-26.71-.53-1.7-1.32-4.26-.53-1.71-4-12.9a3,3,0,0,0-3.71-2l-33.24,10.27a3,3,0,0,0-2,3.72l4,12.91.53,1.7,1.32,4.26.52,1.71,8.26,26.7A3,3,0,0,0,665.43,759.16Z" transform="translate(-11.37 -7.84)" style="fill:#160d22"/><path d="M710,745.36l20.71-6.4a3,3,0,0,0,2-3.71l-8.15-26.75-3.86-12.68-.19-.6-1.82-7.15c.24,1.16.5,2.31.79,3.45l0-.14c-.28-1.1-.53-2.2-.76-3.31a3,3,0,0,0-3.52-2.31l-.27.07-21.24,6.57a3,3,0,0,0-2,3.72l1.3,4.22L697.53,715l.53,1.71,8.26,26.7A3,3,0,0,0,710,745.36Z" transform="translate(-11.37 -7.84)" style="fill:#160d22"/><path d="M717.68,653.67c0-.1,0-.2-.06-.3s-.08-.33-.13-.5-.09-.21-.13-.32-.13-.28-.21-.42l-.18-.3a2,2,0,0,1-.12-.19l-.18-.21-.19-.21a5.66,5.66,0,0,0-.44-.4l-.14-.12a4.56,4.56,0,0,0-.67-.4l-.2-.08a3.93,3.93,0,0,0-.54-.2l-.27-.06a3.11,3.11,0,0,0-.6-.09l-.15,0h-.07a4.35,4.35,0,0,0-.51,0h-.22a6.2,6.2,0,0,0-.72.16l-27.23,8.42a4.13,4.13,0,0,0-.75.32l-.23.13c-.15.1-.3.2-.44.31l-.22.18a3.85,3.85,0,0,0-.4.41l-.14.15a5.62,5.62,0,0,0-.43.65s0,.11-.07.16a3.88,3.88,0,0,0-.23.56c0,.09,0,.18-.07.26a4.64,4.64,0,0,0-.11.51l0,.3c0,.05,0,.1,0,.14s0,.25,0,.38,0,.2,0,.31a3.9,3.9,0,0,0,.17.81l6.58,21.29a3,3,0,0,0,3.72,2l23-7.12a3,3,0,0,0,2.09-3l-.09-9,.62-13.68A4.63,4.63,0,0,0,717.68,653.67Z" transform="translate(-11.37 -7.84)" style="fill:#160d22"/><path d="M464.77,726.26a.19.19,0,0,0,0,.07L472.72,752a3,3,0,0,0,3.72,2l34.66-10.71a3,3,0,0,0,2-3.72l-7.67-24.8a3,3,0,0,0-3.65-2l-34.93,9.84A3,3,0,0,0,464.77,726.26Z" transform="translate(-11.37 -7.84)" style="fill:#160d22"/><path d="M642.55,711.32a3,3,0,0,0-3.72-2l-25.57,7.9-32.39,10a4.46,4.46,0,0,0-2.94,5.58L583,749.25l.52,1.71,65.09-20-1.55-5Z" transform="translate(-11.37 -7.84)" style="fill:#160d22"/><path d="M591.61,777.2a4.45,4.45,0,0,0,5.5,3.08l.11,0,32.41-10,25.57-7.91a3,3,0,0,0,2-3.72l-7.27-23.5-65.06,20.12.53,1.7,5.56,18C591.17,775.67,591.39,776.43,591.61,777.2Z" transform="translate(-11.37 -7.84)" style="fill:#160d22"/><path d="M424.93,778.84c-.37,1.3-.56,2.72-.8,4q-1.42,7.86-2.7,15.74Q418.9,814.4,417,830.26c-.26,2.19.29,4.88,3,4.69h.08a2.55,2.55,0,0,0,.6-.12L483,815.56a3,3,0,0,0,2-3.72l-1.32-4.27-.52-1.7-12.78-41.32a3,3,0,0,0-3.72-2L429,774.25C426.56,775,425.51,776.78,424.93,778.84Z" transform="translate(-11.37 -7.84)" style="fill:#160d22"/><path d="M651.05,584.8a3,3,0,0,0-3.2-2.07q-3,.36-6.07.53l-28.68,1.58-.83,0a3,3,0,0,0-2.77,3.16,2.62,2.62,0,0,0,.12.68l8.79,28.44a3,3,0,0,0,3.72,2,2.66,2.66,0,0,0,.6-.26q1-.58,2-1.2l23.16-14q2.67-1.62,5.44-3a3,3,0,0,0,1.47-3.52Z" transform="translate(-11.37 -7.84)" style="fill:#160d22"/><path d="M647.47,701.08l33.24-10.28a3,3,0,0,0,2-3.72l-6.59-21.28a4.31,4.31,0,0,0-.32-.77l-.16-.26a3.45,3.45,0,0,0-.2-.32l-.09-.11-.2-.22a4.17,4.17,0,0,0-.37-.36l-.21-.18a4.45,4.45,0,0,0-.51-.33.75.75,0,0,0-.15-.09,4.87,4.87,0,0,0-.71-.3l-.2-.05a3.82,3.82,0,0,0-.57-.11l-.28,0a2.44,2.44,0,0,0-.54,0h-.27a4.43,4.43,0,0,0-.79.16l-30.4,9.4a5.13,5.13,0,0,0-.75.32l-.23.14a3.52,3.52,0,0,0-.45.3l-.22.18c-.14.13-.27.27-.4.41a2,2,0,0,1-.14.16,4.41,4.41,0,0,0-.42.64l-.07.16a3.88,3.88,0,0,0-.23.56c0,.09-.05.18-.08.27a3.84,3.84,0,0,0-.1.51c0,.1,0,.19,0,.29s0,.1,0,.15,0,.25,0,.37,0,.2,0,.31a4.47,4.47,0,0,0,.16.81l6.58,21.29A3,3,0,0,0,647.47,701.08Z" transform="translate(-11.37 -7.84)" style="fill:#160d22"/><path d="M686.22,547.4l-36.91-1.87a3,3,0,0,0-3.12,2.82,3.24,3.24,0,0,0,.13,1l7.3,23.6a3,3,0,0,0,3.55,2c1.69-.41,3.36-.87,5-1.39l18.44-5.7a86.5,86.5,0,0,0,9.74-3.67,4.46,4.46,0,0,0,2.44-5.39l-2.56-8.3A4.47,4.47,0,0,0,686.22,547.4Z" transform="translate(-11.37 -7.84)" style="fill:#160d22"/><path d="M434.08,734.31l-.14.64-6.16,29.36,0,.09a3,3,0,0,0,2.3,3.52,3,3,0,0,0,1.49-.07l33.53-10.37a3,3,0,0,0,2-3.72l-8-25.89,0-.07a3,3,0,0,0-3.65-2l-18.14,5.11A4.45,4.45,0,0,0,434.08,734.31Z" transform="translate(-11.37 -7.84)" style="fill:#160d22"/><path d="M743.86,578.23a2.47,2.47,0,0,0-.13-.71l-7.93-25.66a3,3,0,0,0-2.69-2.09l-33.2-1.68a3,3,0,0,0-3.12,2.82,2.76,2.76,0,0,0,.13,1l9,29.1a3,3,0,0,0,3,2.09l32.14-1.77A3,3,0,0,0,743.86,578.23Z" transform="translate(-11.37 -7.84)" style="fill:#160d22"/><path d="M679.47,515.66a19.32,19.32,0,0,0-13.82-13L652,499.24a8.89,8.89,0,0,0-7.44,1.48l-48,35.5a4.46,4.46,0,0,0-1.61,4.9l1,3.26a3,3,0,0,0,3.72,2l12.2-3.77,27.78-3.49,43.61,2.21a3,3,0,0,0,3-3.85Z" transform="translate(-11.37 -7.84)" style="fill:#160d22"/><path d="M745.13,407.61l41.38,3.09a5.27,5.27,0,0,0,1,0l.29,0a6.84,6.84,0,0,0,.92-.21l.09,0a4.82,4.82,0,0,0,.74-.31l.18-.1.24-.14a6,6,0,0,0,.71-.5s.09-.06.12-.1a5.29,5.29,0,0,0,.7-.72l.15-.21a5.76,5.76,0,0,0,.46-.71l.1-.17a5.93,5.93,0,0,0,.37-.94c0-.08,0-.16.07-.25a6,6,0,0,0,.16-.94.3.3,0,0,0,0-.1v-.08l3.64-59.47a10.41,10.41,0,0,0-9.76-11h-.24q-6.69-.25-13.4-.2l-23.86.2a5.8,5.8,0,0,0-1.11.11l-.37.11a6.55,6.55,0,0,0-.67.2l-.4.2a5.93,5.93,0,0,0-.56.29c-.13.08-.25.18-.37.27s-.32.24-.47.37-.22.23-.33.34-.27.29-.39.45-.18.26-.27.4-.21.33-.3.5-.14.31-.2.46-.14.36-.2.55-.08.33-.12.51-.06.22-.08.34,0,.32,0,.48l-3.74,61.1A6,6,0,0,0,745.13,407.61Z" transform="translate(-11.37 -7.84)" style="fill:#160d22"/><path d="M415.45,844.92q-1,10.41-1.72,20.85a4.47,4.47,0,0,0,4.15,4.76h0l68.19,4.5a3,3,0,0,0,3.15-2.7l2-22.18a72.87,72.87,0,0,0-2.85-27.5,3,3,0,0,0-3.7-2h0L467.31,826,438.9,834.8l-20.33,6.29A4.45,4.45,0,0,0,415.45,844.92Z" transform="translate(-11.37 -7.84)" style="fill:#160d22"/><path d="M635.42,544.93c-.95,0-1.89.07-2.84.11s-1.8,0-2.7.11c-1.1.08-2.19.24-3.29.37-.73.09-1.47.14-2.21.25-1.44.22-2.88.52-4.31.82-.37.08-.75.13-1.13.22q-2.7.62-5.35,1.44L601.38,552a3,3,0,0,0-2,3.72L605.67,576a4.46,4.46,0,0,0,4.64,3.12c.82-.07,1.64-.13,2.46-.17l28.68-1.58c1.16-.06,2.31-.15,3.46-.26a3,3,0,0,0,2.68-3.24,3.19,3.19,0,0,0-.12-.6l-7.78-25.15a3.91,3.91,0,0,0-.27-.67,2.25,2.25,0,0,0-.12-.21c-.08-.13-.15-.27-.24-.4l-.18-.21c-.09-.11-.18-.23-.28-.33l-.22-.19a3.88,3.88,0,0,0-.31-.26,2.82,2.82,0,0,0-.29-.18,1.89,1.89,0,0,0-.3-.19,2.52,2.52,0,0,0-.29-.12,3.88,3.88,0,0,0-.36-.15,1.43,1.43,0,0,0-.28-.07,3.06,3.06,0,0,0-.41-.1l-.3,0c-.14,0-.27,0-.41,0h0Z" transform="translate(-11.37 -7.84)" style="fill:#160d22"/><path d="M580.41,835a5.42,5.42,0,0,0,.26-.6L582,830.6a85.08,85.08,0,0,0,4.44-35.77,4.48,4.48,0,0,0-4.85-4,4.58,4.58,0,0,0-.91.18l-39.8,12.31a3,3,0,0,0-2,3.71l4,13.06a4.46,4.46,0,0,0,3.17,3l7,2.69,21.23,11.12A4.47,4.47,0,0,0,580.41,835Z" transform="translate(-11.37 -7.84)" style="fill:#160d22"/><path d="M461.3,613.11q-7.4,26.76-13.1,53.94l-.74,3.5a3,3,0,0,0,2.3,3.52,2.89,2.89,0,0,0,1.49-.07l35.86-11.08a3,3,0,0,0,2.05-3.35l2.73-42.34.45-1.46a3,3,0,0,0-2-3.72,3.14,3.14,0,0,0-.61-.12L466,609.86A4.45,4.45,0,0,0,461.3,613.11Z" transform="translate(-11.37 -7.84)" style="fill:#160d22"/><path d="M498.1,875.39a4.92,4.92,0,0,0,2.15.6l59.92,3.93c8.32.54,12.13-18.82,14.09-25.16.92-3,1.75-6.23.71-9.18-1.23-3.51-4.73-5.61-8-7.43-15.83-8.84-27.74-13-45.45-7.49l-18.64,5.8c-7.64,2.38-5.22,7.64-5.8,14.22C496.59,856.57,492.27,872.1,498.1,875.39Z" transform="translate(-11.37 -7.84)" style="fill:#160d22"/><path d="M1291,369.62a18.31,18.31,0,0,0-4.67-1q-31.86-3.49-63.88-5.4-16-1-32-1.51c-5.63-.2-22-4.07-24.34,3.27l-.08.24L1150,414.76c-.4,1.23-.78,2.48-1.12,3.73a6.08,6.08,0,0,0,4.26,7.47,4.87,4.87,0,0,0,.52.12l63.72,11.55,51.32,9.31.61.11a6.1,6.1,0,0,0,7-4.3l18.36-63.39C1296.11,374.13,1294.91,371.13,1291,369.62Z" transform="translate(-11.37 -7.84)" style="fill:#160d22"/><path d="M800.56,476c0,.19.08.37.13.54s.06.19.1.28a4.22,4.22,0,0,0,.25.53l.09.19a5.84,5.84,0,0,0,.47.64l.13.13a6,6,0,0,0,.45.42,1.88,1.88,0,0,0,.23.16,2.6,2.6,0,0,0,.45.28l.27.14.13.07a1,1,0,0,0,.16,0,5,5,0,0,0,.94.24,2.51,2.51,0,0,0,.27,0l.14,0a4.44,4.44,0,0,0,1.09-.07,149.15,149.15,0,0,0,26.81-7.47l9.25-3.2a4.57,4.57,0,0,0,3.21-4.41l.19-7.45,2-29.55a4.56,4.56,0,0,0-4.22-4.85l-33-2.47a6.59,6.59,0,0,0-1.09,0l-.29,0a6,6,0,0,0-.95.22l-.09,0a5.57,5.57,0,0,0-.76.32l-.18.1-.25.15a5.3,5.3,0,0,0-.73.51l-.12.1a6.12,6.12,0,0,0-.71.73l-.16.21a8.21,8.21,0,0,0-.47.73l-.1.18a5.64,5.64,0,0,0-.38,1,2.33,2.33,0,0,0-.07.25,6.44,6.44,0,0,0-.17,1,.3.3,0,0,1,0,.1v.09l-2.38,38.65-.63,10.29a4.57,4.57,0,0,0,0,.83C800.53,475.8,800.55,475.89,800.56,476Z" transform="translate(-11.37 -7.84)" style="fill:#160d22"/><path d="M805.72,408.14c0,.24.1.48.17.71s.12.28.18.43a6.28,6.28,0,0,0,.27.59c.08.14.17.27.26.4a3.77,3.77,0,0,0,.37.52c.1.13.21.24.32.36l.46.43a3.68,3.68,0,0,0,.39.3c.17.12.34.23.53.34a4.73,4.73,0,0,0,.45.23,5,5,0,0,0,.58.23l.5.16a1.06,1.06,0,0,1,.19.06,7.9,7.9,0,0,0,.83.12l81.11,6.05a6.09,6.09,0,0,0,6.54-5.61v0l2.27-32.08,2.46-34.7a6.07,6.07,0,0,0-5.64-6.49l-32.47-2.29-7.69.67L822.25,336a12.18,12.18,0,0,0-13,11.28s0,.07,0,.11l-3.63,59.15a6.36,6.36,0,0,0,0,1.16A2.57,2.57,0,0,0,805.72,408.14Z" transform="translate(-11.37 -7.84)" style="fill:#160d22"/><path d="M910.73,462.36a15.16,15.16,0,0,0,6.76,2.08c23.82,2.3,47.62,4.62,71.4,7.27a7,7,0,0,0,3.5-.19c1.79-.75,2.65-2.8,2.9-4.72,1.11-8.66,1.83-17.39,2.86-26.07.29-2.5.56-5.19-.62-7.42-2.44-4.62-16.85-2.23-21.66-2.43l-51.62-2.11c-4.09-.3-15.22-3.23-17.67,1-1,1.7-1,3.77-.94,5.74C905.84,445.53,903.09,457.51,910.73,462.36Z" transform="translate(-11.37 -7.84)" style="fill:#160d22"/><path d="M1083,711.45q.63-14.36.92-28.73a10.79,10.79,0,0,0-.82-5.36c-3.54-6.55-43.91,5.8-51.49,7.29l-51.81,10.22a4.57,4.57,0,0,0-3.56,3.42l-.36,1.52-2.63,11c-6.28,26.28-12.92,52.24-13.89,79.41-.07,1.88-.09,3.87.86,5.49,3.92,6.65,27.21,3.45,34.25,3.61l38.15.84,26.43.59c7.11.16,16.39,2.56,17.49-7.08Q1081.21,752.69,1083,711.45Z" transform="translate(-11.37 -7.84)" style="fill:#160d22"/><path d="M904.56,617.49a4.8,4.8,0,0,0,0-.85,2.84,2.84,0,0,0-.06-.31c0-.13,0-.25-.07-.38s0-.09,0-.14-.07-.19-.11-.28a3.51,3.51,0,0,0-.22-.48l-.13-.25a5.86,5.86,0,0,0-.37-.5l-.11-.14a4.15,4.15,0,0,0-.57-.54l-.18-.12a4.26,4.26,0,0,0-.5-.32l-.25-.12a3.7,3.7,0,0,0-.52-.2l-.26-.08a4.54,4.54,0,0,0-.82-.14,237.82,237.82,0,0,0-42,.88,4.87,4.87,0,0,0-.76.15l-.24.09a3.8,3.8,0,0,0-.47.18l-.26.14c-.13.08-.26.15-.38.24l-.25.19-.33.28-.21.23c-.1.11-.19.22-.28.34a2.2,2.2,0,0,0-.17.25c-.08.13-.15.26-.22.39a2.44,2.44,0,0,0-.14.28c-.06.14-.1.29-.15.44l-.09.28s0,0,0,0a4.22,4.22,0,0,0-.1.7l-1.47,22.17a3,3,0,0,0,2.84,3.23l44,2.9a3,3,0,0,0,3.24-2.83Z" transform="translate(-11.37 -7.84)" style="fill:#160d22"/><path d="M1013.13,423.26a18.61,18.61,0,0,0,4.36.48l109.1,1.33c4,.05,8.29,0,11.33-2.57,2.27-1.88,3.37-4.78,4.38-7.55,3.26-8.93,24.47-49.14,12.82-55.77-2-1.16-4.45-1.32-6.79-1.46l-66-3.86-33.77-2c-8-.47-22-4.19-29.43-.77-7.12,3.27-6.2,30.59-7,37.62q-1.21,11.28-2.43,22.55C1009,418.05,1008.24,422,1013.13,423.26Z" transform="translate(-11.37 -7.84)" style="fill:#160d22"/><path d="M1002.29,538.52l39.43,2.6,6.13.06a27.15,27.15,0,0,0,23.05-12.42,3,3,0,0,0-.91-4.2l-.14-.09A89.16,89.16,0,0,0,1031.6,513l-27.69-1.83a4.56,4.56,0,0,0-4.86,4.25v.05l-1,18.25A4.58,4.58,0,0,0,1002.29,538.52Z" transform="translate(-11.37 -7.84)" style="fill:#160d22"/><path d="M1038.28,607.39c.11-.15.2-.3.29-.45s.1-.18.14-.27,0-.09.07-.13.08-.25.12-.37.07-.19.1-.3a4.64,4.64,0,0,0,.14-.83h0l2.06-31.16a3,3,0,0,0-.37-1.68,3.19,3.19,0,0,0-.72-.87,3.07,3.07,0,0,0-1.59-.67q-3.76-.45-7.54-.69l-26.3-1.74c-1.36-.09-2.71-.16-4.07-.21a4.57,4.57,0,0,0-4.74,4.3l-1.66,29.8a4.72,4.72,0,0,0,0,.84l.06.29c0,.12,0,.24.07.36l.06.16c0,.1.07.19.11.29a4,4,0,0,0,.22.47l.13.25c.12.18.25.35.38.51s.06.09.1.12a3.71,3.71,0,0,0,.58.54,1.18,1.18,0,0,0,.18.13,4.94,4.94,0,0,0,.49.3l.26.13a4.5,4.5,0,0,0,.51.2l.26.08a5.6,5.6,0,0,0,.82.13l35.81,2.37a5.71,5.71,0,0,0,.83,0l.27,0a3.53,3.53,0,0,0,.54-.13l.27-.09a4.41,4.41,0,0,0,.54-.24l.19-.1a5,5,0,0,0,.64-.46l.13-.13a4.57,4.57,0,0,0,.43-.45C1038.18,607.54,1038.23,607.46,1038.28,607.39Z" transform="translate(-11.37 -7.84)" style="fill:#160d22"/><path d="M851.31,707.83a2.92,2.92,0,0,0,1.1-.13l14.67-4.52,9.28-2.87,20.75-5.11a3.06,3.06,0,0,0,2.49-2.79l2.53-38.27a3,3,0,0,0-2.84-3.23l-44-2.9a3,3,0,0,0-3.25,2.83l-2.78,42-.78,11.79A3,3,0,0,0,851.31,707.83Z" transform="translate(-11.37 -7.84)" style="fill:#160d22"/><path d="M786.16,722.92a3.67,3.67,0,0,0,.18.67,2.92,2.92,0,0,0,.14.31,3.36,3.36,0,0,0,.31.56,3.21,3.21,0,0,0,.21.3,5,5,0,0,0,.44.49s.09.12.15.17l.08.05a4.37,4.37,0,0,0,.88.59l.11.05a4.48,4.48,0,0,0,.87.3l.34.06c.13,0,.25.06.39.07s.24,0,.36,0h.31a4.54,4.54,0,0,0,1-.18l47-14.49a4.56,4.56,0,0,0,3.21-4.06l.47-7,.11-1.64.26-4a3,3,0,0,0,0-.67v0l0-.07a2.81,2.81,0,0,0-.25-.74,1.39,1.39,0,0,0-.06-.13,3.7,3.7,0,0,0-.47-.65l-.13-.11a2.83,2.83,0,0,0-.63-.46.09.09,0,0,0,0,0,3,3,0,0,0-.79-.27l-.09,0a1.55,1.55,0,0,0-.31,0h0l-4.26-.27-43-2.79a4.72,4.72,0,0,0-.84,0l-.28,0a3,3,0,0,0-.52.13l-.31.1a3.88,3.88,0,0,0-.46.22,1.71,1.71,0,0,0-.27.14l-.12.07-.17.14a5.17,5.17,0,0,0-.51.42,3.2,3.2,0,0,0-.25.27,4.82,4.82,0,0,0-.38.51,2.68,2.68,0,0,0-.18.28,4.71,4.71,0,0,0-.28.65,2.77,2.77,0,0,0-.1.26,4,4,0,0,0-.18,1L788,694l-.27,4.23q-.76,11.7-1.68,23.39a5.51,5.51,0,0,0,0,1C786.11,722.74,786.14,722.82,786.16,722.92Z" transform="translate(-11.37 -7.84)" style="fill:#160d22"/><path d="M905.11,598.6a3.4,3.4,0,0,0,.28-.45c.05-.09.1-.17.15-.27s.05-.08.07-.13.08-.24.12-.36.07-.2.1-.3a4.6,4.6,0,0,0,.14-.84L908,564.91a3,3,0,0,0-2.84-3.24l-42.49-2.8a4.57,4.57,0,0,0-4.86,4.25l-2.2,33.09a4.61,4.61,0,0,0,.07,1.06c0,.1,0,.19.07.29a4.91,4.91,0,0,0,.24.74c0,.05,0,.11.05.17l.12.19c0,.09.09.17.14.26s.22.31.34.46l.14.18a4.22,4.22,0,0,0,.58.54.41.41,0,0,0,.11.07,3.79,3.79,0,0,0,.56.36c.08.05.17.08.25.12a5.55,5.55,0,0,0,.52.2l.26.08a4.94,4.94,0,0,0,.77.12h0a3.57,3.57,0,0,0,.73,0l40.1-.57.35,0a3.92,3.92,0,0,0,.84,0l.26,0a4.9,4.9,0,0,0,.55-.13l.27-.09a5.12,5.12,0,0,0,.53-.25l.19-.09a4.3,4.3,0,0,0,.65-.47l.13-.12a4.47,4.47,0,0,0,.42-.45C905,598.75,905.06,598.68,905.11,598.6Z" transform="translate(-11.37 -7.84)" style="fill:#160d22"/><path d="M1127.12,487.34l8.36-40.9,1.46-7.15a6.09,6.09,0,0,0-4.75-7.18A5.83,5.83,0,0,0,1131,432l-15.07-.11-17.58-.12-85.23-.61a6.07,6.07,0,0,0-6.1,5.43l-2,18.7L1003.55,469a4.55,4.55,0,0,0,4,5l114.33,16.95A4.57,4.57,0,0,0,1127.12,487.34Z" transform="translate(-11.37 -7.84)" style="fill:#160d22"/><path d="M997.18,548.89l-.4,7a4.57,4.57,0,0,0,4.31,4.81h.07c1.34,0,2.67.12,4,.21l26.29,1.74c2.44.16,4.87.37,7.29.65h.6l.3-.06.29-.06.28-.11.26-.11.26-.17c.07-.05.16-.09.23-.15a2.08,2.08,0,0,0,.21-.21,2,2,0,0,0,.21-.2c.06-.07.11-.16.17-.24s.12-.16.16-.24.08-.19.12-.28.09-.18.12-.27,0-.2.07-.3,0-.19.06-.29v0h0s0-.07,0-.11l.67-10.18a3,3,0,0,0-2.83-3.23L1002,544.6a4.56,4.56,0,0,0-4.86,4.25Z" transform="translate(-11.37 -7.84)" style="fill:#160d22"/><path d="M1085.67,610.51a3.46,3.46,0,0,0,.29-.45,2.29,2.29,0,0,0,.14-.27s.05-.08.07-.13.08-.24.12-.36.07-.2.1-.3a4.6,4.6,0,0,0,.14-.84l1.6-24.12a3,3,0,0,0-2.33-3.15L1065.25,576l-9.46-2.26q-3.07-.74-6.16-1.33a3,3,0,0,0-3.57,2.4,1.58,1.58,0,0,0,0,.38l-1.17,17.53-.83,12.66a4,4,0,0,0,0,.85c0,.1,0,.2,0,.3s0,.26.08.38a.78.78,0,0,0,0,.14c0,.1.07.19.1.29a5.24,5.24,0,0,0,.23.48c0,.08.08.16.13.24a3.68,3.68,0,0,0,.37.51l.1.14a5,5,0,0,0,.58.54l.18.12a4.26,4.26,0,0,0,.5.32l.25.12a4.81,4.81,0,0,0,.53.2l.25.08a4.5,4.5,0,0,0,.83.14l33.4,2.2a4.58,4.58,0,0,0,.83,0l.27,0,.54-.13.27-.09a4.45,4.45,0,0,0,.54-.25l.19-.1a4.15,4.15,0,0,0,.64-.46l.13-.12a4.76,4.76,0,0,0,.43-.46A1.77,1.77,0,0,0,1085.67,610.51Z" transform="translate(-11.37 -7.84)" style="fill:#160d22"/><path d="M983.1,566.81,946,564.36l-27.37-1.8a3,3,0,0,0-3.24,2.83l-2.08,31.34a4.57,4.57,0,0,0,4.26,4.85l25.85,1.71,37.46,2.47a4.72,4.72,0,0,0,.84,0l.26,0,.54-.13.28-.09a5.12,5.12,0,0,0,.53-.25l.19-.1a4.24,4.24,0,0,0,.65-.46l.12-.12a3.77,3.77,0,0,0,.43-.46l.17-.22a4.92,4.92,0,0,0,.28-.45,2.29,2.29,0,0,0,.14-.27s0-.08.07-.13.08-.23.12-.34.08-.22.11-.33.08-.44.11-.66c0-.06,0-.11,0-.17v0l1.66-29.85A4.56,4.56,0,0,0,983.1,566.81Z" transform="translate(-11.37 -7.84)" style="fill:#160d22"/><path d="M909.93,693.22a3.25,3.25,0,0,0,.54,0L935,692.09l2.47,0,5.76.12a180.69,180.69,0,0,0,22.79-1,4.58,4.58,0,0,0,4-3.48l4.11-17.19,2.22-9.3a4.56,4.56,0,0,0-3.39-5.49,3.87,3.87,0,0,0-.76-.11L940,653.6l-27.37-1.81a3,3,0,0,0-3.24,2.83L907.09,690A3,3,0,0,0,909.93,693.22Z" transform="translate(-11.37 -7.84)" style="fill:#160d22"/><path d="M852.86,480.24c.16.83.33,1.66.52,2.48l1.17,5.19,3.39,15,1.47,8.13a4.57,4.57,0,0,0,4.17,3.94L906,518.34h.09a3,3,0,0,0,3.28-2.78,3.21,3.21,0,0,0,0-.76,75.82,75.82,0,0,0-2-8.68l-4.89-16.56-.12-.41-3.11-16.81a4.56,4.56,0,0,0-4.36-4.19,149.41,149.41,0,0,0-39,3.42,4.55,4.55,0,0,0-3.52,5.14C852.42,477.89,852.63,479.07,852.86,480.24ZM901,484c-.16-.7-.33-1.4-.47-2.11,0-.16,0-.32-.07-.47C900.57,482.23,900.76,483.09,901,484Z" transform="translate(-11.37 -7.84)" style="fill:#160d22"/><path d="M991,513q.09-3.42,0-6.82l-.33,6.36,1.17-14.17-.62,5.48c2.58-9.7,6.82-25.19-6.74-26.61-24.21-2.54-48.43-5.59-72.7-7.61-8.53-.89-3.63,12.31-2.62,16.13l8.05,30.46a7,7,0,0,0,1.52,3.26c5.33,5.29,20,8.16,27.17,10.62,9.26,3.2,34.07,14.54,42.08,4.52,1.27-1.59,1.6-3.72,1.84-5.74Q990.77,521,991,513Z" transform="translate(-11.37 -7.84)" style="fill:#160d22"/><path d="M1113.47,520.87a87.1,87.1,0,0,0,9.37-18.11,4.57,4.57,0,0,0-2.67-5.88,4.84,4.84,0,0,0-.83-.22q-13.77-2.37-27.56-4.58l-.22,0q-14.54-2.32-29.12-4.47l-.78-.12c-6-.88-11.9-1.7-17.84-2.53-3-.42-6-.87-9-1.28q-13.86-1.87-27.75-3.61a4.58,4.58,0,0,0-5.11,4v.08l-.42,3.85-.89,8.27-.23,2.19c-.11,1-.21,1.95-.3,2.93a4.55,4.55,0,0,0,4.1,5h.15l27.58,1.82,35,11.94,12,4.31,19.64,13.2a3.05,3.05,0,0,0,4.23-.82l2-3-.08-.06h0l.08.06,4.3-6.37-.06,0,.06,0Z" transform="translate(-11.37 -7.84)" style="fill:#160d22"/><path d="M795,564.18a4.58,4.58,0,0,0,4.29,4.83,4.51,4.51,0,0,0,1.63-.2l42.31-13,1.39-.42.49-.12c-.63.17-1.26.35-1.88.54l5.84-1.57.21-.06a2.67,2.67,0,0,0,.26-.09c.11,0,.22-.07.33-.12l.34-.17c.09-.06.19-.1.29-.16a3.55,3.55,0,0,0,.31-.23l.25-.2a3.7,3.7,0,0,0,.28-.28c.07-.07.15-.14.22-.22l.23-.33a2.2,2.2,0,0,0,.17-.25,2.58,2.58,0,0,0,.19-.37c.05-.09.09-.17.13-.26a3.88,3.88,0,0,0,.14-.45,2.09,2.09,0,0,0,.08-.23,4.45,4.45,0,0,0,.1-.72L854,529.46a88.33,88.33,0,0,0-2-25.22l-2.73-12.06-1.82-8,0-.08-1.21-6.39a3,3,0,0,0-3.48-2.54,2.47,2.47,0,0,0-.47.11c-2.5.8-5,1.68-7.42,2.61L804.55,486a6.1,6.1,0,0,0-5.1,5.63l-2.51,40.93-.45,7.31Z" transform="translate(-11.37 -7.84)" style="fill:#160d22"/><path d="M848.52,601.09l.18-.25a2.75,2.75,0,0,0,.2-.38,1.66,1.66,0,0,0,.13-.27,3.57,3.57,0,0,0,.16-.46c0-.08,0-.16.07-.24a4.57,4.57,0,0,0,.12-.74l2.22-33.57a3,3,0,0,0-3.84-3.14q-1.2.33-2.37.69l-1.29.4-3.12,1-40.89,12.62a7.88,7.88,0,0,0-1.05.41c-.13.06-.24.14-.36.2s-.36.19-.53.3l0,0a7.17,7.17,0,0,0-1.19,1,3,3,0,0,0-.24.26,7.62,7.62,0,0,0-.88,1.17.47.47,0,0,1-.06.09,7.79,7.79,0,0,0-.61,1.42c0,.11-.07.23-.11.35a7.3,7.3,0,0,0-.28,1.55l-1.64,26.8a3.65,3.65,0,0,0,4.73,3.7l12.36-3.81q3.72-1.14,7.47-2.18l10.53-1.71L845.53,603c-2.4.38-4.79.81-7.18,1.25,1-.19,2-.39,3.07-.57,1.37-.24,2.73-.46,4.11-.68l.52-.11.13-.05.31-.11.38-.17.28-.16c.12-.07.24-.14.35-.22l.25-.2.3-.28a2.39,2.39,0,0,0,.22-.23A2.85,2.85,0,0,0,848.52,601.09Z" transform="translate(-11.37 -7.84)" style="fill:#160d22"/><path d="M843.16,684.65a2.14,2.14,0,0,0,.2-.32,1.88,1.88,0,0,0,.12-.18,3,3,0,0,0,.12-.32,1.7,1.7,0,0,0,.09-.24,3,3,0,0,0,.11-.61l4.26-64.34a3,3,0,0,0-2.84-3.24,3.35,3.35,0,0,0-.71,0l-.52.09-3.44,1.23-3.84,1.37q-11.28,2.32-22.3,5.71l-13.25,4.09a13.69,13.69,0,0,0-9.63,12.18l-2.47,37.79a3.92,3.92,0,0,0,0,.84c0,.09,0,.17,0,.26a4.27,4.27,0,0,0,.13.54l.09.27a4.45,4.45,0,0,0,.25.54,1.74,1.74,0,0,0,.1.19,4.7,4.7,0,0,0,.46.64l.13.13a4.47,4.47,0,0,0,.45.42l.23.17a4.08,4.08,0,0,0,.44.28l.27.14.14.07c.12.05.24.08.36.12l.3.1a4.64,4.64,0,0,0,.83.14h0L833,685.32l3,.2,4.56.3h.62l.25-.06.33-.08a1.68,1.68,0,0,0,.33-.16,1.89,1.89,0,0,0,.21-.09,2.7,2.7,0,0,0,.34-.25,1,1,0,0,0,.13-.09,3.31,3.31,0,0,0,.26-.27Z" transform="translate(-11.37 -7.84)" style="fill:#160d22"/><path d="M1245.5,521.57a9,9,0,0,0-1.53-.45c-17.63-3.69-35.25-7.45-52.9-11-17.33-3.51-37.59-10.54-55.26-10.54-6.67-1.19-13.71,20.13-16.16,25.22l2.48-3.33c-10.77,14.46-19.6,28.58-24.2,46.27-1.61,6.2-9.16,45.17.16,45.78,38.23,2.54,76.37,5.29,114.72,5.36,7.37,0,10.3-3.59,12.31-10.52q11-38.07,22.06-76.14C1248.42,527.91,1249.92,523.35,1245.5,521.57Z" transform="translate(-11.37 -7.84)" style="fill:#160d22"/><path d="M1265.13,453.74a6,6,0,0,0-.61-.14c-36.06-6.54-72.09-14.08-108.32-19.64-5.63-.86-10.56-1.19-12.16,6.13-3.49,16-6.38,32.21-9.67,48.28a4.56,4.56,0,0,0,3.57,5.38l.1,0,69.28,13.46L1249,516a4.58,4.58,0,0,0,5.33-3.2l14.92-51.5A6.08,6.08,0,0,0,1265.13,453.74Z" transform="translate(-11.37 -7.84)" style="fill:#160d22"/><path d="M911.64,420.78c8.72,3.92,25.54,1.58,31.89,1.87,15.57.72,31.15.94,46.73,1.16,8.59.12,11.2-5.29,11.89-13.29q2.36-27.28,4.72-54.58a11.85,11.85,0,0,0-.29-5.07c-2.82-7.92-39.05-5.79-45.68-6.26l-43.49-3.07c-10.37-.73-7.68,22.51-8.16,29q-1.51,20.43-2.91,40.86a11.28,11.28,0,0,0,.25,4.3A8.6,8.6,0,0,0,911.64,420.78Z" transform="translate(-11.37 -7.84)" style="fill:#160d22"/><path d="M988.28,555.22l.39-7a4.57,4.57,0,0,0-4.27-4.81l-10.94-.72-32.1-7.9-7-3.11a89,89,0,0,0-12.87-4.54,3,3,0,0,0-3.74,2.14,2.75,2.75,0,0,0-.1.7c0,1-.08,1.91-.14,2.86L916.23,552a3,3,0,0,0,2.84,3.23l27.36,1.81,37,2.44a4.57,4.57,0,0,0,4.86-4.25Z" transform="translate(-11.37 -7.84)" style="fill:#160d22"/><path d="M803.07,801.18l-.42,0-12-.27-8-.17h0a6.08,6.08,0,0,0-6.19,5.39l-2.25,19.68-.4,3.53q-2.84,24.83-3.59,49.83v0a6.07,6.07,0,0,0,5.95,6.22h.42l1,0,20.8.46a4.57,4.57,0,0,0,4.67-4.46v-.05l.37-36,1-15.94,2.64-23.19A4.55,4.55,0,0,0,803.07,801.18Z" transform="translate(-11.37 -7.84)" style="fill:#160d22"/><path d="M1219.58,632.05a4.12,4.12,0,0,0-2.37-.71c-32.52-1.15-65.06-2.12-97.46-4.24-5-.33-22.91-4.57-26.39.32a6.54,6.54,0,0,0-.89,3.29q-1.07,12.51-1.75,25c-.39,7-1.26,12.82,8,10.55A669.07,669.07,0,0,1,1202.34,649c3.77-.31,7.64-.61,11.11-2.14C1217.15,645.2,1225,636,1219.58,632.05Z" transform="translate(-11.37 -7.84)" style="fill:#160d22"/><path d="M1042.36,676.75a1.86,1.86,0,0,0,.34.07c4.94.57,12.22-2.34,17-3.29,5-1,18.58-1.4,21.94-5.47,2.72-3.28,1.63-11.95,1.94-16.08.51-6.79.92-13.58,1.4-20.37a8.12,8.12,0,0,0-.63-4.79c-3.75-6.32-41.28-9-42,1.85C1042,635.15,1036.17,674.65,1042.36,676.75Z" transform="translate(-11.37 -7.84)" style="fill:#160d22"/><path d="M1037.73,626.27a4,4,0,0,0,0-.85c0-.1,0-.2,0-.31s0-.25-.08-.37a.58.58,0,0,0,0-.14c0-.1-.07-.19-.1-.29a5.24,5.24,0,0,0-.23-.48,1.83,1.83,0,0,0-.13-.24,4.67,4.67,0,0,0-.36-.51,1.71,1.71,0,0,1-.11-.14,4.22,4.22,0,0,0-.58-.54l-.18-.12a4.26,4.26,0,0,0-.5-.32l-.25-.12a3.39,3.39,0,0,0-.53-.2l-.25-.08a4.5,4.5,0,0,0-.83-.14l-8.91-.59-10.65.52-16.34-1.08a4.76,4.76,0,0,0-1,.05l-.27.06a4,4,0,0,0-.67.2l-.3.13a5.24,5.24,0,0,0-.57.32l-.28.19a4.43,4.43,0,0,0-.55.51,1.42,1.42,0,0,0-.13.12l0,0a4.43,4.43,0,0,0-.64,1,1.86,1.86,0,0,0-.1.25,4.6,4.6,0,0,0-.32,1.17l-3.29,18.81h-2.26a.67.67,0,0,0-.68.68v3.44a.67.67,0,0,0,.68.68h1.34a4.54,4.54,0,0,0,3.48,4.16,5,5,0,0,0,.76.12l6.67.44,33.37,2.2A3,3,0,0,0,1036,652Z" transform="translate(-11.37 -7.84)" style="fill:#160d22"/><path d="M1089.26,571.08c0-.08,0-.16,0-.25l8-25a3,3,0,0,0-1-3.9l-15.79-10.62a3.05,3.05,0,0,0-4.23.82l0,.06-25.79,15.24a3,3,0,0,0-2.83,2.83l-.75,11.41a3,3,0,0,0,2.49,3.19l8.1,1.71,28.1,6.71A3,3,0,0,0,1089.26,571.08Z" transform="translate(-11.37 -7.84)" style="fill:#160d22"/><path d="M981.69,688.64a3,3,0,0,0,1.3,0l8.55-1.69,29.89-5.89,9.4-1.86a4.55,4.55,0,0,0,3.67-4.17l.81-12.13a3,3,0,0,0-2.84-3.24l-42.41-2.79a4.56,4.56,0,0,0-4.75,3.49L979.44,685A3,3,0,0,0,981.69,688.64Z" transform="translate(-11.37 -7.84)" style="fill:#160d22"/><path d="M1211.46,654.43c-5-2.66-19.89,1-24.41,1.56q-14.86,1.66-29.64,4-19.94,3.09-39.67,7.27c-6.69,1.42-26.5,1.74-27.1,10.94q-3.75,56.83-7.51,113.66a13.76,13.76,0,0,0,.56,6.26c3.7,8.84,20.21,2.76,26.49,1a188,188,0,0,1,46.64-6.59c3.16,0,6.47-.06,9.22-1.6,3.8-2.14,5.51-6.6,7-10.72q5.87-16.82,11.72-33.65c3.16-9.07,10.73-22.2,10.73-31.62,3-8.84,6.31-17.55,9.26-26.4,2-5.92,12-27,8-33A3.31,3.31,0,0,0,1211.46,654.43Z" transform="translate(-11.37 -7.84)" style="fill:#160d22"/><path d="M965.93,701.7c-.29-3.29-2-4-7.92-4.38-6.75-.39-13.54-.41-20.3-.23-51.51,1.38-100.3,21-149,36a7.6,7.6,0,0,0-5.34,6.6l-4.83,48.21c-1.25,12.47,60.19,8.08,69.14,8.26L938.19,798c3.37.07,7.1,0,9.56-2.28,2.09-1.94,2.68-5,3.16-7.78,4.59-26.86,11.26-53.82,14.83-80.57A38.67,38.67,0,0,0,965.93,701.7Z" transform="translate(-11.37 -7.84)" style="fill:#160d22"/><path id="ggggggg" d="M854.92,465.53,894,462a4.56,4.56,0,0,0,4.74-4.39,2.09,2.09,0,0,0,0-.25l-.43-25a6.09,6.09,0,0,0-5.64-6l-34.42-2.57a4.58,4.58,0,0,0-4.9,4.21v0l-2,29.42c-.11,1.67-.18,3.35-.19,5a3,3,0,0,0,3,3.07A3.14,3.14,0,0,0,854.92,465.53Z" transform="translate(-11.37 -7.84)" style="fill:#160d22"/><path d="M905.48,524.4l-40.22-3.19a4.57,4.57,0,0,0-4.91,4.19v.06L858.78,549a3,3,0,0,0,2.84,3.23h11.56l32.51,2.14a3,3,0,0,0,3.24-2.83l1.27-19.18c.1-1.58.16-3.17.16-4.75a3,3,0,0,0-2.73-3C906.91,524.52,906.2,524.45,905.48,524.4Z" transform="translate(-11.37 -7.84)" style="fill:#160d22"/><path id="tgtrgtr" d="M979.61,647.52l1.52-6.34a148.29,148.29,0,0,0,3.16-18.24,5.29,5.29,0,0,0,0-.89,2.84,2.84,0,0,0-.08-.42,3.07,3.07,0,0,0-.07-.42l0,0c0-.07,0-.14-.07-.21a5.31,5.31,0,0,0-.23-.55l-.13-.24a4.53,4.53,0,0,0-.3-.46l-.17-.21a4.26,4.26,0,0,0-.42-.43l-.15-.14a4.18,4.18,0,0,0-.65-.45,1.63,1.63,0,0,0-.19-.09,3,3,0,0,0-.56-.24l-.26-.09a5.6,5.6,0,0,0-.59-.12l-.17,0h-.19l-37.48-2.48-25.85-1.7a4.56,4.56,0,0,0-4.86,4.25l-1.71,25.73a3,3,0,0,0,2.84,3.24l27.37,1.8,34.5,2.28A4.57,4.57,0,0,0,979.61,647.52Z" transform="translate(-11.37 -7.84)" style="fill:#160d22"/></g><path id="bfbfgbgb" d="M795.14,640.24l-1.67,34.87a3.05,3.05,0,0,0,3,3.2l38.35.79a3,3,0,0,0,3.11-2.84l3.47-51a3.05,3.05,0,0,0-3.85-3.15l-35.59,9.65A9.24,9.24,0,0,0,795.14,640.24Z" transform="translate(-11.37 -7.84)" style="fill:#86c832"/><path id="bfgbbfg" d="M851.45,698.05,854,655a3.42,3.42,0,0,1,3.67-3.21l34.23,2.63a3.42,3.42,0,0,1,3.15,3.55l-1.15,28.89a3.41,3.41,0,0,1-2.37,3.11L855.91,701.5A3.41,3.41,0,0,1,851.45,698.05Z" transform="translate(-11.37 -7.84)" style="fill:#004332"/><path id="bfgxdbgb" d="M727.18,652.83l-.94,20.76a4.44,4.44,0,0,0,.15,1.36l13.73,50.3a4.41,4.41,0,0,0,5.84,3l18.36-7.05a4.41,4.41,0,0,0,2.82-3.9l3.64-73.8a4.41,4.41,0,0,0-5.6-4.46l-34.78,9.79A4.43,4.43,0,0,0,727.18,652.83Z" transform="translate(-11.37 -7.84)" style="fill:#d5b531"/><path id="gbjuk" d="M714.86,598.35l7.38,23.77a4.18,4.18,0,0,0,5.25,2.74l37.56-11.94a11.52,11.52,0,0,0,8-10.29l.69-12a4.18,4.18,0,0,0-5.07-4.31L744,591.82a4.55,4.55,0,0,1-.73.09l-24.61,1A4.17,4.17,0,0,0,714.86,598.35Z" transform="translate(-11.37 -7.84)" style="fill:#eb8f37"/><path id="limhnm" d="M667.67,609.72l9,28a4.23,4.23,0,0,0,5.25,2.75l23.68-7.17a4.23,4.23,0,0,0,2.82-5.24L700,599.75a4.24,4.24,0,0,0-5.3-2.84l-24.24,7.49A4.23,4.23,0,0,0,667.67,609.72Z" transform="translate(-11.37 -7.84)" style="fill:#1088e5"/><path id="ggggg" d="M737.5,486.05l-.8,28.88a2.1,2.1,0,0,0,.08.66l14.89,55.15a2.28,2.28,0,0,0,2.87,1.58l21.19-6.52a2.28,2.28,0,0,0,1.61-2l4.26-70.92a2.29,2.29,0,0,0-1.91-2.39l-39.54-6.59A2.28,2.28,0,0,0,737.5,486.05Z" transform="translate(-11.37 -7.84)" style="fill:#e7a175"/><path id="dff" d="M802.81,492.47l-4.23,66.89a2.37,2.37,0,0,0,3.06,2.42l43.26-13.13a2.36,2.36,0,0,0,1.69-2.27V511.22a2.48,2.48,0,0,0-.06-.54L840,482.89a2.37,2.37,0,0,0-3-1.74l-32.46,9.18A2.4,2.4,0,0,0,802.81,492.47Z" transform="translate(-11.37 -7.84)" style="fill:#22c296"/><path id="dfgdffe" d="M685.58,665.41l3,12.62a3.35,3.35,0,0,0,4.29,2.43l15.31-4.87a3.37,3.37,0,0,0,2.35-3.21V658.81a3.37,3.37,0,0,0-4.39-3.21l-18.3,5.82A3.37,3.37,0,0,0,685.58,665.41Z" transform="translate(-11.37 -7.84)" style="fill:#e7a175"/><path id="dfdd" d="M573.69,695.33l47.51-14a4,4,0,0,1,4.82,2.28l4.36,10.28a4,4,0,0,1-2.38,5.35l-48.29,16.65a4,4,0,0,1-5.17-2.73l-3.58-13A4,4,0,0,1,573.69,695.33Z" transform="translate(-11.37 -7.84)" style="fill:#a7abff"/><path id="cccv" d="M470.88,591l31.56-90.85a5.53,5.53,0,0,1,4-3.59l56.91-13.46a5.57,5.57,0,0,1,6.34,7.75l-8.91,19.24a5.56,5.56,0,0,1-3.89,3.11l-36.16,7.7a5.55,5.55,0,0,0-4.22,4l-18.22,68.86a5.56,5.56,0,0,1-5.23,4.14l-16.75.47A5.56,5.56,0,0,1,470.88,591Z" transform="translate(-11.37 -7.84)" style="fill:#1ea356"/><polygon id="vvvvv" points="681.88 686.92 696.44 732.52 716.6 726.12 702.36 680.52 681.88 686.92" style="fill:#7cca3f"/><path id="ddsydgfy" d="M790.49,695.46l-1.6,21.89a2.74,2.74,0,0,0,3.52,2.83l41.9-12.56a2.73,2.73,0,0,0,1.94-2.42l.61-8.07a2.74,2.74,0,0,0-2.65-2.94l-40.91-1.27A2.74,2.74,0,0,0,790.49,695.46Z" transform="translate(-11.37 -7.84)" style="fill:#df265f"/><path id="kjhg" d="M615,591.47l4.69,17.39a2.87,2.87,0,0,0,4.14,1.78l23.51-12.78a2.86,2.86,0,0,0,1.36-3.4l-2-6.08a2.87,2.87,0,0,0-2.89-2l-26.25,1.47A2.86,2.86,0,0,0,615,591.47Z" transform="translate(-11.37 -7.84)" style="fill:#d63f33"/><path id="kjhgfd" d="M581.62,734.42l1.81,6.25a4.22,4.22,0,0,0,5.33,2.85l48.69-15.4a4.24,4.24,0,0,0,2.83-5.08l-1.53-6a4.24,4.24,0,0,0-5.35-3l-49,15.16A4.22,4.22,0,0,0,581.62,734.42Z" transform="translate(-11.37 -7.84)" style="fill:#0000ab"/><path id="xcb" d="M545,329.91c-13.8,47.95-47.88,170.12-83.95,264.78-25.39,66.64-32.18,125.65-32.18,125.65L408.45,863l-5.94,94.1c-6.17,20.09,3.21,22.28,12.27,24.61,52.8,6.75,243.65,31.05,319.11,39.42,17,2.48,34.36-9.5,34.05-33.86,2.21-54.91,6.23-154.36,7.59-188,.35-4.78,5.1-8.93,12.64-8.87,32.2,1.7,118.85,4.32,153.8,6.17,7,.78,16.19-2.18,16.95-11.37C965.82,743,988.25,606,988.25,606L1090,611.73c1.78.47,6.94-2.3,5.94-6.51-.31-13.66-.32-44,5-56.18,9.95-22.84,24.47-44.3,32.36-57.16,2.77-5.66-.39-7.12-6.31-8-26.46-3.16-95.44-11.46-118.48-14.94-3.62-.63-8-4-7.07-9.38C1004.33,435,1013,362.14,1016,337.38c1.13-6-2.39-8.79-10.19-8.76-61.93-2.3-362.89-13.59-436.63-18.15C551.57,308.36,549.11,308.89,545,329.91Z" transform="translate(-11.37 -7.84)" style="stroke:#00ff9c;stroke-width:8.069000244140625px;fill-rule:evenodd;opacity:0.6700000166893005;isolation:isolate;fill:url(#radial-gradient-3)"/><path id="oiuytr" d="M860.48,517.61l-9.26-49.87,3.24-48.4,46.29,4,2.32,42,10.18,56.78Z" transform="translate(-11.37 -7.84)" style="fill-rule:evenodd;fill:url(#radial-gradient-7)"/><path id="aedtgh" d="M854.16,600.55c.05,0,.77-40.68,4.79-45.56,3.38-4.1,117.82,5.63,125.73,7.79,7.82,3.07.39,32.06,0,42.43.24,3.55-39.28-1.38-75.39-3.73C881,599.63,854.16,600.55,854.16,600.55Z" transform="translate(-11.37 -7.84)" style="fill-rule:evenodd;fill:url(#radial-gradient-7-2)"/><path id="fddfde" d="M638,540.75s25.68,78.56,33.58,102.7c2,5.41.32,7.92-3.53,9.12l-31.78,11.76c-2.37.88-5.75,1.48-6.82-2.17-4.81-16.79-22.51-77.95-26-80.82-4.05-3.33-17.26,3.12-59.17,16,2.61-38.32,42.33-60.45,42.33-60.45s3.27-4.1,8.64,11.65C639.88,533.27,638,540.75,638,540.75Z" transform="translate(-11.37 -7.84)" style="fill-rule:evenodd;fill:url(#radial-gradient-4)"/><path id="ytfg" d="M682.21,526.16S679.38,499,652.45,497.4c-2.58-14.3-.15-6.46,17.56-38.53,23.19-3.26,46.25,13.29,58,18-.55,34.94-1.95,37.55-1.95,37.55Z" transform="translate(-11.37 -7.84)" style="fill-rule:evenodd;fill:url(#radial-gradient-4-2)"/><path id="ggfgfg" d="M539.84,823.22l39.59,22.49s14.3-25.58,10.41-60.27c-15.11-60.74-24.65-94.24-31.21-92.52-7.4,1.94-51,12.87-51.4,16.3-.57,5.07,25.53,79.23,25.53,79.23Z" transform="translate(-11.37 -7.84)" style="fill-rule:evenodd;fill:url(#radial-gradient-2)"/><path id="ffdfd" d="M562.83,1001.22c2.23-26.25,6.36-80,8.39-103.82,1.42-6,1.47-9.73,9.72-9.66,7.64.23,18.44,2.71,33.74,2,44.87-2.16,102.91-10.58,136.62-6.18,13.51-1.59,13.44,6.9,13.59,13.33-.21,30.35-1.59,74.27-2.25,98.32-.94,19.38-10.59,25.58-27.16,24.7-36.69-.63-124-2.3-160.79-5C565.75,1013,563.62,1004.63,562.83,1001.22Z" transform="translate(-11.37 -7.84)" style="fill-rule:evenodd;fill:url(#radial-gradient-2-2)"/><path id="dfggfdf" d="M411.5,873.14l77.67,5.09L478.54,989.14l-71.2-9.24Z" transform="translate(-11.37 -7.84)" style="fill-rule:evenodd;fill:url(#radial-gradient-2-3)"/><path id="fsffd" d="M788.67,623.06s-4.95,69.13-6.89,96.35c-.5,6.43-.49,11.93,7.91,9.07C914,686.29,972.93,691.65,972.93,691.65s15.32-68.56,15.32-80.59C909.78,594.74,788.67,623.06,788.67,623.06Z" transform="translate(-11.37 -7.84)" style="fill-rule:evenodd;fill:url(#radial-gradient-11)"/></svg>