<svg id="图层_1" data-name="图层 1" xmlns="http://www.w3.org/2000/svg" viewBox="0 0 1314.4 327.04"><defs><style>.cls-1{fill:#3bb5ba;}.cls-2{font-size:80px;fill:#fff;font-family:SourceHanSansCN-Regular-GBpc-EUC-H, Source Han Sans CN;}</style></defs><title>第三部分白色1</title><polygon class="cls-1" points="1314.4 48.03 1314.4 182.96 211.27 182.96 218.12 176.11 1307.56 176.11 1307.56 54.87 218.12 54.87 211.27 48.03 1314.4 48.03"/><path class="cls-1" d="M517.51,417.53,440.9,494.15l76.61,76.61,16-16,60.62-60.62Zm0,128.07L466,494.15l51.47-51.45L569,494.15Z" transform="translate(-337.98 -378.66)"/><path class="cls-1" d="M426.3,494.15l45.61-45.61-4-4-38.3,38.3-11.3,11.3,11.3,11.29,56.74,56.74,4-4Z" transform="translate(-337.98 -378.66)"/><path class="cls-1" d="M628.15,378.66l-38.86,38.85H855.11l16-16h96L990,378.66Zm336.2,16H868.3l-16,16H605.81L631,385.5H973.52Z" transform="translate(-337.98 -378.66)"/><path class="cls-1" d="M1499.18,410.67h-622l-22.86,22.86H1522Z" transform="translate(-337.98 -378.66)"/><polygon class="cls-1" points="411.91 192.11 389.07 214.97 309.01 214.97 277 247 139.24 247 175.54 210.7 194.11 192.11 411.91 192.11"/><polygon class="cls-1" points="293.71 247 312 228.7 403.5 228.7 440.09 192.11 1095.86 192.11 1077.56 210.4 440.09 210.4 403.5 247 293.71 247"/><path class="cls-1" d="M490.32,558.19l-4,4-99.27,99.25-2.44,2.44A23.13,23.13,0,0,0,379.8,659L480.64,558.19l-64-64,50.47-50.45,4.84,4.84L426.3,494.15Z" transform="translate(-337.98 -378.66)"/><path class="cls-1" d="M387.08,661.43a29.16,29.16,0,0,0-4.84-4.84,27.45,27.45,0,1,0,4.84,4.84Zm-21.65,40.84a24,24,0,1,1,0-48A23.78,23.78,0,0,1,379.8,659a23.13,23.13,0,0,1,4.84,4.84,24,24,0,0,1-19.21,38.4Z" transform="translate(-337.98 -378.66)"/><path class="cls-1" d="M365.43,668.12a10.14,10.14,0,1,0,10.13,10.13A10.14,10.14,0,0,0,365.43,668.12Z" transform="translate(-337.98 -378.66)"/><path class="cls-1" d="M517.51,465.26l-28.88,28.89L517.51,523l28.87-28.86Z" transform="translate(-337.98 -378.66)"/><text class="cls-2" transform="translate(452.02 143.74)">园区土地供应地图</text></svg>