<?xml version="1.0" standalone="no"?><!DOCTYPE svg PUBLIC "-//W3C//DTD SVG 1.1//EN" "http://www.w3.org/Graphics/SVG/1.1/DTD/svg11.dtd"><svg t="1602231113437" class="icon" viewBox="0 0 1024 1024" version="1.1" xmlns="http://www.w3.org/2000/svg" p-id="7856" xmlns:xlink="http://www.w3.org/1999/xlink" width="200" height="200"><defs><style type="text/css"></style></defs><path d="M696.32 40.96H327.68a122.88 122.88 0 0 0-122.88 122.88v696.32a122.88 122.88 0 0 0 122.88 122.88h368.64a122.88 122.88 0 0 0 122.88-122.88V163.84a122.88 122.88 0 0 0-122.88-122.88z m81.92 819.2a81.92 81.92 0 0 1-81.92 81.92H327.68a81.92 81.92 0 0 1-81.92-81.92V163.84a81.92 81.92 0 0 1 81.92-81.92h368.64a81.92 81.92 0 0 1 81.92 81.92z" p-id="7857" fill="#ffffff"></path><path d="M225.28 778.24h573.44v40.96H225.28zM471.04 860.16h81.92v40.96h-81.92zM225.28 204.8h471.04v40.96H225.28zM737.28 204.8h61.44v40.96h-61.44z" p-id="7858" fill="#ffffff"></path></svg>