<?xml version="1.0" standalone="no"?><!DOCTYPE svg PUBLIC "-//W3C//DTD SVG 1.1//EN" "http://www.w3.org/Graphics/SVG/1.1/DTD/svg11.dtd"><svg t="1602230889786" class="icon" viewBox="0 0 1024 1024" version="1.1" xmlns="http://www.w3.org/2000/svg" p-id="6732" xmlns:xlink="http://www.w3.org/1999/xlink" width="200" height="200"><defs><style type="text/css"></style></defs><path d="M532.8 885.5V927h-41.5v-41.5H145.4V844h733.2v41.5H532.8z m-387.4-415V97h733.2v705.5H145.4v-332z m691.7-332H532.8V429h304.3V138.5zM186.9 761h650.2V470.5H186.9V761z m0-332h304.3V138.5H186.9V429z m525.7 290.5c-45.8 0-83-37.2-83-83s37.2-83 83-83 83 37.2 83 83-37.2 83-83 83z m0-124.5c-22.9 0-41.5 18.6-41.5 41.5s18.6 41.5 41.5 41.5 41.5-18.6 41.5-41.5-18.6-41.5-41.5-41.5zM311.4 719.5c-45.8 0-83-37.2-83-83s37.2-83 83-83 83 37.2 83 83-37.1 83-83 83z m0-124.5c-22.9 0-41.5 18.6-41.5 41.5s18.6 41.5 41.5 41.5 41.5-18.6 41.5-41.5-18.6-41.5-41.5-41.5z" p-id="6733" fill="#ffffff"></path></svg>