<svg id="图层_1" data-name="图层 1" xmlns="http://www.w3.org/2000/svg" xmlns:xlink="http://www.w3.org/1999/xlink" viewBox="0 0 3496.19 2705.3"><defs><style>.cls-1{fill:#373c55;}.cls-2{fill:#150e22;}.cls-3{fill:url(#shape-woca);}.cls-4{fill:none;}.cls-5{fill:#160d22;}</style><linearGradient id="shape-woca" x1="1385.2" y1="2438.78" x2="2117.2" y2="558.78" gradientUnits="userSpaceOnUse"><stop offset="0" stop-color="#22bf9d"/><stop offset="1" stop-color="#2f3c67"/></linearGradient></defs><title>地图全图</title><path class="cls-1" d="M2295.2,2784.82c-7-1.37-14-3.17-21.08-4q-110.25-13.62-220.54-27-50.26-6.15-100.52-12.44c-13.12-1.66-17.21-7.15-16.42-20.53,2.69-45.68,5.41-91.37,7.82-137.07,1.55-29.22,13.11-52.53,38.68-67.86a72.4,72.4,0,0,1,39.48-10.45q56.64,1.2,113.29,2.38,113.28,2.41,226.57,4.89c10.95.24,11.53.7,10.93,12.18q-3.45,65.84-7.16,131.65-2.79,50.6-5.75,101.17c-.56,9.37-.59,18.95-6.41,27.11Zm69.46-264.16c-5.33,0-9.63.07-13.93,0q-63.75-1.32-127.49-2.72c-66.11-1.46-132.23-2.54-198.32-4.59-38.19-1.19-70.57,28.64-72.28,67.68-1.5,34.48-4,68.92-6,103.37q-1.08,18-2.11,35.91c-.59,10.28.55,11.77,11,13.45,5,.8,10.11,1.11,15.15,1.72q94.64,11.55,189.26,23.14,84.34,10.46,168.62,21.34c20.63,2.66,22.5,1.39,23.67-19.27q6.21-109.92,12.38-219.85C2365,2534.72,2364.66,2528.58,2364.66,2520.66Z" transform="translate(-216.48 -79.52)"/><path class="cls-1" d="M428.22,1273.1c1.63-4.44,3.07-8.13,4.34-11.89Q504.82,1047.63,577,834a60.39,60.39,0,0,1,18.83-27.47c20.4-16.93,41.5-33,62.15-49.67,5.63-4.53,11.8-6.38,18.89-7.23,45.35-5.43,90.65-11.24,136-16.82,4.9-.6,9.88-.57,16.07-.9-2.47,16.63-4.67,31.93-7,47.21Q810.3,855,798.59,930.79q-12.4,80.67-24.77,161.34-11.58,75.28-23.2,150.57-13.68,88.72-27.37,177.44c-8.26,53.78-16.93,107.5-24.58,161.37a1456.15,1456.15,0,0,1-57.15,247c-3.93,12.08-8.32,24-12.14,36.14-3.23,10.24-9.68,16.41-20.1,19.33q-160.42,45-320.77,90.31c-21.69,6.1-37-7.64-33.53-29.8.72-4.66,1-9.38,1.66-14.06,5.51-41.33,11.14-82.64,16.57-124,4.44-33.79,9.75-67.51,12.65-101.44,3-35,3.55-70.24,5.2-105.38,1.15-24.62,2.38-49.23,3.47-73.86.43-9.79.62-19.59.85-29.39.5-21,.93-42.08,1.42-63.12q1.49-63.15,3-126.28c.15-5.78,1-11.55,1.3-17.33.57-10,4.73-14.52,14.95-14.67,17.8-.27,35.62.12,53.42-.16C388.72,1274.46,407.91,1273.7,428.22,1273.1Zm3.65,6.92H368.43c-16,0-32-.12-48,0-11.34.12-13.68,2.79-14.15,14.33-.61,15.22-1.63,30.42-2.09,45.64-.89,29.74-1.54,59.49-2.24,89.24q-1.16,49.53-2.24,99.06c-.23,10.16-.41,20.33-.86,30.49-1.07,24.62-2.32,49.23-3.44,73.86-.92,20.28-1,40.64-2.8,60.85-2.24,25.63-5.56,51.17-8.85,76.69-5.3,41-11,81.93-16.46,122.9-2.39,18-4.83,35.94-6.95,53.94-1.42,12.12,5.27,21.44,16.52,22.75,3.76.44,7.85-.7,11.61-1.75q154.13-43.26,308.2-86.71c23.67-6.68,22.54-5.61,30.75-29.91,25.63-75.84,46.15-153,59.07-232,8.31-50.84,15.79-101.81,23.65-152.72q15-97.32,30.09-194.64,12.42-80.65,24.69-161.34,13.72-89.26,27.59-178.52,11.54-74.73,23-149.47c2.22-14.51,4.23-29,6.46-44.51-4.63.3-7.84.35-11,.73-45.33,5.57-90.67,11.07-136,16.94a27.5,27.5,0,0,0-12.63,5.47q-31,24-61.49,48.75a59.14,59.14,0,0,0-18.81,27.41q-72.47,214.66-145.28,429.2C435.46,1270.8,433.84,1274.78,431.87,1280Z" transform="translate(-216.48 -79.52)"/><path class="cls-1" d="M879.19,94.71c.92,3.1,1.94,5.12,2.06,7.19,1.83,30.4,3.9,60.79,5.18,91.22,1,24.29,2,48.64,1.3,72.92-1.57,58-5.15,115.88-13.89,173.32Q856.91,550.72,840,662.06c-1.92,12.55-4.14,25.05-5.81,37.63-.76,5.78-3.4,7.56-9.15,8.24-56.86,6.8-113.68,14-170.52,21-10.9,1.35-24.65-10.4-25.51-23.45-.8-12.23-.8-24.81,1.13-36.87,4.21-26.21,8.28-52.51,6.64-79-1.57-25.27-5.24-50.46-9-75.54-7.23-48.8-15.11-97.5-22.74-146.23-2.24-14.3-4.55-28.59-7-43.77-6.37-.61-12.4-1.6-18.45-1.7-26.88-.44-53.76-.47-80.64-.92-33.74-.58-67.49-1.38-101.23-2.18-13.05-.3-26.08-.93-39.13-1.33-13.22-.4-17.23-6.05-11.83-18.12,7.72-17.23,16-34.21,24.11-51.26,22.76-47.89,46-95.56,68.06-143.76,6.67-14.56,18.29-21.07,34.95-14.68a275.3,275.3,0,0,0,105.59,18.21c27.16-.63,54.29-2.7,81.44-4.07,8.34-.42,16.69-.59,25-.94,34.78-1.45,69.56-2.8,104.33-4.43,26.06-1.22,52.11-2.83,78.16-4.2C872,94.55,875.6,94.71,879.19,94.71ZM602.7,318.51c.8,4,1.64,7.42,2.19,10.92,9.18,58.42,18.45,116.83,27.44,175.29,3.37,21.86,7,43.74,8.9,65.76,3.06,35.63-.08,71-6.61,106.19-1.74,9.38-1.19,19.66.58,29.1,2.34,12.51,12.08,18.39,23.75,16.92q59.35-7.5,118.73-14.87l49.63-6.23c.76-3.2,1.51-5.59,1.88-8.05q20.16-132.35,40.18-264.73c8.16-54.6,11.62-109.61,12.74-164.76,1-49-1.19-98-5.19-146.87-.46-5.63-1.55-11.22-2.38-17-6.35.39-11.73.79-17.12,1-19.92.92-39.85,1.74-59.78,2.69-25.71,1.24-51.41,2.62-77.12,3.86-20.29,1-40.59,1.76-60.88,2.73-25.35,1.22-50.68,3.18-76,3.68A310.44,310.44,0,0,1,470.37,95.48c-13.09-4.78-19-2.3-24.7,9.68q-46.59,97.92-93,195.9c-1.19,2.51-1.81,5.29-3.2,9.45,5.06.87,9.11,2.07,13.2,2.19q44.08,1.32,88.17,2.22c21.43.44,42.87.52,64.3.87q36.48.6,72.95,1.43C592.39,317.31,596.71,318,602.7,318.51Z" transform="translate(-216.48 -79.52)"/><path class="cls-1" d="M949.49,98.09c12.7-.93,24.2-2,35.72-2.57,25-1.18,50-1.86,75-3.13,32.93-1.68,65.83-3.92,98.75-5.58,26.08-1.31,52.19-2,78.28-3.15,31.14-1.33,62.27-3.08,93.42-4.09,17.78-.58,22.91,4.81,24.11,22.91q3.64,54.78,7.32,109.56,3.26,48.81,6.54,97.62,4.33,63.43,8.77,126.88,3.22,46.63,6.48,93.26,4.15,60.18,8.27,120.37c1.26,18.07,2.68,36.13,3.93,54.2a68.26,68.26,0,0,1,0,10.89c-.8,8.79-6.89,15.2-15.68,14.77-8.6-.41-18-.82-25.52-4.36-30.7-14.41-63.77-19.33-96.46-25.75-31-6.09-61.94-12.27-93.15-16.78-23.27-3.36-46.9-4.19-70.38-6-9.39-.71-18.82-1.46-28.22-1.33a977.07,977.07,0,0,0-117,9q-19.92,2.7-39.87,5.18c-1.34.17-2.77-.35-5.65-.77,1-6.95,1.86-13.58,2.87-20.18,11.81-77.44,24.23-154.78,35.22-232.33,4.77-33.69,7.44-67.74,9.57-101.72,2.2-35.1,3.89-70.32,3.42-105.45-.54-40.56-3.69-81.09-5.67-121.63C949.37,105.12,949.49,102.26,949.49,98.09ZM910.6,684c15.95-2,29.88-3.9,43.86-5.36,24.5-2.56,49-5.68,73.55-7a615.18,615.18,0,0,1,66.39,0c27.82,1.52,55.74,3.53,83.27,7.66,34.77,5.22,69.18,12.83,103.77,19.32,23.17,4.36,46.33,8.45,68,18.65,7.74,3.65,16.54,5.28,25,7,10.32,2.13,15.57-2.62,15.9-13.39.05-1.81.08-3.64,0-5.45q-2.32-34.17-4.7-68.33-4.14-60.2-8.29-120.37c-1.7-25-3.22-49.92-5-74.86-2.65-38-5.48-75.89-8.1-113.85-1.79-26-3.26-52.08-5-78.12-1.86-27.47-4-54.93-5.88-82.4-1.55-22.41-2.89-44.84-4.44-67.25-.76-10.95-7-16.75-17.63-16.31q-30.43,1.25-60.84,2.9c-32.92,1.8-65.83,3.82-98.75,5.62q-42.35,2.33-84.7,4.34c-33,1.56-65.93,2.61-98.86,4.62-10.63.65-21.69-1.38-32.21,2.93,0,4.85-.28,9.18.05,13.47,3,39.07,5.25,78.19,4.68,117.39-.41,27.93-.95,55.88-2.23,83.78-1.18,25.7-2,51.55-5.45,77-10.38,75.8-22,151.43-33.14,227.12C916.92,642.75,913.87,662.39,910.6,684Z" transform="translate(-216.48 -79.52)"/><path class="cls-1" d="M3190.82,1499.51c24.71,0,49.42.09,74.13,0q150.39-.63,300.77-1.36c1.82,0,3.64,0,5.45,0,14.74.13,19.72,6.69,15.53,20.84q-17,57.43-34.23,114.81-38.64,129.39-77.31,258.78c-1.24,4.15-2.45,8.48-4.66,12.13a18.43,18.43,0,0,1-16.29,9.28c-6.54.07-13.09.23-19.62,0-12.67-.54-25.32-1.55-38-2-23.93-.88-47.86-1.42-71.79-2.28q-57.07-2.07-114.14-4.37-53.79-2.12-107.59-4.35c-31.15-1.33-62.28-2.86-93.43-4.22-13.76-.6-27.52-1.18-41.3-1.44-16.31-.32-19.66-4.69-14.4-20,20.83-60.79,42.4-121.33,62.41-182.39,18.54-56.56,35.44-113.66,53.06-170.52,1-3.12,1.57-6.39,2.85-9.38,3.81-8.9,10.59-13.46,20.43-13.42,18.54.06,37.07,0,55.6,0Zm-234.46,388.36c6,.89,10.12,1.9,14.28,2.06,22.46.88,44.94,1.56,67.41,2.29,9.43.31,18.86.46,28.29.89,24.25,1.08,48.49,2.39,72.75,3.4,22.46.94,44.94,1.5,67.4,2.42,31.51,1.29,63,2.87,94.51,4.12,23.56.93,47.13,1.51,70.69,2.28,10.15.33,20.3.77,30.45,1.13,16.66.6,33.33,1.28,50,1.74,7.92.22,12.89-4.08,15.56-11.28.62-1.7,1-3.5,1.48-5.24l110.46-369.3c4.94-16.51,3.52-18.5-13.46-18.47l-417.43.8c-16,0-32,0-48,0-17.56,0-20.63,2.35-25.52,18.84-9,30.27-17.26,60.78-27.19,90.74-28.11,84.75-56.92,169.27-85.44,253.89C2960.7,1874,2958.93,1879.8,2956.36,1887.87Z" transform="translate(-216.48 -79.52)"/><path class="cls-1" d="M1942.28,756.46c-14.54,0-29.08-.12-43.62,0q-75.17.74-150.33,1.63c-11.23.13-15.45-3.23-16.26-14.08q-1.38-18.42-2.13-36.9c-.88-23.2-1.38-46.42-2.31-69.62-1.24-30.79-2.79-61.57-4.1-92.36-.9-21-1.53-42-2.42-63.07-1.08-25.35-2.35-50.69-3.45-76-.36-8.34-.36-16.7-.66-25-.77-21.75-1.2-43.53-2.56-65.24-1-16,7.75-27.76,26.41-29.11,27.47-2,54.9-4.43,82.36-6.54q52.56-4,105.14-7.83c26.76-1.91,53.53-3.52,80.3-5.31,9-.61,18-1.45,27.09-2.05,15.76-1,22.63,5,22,20.71-.88,21.72-2.73,43.4-4,65.11-1.17,19.55-2,39.12-3.23,58.66-1.73,27.85-3.74,55.68-5.49,83.52-1.2,19.19-2,38.39-3.23,57.58-1.77,28.57-3.82,57.12-5.57,85.69-1.2,19.55-2,39.12-3.15,58.67-.65,11.59-1.14,23.19-2.3,34.72-1.5,14.85-14.33,26.53-29.59,26.78-19.62.33-39.25.08-58.87.08Zm-69.8-4.38v-.82h119.86a72.19,72.19,0,0,0,8.71-.19c12.82-1.57,22.84-10.93,23.91-23.12,1.55-17.68,2.63-35.4,3.69-53.12,1.16-19.54,1.92-39.11,3.12-58.65,1.76-28.93,3.83-57.84,5.63-86.77,1.17-18.82,2-37.66,3.14-56.47,1.78-28.57,3.71-57.12,5.6-85.68,1.39-21,2.86-41.93,4.21-62.9.84-13,1.82-26,2.2-39.08.31-10.5-5.5-15.75-15.44-15-22.73,1.81-45.47,3.72-68.22,5.35-34.33,2.47-68.68,4.73-103,7.1-29.28,2-58.56,3.94-87.82,6.17-13,1-26,2.2-38.89,4.1-13.9,2.06-19.36,8.86-19.31,22.9,0,5.42,1.06,10.82,1.25,16.23.83,23.57,1.51,47.13,2.25,70.7.28,9.07.46,18.14.84,27.21,1.13,26.43,2.37,52.86,3.49,79.29.86,20.29,1.57,40.59,2.39,60.88q2.06,51.07,4.17,102.16c1,22.82,1.85,45.65,3,68.47.48,9.36,2.29,11.13,10.93,11.15C1789.63,752.14,1831.05,752.08,1872.48,752.08Z" transform="translate(-216.48 -79.52)"/><path class="cls-1" d="M3712.53,935.18c-.42,15.66-2.48,31.05-7.6,46q-26.37,76.74-52.7,153.5c-4.44,12.91-8.64,15.54-21.92,13.15q-102.3-18.48-204.56-37.16-99.59-18.12-199.18-36.27a81.33,81.33,0,0,1-8.51-1.78c-9-2.67-13.73-9.5-12.78-18.86a53.71,53.71,0,0,1,2.21-9.51q20.41-70.62,40.88-141.23c1.61-5.57,2.82-11.26,4.23-16.89,2.75-11,9.26-18,20.86-19.18,15.86-1.6,31.74-3,47.62-4.34q58.47-5.07,117-10c31.06-2.59,62.14-4.89,93.2-7.47,39-3.24,78-6.71,117-10,11.92-1,23.86-1.91,35.81-2.25,9.5-.27,13.83,3.12,15.29,11.92,4.6,27.55,8.87,55.15,13.17,82.74C3712.86,930,3712.53,932.63,3712.53,935.18ZM3677,838.56c-42.87,3.72-84,7.38-125.19,10.83-38.28,3.21-76.58,6.16-114.87,9.28q-52.56,4.29-105.1,8.71c-17,1.4-33.95,2.7-50.92,4.16-15.46,1.33-20.28,5.64-23.72,20.61-1.22,5.3-2.63,10.56-4.13,15.79q-20.17,70.14-40.39,140.26c-3.63,12.66-.57,17.56,12.25,20,16,3,32.12,5.88,48.18,8.8q110.85,20.14,221.69,40.29,67.49,12.26,135,24.52c11.74,2.12,13.55,1,17.47-10.47q26.17-76.24,52.25-152.52c6.27-18.43,9.34-37.46,6.48-56.86-3.65-24.76-8-49.42-12.26-74.08-1.38-7.93-3-9-10.8-9.26C3680.34,838.48,3677.8,838.56,3677,838.56Z" transform="translate(-216.48 -79.52)"/><path class="cls-1" d="M2375.27,2467.61c-20.33,0-39.14,0-57.95,0-2.53,0-5.06-.5-7.59-.54-26.14-.35-52.29-.53-78.43-1-34.11-.61-68.22-1.41-102.33-2.18q-45.16-1-90.33-2.2c-9.06-.25-18.15-.55-27.14-1.59-27.81-3.19-53.22-27.38-56.66-55.53-1.75-14.26-.79-28.9-.48-43.35.55-25.76,1.68-51.5,2.3-77.26,1.11-45.72,2-91.44,3-137.17.31-13.6,6.8-20.47,20-20.29q61.53.83,123,2.18c20.3.44,40.61,2.3,60.88,1.88,27.06-.56,53.47,4.25,80.08,7.41,24.48,2.91,48.82,7.13,73.34,9.46,18.74,1.79,37.67,1.65,56.51,2.14,13.53.35,16.73,4.12,16,18-1.27,26.08-2,52.19-3.2,78.29s-2.61,52.13-3.86,78.2c-.94,19.55-1.68,39.12-2.67,58.68C2378.41,2410.9,2376.82,2439.07,2375.27,2467.61Zm-6.15-5.41c.78-5,1.73-9,1.94-12.91q2.33-44,4.41-87.94,2.22-45.61,4.37-91.23t4.33-91.22a143.84,143.84,0,0,0,0-15.26c-.38-6.22-2.46-8.14-8.79-8.76a61.79,61.79,0,0,0-6.53-.08c-34.89.28-69.47-2.92-103.95-8.26-48.42-7.5-97.1-12.34-146.2-11.39-3.27.06-6.54,0-9.81-.05-42.07-1-84.14-2-126.21-2.86-13.06-.26-16.82,3.74-17.22,16.61-.42,13.76-1.06,27.52-1.34,41.29-1,50.79-1.88,101.59-2.92,152.37-.32,15.23-.65,30.48-1.61,45.67-2.2,34.47,24.89,65.14,59.27,66.5,21.74.86,43.49,1.67,65.24,2.18,49.34,1.17,98.68,2.1,148,3.18,30.83.67,61.66,1.54,92.49,2.11C2339.07,2462.42,2353.57,2462.2,2369.12,2462.2Z" transform="translate(-216.48 -79.52)"/><path class="cls-1" d="M1662.69,758c-17.77.66-35.53,1.85-53.3,1.87-48.32.07-96.43-2.8-144-11.67-8.57-1.6-17.08-3.47-25.66-5-13.77-2.37-25-16.11-25.56-30-1.09-26.08-3.14-52.11-5-78.16-2.52-36.15-5.27-72.29-7.76-108.45-1.89-27.49-3.55-55-5.27-82.51-.79-12.66-1.86-25.33-2.1-38-.27-14.26,4.92-21.11,18.8-25.6q45.6-14.74,91.32-29.16,75.83-24,151.7-47.77c5.88-1.85,11.86-3.45,17.89-4.76a53.85,53.85,0,0,1,11.86-1.28c10.25.1,16.15,5.75,16.63,16.11.9,19.57,1.41,39.16,2.29,58.73,1,22.81,2.33,45.62,3.4,68.43.44,9.43.59,18.87.89,28.31.73,23.21,1.33,46.43,2.26,69.64,1.24,30.8,2.8,61.58,4.12,92.38.89,20.66,1.58,41.33,2.38,62,.61,15.58,1.1,31.17,1.91,46.75.71,13.61-3.66,18.54-17.52,18.66-13.09.12-26.18,0-39.26,0C1662.7,758.43,1662.69,758.23,1662.69,758Zm-34.14-4.59q33.81,0,67.62,0a56,56,0,0,0,8.7-.25c6.56-1,9.3-4.63,9.06-11.32q-1.46-39.14-2.92-78.28c-.33-9.07-.47-18.15-.86-27.22-1.12-26.08-2.37-52.16-3.47-78.24-.88-20.66-1.52-41.33-2.41-62-1.32-30.43-2.89-60.85-4.11-91.29-.94-23.56-1.51-47.14-2.28-70.72-.2-6.17-.3-12.35-.87-18.49-.9-9.78-6.69-14-16.41-12.23a84.56,84.56,0,0,0-9.51,2.34c-36.8,11.26-73.64,22.38-110.35,33.91-47.81,15-95.52,30.34-143.26,45.58-15,4.78-19.12,10.79-18.29,26.5.39,7.23,1.21,14.44,1.71,21.67q3.15,45.56,6.2,91.13c1.13,17,2,34,3.18,51,1.74,24.94,3.69,49.87,5.49,74.81,1.49,20.6,2.69,41.23,4.42,61.82,1.22,14.56,8.26,22.81,22.3,25.72,42,8.7,84.33,14.69,127.27,15.46C1589.35,753.74,1609,753.44,1628.55,753.44Z" transform="translate(-216.48 -79.52)"/><path class="cls-1" d="M3237.88,532.45c-.22-1.8-.54-3.6-.64-5.41-.83-14.56,6.22-24.37,20.6-27.77,18.71-4.42,37.52-8.48,56.31-12.63,49.25-10.87,98.49-21.81,147.8-32.45,11.33-2.44,22.85-4.1,34.36-5.56,15.49-1.95,19.58,1.32,22.05,16.55,3.72,22.91,7.06,45.89,11.19,68.73a213.3,213.3,0,0,0,29.82,76.68q12.51,19.81,24.75,39.79a209,209,0,0,1,30.44,93.32c1.42,17.7,3.2,35.37,4.66,53.07,1.08,13.11-3,17.48-16.42,18.62-46.92,4-93.83,8.18-140.76,12.12-31.42,2.64-62.87,4.92-94.29,7.49-28.89,2.36-57.77,4.75-86.63,7.37-13.32,1.22-23.47-6.82-24.37-20.27-2.27-34.35-4.3-68.72-6.63-103.07-2.48-36.51-5.27-73-7.75-109.5-1.23-18.09-2-36.2-3.13-54.3-.46-7.59-1.12-15.17-1.69-22.75ZM3613,789.31c-.71-7.94-1.66-15.86-2.1-23.82-1.93-35.14-8.06-69.3-25.46-100.39-9.75-17.41-20.74-34.12-31.17-51.15a228.6,228.6,0,0,1-31.28-83c-3.64-22.18-7.12-44.39-10.77-66.58-1.58-9.62-4.27-11.57-13.94-10.08-12.9,2-25.91,3.56-38.65,6.31-52.12,11.28-104.17,22.92-156.24,34.47-14.88,3.3-29.78,6.52-44.56,10.21-10.15,2.53-16.42,10.06-16.14,19.32.33,11.22,1.26,22.42,2,33.63,1.79,26,3.73,52,5.44,78,1.19,18.09,2,36.2,3.17,54.29,1.76,26.74,3.76,53.47,5.57,80.21,1.1,16.27,1.91,32.57,3.08,48.84.83,11.45,7,17,18.37,16.9,2.54,0,5.09,0,7.62-.23,20.2-1.83,40.38-3.85,60.58-5.57q65.52-5.58,131.05-10.91c38.27-3.13,76.52-6.5,114.83-9.09C3616.85,809.15,3613.88,805.82,3613,789.31Z" transform="translate(-216.48 -79.52)"/><path class="cls-1" d="M1813,2537.35c-2.88-.32-5-.72-7.09-.75-20.33-.32-40.67-.28-61-.93-26.43-.85-52.85-2.22-79.28-3.41-21.36-1-42.74-1.78-64.09-3.08q-44.46-2.71-88.89-6.13c-22-1.72-44-3.91-66-6.15-9.83-1-11-2.59-11.31-12.16-.06-1.82-.05-3.64,0-5.45.31-13.61,6.43-18.45,20.23-17.05,23.06,2.33,46.15,4.33,69.25,6.26,23.82,2,47.64,4,71.48,5.54,21.71,1.39,43.45,2.23,65.18,3.2,27.87,1.24,55.75,2.56,83.64,3.46,20,.64,39.93.54,59.89,1,16.68.34,33.37.49,50,1.5,31.27,1.89,59.76,31.3,60,62.92.13,20.25-1.93,40.51-3,60.77-1.11,21-2.16,42-3.33,63-.59,10.49-1.14,21-2.19,31.44-.9,9-5.2,13.25-14.2,12.83-12.28-.56-24.51-2.21-36.77-3.37-15.86-1.5-31.75-2.88-47.6-4.5-9.53-1-12.38-5.05-11.4-14.63q5.33-52.44,10.43-104.9,3-30.82,6-61.65C1813.22,2542.92,1813,2540.76,1813,2537.35Zm6.9-4.92c-6.07,62.36-12,123.9-18.11,186.23,4.73,1,8.14,2,11.62,2.44,5.74.77,11.53,1.23,17.3,1.79,19.13,1.86,38.24,3.87,57.39,5.47,9.52.79,11.21-.84,12.75-10.37a109.6,109.6,0,0,0,1.25-11.86c1.1-20.65,2-41.3,3.17-62,1.33-24.61,3.58-49.21,4-73.84.56-32.63-25.76-60.06-58.17-62.08-8-.49-16-.7-24-.85-27.22-.51-54.45-.73-81.66-1.47-24.66-.67-49.3-1.79-74-2.87q-37.49-1.67-74.95-3.65c-17-.91-34.05-1.83-51-3.24-30.7-2.53-61.37-5.49-92.06-8.11-8.93-.76-12.36,2.65-12.94,11.89-.59,9.55.57,11,10.72,11.88,32.13,2.91,64.24,6.09,96.4,8.47,35.43,2.62,70.89,4.88,106.37,6.54,33.35,1.56,66.74,2.17,100.11,3.11,20,.57,39.91,1,59.86,1.48A55.71,55.71,0,0,1,1819.94,2532.43Z" transform="translate(-216.48 -79.52)"/><path class="cls-1" d="M2513.93,793.05c-34.71-2.3-69.42-4.53-104.13-6.91q-61.82-4.25-123.61-8.71t-123.6-8.76c-24.56-1.78-49.09-4.4-73.68-5.44-15.25-.65-32.52-13.91-31-36.23,1.52-22.77,2.86-45.56,4.33-68.34,1.17-18.08,2.27-36.16,3.7-54.21,1-12.3,10.14-21.42,22.81-22.4,17.35-1.33,34.74-2,52.11-3.15,26.38-1.76,52.75-3.77,79.13-5.52,18.09-1.2,36.2-2,54.29-3.2,26.74-1.76,53.47-3.79,80.22-5.53,18.81-1.21,37.65-2,56.46-3.21,26-1.71,52-3.68,78-5.54,1.09-.08,2.18-.06,3.27-.15,19.68-1.63,28.58,5.41,30.17,26.12,3.93,50.94,8.71,101.82,13.19,152.71,1.21,13.72,2.71,27.4,3.83,41.12,1.06,13.1-3.47,17.75-16.81,17.84-2.91,0-5.81,0-8.71,0Zm19.44-23c-3.16-35.12-6.19-69-9.26-103-2.72-29.94-5.4-59.88-8.28-89.81-1-10.92-6.11-15.43-16.89-15.76-2.9-.09-5.82,0-8.71.19-30,2.08-60,4.26-90,6.27-33.62,2.26-67.24,4.38-100.86,6.56s-67.24,4.39-100.86,6.52q-53.14,3.38-106.31,6.61c-12.74.78-20.16,7.66-21.19,20.37-1,11.92-1.57,23.87-2.26,35.8-1.53,26.78-2.91,53.56-4.56,80.33-1.32,21.54,8.16,32.3,30,33.64,16.28,1,32.56,1.93,48.82,3.12,33.95,2.5,67.88,5.29,101.84,7.72,27.47,2,55,3.4,82.45,5.36,33.95,2.43,67.88,5.21,101.83,7.74,30,2.23,60,4.29,89.95,6.52,11.76.88,14.76-2,14.24-14C2533.31,772.5,2533.37,770.68,2533.37,770.07Z" transform="translate(-216.48 -79.52)"/><path class="cls-1" d="M248.33,2083.56c0-14.5-1.27-29.14.29-43.47,2.59-23.77,16.85-38.65,39.74-45.18q51.83-14.78,103.69-29.39,95.34-26.87,190.74-53.59a52.46,52.46,0,0,1,13.87-2.13c7.58,0,12.21,4.76,11.89,12.37a51.83,51.83,0,0,1-3,13.69q-28,85.92-56.22,171.78c-3.7,11.38-6.88,22.94-10.11,34.47-16.89,60.22-65.48,102.51-127.34,109.63-20.27,2.34-40.48-.41-60.53-4.57-28.77-6-57.67-11.27-86.56-16.62-22.83-4.23-29.2-13.24-26.06-36.52,2.47-18.31,4.83-36.66,6.3-55.06s1.8-36.93,2.63-55.4Zm147.09,163c46.72-.82,84.79-19.46,113.76-56.27,13.7-17.42,20.58-37.92,27.15-58.91,20.7-66.14,42.53-131.92,63.81-197.88,1.7-5.3,5.66-11.11.53-16.32-4.74-4.83-10.45-1.31-15.43.08q-146.19,41-292.29,82.39c-27.12,7.69-39.44,24.54-39.8,52.58-.23,17.4-1.3,34.8-1.24,52.19.12,32.74-3.57,65.12-8.14,97.44-1.26,8.95,3.1,16.57,11.33,20.15a34.7,34.7,0,0,0,7.3,2.11c27.43,5.25,54.85,10.53,82.32,15.59C361.45,2242.79,378,2247.68,395.42,2246.56Z" transform="translate(-216.48 -79.52)"/><path class="cls-1" d="M2862.59,2479c.85-11.66,1.43-22.11,2.4-32.52,1.88-20.21,4-40.39,6-60.59,1.42-14.58,4.49-16.79,18.79-18.35a386,386,0,0,0,43.88-7.52c21.22-4.84,42-11.93,63.38-15.75,18.45-3.3,37.47-3.77,56.27-4.79,29.33-1.6,58.7-2.37,88-3.94,28.81-1.53,57.23-.31,85.41,6.77,37,9.3,74.15,17.74,111.24,26.56,1.77.42,3.52.91,5.25,1.44,11.47,3.52,15.05,12.21,9,22.83-5.37,9.49-11.16,18.73-16.8,28.06-9.39,15.55-19,31-28.15,46.67-7.45,12.75-17.64,19.21-33,18.72-15.92-.5-31.91,1.23-47.85,1.06-41.76-.43-83.5-1.3-125.25-2.11-31.94-.62-63.87-1.43-95.8-2.15-32.66-.74-65.33-1.35-98-2.24C2893,2480.75,2878.61,2479.79,2862.59,2479Zm6-5.35a59.17,59.17,0,0,0,6.29.92q44.07,1.17,88.16,2.24,45.72,1.11,91.45,2.16c33.75.77,67.5,1.8,101.25,2.12,39.23.37,78.47-.06,117.7.18,12.43.07,21.57-4.41,27.92-15.32,9.14-15.7,18.76-31.11,28.17-46.65,5.46-9,11-18,16.3-27.09,5.82-9.91,4-14.06-7.25-17.09-1.05-.28-2.14-.41-3.2-.67-29.67-7.08-59.39-13.94-89-21.31-35.7-8.88-71.33-15.59-108.63-11.9-31.72,3.13-63.72,4.19-95.61,4.39-28.75.19-56.15,6.19-83.47,13.9-23.06,6.5-46,13.25-70.35,13.61-7.66.12-10.23,2.89-11.09,10.63-2.14,19.45-4,38.93-5.85,58.41C2870.39,2452.53,2869.54,2462.9,2868.58,2473.65Z" transform="translate(-216.48 -79.52)"/><path class="cls-1" d="M2964.16,580.92c-.92,10-.65,18.68-2.73,26.8a224.3,224.3,0,0,1-11.49,32.75c-5,11.67-11.32,22.77-16.8,34.24-6.18,12.93-9.64,26.53-9.36,41,.54,28.31.88,56.62,1.44,84.93.25,12.37,3.93,16,16.22,16.88q62.36,4.37,124.71,8.77,61.82,4.35,123.63,8.74c7.23.52,14.42,1.51,21.65,2,11.06.68,15.7-3.34,15.42-14.39-.37-14.85-1.43-29.69-2.33-44.53-1.59-26-3.16-52.1-4.95-78.14-2.5-36.51-5.27-73-7.78-109.52-1.19-17.36-2.16-34.75-3-52.13s-6.84-22.18-23.93-20.72c-18.42,1.58-36.93,2.12-55.38,3.33-27.11,1.77-54.21,3.83-81.32,5.57-18.82,1.22-37.66,2.11-56.49,3.13-2.17.12-4.37,0-6.53.24-15.56,1.79-15.56,1.81-23.59,14.69-4-2.62-3.26-6.15-1.66-9.43,2.92-6,7.76-9.43,14.55-9.87,15.56-1,31.12-2,46.67-3,27.11-1.84,54.21-3.84,81.32-5.59,18.46-1.2,36.93-2.05,55.39-3.14,9.41-.56,18.8-1.27,28.19-2,19.21-1.45,26.68,5.19,28,24.27,2.47,36.51,5.34,73,7.75,109.52,2,30,3.39,60.09,5.34,90.12,1.64,25.3,3.73,50.58,5.53,75.88.3,4.34.21,8.72.13,13.08-.24,12.33-6.68,18.85-19,18.45-11.59-.38-23.16-1.36-34.72-2.23-17.7-1.32-35.39-2.88-53.1-4.16-29.27-2.12-58.56-4.07-87.84-6.13q-49.35-3.48-98.69-7c-13.46-.94-19.67-7-19.87-20.72-.45-31.61-.64-63.22-.83-94.82-.08-13,4-25,9.48-36.61C2933.43,660,2939,649,2944.65,638c7.73-15.06,12.47-30.9,13.28-47.88C2958.08,587.05,2957.61,583.51,2964.16,580.92Z" transform="translate(-216.48 -79.52)"/><path class="cls-1" d="M3137.26,1475.54c-8.35,0-16.71.1-25.06,0-16.29-.24-25.49-11.87-21.08-27.56,11.2-39.82,22.78-79.54,34.25-119.28q32.16-111.39,64.37-222.77c.61-2.09,1.23-4.17,1.85-6.26,4.23-14.11,10.39-17.79,25.21-15.09,14.27,2.59,28.56,5.13,42.83,7.74,26,4.76,52.09,9.44,78.1,14.37,14.69,2.78,17.09,8,9.75,20.89-27.75,48.53-55.26,97.21-83.48,145.47-29.09,49.75-51.47,102.41-70.3,156.72-3.92,11.31-8.18,22.51-12.39,33.73-3.67,9.78-6.63,11.91-16.8,12C3155.43,1475.63,3146.35,1475.54,3137.26,1475.54Zm209.89-360.42c-5.92-1.52-9.64-2.69-13.45-3.41-18.53-3.47-37.09-6.83-55.64-10.21-20.69-3.77-41.37-7.6-62.08-11.28-11.47-2-15.14.26-18.63,11.11-.45,1.38-.93,2.75-1.33,4.14q-16.92,58.58-33.83,117.14c-21.55,74.6-42.82,149.28-64.93,223.71-4.22,14.22,4.52,24.56,17.36,23.71,15.91-1.06,32-.52,47.92-.14,7.32.18,11.38-2.57,13.74-9.48,4.92-14.42,10.5-28.62,15.55-43,16.64-47.35,36.09-93.43,61.11-137q43.89-76.51,87.74-153.06C3342.6,1123.94,3344.32,1120.46,3347.15,1115.12Z" transform="translate(-216.48 -79.52)"/><path class="cls-1" d="M565.64,2481.51c8.4-17.8,20.17-31.37,35.61-40.55,30-17.79,60-35.74,92.73-48.06,46.68-17.55,94.68-20.44,143.55-11Q926.8,2399,1016.1,2416c11.55,2.21,17.62,8.16,15.41,16.89-3.08,12.21-6.2,20.9-21.86,18-36-6.76-72-13.72-108-20.53-28.17-5.33-56.18-11.89-84.56-15.54-56.63-7.27-120.88,21.91-150.41,84.38-.93,2-1.68,4-2.65,6-4.39,8.76-10.24,11.23-19.66,8.17-2.76-.89-5.38-2.18-8.08-3.25q-30.39-12-60.76-24.09C572.54,2484.78,569.68,2483.34,565.64,2481.51Zm8.23-2.78c10.53,4.24,19.92,8,29.34,11.79,13.82,5.51,27.6,11.12,41.51,16.41,8.24,3.14,10.82,1.89,14.63-5.91,1.11-2.28,2.13-4.61,3.22-6.9,28.94-60.26,96.39-96.07,165.61-83.76,35.35,6.29,70.55,13.46,105.82,20.18,25.3,4.83,50.62,9.55,75.91,14.39,4,.78,8.61,1.91,10.9-2.11,2.41-4.24,4.66-9.39,4.5-14.05-.2-5.68-6.23-6.14-10.86-7.1-1.42-.3-2.83-.6-4.26-.87q-78.57-15-157.14-29.91c-27-5.14-54-10-81.85-8.1-29.69,2-58.5,7.42-85.31,20-26.24,12.33-51.72,26.36-77.13,40.39C594.28,2451.21,582.94,2463,573.87,2478.73Z" transform="translate(-216.48 -79.52)"/><path class="cls-1" d="M2055.66,2056c0-8.24.2-14.42,0-20.59-1.26-33.15,3.71-65.82,7.29-98.61.52-4.68.84-9.4,1.56-14,1.34-8.59,5.86-13.1,14.62-13,19.94.23,39.87,1.09,59.8,1.7,2.54.07,5.07.28,7.61.31,26.51.29,53,.4,79.51.86q50.05.87,100.1,2.18c18.84.47,37.7.91,56.51,2,13.81.8,18.87,7.49,18.22,21.28-1.27,27.17-2.15,54.36-3.43,81.53-1.21,25.7-2.72,51.39-4.09,77.09-.5,9.41-.84,18.83-1.51,28.23-.8,11.38-4.17,14.49-15.69,14.79-33.07.86-66-.67-98.72-5.94-27.92-4.49-56.05-7.71-84.12-11.18a229.31,229.31,0,0,0-23.9-1.19c-26.85-.51-53.7-.83-80.55-1.33-6.89-.13-13.78-.52-20.65-1-8.87-.65-13.06-4.75-13.21-13.94-.22-14.16.13-28.32.3-42.49C2055.3,2059.78,2055.6,2056.88,2055.66,2056Zm294.72,78c9.29,0,17.29.22,25.27-.06,7.58-.28,9.85-2.33,10.36-9.7,1-14.1,1.6-28.23,2.3-42.35q1.44-28.78,2.79-57.58c1.28-27.16,2.4-54.32,3.8-81.48,1.09-21.1-4.56-19.12-20.28-21.45a9.91,9.91,0,0,0-1.09,0q-78.9-1.5-157.81-3c-25.38-.48-50.78-.82-76.16-1.44-19.2-.48-38.39-1.37-57.59-2-7-.21-11,2.9-11.73,10-3.57,32.77-9.3,65.34-8.87,98.48.17,13.43-.13,26.87-.36,40.3-.21,13-.94,26.1-.79,39.14.09,7.9,2.72,10,10.8,10.26,21.75.79,43.51,2.4,65.24,2,41.18-.78,81.74,4.45,122.41,9.78C2289.55,2129,2320.25,2135.46,2350.38,2134Z" transform="translate(-216.48 -79.52)"/><path class="cls-1" d="M2984.39,1907.86c21,.86,42.05,1.68,63.07,2.59,26.45,1.13,52.88,2.41,79.33,3.45,12.7.5,25.42.51,38.12.94,6.15.21,12.31.62,18.4,1.39,11.12,1.4,16.44,8.1,15,19.74-1.14,9.36-3.23,18.6-5,27.87q-17.36,89.82-34.79,179.62c-3.23,16.69-9.52,21.4-26.84,22.34-27.5,1.49-54.95,3.74-82.43,5.48-19.19,1.22-38.4,2-57.59,3.18-27.12,1.68-54.25,3.38-81.34,5.46-13.71,1-23-8.17-21.2-22.09,8.29-62.67,19.47-124.79,35.92-185.89,3.78-14,7.46-28.08,11.64-42,5-16.46,13.24-22.39,30.29-22.49,5.81,0,11.61,0,17.42,0Zm-70,265.68.05.43c6.12-.58,12.24-1.34,18.37-1.71,27.14-1.62,54.28-3.09,81.42-4.7,39.07-2.32,78.14-4.77,117.22-7,13.74-.8,18.72-4.95,21.32-18.43q7-36.33,14.07-72.67,12.42-64.12,24.84-128.26c2.85-14.84-.23-18.86-15.59-20-8.32-.63-16.7-.32-25-.71-23.17-1.07-46.32-2.39-69.49-3.4-25-1.09-50-1.93-75-2.89-13-.5-26.08-1.33-39.12-1.4-13.5-.09-20.56,5.47-24.87,18.4-.69,2.07-1.32,4.16-1.93,6.25a1425.64,1425.64,0,0,0-40.81,186c-1.8,11.83-3.49,23.69-4.72,35.59-1,9.78,4.21,15.11,13.88,15C2910.76,2174,2912.57,2173.69,2914.37,2173.54Z" transform="translate(-216.48 -79.52)"/><path class="cls-1" d="M2402.13,2104.68c.84-20.65,1.58-41.32,2.55-62,1.19-25.34,2.57-50.68,3.9-76q.84-15.75,1.82-31.47c.75-12.34,8.7-19,21-17.68,2.87.31,5.75.75,8.63.78,26.52.33,53,.43,79.55.88q50.63.87,101.23,2.19c20.67.53,41.33,1.36,62,2.15,11.83.45,18,6,17.63,17.34-.75,26.08-2.17,52.15-3.27,78.23-.38,9.06-.64,18.14-.94,27.21-.74,22.12-1.44,44.23-2.24,66.35-.35,9.78-1.06,19.54-1.38,29.32-.43,13.53-7.57,20.66-20.48,19.38-17.67-1.74-35.39-3.07-53.06-4.78-51.59-5-103.14-10.28-154.74-15-15.15-1.4-30.42-1.59-45.64-2-14.4-.37-16.9-2.71-17-17.47,0-5.81,0-11.63,0-17.44Zm49.47-180.8v-.35c-6.17,0-12.35.06-18.53,0-13.36-.17-16.85,3-17.49,16.15q-2.25,46.15-4.39,92.31c-.4,8.7-.62,17.41-1.06,26.11-1.05,21-2.45,42-3.17,62.94-.4,11.63,1.55,13.06,13.25,13.31,14.51.3,29.09-.11,43.52,1.18,40,3.59,80,7.91,120,11.95,27.75,2.8,55.51,5.49,83.24,8.45,14.1,1.5,19.47-2.44,20.28-17,1.11-19.54,1.6-39.12,2.33-58.68.79-21.38,1.48-42.77,2.36-64.14.42-10.13,1.4-20.24,1.75-30.37.52-14.87.93-29.75.92-44.63,0-7.27-3.56-11-10.26-11.68-7.2-.74-14.43-1.29-21.66-1.48q-46.78-1.23-93.56-2.18C2530,1925,2490.78,1924.5,2451.6,1923.88Z" transform="translate(-216.48 -79.52)"/><path class="cls-1" d="M2654.33,2346.21c-34.94-2.2-68.22-4.33-101.5-6.38-26.77-1.64-53.55-3.16-80.32-4.8q-34.73-2.13-69.45-4.42c-7.55-.51-11.34-4.18-11.36-11.74,0-8.32.8-16.64,1.25-24.95q2.15-40.18,4.27-80.36c.84-16.3,1.45-32.6,2.29-48.9.62-12.17,3.62-14.69,16.22-15.1,29.46-.95,58.71,1.58,88,4.56,54.44,5.54,108.93,10.65,163.39,16a55.17,55.17,0,0,1,11.73,2.17c7.28,2.38,11.61,10.34,10.68,19.47q-3.23,31.36-6.78,62.7c-2.69,23.77-5.55,47.52-8.33,71.28,0,.36,0,.73,0,1.09C2672.31,2343.52,2672.58,2348.75,2654.33,2346.21Zm-219.56-192.34-.08.93c-5.81,0-11.63-.11-17.45,0-9.84.23-12,2.37-12.55,12.2-.8,15.93-1.51,31.88-2.22,47.82-.39,8.7-.61,17.42-1.07,26.12-1.3,25-2.79,50-4,74.94-.33,7.16,1.37,8.46,9.06,9,16.62,1.16,33.24,2.45,49.87,3.52,34.73,2.24,69.46,4.48,104.19,6.53,32.22,1.91,64.45,3.57,96.68,5.35,9.05.5,9.61.1,10.75-9.06,1.24-10.07,2.37-20.16,3.49-30.25,4-35.67,8-71.34,11.73-107,1.3-12.45-2.22-16.51-14.65-17.79-28.12-2.88-56.26-5.54-84.39-8.34s-56.24-5.8-84.39-8.45C2478.12,2157.34,2456.44,2155.69,2434.77,2153.87Z" transform="translate(-216.48 -79.52)"/><path class="cls-1" d="M2701,2144.88c1.42-26.78,2.66-49.2,3.78-71.63.45-9.06.61-18.13.91-27.2.73-21.74,1.37-43.48,2.24-65.21q.81-20.1,2.2-40.16c.7-10.28,6.36-15.4,17-15.76,25.46-.87,50.53-4.22,75-11.7,19.83-6.07,40.1-10.33,60.8-11.2a263.48,263.48,0,0,1,38,1.61c9.74,1,15.42,10.89,12.9,21.46-2.62,10.93-6.06,21.66-9,32.52a1372.36,1372.36,0,0,0-38.19,195.24c-1.65,13.84-9.7,27-28.93,25.13q-31.91-3.08-63.8-6.12c-15.86-1.54-31.69-3.63-47.58-4.6C2708.2,2166.17,2699.59,2162.06,2701,2144.88Zm6.69-16h-.55c0,6.53-.21,13.07.06,19.59s3.33,10.12,9.35,11.71a48.64,48.64,0,0,0,7.55,1c18,1.87,36,3.79,54,5.54,19.49,1.89,39,4,58.48,5.27,15.66,1,21.67-4.86,24-20.06,5.16-33.33,9.41-66.86,16.34-99.83,8.8-41.88,19.83-83.29,30-124.88,2.91-11.88-.71-18.11-12.09-18.93-25.86-1.88-51.48-.52-76.6,6.53-8,2.25-16.17,4.18-24.19,6.49-20.73,6-41.93,8.27-63.41,8.73-11,.23-14.19,3.34-14.88,14.1q-.83,13-1.38,26c-.39,9.43-.48,18.87-.94,28.3-1.07,22.07-2.4,44.14-3.4,66.22C2709.11,2086.16,2708.44,2107.55,2707.64,2128.93Z" transform="translate(-216.48 -79.52)"/><path class="cls-1" d="M2892.37,2361.46c-12.34,1-18.77-4.36-17.28-19.71,3.08-31.73,6-63.48,9.09-95.22,1.18-12.25,2-24.56,3.87-36.71,2.1-13.48,9.24-19.92,22.42-20.89,22.76-1.69,45.55-2.93,68.32-4.45,27.1-1.81,54.19-3.82,81.3-5.55,19.17-1.22,38.37-2.08,57.55-3.18,4.69-.27,9.35-1,14-1.29,12.58-.84,19.24,6.33,16.91,18.65q-11.06,58.28-22.48,116.5c-2.79,14.17-9.94,20.48-24.7,21.48-17.72,1.21-35.48,2.33-53.22,2.43-30.75.19-60.5,5.5-90,14-18.43,5.29-37.38,8.79-56.13,13C2898.93,2361.15,2895.61,2361.14,2892.37,2361.46Zm233.89-180.7q-15.72,1-31.46,2c-31.47,2-62.93,4.13-94.4,6.11-27.86,1.75-55.74,3.24-83.59,5.09-17.53,1.17-22.9,6.92-24.37,24.15-1.57,18.42-3.48,36.8-5.26,55.2-2.29,23.8-4.7,47.6-6.84,71.42-.65,7.25,2.64,10.68,10.25,10.63a79.38,79.38,0,0,0,17.29-1.64c20.14-4.7,40.23-9.61,60.22-14.93,18.64-5,37.33-9.13,56.72-9.68,14.49-.41,29-1.37,43.46-2,9.07-.39,18.21,0,27.2-1,14.6-1.71,22.12-1.34,26.16-23,6.54-35,13.47-69.86,20.13-104.8C3144.91,2181.84,3143.23,2180,3126.26,2180.76Z" transform="translate(-216.48 -79.52)"/><path class="cls-1" d="M1399.55,2512.45c-31.38-3.82-64.55-7.26-97.54-12-50.59-7.3-101.08-15.25-151.54-23.43-29.35-4.75-58.54-10.46-87.8-15.78a64.32,64.32,0,0,1-7.4-1.79c-4.82-1.49-7.06-5.25-7-9.9,0-15.4,11.24-24.81,26.75-22.23,17.17,2.87,34.19,6.65,51.37,9.42,58.34,9.41,116.65,19,175.1,27.64,34.75,5.16,69.74,8.78,104.61,13.14,11.36,1.42,15.28,6.11,14.67,17.28,0,.37-.11.72-.13,1.09C1419.92,2515.64,1414.58,2512.4,1399.55,2512.45Zm-345.74-61.36c18.23,9.52,246.29,45.82,349.8,56,3.08.3,6.27-.35,9.57-.57.51-3.08,1-5.17,1.18-7.29,1.28-13.61.65-14.79-13.09-16.57-37.74-4.91-75.6-8.91-113.26-14.35-48.8-7.05-97.49-15-146.16-22.87-23.28-3.78-46.39-8.5-69.61-12.64-7.84-1.4-11.54.6-14.72,7.62C1056.05,2443.68,1055.16,2447.16,1053.81,2451.09Z" transform="translate(-216.48 -79.52)"/><path class="cls-1" d="M486.69,2449.91c-5.05-1.71-8.15-2.61-11.14-3.8q-116.87-46.67-233.7-93.39c-2.36-.94-4.75-1.85-7-3-12.8-6.36-19.75-17.75-18.12-31.84a254,254,0,0,1,6.11-33.15c3.46-13.7,15.24-20.59,29.17-17.94q58.83,11.18,117.63,22.51c66.39,12.91,113.94,71.1,117.81,131.69.37,5.78,1.18,11.55,1.2,17.32C488.65,2441.77,487.52,2445.21,486.69,2449.91Zm-4.32-7.93c.27-3.73.66-6.24.59-8.73-2.09-66.93-46.28-119-103-135.21-11.12-3.18-22.63-5.11-34-7.32q-47-9.15-94-18c-10.71-2-20.23,2.19-22.71,11.82a245.26,245.26,0,0,0-6.38,37.42c-1,10,5,17.13,13.48,21.91a76.41,76.41,0,0,0,9,3.81q113.24,45.27,226.48,90.51C475.06,2439.47,478.41,2440.56,482.37,2442Z" transform="translate(-216.48 -79.52)"/><path class="cls-1" d="M2856.16,2214.46q-4.57,48.12-9.12,96.25c-.92,9.73-1.66,19.48-2.61,29.21-1.19,12.11-8.29,18.3-20.38,17.5-32.15-2.13-64.29-4.44-96.44-6.63-10.47-.71-21-1.23-31.44-1.88-12.17-.76-14.85-4.34-13.43-16.58q6.12-52.89,11.93-105.82c1.32-11.87,2.34-23.77,3.76-35.63,1.17-9.86,6.64-15.25,16.61-14.94,14.1.45,28.2,1.7,42.26,3,25.58,2.43,51.14,5.17,76.71,7.78,2.89.29,5.82.36,8.65.93,8.26,1.63,13.11,7.38,13.47,15.88C2856.29,2207.19,2856.16,2210.82,2856.16,2214.46Zm-168.55,127c5.34.92,9.18,1.94,13.06,2.19q60.76,3.87,121.54,7.54c11.37.7,15.4-2.48,16.47-13.43q4.28-43.82,8.42-87.63c1.31-13.7,2.93-27.39,3.78-41.11.68-10.95-2.36-14.33-13.19-15.79s-21.58-2.49-32.38-3.58c-27.4-2.75-54.83-5.26-82.2-8.21-13.89-1.49-18.16,1.83-19.73,16.05-4.22,38.18-8.62,76.34-12.89,114.51C2689.45,2321.33,2688.66,2330.66,2687.61,2341.48Z" transform="translate(-216.48 -79.52)"/><path class="cls-1" d="M2555.11,766.94c.72,2.94,1.41,5.88,2.16,8.81,2.28,9,7.54,14.8,17.17,15.62,17.33,1.48,34.65,3,52,4.24q45,3.28,90,6.3c34,2.33,68,4.5,102,6.94,23.48,1.68,46.94,3.71,70.4,5.57,10.48.83,13.64-3.87,13.31-12.33-1.07-27.55-2-55.13-2.11-82.69-.05-19,3.27-37.58,11.82-54.87,5.63-11.39,11.12-22.86,17-34.13a99.56,99.56,0,0,0,11.69-42.67,17.05,17.05,0,0,1,.73-4.25c.15-.52,1-.84,2.36-1.91.73,2,1.79,3.77,1.9,5.54.94,15.29-3.25,29.49-9.81,43.06-5.86,12.09-12.14,24-18,36.09-8.82,18.32-13.1,37.6-11.43,58,0,.36,0,.72,0,1.09.48,25.76,1.08,51.52,1.38,77.28.16,13.75-3.66,17.67-17.59,17-22.44-1.14-44.84-3-67.26-4.49-34.71-2.38-69.42-4.69-104.12-7.16-37.58-2.67-75.16-5.5-112.73-8.26-10.48-.76-21-1.3-31.43-2.36-14-1.41-22.74-10.42-23.56-24-.13-2.09,1.11-4.26,1.73-6.4Z" transform="translate(-216.48 -79.52)"/><path class="cls-1" d="M2666.41,2475.14c3.27-29.18,6.29-56.15,9.34-83.11.93-8.28,1.9-16.56,3-24.82,1.4-10.86,3.68-13,14.87-12.48,18.11.8,36.2,1.85,54.29,3,19.88,1.28,39.75,2.79,59.62,4.25,5.77.43,11.57.81,17.3,1.62,10,1.43,15.62,7.46,15.16,17.83-.59,13.73-2.21,27.43-3.46,41.13q-2.23,24.36-4.62,48.7a76,76,0,0,1-1.7,7.72Zm159.53-1.79c.91-9.53,1.69-17.76,2.48-26,2-20.57,4.16-41.12,5.8-61.72.93-11.62-3-16.07-14.61-17-21.31-1.68-42.65-3.06-64-4.43-19.17-1.23-38.39-2-57.54-3.51-12-1-13-.57-14.3,11.26-2.81,24.86-5.76,49.7-8.56,74.56-.83,7.43-1.35,14.89-2.09,23.29Z" transform="translate(-216.48 -79.52)"/><path class="cls-1" d="M2536.83,578.46c-5.45-11.15.34-23.1,11.47-25.2,9.2-1.73,18.71-2,28.1-2.64q41.74-2.94,83.5-5.67c18.46-1.18,36.94-2,55.39-3.14,26.75-1.73,53.49-3.74,80.24-5.51,17.73-1.17,35.47-2.08,53.21-3.17,21.34-1.31,42.67-2.76,64-4a139.42,139.42,0,0,1,19.6-.17c9.78.8,14.19,8.29,11.39,18.26-.66-.14-1.75-.08-1.92-.44-5.9-12.58-7.45-13.72-21.49-12.78-37.23,2.49-74.44,5.32-111.68,7.74-30.39,2-60.81,3.4-91.2,5.34-26,1.66-52,3.79-78,5.51-18.46,1.23-36.93,2.09-55.39,3.17-9,.53-18.1,1-27.11,1.85-11.67,1.11-14.74,4-17.86,15.4C2538.68,574.31,2538,575.52,2536.83,578.46Z" transform="translate(-216.48 -79.52)"/><path class="cls-1" d="M2522.27,820l-1.88,2.55-2.56-2.42c.68-.64,1.31-1.75,2-1.81S2521.32,819.32,2522.27,820Z" transform="translate(-216.48 -79.52)"/><path class="cls-2" d="M3133.24,986,2850,1918.31a90.54,90.54,0,0,1-86.63,64.22h-737.9l-9.8,146.24a53.07,53.07,0,0,1-53,49.53H1926.1l-10.46,215.64a78.08,78.08,0,0,1-85.89,73.89L881.1,2371.29c-115.57-11.76-222.66-53.31-226.27-169.42-2.1-67.42,103.18-364.12,151.5-599.82L917.16,856.32a91.43,91.43,0,0,1,95-73.39L3076.51,904.58A63.16,63.16,0,0,1,3133.24,986Z" transform="translate(-216.48 -79.52)"/><path class="cls-3" d="M3096.29,854l-283.24,932.3a90.54,90.54,0,0,1-86.63,64.22h-737.9l-9.8,146.25a53.06,53.06,0,0,1-53,49.52h-36.62l-10.46,215.64a78.09,78.09,0,0,1-85.89,73.9l-948.65-96.55c-115.57-11.76-222.66-53.3-226.27-169.42-2.1-67.41,103.18-364.11,151.5-599.81L880.21,724.26a91.41,91.41,0,0,1,95-73.38L3039.56,772.52A63.19,63.19,0,0,1,3096.29,854Z" transform="translate(-216.48 -79.52)"/><path class="cls-4" d="M1553,791.93h.94c-3.16,0-6.32,0-9.49,0C1547.32,791.9,1550.17,792,1553,791.93Z" transform="translate(-216.48 -79.52)"/><polygon class="cls-4" points="1279.42 1441.95 1281.33 1448.14 1258.74 1375.09 1279.42 1441.95"/><path class="cls-4" d="M2032.19,1272.59l-3,.91c1.36-.42,2.74-.8,4.11-1.18C2032.91,1272.42,2032.55,1272.49,2032.19,1272.59Z" transform="translate(-216.48 -79.52)"/><path class="cls-4" d="M1394.33,800.71q.39-4.12.67-8.27c.07-1,.14-2,.2-3.05-.31,5.1-.74,10.18-1.26,15.25Q1394.15,802.68,1394.33,800.71Z" transform="translate(-216.48 -79.52)"/><path class="cls-4" d="M1393.83,805.78q-.8,7.71-1.89,15.38,1-7,1.75-14C1393.74,806.72,1393.78,806.25,1393.83,805.78Z" transform="translate(-216.48 -79.52)"/><path class="cls-4" d="M2275.71,1686.1q1.24-5.82,2.63-11.62-1.35,5.63-2.56,11.26C2275.75,1685.86,2275.73,1686,2275.71,1686.1Z" transform="translate(-216.48 -79.52)"/><path class="cls-4" d="M2351.52,1163.7q-.69,8.52-1.17,17,.48-8.55,1.17-17.1Z" transform="translate(-216.48 -79.52)"/><path class="cls-4" d="M1759.51,1569.33q-.94-3.74-1.73-7.51.75,3.63,1.65,7.21C1759.46,1569.13,1759.49,1569.23,1759.51,1569.33Z" transform="translate(-216.48 -79.52)"/><path class="cls-4" d="M2351.68,1161.94c.44-5.15.91-10.29,1.46-15.43,0,.25,0,.5-.08.75C2352.54,1152.15,2352.1,1157,2351.68,1161.94Z" transform="translate(-216.48 -79.52)"/><path class="cls-4" d="M2018.54,1379.06c5.2-1,10.4-1.91,15.63-2.73q-4.49.7-9,1.48C2023,1378.2,2020.77,1378.65,2018.54,1379.06Z" transform="translate(-216.48 -79.52)"/><path class="cls-4" d="M2155,1117c-.42-1.87-.83-3.74-1.19-5.63.06.34.1.69.17,1C2154.24,1114,2154.61,1115.49,2155,1117Z" transform="translate(-216.48 -79.52)"/><path class="cls-4" d="M2695.82,1788.81c1.61,0,3.22,0,4.83.1l-2.1-.07C2697.64,1788.81,2696.73,1788.82,2695.82,1788.81Z" transform="translate(-216.48 -79.52)"/><polygon class="cls-4" points="2382.45 1145.86 2382.64 1145.98 2382.45 1145.86 2382.45 1145.86"/><path class="cls-4" d="M2636.75,1197.64c-1.78,2.94-3.56,5.88-5.49,8.73q1.63-2.41,3.2-4.87C2635.26,1200.24,2636,1198.92,2636.75,1197.64Z" transform="translate(-216.48 -79.52)"/><path class="cls-5" d="M1373.18,930.33a15.2,15.2,0,0,0-15.45,9.87l-54.14,148.29a9.05,9.05,0,0,0,7.84,12,302.13,302.13,0,0,0,157.28-29.75,27,27,0,0,0,15.11-22.15l7.39-97.55A12,12,0,0,0,1480,938.2l-21-1.55-.45,6-60.7-4.47.46-6Z" transform="translate(-216.48 -79.52)"/><path class="cls-5" d="M1806.29,1095.81a317.48,317.48,0,0,0,89.85,13.07,16,16,0,0,0,3.26-.34c.27,0,.52-.16.78-.23a15.2,15.2,0,0,0,2.31-.75l.22-.07a16.11,16.11,0,0,0,2.09-1.12c.13-.08.25-.19.38-.28a15,15,0,0,0,1.77-1.38c.2-.17.39-.36.58-.54a19,19,0,0,0,1.4-1.58c.12-.17.26-.32.39-.49a16.76,16.76,0,0,0,1.35-2.27c.11-.21.18-.43.28-.64a16.52,16.52,0,0,0,.72-2c.07-.26.15-.52.21-.79a15.88,15.88,0,0,0,.44-2.76l6.55-106.85a13.2,13.2,0,0,0-.1-2.36c0-.26-.08-.5-.13-.76a13.25,13.25,0,0,0-.36-1.51c-.09-.27-.17-.53-.27-.79a15.38,15.38,0,0,0-.66-1.43c-.11-.2-.21-.42-.33-.62a12.15,12.15,0,0,0-1.31-1.82c0-.06-.12-.11-.17-.18a14.69,14.69,0,0,0-1.46-1.38c-.2-.16-.41-.3-.62-.45-.41-.29-.83-.56-1.27-.81l-.79-.4c-.18-.08-.34-.19-.52-.26s-.59-.19-.89-.29-.51-.18-.77-.25a13.12,13.12,0,0,0-2.32-.41l-92.1-6.89a13,13,0,0,0-13.89,12,1,1,0,0,1,0,.17l-6.18,100.95A16.2,16.2,0,0,0,1806.29,1095.81Z" transform="translate(-216.48 -79.52)"/><path class="cls-5" d="M1776.9,1189.35a6.48,6.48,0,0,0-7-6,7,7,0,0,0-1.35.25l-70.15,20.89a6.49,6.49,0,0,0-4.37,8.06l0,.06,7.43,24a9.71,9.71,0,0,0,8.79,6.84l70.17,3.55a6.48,6.48,0,0,0,6.8-6.14,6.35,6.35,0,0,0-.34-2.41Z" transform="translate(-216.48 -79.52)"/><path class="cls-5" d="M1750.44,1440q-1.38-5.74-3.13-11.4l-22-71.31a6.49,6.49,0,0,0-7.73-4.38q-5.52,1.33-11,3l-53.32,16.49q-5.45,1.68-10.76,3.69a6.47,6.47,0,0,0-3.9,8l25.36,82a10.17,10.17,0,0,0,.7,1.67c.11.2.24.38.36.57a7.17,7.17,0,0,0,.43.69,2.41,2.41,0,0,0,.21.24c.13.17.28.33.42.49s.53.54.81.79.3.26.46.38a8.66,8.66,0,0,0,1.1.72,3.62,3.62,0,0,0,.33.2,8.82,8.82,0,0,0,1.56.64c.14,0,.29.07.43.11a10.47,10.47,0,0,0,1.24.25l.61.05a7.75,7.75,0,0,0,1.18,0,5.46,5.46,0,0,0,.57,0,8.66,8.66,0,0,0,1.74-.35l67.77-21a8.92,8.92,0,0,0,1.59-.67c.17-.08.32-.19.49-.28s.63-.4.93-.63l.49-.4a9.2,9.2,0,0,0,.77-.76,5.56,5.56,0,0,0,.39-.44,8.8,8.8,0,0,0,.75-1.06l.19-.29a10.25,10.25,0,0,0,.68-1.51c0-.14.08-.29.12-.44a9.09,9.09,0,0,0,.29-1.17c0-.21,0-.42.08-.64s.06-.4.07-.61,0-.18,0-.27A9.41,9.41,0,0,0,1750.44,1440Z" transform="translate(-216.48 -79.52)"/><path class="cls-5" d="M1159.66,1557.42,1147,1617.71a7.18,7.18,0,0,0-.13,1.45c0,.14,0,.27,0,.4a7.25,7.25,0,0,0,.16,1c0,.06,0,.13,0,.2a2.85,2.85,0,0,0,.12.31,5.12,5.12,0,0,0,.25.65c.09.18.18.36.29.54a4.21,4.21,0,0,0,.34.52,4.78,4.78,0,0,0,.39.5,6,6,0,0,0,.43.44,5.85,5.85,0,0,0,.47.4,6,6,0,0,0,.52.36l.55.31a6.72,6.72,0,0,0,1.22.45l.32.11h.21a6,6,0,0,0,1,.09,2.71,2.71,0,0,0,.4,0,6,6,0,0,0,1.44-.22l122-34.37a6.48,6.48,0,0,0,4.48-8c0-.05,0-.1,0-.15l-17.35-56.11a6.49,6.49,0,0,0-8.11-4.27l-89.76,27.75A9.74,9.74,0,0,0,1159.66,1557.42Z" transform="translate(-216.48 -79.52)"/><path class="cls-5" d="M1376.66,1387.57a156.2,156.2,0,0,0,6.8,53.27l4.43,14.32a9.73,9.73,0,0,0,12.16,6.42l70.58-21.83,40.9-12.64q7.68-2.38,15.14-5.41a6.47,6.47,0,0,0,3.75-7.92l-21.29-68.87a6.49,6.49,0,0,0-7.62-4.41q-6.06,1.37-12,3.21l-44.33,13.71-59.39,18.36A13,13,0,0,0,1376.66,1387.57Z" transform="translate(-216.48 -79.52)"/><path class="cls-5" d="M1368.52,904.87a9.7,9.7,0,0,0,8.43,13l134.79,10.09,90.52,6.77,33.63,2.52a13,13,0,0,0,13.89-12s0-.11,0-.16l2.13-34.34,4.31-69.51c.06-.94.11-1.89.17-2.83.12-2.16.24-4.32.34-6.48.11-2.45.22-4.9.3-7.35a12.59,12.59,0,0,0-.24-2.89c0-.06,0-.13,0-.19-.1-.45-.26-.87-.39-1.3-.09-.26-.14-.54-.24-.79a13.07,13.07,0,0,0-1.05-2.12l-.22-.29a13.47,13.47,0,0,0-1.21-1.58c-.18-.2-.39-.37-.58-.56a12.33,12.33,0,0,0-1.15-1c-.25-.19-.52-.35-.78-.53a12.48,12.48,0,0,0-1.22-.71,9.34,9.34,0,0,0-.91-.41,10.11,10.11,0,0,0-1.34-.47,9.44,9.44,0,0,0-1-.25,11.19,11.19,0,0,0-1.54-.21c-.22,0-.43-.08-.65-.09H1644l-34.32.28-55.7.47H1553c-2.85,0-5.7,0-8.55,0,3.17,0,6.33.07,9.49,0L1420,779.35l-9.38-1.86a13,13,0,0,0-15.23,10.19,12.53,12.53,0,0,0-.23,1.71c-.06,1-.13,2-.2,3.05q-.29,4.14-.67,8.27-.18,2-.39,3.93c.52-5.07,1-10.15,1.26-15.25l-3.26,31.77q1.1-7.67,1.89-15.38c0,.47-.09.94-.14,1.4q-.75,7-1.75,14l-5.12,18.75-16.33,59.48Z" transform="translate(-216.48 -79.52)"/><path class="cls-5" d="M1510.42,1068.37l119.28-19.81a13,13,0,0,0,13.19-12.16l3.81-61.46.52-8.44a12.94,12.94,0,0,0-12-13.72l-82.67-6.19-29.08-2.18a13,13,0,0,0-13.89,12l-2.55,34.25-5.31,71.18a6.48,6.48,0,0,0,8.67,6.57Z" transform="translate(-216.48 -79.52)"/><path class="cls-5" d="M1355.88,1788.15l2.87,9.29a6.48,6.48,0,0,0,8.11,4.27l24.76-7.65,65.54-20.27a9.72,9.72,0,0,0,6.5-11.87c-.51-1.84-1-3.68-1.61-5.51l-12.12-39.2-1.15-3.71-2.87-9.29-1.15-3.71-11-35.73a9.72,9.72,0,0,0-12.15-6.42l-90.39,28a6.49,6.49,0,0,0-4.28,8.11Z" transform="translate(-216.48 -79.52)"/><path class="cls-5" d="M1255.5,1989.16a6.48,6.48,0,0,0-5.88-7h-.15l-147.8-9.77a9.72,9.72,0,0,0-10.34,9.06c0,.08,0,.16,0,.24L1089,2037l-1.1,26.6-4.12,99.37,0,1-2,24.84c-.1.8-.19,1.6-.29,2.41a9.11,9.11,0,0,0,0,1.88,9.71,9.71,0,0,0,7.88,8.86l21.2,4q56.7,10.78,113.7,19.72a9.71,9.71,0,0,0,11.11-8.09c0-.22.06-.44.08-.66l12-136,1.84-20.86Z" transform="translate(-216.48 -79.52)"/><path class="cls-5" d="M1672,1052.1l90.64,27.19q5.07,2.36,10.21,4.53a6.48,6.48,0,0,0,8.49-3.45,6.2,6.2,0,0,0,.5-2.12L1788,977a13,13,0,0,0-12-13.71l-66.38-5-13-1-8.57-.64-8.86-.67a13,13,0,0,0-13.89,12,1,1,0,0,0,0,.17l-4.36,70.29A13,13,0,0,0,1672,1052.1Z" transform="translate(-216.48 -79.52)"/><path class="cls-5" d="M1471.76,1246a6.45,6.45,0,0,0-1.94,1l-30,22.13a156.26,156.26,0,0,0-57.66,83.77,6.48,6.48,0,0,0,4.51,8,6.57,6.57,0,0,0,3.65,0l95.31-29.47c3.66-1.14,7.36-2.14,11.08-3a6.47,6.47,0,0,0,4.81-7.8c0-.14-.07-.28-.11-.42l-21.59-69.81A6.47,6.47,0,0,0,1471.76,1246Z" transform="translate(-216.48 -79.52)"/><path class="cls-5" d="M1630.15,1356.82a6.48,6.48,0,0,0,8.1,4.27l.33-.11q5-1.83,10.07-3.4l53.33-16.49q5.07-1.58,10.24-2.88a6.47,6.47,0,0,0,4.69-7.87,3,3,0,0,0-.09-.32L1710,1307.9a6.47,6.47,0,0,0-8.1-4.28c-.25.08-.49.17-.73.27l-22.45,8.45-40.19,12.42q-5.09,1.58-10.24,2.87a6.48,6.48,0,0,0-4.7,7.87l.09.33Z" transform="translate(-216.48 -79.52)"/><path class="cls-5" d="M1895.38,1338.46a9.61,9.61,0,0,0-.06-1.78c0-.19-.07-.37-.1-.56a11.33,11.33,0,0,0-.28-1.15c-.07-.2-.13-.39-.2-.58a9.81,9.81,0,0,0-.53-1.14c-.07-.13-.13-.27-.21-.4a9.45,9.45,0,0,0-1-1.36l-.27-.27a8.27,8.27,0,0,0-1-.9c-.15-.13-.31-.24-.48-.36a10.18,10.18,0,0,0-1-.6l-.58-.29c-.1,0-.18-.11-.28-.15s-.49-.16-.73-.24-.47-.17-.71-.23a9.77,9.77,0,0,0-1.42-.23c-.11,0-.22,0-.34-.06h0a8.12,8.12,0,0,0-1.21,0c-.17,0-.35,0-.52,0a10,10,0,0,0-1.69.36l-23.8,7.36-48.63,8.72-58.92,3.24-7,.38a6.48,6.48,0,0,0-6.11,6.83,6.39,6.39,0,0,0,.28,1.56h0s0,0,0,.07l0,.07,21,68c.81,2.61,1.57,5.25,2.27,7.89a10,10,0,0,0,.66,1.78c.14.27.31.51.47.77s.29.53.46.77l.06.06c.1.13.22.25.33.37a9.23,9.23,0,0,0,.85.91,5.45,5.45,0,0,0,.46.38,7.84,7.84,0,0,0,1,.68l.48.3a9.84,9.84,0,0,0,1.19.54l.38.16a9,9,0,0,0,1.63.39c.16,0,.32,0,.47,0a10.79,10.79,0,0,0,1.27.05l.6,0a11,11,0,0,0,1.26-.2c.12,0,.24,0,.36-.06l.38-.11,97.94-30.28a29.17,29.17,0,0,0,20.49-26.08Z" transform="translate(-216.48 -79.52)"/><path class="cls-5" d="M1873.78,1671c-.44-7-3-12.91-11.67-10.21l-368.53,114a9.72,9.72,0,0,0-6.77,10.52,203.54,203.54,0,0,1-9.77,93.14l-32,91.32c-7.59,21.7,58.12,14.1,68.27,13.65,31-1.39,61.81-4.86,92.6-8.39,62.27-7.14,125.28-15,187.9-7.37,9.54,1.17,19.19,2.7,28.72,1.44,26.61-3.52,24.08-23.52,26.28-45.16l8.1-80,16.2-160A81,81,0,0,0,1873.78,1671Z" transform="translate(-216.48 -79.52)"/><path class="cls-5" d="M1454,1636.11l70.57-21.82,55.72-17.23a6.49,6.49,0,0,0,4.28-8.11l-14.34-46.38a9.72,9.72,0,0,0-12.16-6.41l-52.62,16.27-22.8,7q-15.76,4.88-31.67,9.35l-16.12,4.55a9.53,9.53,0,0,0-1.66.65c-.17.08-.33.18-.5.28a10.43,10.43,0,0,0-1,.64c-.17.12-.33.25-.48.38a9.24,9.24,0,0,0-.9.87c-.1.11-.22.21-.31.33a9.54,9.54,0,0,0-1,1.39c-.07.11-.11.23-.17.34a10.07,10.07,0,0,0-.53,1.21c-.07.19-.12.38-.18.57a10.3,10.3,0,0,0-.25,1.1c0,.21-.07.43-.09.64s0,.21,0,.32,0,.47,0,.71,0,.55,0,.84a9.1,9.1,0,0,0,.21,1.16,5.48,5.48,0,0,0,.1.56,1.55,1.55,0,0,0,.07.23l13.63,44.09A9.73,9.73,0,0,0,1454,1636.11Z" transform="translate(-216.48 -79.52)"/><path class="cls-5" d="M1530.77,1436.83l-.46.16-14.19,5-40.9,12.65,22.59,73.05,52.62-16.27a9.72,9.72,0,0,0,6.42-12.15l-18-58.13A6.47,6.47,0,0,0,1530.77,1436.83Z" transform="translate(-216.48 -79.52)"/><path class="cls-5" d="M1475.22,1454.61l-70.58,21.82a9.72,9.72,0,0,0-6.41,12.16l16.59,53.66a10,10,0,0,0,1.21,2.47c.06.08.08.18.14.27s.18.21.27.33l.43.51a9.81,9.81,0,0,0,.79.79c.14.13.28.26.43.38a9.24,9.24,0,0,0,1.24.83l.16.1a9.42,9.42,0,0,0,1.53.66l.51.13a8.56,8.56,0,0,0,1.14.25,6.18,6.18,0,0,0,.62.07,8.94,8.94,0,0,0,1.16,0l.57,0a10.36,10.36,0,0,0,1.72-.31l17.23-4.86q15.58-4.38,31-9.17l22.79-7-1.92-6.19Z" transform="translate(-216.48 -79.52)"/><path class="cls-5" d="M1273,1871.26a6.48,6.48,0,0,0,7.51,5.26,7.55,7.55,0,0,0,.79-.19l62.63-19.37,13.42-2.75a6.47,6.47,0,0,0,5.77-7.11,6.75,6.75,0,0,0-.25-1.25l-6.75-21.82a6.49,6.49,0,0,0-8.11-4.28l-75.53,23.35a6.49,6.49,0,0,0-4.28,8.08Z" transform="translate(-216.48 -79.52)"/><path class="cls-5" d="M1284.28,1140.44c-4.57,7.18-6.52,16.83-10,26.29q-11.88,32.22-23.32,64.61-22.89,64.77-44,130.15c-7.59,23.51,31.06,20.75,46.41,21.93a306.45,306.45,0,0,0,79.48-4.23c7.7-1.43,15.65-3.31,21.71-8.27,4.35-3.58,7.38-8.48,10.32-13.29l36.17-59.07c11.16-18.22,22.7-36.79,38-51.87,15.61-15.37,35.86-25.37,53.32-38.53q51.95-39.18,103.92-78.33c8.17-6.17,64.6-60.72,34.49-68a9.57,9.57,0,0,0-2.13-.28,317.59,317.59,0,0,0-148.42,34l-179.58,34C1292.58,1131.06,1287.7,1135.07,1284.28,1140.44Z" transform="translate(-216.48 -79.52)"/><path class="cls-5" d="M1621.83,1138.66a3.21,3.21,0,0,0,1.69,1l21.79,5.39,39.4,37.2,2.49,8.06a6.48,6.48,0,0,0,8,4.29l74.39-22.14a9.72,9.72,0,0,0,6.93-8.73l1.34-21.82,1-17.06,1-17a9.73,9.73,0,0,0-6.09-9.63l-16.75-7.23c-4-1.86-8.09-3.62-12.18-5.32-1.26-.52-2.54-1-3.81-1.53q-4.35-1.74-8.75-3.35c-1.42-.52-2.85-1-4.28-1.54q-4.51-1.58-9.07-3c-1.23-.39-2.45-.79-3.69-1.17-4.23-1.28-8.48-2.49-12.76-3.59l-.23-.07q-5-1.28-10-2.4l-.34-.07c-2.55-.56-5.11-1.06-7.68-1.56-1.27-.25-2.54-.53-3.82-.77q-5.76-1-11.57-1.9a9.71,9.71,0,0,0-11,7.82l-35.8,61.51A3.24,3.24,0,0,0,1621.83,1138.66Z" transform="translate(-216.48 -79.52)"/><path class="cls-5" d="M1896.78,1304.65c.26-.37.52-.74.75-1.13s.33-.54.48-.82.41-.83.6-1.25.25-.56.35-.85a14.64,14.64,0,0,0,.44-1.47c.07-.25.15-.5.21-.75a16.67,16.67,0,0,0,.32-2.34l1.83-29.89,3-48.4,1.3-21.21,3.74-61a13,13,0,0,0-12.15-13.73l-.8,0L1801,1107.75a6.47,6.47,0,0,0-8.07,4.33,6.14,6.14,0,0,0-.27,1.47l-.7,11.52-1.05,17.06-1.25,20.38a188,188,0,0,0,8,67l9.85,31.87,18.68,60.4a6.48,6.48,0,0,0,7.38,4.45,185,185,0,0,0,20.85-5.15l34.13-10.55a15.75,15.75,0,0,0,2.1-.82l.11-.06c.24-.11.45-.25.68-.38.46-.25.92-.5,1.34-.78.25-.17.48-.36.72-.54s.75-.58,1.1-.89.45-.43.67-.66.63-.66.92-1S1896.59,1304.9,1896.78,1304.65Z" transform="translate(-216.48 -79.52)"/><path class="cls-5" d="M1269,1832l75.53-23.35a6.49,6.49,0,0,0,4.28-8.11l-2.88-9.29-1.14-3.71-15-48.6L1317,1697.47a6.49,6.49,0,0,0-8.11-4.28l-75.53,23.36a6.47,6.47,0,0,0-4.27,8.1l12.81,41.43,15,48.6,1.14,3.72,2.88,9.28A6.47,6.47,0,0,0,1269,1832Z" transform="translate(-216.48 -79.52)"/><path class="cls-5" d="M1291.6,1580.26a6.47,6.47,0,0,0,7.94,4.32l25.12-7.08,65.9-18.57a9.43,9.43,0,0,0,1.65-.65c.17-.08.33-.18.5-.27a9.51,9.51,0,0,0,1-.65c.16-.12.32-.24.48-.38a10.54,10.54,0,0,0,.9-.87c.1-.11.21-.21.3-.33a9.6,9.6,0,0,0,1-1.39c.06-.11.11-.23.16-.34a8.75,8.75,0,0,0,.54-1.21c.06-.19.12-.38.17-.57a8.33,8.33,0,0,0,.25-1.1c0-.21.07-.42.09-.64s0-.21,0-.32,0-.47,0-.71a7.67,7.67,0,0,0,0-.83,9.4,9.4,0,0,0-.21-1.18c0-.18,0-.36-.09-.55a2,2,0,0,1-.07-.23L1380.89,1494a9.7,9.7,0,0,0-12.15-6.41L1326,1500.75l-22.91,7.08-24.76,7.66a6.48,6.48,0,0,0-4.28,8.1Z" transform="translate(-216.48 -79.52)"/><path class="cls-5" d="M1327.72,1675.16l24.77-7.66,65.62-20.29a9.71,9.71,0,0,0,6.41-12.16l-13.91-45a9.4,9.4,0,0,0-1.21-2.46c-.06-.09-.07-.19-.13-.28s-.19-.21-.28-.33-.27-.34-.42-.51a9.94,9.94,0,0,0-.8-.79c-.14-.13-.28-.26-.43-.38a8.65,8.65,0,0,0-1.24-.83l-.15-.1a9.52,9.52,0,0,0-1.54-.66l-.5-.13a9.06,9.06,0,0,0-1.15-.25l-.61-.07a9,9,0,0,0-1.16,0l-.57,0a9.35,9.35,0,0,0-1.73.3l-91.17,25.69a6.48,6.48,0,0,0-4.48,8s0,.1,0,.15l16.54,53.47A6.47,6.47,0,0,0,1327.72,1675.16Z" transform="translate(-216.48 -79.52)"/><path class="cls-5" d="M1808.8,1665.06h0l57.75-17.85a17.78,17.78,0,0,0,2.13-.84c.24-.12.47-.26.7-.38s.68-.34,1-.54c.06,0,.11-.1.18-.14a16.38,16.38,0,0,0,2.56-2.06l.46-.51a15.72,15.72,0,0,0,1.85-2.37c.07-.11.16-.21.22-.32a16.67,16.67,0,0,0,1.37-3c.08-.24.15-.48.23-.73a15.69,15.69,0,0,0,.66-3.3q1.56-19.17,2.94-38.35c.3-4.17.57-8.33.86-12.49.47-6.82,1-13.63,1.4-20.45q.33-5,.64-10.07l2.23-34.1.18-22.68,3-45.26a9.73,9.73,0,0,0-9.07-10.34,9.87,9.87,0,0,0-3.5.42l-43.34,13.4-22.16,4.81-35.64,11a10.24,10.24,0,0,0-1.45.59c-.16.08-.3.18-.46.27a9.35,9.35,0,0,0-.86.52c-.17.13-.32.27-.48.4s-.47.37-.68.58-.29.33-.44.49-.38.43-.56.66-.24.37-.36.56-.31.47-.44.72-.19.41-.28.63-.22.5-.31.77-.13.45-.19.68a7.3,7.3,0,0,0-.18.81q-.06.36-.09.72c0,.17-.05.33-.06.5s0,.44,0,.66l-.13,14.7-1.17,25.85c-.13,2.79-.16,5.58-.14,8.36,0,.82,0,1.63,0,2.45,0,2.09.13,4.18.25,6.27,0,.78.09,1.57.15,2.36.21,2.77.47,5.54.82,8.29,0,.25.07.49.11.73.33,2.53.73,5,1.18,7.55.06.34.1.69.16,1,.14.72.31,1.43.45,2.15.21,1,.42,2.11.66,3.16s.54,2.33.82,3.49.51,2.08.79,3.12c.09.37.17.75.28,1.12.41,1.5.84,3,1.29,4.48l1.64,5.38,7.17,23.51,17.75,58.24A6.48,6.48,0,0,0,1808.8,1665.06Z" transform="translate(-216.48 -79.52)"/><path class="cls-5" d="M1679.83,940.52l7.24.54,8.83.66,13,1,67.71,5.07a13,13,0,0,0,13.89-12,1,1,0,0,0,0-.17l7.92-129.28a12.76,12.76,0,0,0-.09-2.31l-.09-.63c0-.19,0-.37-.08-.55s-.19-.6-.28-.9a8.51,8.51,0,0,0-.3-1,14.52,14.52,0,0,0-.64-1.39c-.13-.24-.23-.49-.37-.73a13.81,13.81,0,0,0-1.31-1.8l-.08-.09a12.25,12.25,0,0,0-1.7-1.6c-.21-.16-.44-.29-.66-.44a12.06,12.06,0,0,0-1.32-.82c-.28-.15-.57-.27-.86-.39a12.32,12.32,0,0,0-1.36-.52c-.31-.09-.62-.17-.94-.24a14.66,14.66,0,0,0-1.5-.25c-.19,0-.37-.08-.56-.09s-.6,0-.9,0l-86.52.72-10.89.09a12.23,12.23,0,0,0-1.92.16c-.08,0-.15,0-.24.07a12.47,12.47,0,0,0-2.92.87c-.17.07-.31.17-.47.25a12.7,12.7,0,0,0-2.14,1.32c-.23.17-.45.34-.67.53a13.18,13.18,0,0,0-1.81,1.92l-.25.29a13.06,13.06,0,0,0-1.45,2.68c0,.1-.11.17-.14.27-.12.32-.19.66-.29,1s-.17.53-.23.81a13,13,0,0,0-.32,2.32q-.11,3.12-.26,6.24c-.15,3.42-.34,6.84-.55,10.25l-6.48,104.41A13,13,0,0,0,1679.83,940.52Z" transform="translate(-216.48 -79.52)"/><path class="cls-5" d="M1316.16,1487.52l48-14.84a9.73,9.73,0,0,0,6.42-12.16l-4.43-14.32-7.77-53.1a6.49,6.49,0,0,0-6.42-6.54,7,7,0,0,0-2,.29l-10.72,3.32-56.81,7.56a6.47,6.47,0,0,0-6.42,4.57l-2.53,8.21q-1.5,4.9-2.73,9.88c-.28,1.1-.49,2.22-.75,3.32-.51,2.22-1,4.44-1.44,6.67-.26,1.34-.46,2.68-.69,4-.34,2-.69,4-1,6.08-.2,1.43-.35,2.86-.51,4.3s-.35,2.66-.47,4c0,.55-.06,1.11-.1,1.66-.18,2.15-.3,4.31-.4,6.46-.08,1.55-.17,3.1-.21,4.65,0,2.25,0,4.51,0,6.76,0,1.45,0,2.91,0,4.36.09,2.49.27,5,.46,7.47.09,1.21.13,2.42.24,3.63.35,3.69.79,7.38,1.36,11.06a6.49,6.49,0,0,0,7.39,5.42,6.27,6.27,0,0,0,.93-.22Z" transform="translate(-216.48 -79.52)"/><path class="cls-5" d="M776.2,1730.41a9.76,9.76,0,0,0,5.54.08c100-28.17,199.87-56.38,299.39-86.09,9.87-3,20-6.06,27.86-12.78,11.54-9.91,15.75-25.69,19.43-40.45q51.57-206.91,118.72-409.52,33.88-102.23,71.67-203.11c23.76-63.47,49.45-122.63,54.41-191,.27-3.72.41-7.71-1.52-10.9-2.55-4.21-7.83-5.7-12.62-6.83Q1288.59,753.2,1217.17,741c-18.49-3.17-110.46-30.38-112.5,1.71l-56.78,22.35-15-14.2a38.87,38.87,0,0,0-31.48-10.34l-41.59,5.15c-28.67,3.55-31.12,38.26-34.48,60.63L924,814.56l2.12-.15-2.12.17-55,357.76-2.79,18.15-51.1,332.45-45.32,195.28A9.73,9.73,0,0,0,776.2,1730.41Z" transform="translate(-216.48 -79.52)"/><path class="cls-5" d="M1408.89,1992.71c-.33,0-.67-.09-1-.12l-132.54-8.76a6.49,6.49,0,0,0-6.88,5.9l-6.27,71.25-1.84,20.86-12.19,138.3a9.73,9.73,0,0,0,8.27,10.47q65.43,9.64,131.19,16.84c8.38.91,10.34-6,10.84-12.5q1.07-13.92,2.14-27.85l4.27-55.7,8.55-111.39,2.19-28.6C1416.18,2004.08,1418.93,1994.45,1408.89,1992.71Z" transform="translate(-216.48 -79.52)"/><path class="cls-5" d="M1834.26,1981.06a40.62,40.62,0,0,0-7-.78c-46.57-1.57-93.21-3.13-139.73-.37-42.28,2.52-84.23,8.59-126.37,12.66-21.52,2.08-43.1,3.69-64.73,4-12.93.18-48-8.11-58.1.48-11.8,10-7.75,57-9,72q-6.67,82.34-12.33,164.73c-2,28.73,50.59,21.52,71.13,23.17q52.44,4.23,105,6.9c25.55,1.29,51.23,2.94,76.81,3.2,26.43.28,52.84-2.22,79.27-1.14,14.52.6,29.28,2.25,43.41-1.1a63.88,63.88,0,0,0,43.94-38.1c5.34-13.63,5.74-28.61,6.07-43.25q2.05-90.11,4.2-180.23C1847.13,1990.59,1845,1983.37,1834.26,1981.06Z" transform="translate(-216.48 -79.52)"/><path class="cls-5" d="M1108.06,1671.17c-3.69-2.78-8.9-1.69-13.36-.47l-183.32,50L818.64,1746c-17.65,4.82-37.55,5.54-53.37,15.57-18.52,11.74-19.1,31.6-25.69,51.26-15.23,45.4-36.3,89.74-40.07,138.11-6.61,84.94,46.88,174.5,130,199.57,35.53,10.71,71.87,18.14,108.35,24.81,20.22,3.69,98.61,29.17,115.1,19.1,40.14-24.63,19.25-153,19.6-191.73.93-104.51,19.41-213,38.38-315.78C1112,1681.38,1112.57,1674.56,1108.06,1671.17Z" transform="translate(-216.48 -79.52)"/><path class="cls-5" d="M1619.13,1387a6.68,6.68,0,0,0-1.23.52q-3.17,1.76-6.25,3.63l-50.46,30.58q-5,3-10.16,5.76a6.49,6.49,0,0,0-3.16,7.64l18.88,61.06a9.11,9.11,0,0,0,.71,1.67c.1.2.23.38.35.57a8,8,0,0,0,.43.69,2.41,2.41,0,0,0,.21.24c.14.17.28.33.43.49a8.51,8.51,0,0,0,.8.79c.16.13.3.26.46.38a10,10,0,0,0,1.1.73l.33.2a10,10,0,0,0,1.56.64l.44.1a8.38,8.38,0,0,0,1.23.25c.2,0,.41,0,.61.06a11.61,11.61,0,0,0,1.18,0l.58,0a10.73,10.73,0,0,0,1.74-.35l66.24-20.49a9.16,9.16,0,0,0,1.64-.69c.17-.09.33-.19.49-.29a11.27,11.27,0,0,0,1-.67c.16-.13.32-.25.47-.39a10.7,10.7,0,0,0,.88-.9c.09-.11.2-.21.3-.33a9.22,9.22,0,0,0,.92-1.41c.06-.12.11-.24.16-.35a7.62,7.62,0,0,0,.5-1.22c.07-.19.11-.38.17-.57.09-.37.16-.74.22-1.12,0-.21.06-.42.07-.63s0-.22,0-.32a7.38,7.38,0,0,0,0-.82c0-.22,0-.44,0-.67a9.73,9.73,0,0,0-.35-1.77l-24.34-78.69A6.47,6.47,0,0,0,1619.13,1387Z" transform="translate(-216.48 -79.52)"/><path class="cls-5" d="M1641.73,1716.72l72.43-22.4a6.47,6.47,0,0,0,4.28-8.1l-18-58.2-1.14-3.71-2.88-9.29-1.14-3.71-8.7-28.12a6.48,6.48,0,0,0-8.1-4.28l-72.44,22.4a6.47,6.47,0,0,0-4.27,8.1l8.69,28.12,1.15,3.72,2.87,9.29,1.15,3.71,18,58.19A6.49,6.49,0,0,0,1641.73,1716.72Z" transform="translate(-216.48 -79.52)"/><path class="cls-5" d="M1738.93,1686.67l45.13-14a6.48,6.48,0,0,0,4.28-8.08l-17.76-58.29-8.43-27.63-.39-1.31-4-15.58q.78,3.78,1.73,7.51c0-.1,0-.2-.08-.3q-.9-3.58-1.65-7.21a6.48,6.48,0,0,0-7.66-5l-.6.15-46.28,14.31a6.49,6.49,0,0,0-4.28,8.11l2.85,9.2,9.87,31.92,1.15,3.72,18,58.19A6.49,6.49,0,0,0,1738.93,1686.67Z" transform="translate(-216.48 -79.52)"/><path class="cls-5" d="M1755.58,1486.85c0-.22-.09-.43-.14-.65a10.07,10.07,0,0,0-.28-1.08c-.08-.24-.18-.47-.28-.7a10,10,0,0,0-.45-.93c-.13-.22-.26-.43-.4-.64s-.16-.29-.26-.42-.27-.3-.39-.45-.26-.31-.4-.46a11.37,11.37,0,0,0-1-.87c-.1-.08-.2-.18-.31-.26a9.34,9.34,0,0,0-1.45-.88l-.44-.18a12,12,0,0,0-1.19-.43l-.57-.14a11.48,11.48,0,0,0-1.31-.19l-.33,0h-.14a8.55,8.55,0,0,0-1.13,0l-.47,0a9.79,9.79,0,0,0-1.57.34l-59.34,18.35a9.38,9.38,0,0,0-1.63.69c-.18.09-.33.19-.5.29a11.11,11.11,0,0,0-1,.67l-.48.39a9.24,9.24,0,0,0-.87.9c-.1.11-.21.21-.3.33a9.55,9.55,0,0,0-.93,1.41c-.06.12-.1.24-.16.35a10.77,10.77,0,0,0-.5,1.22c-.06.19-.11.38-.16.57a8.71,8.71,0,0,0-.22,1.11,4.81,4.81,0,0,0-.08.65c0,.1,0,.21,0,.31,0,.28,0,.54,0,.81s0,.45,0,.68a9.75,9.75,0,0,0,.36,1.77l14.34,46.38a6.47,6.47,0,0,0,8.1,4.28l50.2-15.52a6.48,6.48,0,0,0,4.55-6.62l-.21-19.49,1.35-29.81A9.22,9.22,0,0,0,1755.58,1486.85Z" transform="translate(-216.48 -79.52)"/><path class="cls-5" d="M1204.46,1645a.75.75,0,0,0,0,.16l17.29,55.94a6.49,6.49,0,0,0,8.11,4.28l75.53-23.36a6.47,6.47,0,0,0,4.27-8.1l-16.7-54a6.49,6.49,0,0,0-8-4.32L1208.94,1637A6.47,6.47,0,0,0,1204.46,1645Z" transform="translate(-216.48 -79.52)"/><path class="cls-5" d="M1591.86,1612.48a6.47,6.47,0,0,0-8.1-4.28L1528,1625.43l-70.58,21.82a9.72,9.72,0,0,0-6.41,12.16l11,35.73,1.14,3.71,141.84-43.62-3.38-10.92Z" transform="translate(-216.48 -79.52)"/><path class="cls-5" d="M1480.85,1756a9.72,9.72,0,0,0,12,6.72l.24-.07,70.64-21.84,55.72-17.23a6.47,6.47,0,0,0,4.28-8.1l-15.83-51.21-141.77,43.84,1.14,3.71,12.12,39.2Q1480.16,1753.53,1480.85,1756Z" transform="translate(-216.48 -79.52)"/><path class="cls-5" d="M1117.65,1759.61c-.81,2.84-1.22,5.92-1.75,8.83q-3.09,17.11-5.87,34.3-5.54,34.37-9.64,68.93c-.56,4.77.63,10.63,6.55,10.22h.16a6.61,6.61,0,0,0,1.31-.26l135.87-42a6.48,6.48,0,0,0,4.27-8.11l-2.87-9.28-1.15-3.72-27.83-90a6.48,6.48,0,0,0-8.11-4.27l-82.14,25.4C1121.2,1751.23,1118.93,1755.12,1117.65,1759.61Z" transform="translate(-216.48 -79.52)"/><path class="cls-5" d="M1610.39,1336.78a6.48,6.48,0,0,0-7-4.52q-6.59.79-13.22,1.17l-62.51,3.43-1.8.11a6.49,6.49,0,0,0-6,6.9,6.24,6.24,0,0,0,.28,1.48l19.15,62a6.49,6.49,0,0,0,8.11,4.28,6.71,6.71,0,0,0,1.29-.56c1.5-.85,3-1.73,4.45-2.62l50.47-30.58q5.81-3.52,11.85-6.65a6.47,6.47,0,0,0,3.21-7.67Z" transform="translate(-216.48 -79.52)"/><path class="cls-5" d="M1602.6,1590.17l72.43-22.4a6.49,6.49,0,0,0,4.28-8.11L1665,1513.28a10.21,10.21,0,0,0-.71-1.67c-.11-.2-.24-.38-.35-.57s-.27-.47-.43-.69-.15-.16-.21-.24-.28-.33-.43-.49a10.07,10.07,0,0,0-.81-.79c-.15-.13-.3-.26-.46-.38a8.66,8.66,0,0,0-1.1-.72,3.62,3.62,0,0,0-.33-.2,8.82,8.82,0,0,0-1.56-.64c-.14-.05-.29-.07-.43-.11a10.47,10.47,0,0,0-1.24-.25l-.61,0a9.29,9.29,0,0,0-1.18,0,5.46,5.46,0,0,0-.57,0,8.66,8.66,0,0,0-1.74.35l-66.24,20.48a10,10,0,0,0-1.64.69c-.17.09-.33.2-.49.29a11.27,11.27,0,0,0-1,.67l-.47.39a8.3,8.3,0,0,0-.88.9c-.1.11-.21.22-.3.34a9.55,9.55,0,0,0-.93,1.41c-.06.11-.1.23-.16.34a10.21,10.21,0,0,0-.5,1.23c-.06.18-.11.37-.16.57a9.91,9.91,0,0,0-.22,1.11c0,.21-.06.42-.08.64s0,.21,0,.32c0,.27,0,.54,0,.81s0,.45,0,.67a9.86,9.86,0,0,0,.36,1.78l14.34,46.38A6.49,6.49,0,0,0,1602.6,1590.17Z" transform="translate(-216.48 -79.52)"/><path class="cls-5" d="M1687,1255.28l-80.42-4.07a6.48,6.48,0,0,0-6.8,6.14,6.36,6.36,0,0,0,.28,2.25L1616,1311a6.49,6.49,0,0,0,7.73,4.38q5.52-1.35,11-3l40.19-12.43a185.26,185.26,0,0,0,21.23-8,9.71,9.71,0,0,0,5.32-11.74l-5.59-18.09A9.73,9.73,0,0,0,1687,1255.28Z" transform="translate(-216.48 -79.52)"/><path class="cls-5" d="M1137.58,1662.57l-.29,1.39-13.43,64a1.06,1.06,0,0,0,0,.19,6.47,6.47,0,0,0,5,7.67,6.59,6.59,0,0,0,3.24-.15l73.07-22.6a6.47,6.47,0,0,0,4.28-8.1L1192,1648.55l0-.16a6.49,6.49,0,0,0-8-4.32l-39.52,11.14A9.74,9.74,0,0,0,1137.58,1662.57Z" transform="translate(-216.48 -79.52)"/><path class="cls-5" d="M1812.64,1322.47a6.91,6.91,0,0,0-.28-1.56l-17.29-55.9a6.48,6.48,0,0,0-5.86-4.56l-72.35-3.66a6.48,6.48,0,0,0-6.8,6.14,6.36,6.36,0,0,0,.28,2.25l19.61,63.41a6.45,6.45,0,0,0,6.54,4.55l70-3.85A6.48,6.48,0,0,0,1812.64,1322.47Z" transform="translate(-216.48 -79.52)"/><path class="cls-5" d="M1672.33,1186.13a42.12,42.12,0,0,0-30.13-28.45l-29.74-7.35a19.47,19.47,0,0,0-16.22,3.23l-104.69,77.36a9.71,9.71,0,0,0-3.51,10.69l2.19,7.09a6.48,6.48,0,0,0,8.1,4.27l26.6-8.22,60.53-7.59,95,4.81a6.45,6.45,0,0,0,6.51-8.38Z" transform="translate(-216.48 -79.52)"/><path class="cls-5" d="M1815.41,950.66l90.15,6.74a12.74,12.74,0,0,0,2.31,0l.63-.08a13.52,13.52,0,0,0,2-.47l.2,0a13.33,13.33,0,0,0,1.61-.67l.39-.23.53-.31a12.94,12.94,0,0,0,1.54-1.09l.27-.2a13.13,13.13,0,0,0,1.5-1.58,5.3,5.3,0,0,0,.34-.45,11.93,11.93,0,0,0,1-1.54c.07-.13.15-.25.22-.39a12.23,12.23,0,0,0,.8-2c.06-.18.1-.37.15-.56a12.5,12.5,0,0,0,.36-2c0-.08,0-.15,0-.22s0-.12,0-.18l7.94-129.59a22.69,22.69,0,0,0-21.25-24l-.53,0q-14.59-.55-29.21-.43l-52,.43a12.11,12.11,0,0,0-2.42.25c-.28.06-.54.16-.81.23a13.75,13.75,0,0,0-1.46.45c-.3.12-.58.28-.87.43s-.82.39-1.21.63-.54.39-.81.6a10.2,10.2,0,0,0-1,.81,9.76,9.76,0,0,0-.71.73c-.3.32-.59.63-.86,1s-.39.57-.58.87a11,11,0,0,0-.65,1.1c-.17.32-.3.66-.44,1a12,12,0,0,0-.43,1.19c-.11.36-.19.73-.27,1.1s-.14.49-.17.75-.09.7-.11,1l-8.15,133.15A13,13,0,0,0,1815.41,950.66Z" transform="translate(-216.48 -79.52)"/><path class="cls-5" d="M1097,1903.61q-2.2,22.7-3.75,45.43a9.71,9.71,0,0,0,9,10.36h0l148.6,9.82a6.49,6.49,0,0,0,6.88-5.9L1262,1915a158.82,158.82,0,0,0-6.19-59.94,6.48,6.48,0,0,0-8.08-4.32h0L1210,1862.42l-61.91,19.14-44.3,13.7A9.71,9.71,0,0,0,1097,1903.61Z" transform="translate(-216.48 -79.52)"/><path class="cls-5" d="M1576.32,1249.9c-2.06,0-4.11.16-6.17.24s-3.93.08-5.88.23c-2.41.19-4.79.53-7.18.82-1.6.19-3.21.31-4.81.55-3.15.48-6.27,1.12-9.39,1.79-.82.17-1.65.28-2.46.46q-5.9,1.35-11.67,3.14l-26.6,8.22a6.48,6.48,0,0,0-4.27,8.11l13.61,44a9.72,9.72,0,0,0,10.12,6.81c1.78-.15,3.57-.28,5.35-.38l62.51-3.43q3.76-.21,7.53-.57a6.48,6.48,0,0,0,5.58-8.37l-16.95-54.8a9.4,9.4,0,0,0-.59-1.47,4.12,4.12,0,0,0-.27-.45c-.17-.3-.33-.6-.52-.87s-.27-.31-.39-.47-.39-.48-.6-.7-.33-.28-.49-.43-.43-.4-.67-.57-.42-.26-.63-.39-.43-.29-.66-.41-.42-.18-.62-.27-.52-.24-.79-.33a6.42,6.42,0,0,0-.63-.15,8.52,8.52,0,0,0-.87-.22c-.22,0-.44,0-.66,0s-.6-.07-.9-.07h0Z" transform="translate(-216.48 -79.52)"/><path class="cls-5" d="M1456.45,1882a10,10,0,0,0,.57-1.3l2.89-8.26a185.42,185.42,0,0,0,9.66-77.94,9.73,9.73,0,0,0-10.56-8.81,9.09,9.09,0,0,0-2,.4l-86.71,26.81a6.48,6.48,0,0,0-4.28,8.1l8.8,28.45a9.71,9.71,0,0,0,6.91,6.55l15.36,5.87,46.24,24.23A9.71,9.71,0,0,0,1456.45,1882Z" transform="translate(-216.48 -79.52)"/><path class="cls-5" d="M1196.9,1398.47q-16.11,58.32-28.55,117.54l-1.6,7.63a6.48,6.48,0,0,0,5,7.67,6.4,6.4,0,0,0,3.25-.15l78.14-24.16a6.48,6.48,0,0,0,4.47-7.28l6-92.26,1-3.2a6.49,6.49,0,0,0-4.3-8.1,6.62,6.62,0,0,0-1.34-.26l-51.81-4.52A9.71,9.71,0,0,0,1196.9,1398.47Z" transform="translate(-216.48 -79.52)"/><path class="cls-5" d="M1277.1,1970a10.78,10.78,0,0,0,4.68,1.32l130.57,8.54c18.14,1.19,26.43-41,30.7-54.81,2-6.51,3.82-13.58,1.57-20-2.69-7.64-10.31-12.23-17.38-16.18-34.49-19.28-60.45-28.33-99-16.32l-40.61,12.63c-16.66,5.18-11.37,16.65-12.64,31C1273.81,1929,1264.4,1962.83,1277.1,1970Z" transform="translate(-216.48 -79.52)"/><path class="cls-5" d="M3005,867.88a40.25,40.25,0,0,0-10.16-2.25q-69.45-7.59-139.21-11.76-34.87-2.07-69.78-3.29c-12.26-.43-47.84-8.88-53,7.13l-.17.52-35,108q-1.32,4-2.44,8.13a13.24,13.24,0,0,0,9.28,16.29c.38.1.76.19,1.15.26l138.83,25.17,111.85,20.28,1.33.24a13.29,13.29,0,0,0,15.13-9.36l40-138.14C3016,877.72,3013.41,871.18,3005,867.88Z" transform="translate(-216.48 -79.52)"/><path class="cls-5" d="M1936.19,1099.64a9.09,9.09,0,0,0,.29,1.17c.06.2.13.4.2.6a10.16,10.16,0,0,0,.54,1.16c.08.13.14.28.22.41a10.57,10.57,0,0,0,1,1.4l.28.27a9.55,9.55,0,0,0,1,.92,5.6,5.6,0,0,0,.49.36,9,9,0,0,0,1,.62c.2.1.39.21.59.3s.19.11.29.15.24,0,.35.09a10.14,10.14,0,0,0,2,.54,5.81,5.81,0,0,0,.58.09c.1,0,.2,0,.3,0a10,10,0,0,0,2.38-.14,326.19,326.19,0,0,0,58.43-16.28l20.15-7a9.93,9.93,0,0,0,7-9.61l.43-16.23,4.27-64.39a10,10,0,0,0-9.2-10.57l-72-5.37a13.41,13.41,0,0,0-2.37.06l-.64.08a14.31,14.31,0,0,0-2.06.47,1.39,1.39,0,0,0-.19.06,13.29,13.29,0,0,0-1.65.68c-.14.07-.27.16-.41.24l-.54.31a13.64,13.64,0,0,0-1.58,1.12l-.27.21a13.68,13.68,0,0,0-1.54,1.6c-.13.15-.24.31-.36.47a15.22,15.22,0,0,0-1,1.58c-.07.13-.15.25-.22.39a12.49,12.49,0,0,0-.82,2.08c-.06.19-.11.37-.15.56a13.39,13.39,0,0,0-.38,2.1c0,.07,0,.14,0,.21s0,.12,0,.18l-5.17,84.22-1.37,22.43a9.94,9.94,0,0,0,.07,1.81C1936.11,1099.26,1936.16,1099.45,1936.19,1099.64Z" transform="translate(-216.48 -79.52)"/><path class="cls-5" d="M1947.43,951.82a15.7,15.7,0,0,0,.37,1.54c.11.33.26.63.39.94a12.72,12.72,0,0,0,.6,1.3c.16.3.36.58.55.87s.52.77.81,1.13.46.52.7.78a12.9,12.9,0,0,0,1,.94q.41.34.84.66c.37.26.75.5,1.15.73s.64.35,1,.51.84.35,1.27.5.72.24,1.09.34c.15,0,.28.1.42.13a13.94,13.94,0,0,0,1.8.26l176.76,13.19a13.27,13.27,0,0,0,14.24-12.22v-.06l5-69.9,5.36-75.6a13.25,13.25,0,0,0-12.31-14.15l-70.75-5-16.75,1.48-77.47-5.47a26.53,26.53,0,0,0-28.37,24.56,2.11,2.11,0,0,0,0,.25l-7.91,128.89a13.4,13.4,0,0,0,.1,2.54C1947.29,951.26,1947.37,951.53,1947.43,951.82Z" transform="translate(-216.48 -79.52)"/><path class="cls-5" d="M2176.27,1070c3.69,2.34,8.49,3.92,14.72,4.52,51.9,5,103.77,10.08,155.58,15.86,2.57.28,5.26.55,7.64-.44,3.89-1.61,5.77-6.1,6.31-10.28,2.41-18.86,4-37.89,6.22-56.8.65-5.46,1.23-11.31-1.34-16.17-5.32-10.08-36.71-4.87-47.21-5.3l-112.48-4.59c-8.89-.67-33.16-7-38.5,2.15-2.16,3.7-2.13,8.23-2.05,12.52C2165.59,1033.29,2159.6,1059.41,2176.27,1070Z" transform="translate(-216.48 -79.52)"/><path class="cls-5" d="M2551.69,1612.76q1.38-31.29,2-62.6c.08-4,.11-8.17-1.79-11.68-7.7-14.28-95.66,12.63-112.2,15.89l-112.9,22.27a10,10,0,0,0-7.75,7.45l-.79,3.3-5.73,24c-13.69,57.29-28.16,113.85-30.27,173.06-.14,4.08-.18,8.42,1.89,12,8.53,14.49,59.29,7.52,74.62,7.86l83.14,1.85,57.6,1.28c15.48.34,35.71,5.58,38.1-15.43Q2547.74,1702.64,2551.69,1612.76Z" transform="translate(-216.48 -79.52)"/><path class="cls-5" d="M2162.81,1408a10.38,10.38,0,0,0-.06-1.85c0-.23-.09-.45-.13-.67a7.91,7.91,0,0,0-.16-.82c0-.11-.08-.2-.11-.31s-.15-.41-.23-.61a9.25,9.25,0,0,0-.48-1.06c-.1-.17-.19-.35-.3-.53a10.41,10.41,0,0,0-.79-1.09c-.08-.1-.15-.21-.24-.31a8.81,8.81,0,0,0-1.26-1.18c-.12-.1-.25-.18-.37-.27a9.45,9.45,0,0,0-1.09-.68l-.56-.28a11.91,11.91,0,0,0-1.13-.43c-.19-.06-.37-.13-.56-.18a10.74,10.74,0,0,0-1.8-.3,519.57,519.57,0,0,0-91.56,1.92,9.84,9.84,0,0,0-1.65.33c-.18,0-.35.13-.53.19a9.63,9.63,0,0,0-1,.4c-.2.09-.38.21-.57.31s-.57.33-.84.51l-.53.41q-.37.3-.72.63l-.47.49a8.79,8.79,0,0,0-.6.74c-.13.18-.26.36-.38.55a7,7,0,0,0-.47.85c-.1.2-.21.39-.3.6a10,10,0,0,0-.33,1,6,6,0,0,0-.19.6s0,.08,0,.12a9.77,9.77,0,0,0-.22,1.52l-3.2,48.31a6.63,6.63,0,0,0,6.19,7l95.91,6.33a6.63,6.63,0,0,0,7.06-6.17Z" transform="translate(-216.48 -79.52)"/><path class="cls-5" d="M2399.39,984.77a39.94,39.94,0,0,0,9.51,1l237.72,2.9c8.64.11,18.08-.06,24.71-5.59,4.93-4.11,7.33-10.43,9.53-16.46,7.11-19.47,53.34-107.07,27.94-121.53-4.42-2.52-9.7-2.88-14.78-3.17l-143.85-8.41-73.6-4.3c-17.36-1-47.85-9.14-64.12-1.67-15.52,7.12-13.51,66.65-15.16,82q-2.64,24.57-5.28,49.13C2390.46,973.43,2388.74,982,2399.39,984.77Z" transform="translate(-216.48 -79.52)"/><path class="cls-5" d="M2375.77,1235.93l85.93,5.67,13.35.12a59.14,59.14,0,0,0,50.24-27.06,6.62,6.62,0,0,0-2-9.15l-.3-.19a194.33,194.33,0,0,0-83.35-25l-60.35-4a10,10,0,0,0-10.6,9.27v.1l-2.22,39.78A9.94,9.94,0,0,0,2375.77,1235.93Z" transform="translate(-216.48 -79.52)"/><path class="cls-5" d="M2454.21,1386c.22-.32.43-.64.62-1s.21-.39.3-.58.11-.19.16-.3.17-.52.26-.79.16-.42.22-.65a10,10,0,0,0,.3-1.82h0l4.49-67.9a6.59,6.59,0,0,0-2.39-5.54,6.68,6.68,0,0,0-3.46-1.48q-8.19-1-16.43-1.5l-57.31-3.78c-2.95-.19-5.91-.35-8.87-.46a10,10,0,0,0-10.33,9.38l-3.62,64.92a10.2,10.2,0,0,0,.08,1.83c0,.22.08.43.13.64a6.55,6.55,0,0,0,.15.77c0,.12.09.23.12.35s.15.42.24.63a9.79,9.79,0,0,0,.48,1c.1.18.19.36.3.53a11.64,11.64,0,0,0,.82,1.13c.08.08.13.18.21.26a9.29,9.29,0,0,0,1.26,1.17,4.85,4.85,0,0,0,.4.28,8.93,8.93,0,0,0,1.06.66l.57.28a8.92,8.92,0,0,0,1.12.43l.56.17a9.7,9.7,0,0,0,1.79.3l78,5.15a10,10,0,0,0,1.82-.07l.58-.09a11.94,11.94,0,0,0,1.18-.29l.59-.19a11.33,11.33,0,0,0,1.17-.54c.14-.07.28-.13.41-.21a9.3,9.3,0,0,0,1.41-1c.1-.08.18-.18.28-.27a8.63,8.63,0,0,0,.92-1C2454,1386.33,2454.09,1386.16,2454.21,1386Z" transform="translate(-216.48 -79.52)"/><path class="cls-5" d="M2046.78,1604.88a6.74,6.74,0,0,0,2.4-.29l32-9.86,20.2-6.23,45.24-11.15a6.63,6.63,0,0,0,5.4-6.08l5.53-83.38a6.63,6.63,0,0,0-6.19-7.05l-95.91-6.33a6.64,6.64,0,0,0-7.07,6.18l-6.06,91.45-1.7,25.69A6.64,6.64,0,0,0,2046.78,1604.88Z" transform="translate(-216.48 -79.52)"/><path class="cls-5" d="M1904.8,1637.75a9.55,9.55,0,0,0,.41,1.48c.09.23.2.45.3.67a10.25,10.25,0,0,0,.67,1.22c.14.22.29.43.45.64a10.79,10.79,0,0,0,1,1.07c.12.12.21.26.33.37l.17.11a9.63,9.63,0,0,0,1.92,1.29l.25.1a9.92,9.92,0,0,0,1.9.66c.24.06.49.1.74.14s.55.12.84.15.52,0,.78,0,.45,0,.67,0a9.55,9.55,0,0,0,2.26-.39l102.37-31.58a9.94,9.94,0,0,0,7-8.84l1-15.36.23-3.57.58-8.7a7,7,0,0,0-.07-1.46s0-.06,0-.08,0-.11,0-.17a6.86,6.86,0,0,0-.54-1.6c0-.09-.08-.19-.13-.28a6.91,6.91,0,0,0-1-1.42l-.27-.25a6.48,6.48,0,0,0-1.38-1l-.1-.07a7.19,7.19,0,0,0-1.73-.58,1.29,1.29,0,0,1-.21-.07c-.22,0-.43-.06-.65-.07h0l-9.27-.6-93.63-6.08a10.12,10.12,0,0,0-1.83.06c-.22,0-.42.08-.63.12a8.84,8.84,0,0,0-1.13.27l-.67.23a9.26,9.26,0,0,0-1,.47c-.2.1-.4.2-.59.32l-.25.13c-.14.1-.25.22-.38.32a10.93,10.93,0,0,0-1.1.92c-.19.19-.37.37-.54.57a10.1,10.1,0,0,0-.84,1.11c-.13.21-.27.41-.39.63a9.76,9.76,0,0,0-.62,1.4c-.07.2-.16.37-.22.57a10.08,10.08,0,0,0-.39,2.15l-.13,2-.61,9.23q-1.67,25.5-3.64,51a9.86,9.86,0,0,0,.08,2.18C1904.69,1637.36,1904.76,1637.55,1904.8,1637.75Z" transform="translate(-216.48 -79.52)"/><path class="cls-5" d="M2164,1366.86c.22-.32.43-.64.62-1s.21-.39.31-.59.11-.18.15-.29.17-.52.26-.78.16-.43.22-.66a10,10,0,0,0,.31-1.82l4.52-68.31a6.63,6.63,0,0,0-6.19-7l-92.6-6.11a9.94,9.94,0,0,0-10.59,9.26l-4.78,72.11a9.84,9.84,0,0,0,.14,2.31c0,.21.1.41.15.62a9.9,9.9,0,0,0,.53,1.62c.05.12.06.25.12.36s.17.28.25.43.2.37.32.56a10.13,10.13,0,0,0,.72,1c.11.13.2.27.32.39a8.84,8.84,0,0,0,1.26,1.19,1.82,1.82,0,0,0,.23.15,9.82,9.82,0,0,0,1.23.78c.18.1.36.18.54.26a11.19,11.19,0,0,0,1.14.44l.56.16a9.4,9.4,0,0,0,1.67.28l.1,0h0a10.44,10.44,0,0,0,1.58,0l87.4-1.25.76,0a10,10,0,0,0,1.82-.07c.2,0,.38-.06.58-.09a11.94,11.94,0,0,0,1.18-.29l.59-.19a11.33,11.33,0,0,0,1.17-.54c.14-.07.28-.13.41-.21a10,10,0,0,0,1.41-1,3.44,3.44,0,0,0,.27-.27,8.58,8.58,0,0,0,.93-1C2163.77,1367.19,2163.89,1367,2164,1366.86Z" transform="translate(-216.48 -79.52)"/><path class="cls-5" d="M2647.78,1124.41l18.22-89.13,3.19-15.59a13.26,13.26,0,0,0-10.36-15.63,12.93,12.93,0,0,0-2.56-.26l-32.84-.24-38.31-.27L2399.4,1002a13.25,13.25,0,0,0-13.3,11.83l-4.38,40.76-3.2,29.81a9.94,9.94,0,0,0,8.67,10.92l249.14,36.93A10,10,0,0,0,2647.78,1124.41Z" transform="translate(-216.48 -79.52)"/><path class="cls-5" d="M2364.63,1258.54l-.85,15.33a9.93,9.93,0,0,0,9.39,10.47h.15q4.36.18,8.71.46l57.29,3.78q8,.53,15.89,1.42c.21,0,.42,0,.63,0s.45,0,.67,0,.43-.08.65-.12a6.39,6.39,0,0,0,.63-.13,4.73,4.73,0,0,0,.62-.25c.19-.08.39-.14.57-.23s.37-.24.55-.36.35-.22.51-.34.31-.3.46-.45a3.41,3.41,0,0,0,.82-1,4.93,4.93,0,0,0,.36-.53,4.53,4.53,0,0,0,.26-.6,5.26,5.26,0,0,0,.26-.59c.06-.21.09-.44.14-.65a6.39,6.39,0,0,0,.13-.63.13.13,0,0,0,0-.06h0a2,2,0,0,0,0-.23l1.47-22.19a6.63,6.63,0,0,0-6.19-7.05l-82.55-5.44a9.94,9.94,0,0,0-10.59,9.26S2364.63,1258.5,2364.63,1258.54Z" transform="translate(-216.48 -79.52)"/><path class="cls-5" d="M2557.47,1392.81a9,9,0,0,0,.62-1,6.45,6.45,0,0,0,.31-.58,2.8,2.8,0,0,0,.15-.3c.11-.25.18-.52.27-.78s.16-.43.21-.65a9.46,9.46,0,0,0,.31-1.83l3.48-52.56a6.62,6.62,0,0,0-5.08-6.88L2513,1317.56l-20.63-4.92q-6.67-1.61-13.42-2.91a6.64,6.64,0,0,0-7.79,5.24,7.53,7.53,0,0,0-.11.83L2468.5,1354l-1.82,27.59a10.44,10.44,0,0,0,.06,1.85c0,.23.09.45.13.67a7.91,7.91,0,0,0,.16.82c0,.11.08.2.11.31s.15.41.23.61a9.25,9.25,0,0,0,.48,1.06c.1.18.19.36.3.53a9.57,9.57,0,0,0,.79,1.1,3.5,3.5,0,0,0,.24.3,10.14,10.14,0,0,0,1.26,1.19l.38.26a9.45,9.45,0,0,0,1.09.68l.56.28a9.7,9.7,0,0,0,1.13.43c.19.06.37.13.56.18a10.74,10.74,0,0,0,1.8.3l72.79,4.8a9.08,9.08,0,0,0,1.81-.07c.2,0,.39-.06.58-.09a9.39,9.39,0,0,0,1.19-.29l.59-.19a12.39,12.39,0,0,0,1.17-.54c.14-.07.28-.13.41-.21a9.73,9.73,0,0,0,1.4-1,3.57,3.57,0,0,0,.28-.27,10.77,10.77,0,0,0,.93-1C2557.24,1393.14,2557.35,1393,2557.47,1392.81Z" transform="translate(-216.48 -79.52)"/><path class="cls-5" d="M2334,1297.58l-81-5.34-59.63-3.93a6.64,6.64,0,0,0-7.07,6.17l-4.52,68.3a10,10,0,0,0,9.28,10.58l56.32,3.71,81.63,5.39a10,10,0,0,0,1.82-.07c.2,0,.39-.06.58-.09a12.14,12.14,0,0,0,1.19-.29l.59-.19a12.39,12.39,0,0,0,1.17-.54l.41-.21a10.57,10.57,0,0,0,1.4-1l.28-.27a9.71,9.71,0,0,0,.93-1c.13-.15.24-.32.36-.49a8.87,8.87,0,0,0,.62-1c.11-.2.22-.39.31-.59s.11-.19.15-.29.16-.49.25-.74.17-.48.24-.72a10.3,10.3,0,0,0,.24-1.44c0-.13,0-.24.06-.37v-.1l3.63-65A10,10,0,0,0,2334,1297.58Z" transform="translate(-216.48 -79.52)"/><path class="cls-5" d="M2174.5,1573a6.63,6.63,0,0,0,1.18,0l53.49-2.43,5.38.11,12.55.26a393.91,393.91,0,0,0,49.65-2.12,10,10,0,0,0,8.64-7.58l8.94-37.46,4.84-20.26a9.92,9.92,0,0,0-7.38-12,10.11,10.11,0,0,0-1.65-.25l-70-4.62-59.64-3.93a6.63,6.63,0,0,0-7.06,6.17l-5.11,77.06A6.63,6.63,0,0,0,2174.5,1573Z" transform="translate(-216.48 -79.52)"/><path class="cls-5" d="M2050.14,1108.94q.54,2.71,1.14,5.41l2.55,11.29,7.39,32.69,3.2,17.73a10,10,0,0,0,9.08,8.58l92.36,7.31h.2a6.62,6.62,0,0,0,7.15-6.07,6.92,6.92,0,0,0-.07-1.64,165.55,165.55,0,0,0-4.38-18.91l-10.65-36.1-.26-.89-6.78-36.63a10,10,0,0,0-9.49-9.14,325.75,325.75,0,0,0-85.1,7.46,9.94,9.94,0,0,0-7.68,11.21C2049.19,1103.82,2049.64,1106.39,2050.14,1108.94ZM2155,1117c-.34-1.53-.71-3.06-1-4.6-.07-.34-.11-.69-.17-1C2154.12,1113.28,2154.53,1115.15,2155,1117Z" transform="translate(-216.48 -79.52)"/><path class="cls-5" d="M2351.09,1180.34q.18-7.44.07-14.86l-.72,13.87,2.53-30.89-1.33,11.94c5.61-21.12,14.84-54.9-14.69-58-52.76-5.53-105.53-12.16-158.43-16.57-18.59-1.94-7.91,26.83-5.72,35.14l17.57,66.38c.67,2.56,1.42,5.25,3.31,7.11,11.61,11.52,43.69,17.78,59.19,23.14,20.17,7,74.25,31.67,91.71,9.85,2.77-3.47,3.48-8.1,4-12.51Q2350.66,1197.72,2351.09,1180.34Z" transform="translate(-216.48 -79.52)"/><path class="cls-5" d="M2618.05,1197.48a191.3,191.3,0,0,0,20.42-39.47,9.94,9.94,0,0,0-5.82-12.8,10.44,10.44,0,0,0-1.82-.5q-30-5.14-60.06-10l-.46-.08q-31.7-5.07-63.46-9.75l-1.71-.26c-12.95-1.91-25.92-3.69-38.88-5.5-6.55-.92-13.1-1.89-19.66-2.79q-30.22-4.11-60.49-7.87a9.94,9.94,0,0,0-11.11,8.63,1,1,0,0,0,0,.17l-.9,8.4-1.94,18-.51,4.77q-.35,3.18-.66,6.38a10,10,0,0,0,9,10.86l.31,0,60.12,4,76.25,26,26.06,9.39,42.78,28.77a6.65,6.65,0,0,0,9.22-1.79l4.46-6.59-.19-.13h0l.19.13,9.37-13.88-.13-.09.13.09Z" transform="translate(-216.48 -79.52)"/><path class="cls-5" d="M1924.08,1291.84a10,10,0,0,0,9.33,10.53,10.15,10.15,0,0,0,3.55-.42l92.2-28.45,3-.91c.36-.1.72-.17,1.08-.27-1.37.38-2.75.76-4.11,1.18l12.74-3.43.45-.11c.2-.06.38-.14.57-.21s.48-.16.71-.26.49-.24.74-.38.43-.22.63-.35.46-.32.68-.49.38-.28.56-.43.4-.4.6-.61.32-.32.47-.49a8.44,8.44,0,0,0,.51-.71,6.58,6.58,0,0,0,.38-.54,7.84,7.84,0,0,0,.41-.82c.09-.19.2-.37.28-.56a8.57,8.57,0,0,0,.31-1c.05-.17.12-.33.16-.51a10.26,10.26,0,0,0,.24-1.57l3-44.86a191.85,191.85,0,0,0-4.3-55l-5.94-26.28-4-17.52,0-.18-2.65-13.93a6.64,6.64,0,0,0-7.57-5.54,7.49,7.49,0,0,0-1,.25c-5.43,1.75-10.83,3.65-16.16,5.69l-66,17.84a13.28,13.28,0,0,0-11.1,12.27l-5.47,89.2-1,15.93Z" transform="translate(-216.48 -79.52)"/><path class="cls-5" d="M2040.7,1372.28c.13-.18.27-.36.39-.55s.3-.55.44-.83.2-.38.29-.58.23-.66.33-1c0-.18.12-.35.17-.53a9.74,9.74,0,0,0,.24-1.62l4.85-73.15a6.63,6.63,0,0,0-6.19-7,6.72,6.72,0,0,0-2.19.22q-2.6.7-5.16,1.5l-2.8.87-6.8,2.09-89.12,27.5a16.45,16.45,0,0,0-2.27.89c-.28.14-.53.3-.8.45a13,13,0,0,0-1.15.65.87.87,0,0,0-.11.09,16.37,16.37,0,0,0-2.59,2.17c-.19.19-.35.38-.53.57a16.72,16.72,0,0,0-1.9,2.55l-.13.2a16.22,16.22,0,0,0-1.34,3.08c-.09.26-.16.51-.23.77a16,16,0,0,0-.61,3.39l-3.59,58.38a8,8,0,0,0,10.31,8.08l26.94-8.31q8.1-2.5,16.28-4.75l22.94-3.73,37.8-7.3c-5.23.82-10.43,1.76-15.63,2.73,2.23-.41,4.45-.86,6.68-1.25q4.47-.78,9-1.48a9.06,9.06,0,0,0,1.15-.25c.09,0,.18-.07.27-.1s.45-.16.67-.24.57-.23.84-.37.41-.22.61-.34.51-.32.76-.49l.54-.43c.23-.19.45-.4.67-.61s.31-.32.46-.5S2040.52,1372.53,2040.7,1372.28Z" transform="translate(-216.48 -79.52)"/><path class="cls-5" d="M2029,1554.35a6.79,6.79,0,0,0,.42-.67,4.65,4.65,0,0,0,.26-.41,5.6,5.6,0,0,0,.26-.68c.07-.18.16-.35.21-.53a6.48,6.48,0,0,0,.22-1.33l9.29-140.22a6.63,6.63,0,0,0-6.19-7,6.23,6.23,0,0,0-1.55.08l-1.12.19-7.5,2.68-8.38,3q-24.57,5-48.58,12.44l-28.88,8.91a29.84,29.84,0,0,0-21,26.54l-5.38,82.35a10,10,0,0,0,.06,1.82c0,.19.07.38.1.57a8.84,8.84,0,0,0,.29,1.18c.06.2.12.4.2.6a10.09,10.09,0,0,0,.53,1.16c.08.14.14.28.22.41a9.21,9.21,0,0,0,1,1.4,3.57,3.57,0,0,0,.27.28,9.55,9.55,0,0,0,1,.92l.49.37a8.93,8.93,0,0,0,1,.61,5.49,5.49,0,0,0,.59.31c.1,0,.19.11.29.15s.52.18.79.27.42.15.65.21a10,10,0,0,0,1.82.3h0l86.36,5.6,6.63.43,9.94.65h0c.18,0,.35,0,.52,0a5.52,5.52,0,0,0,.82,0c.19,0,.36-.09.53-.13a5.7,5.7,0,0,0,.74-.17c.25-.09.48-.22.72-.33s.31-.13.45-.21a7.44,7.44,0,0,0,.75-.54c.09-.07.19-.12.28-.2a7.68,7.68,0,0,0,.55-.59A3.55,3.55,0,0,0,2029,1554.35Z" transform="translate(-216.48 -79.52)"/><path class="cls-5" d="M2905.75,1199a20,20,0,0,0-3.33-1c-38.42-8-76.81-16.22-115.28-24-37.76-7.66-81.91-23-120.42-23-14.52-2.59-29.87,43.87-35.21,55l5.41-7.26c-23.47,31.51-42.72,62.27-52.75,100.83-3.51,13.5-20,98.41.36,99.76,83.31,5.52,166.42,11.51,250,11.68,16.07,0,22.46-7.84,26.83-22.93q24-82.95,48.08-165.92C2912.12,1212.81,2915.38,1202.87,2905.75,1199Z" transform="translate(-216.48 -79.52)"/><path class="cls-5" d="M2948.52,1051.19c-.44-.12-.87-.23-1.32-.31-78.59-14.24-157.09-30.68-236-42.79-12.27-1.88-23-2.6-26.49,13.34-7.61,34.85-13.92,70.2-21.08,105.22a9.93,9.93,0,0,0,7.77,11.72l.23.05,151,29.34,90.92,19a10,10,0,0,0,11.61-7l32.51-112.22A13.26,13.26,0,0,0,2948.52,1051.19Z" transform="translate(-216.48 -79.52)"/><path class="cls-5" d="M2178.23,979.36c19,8.55,55.66,3.45,69.5,4.08,33.92,1.57,67.88,2,101.83,2.53,18.71.27,24.4-11.52,25.91-29q5.15-59.46,10.28-118.92c.32-3.71.63-7.55-.62-11.06-6.15-17.25-85.1-12.61-99.55-13.63l-94.77-6.69c-22.59-1.6-16.74,49-17.79,63.27q-3.3,44.52-6.34,89c-.21,3.14-.42,6.37.56,9.37C2168.89,973.43,2172.85,976.94,2178.23,979.36Z" transform="translate(-216.48 -79.52)"/><path class="cls-5" d="M2345.24,1272.32l.85-15.21a10,10,0,0,0-9.29-10.47l-23.86-1.57L2243,1227.85l-15.28-6.77a193.4,193.4,0,0,0-28-9.91,6.65,6.65,0,0,0-8.14,4.67,6.56,6.56,0,0,0-.22,1.52c-.07,2.08-.17,4.17-.31,6.25l-2.77,41.79a6.63,6.63,0,0,0,6.19,7l59.64,3.94,80.58,5.31a10,10,0,0,0,10.59-9.26A.41.41,0,0,0,2345.24,1272.32Z" transform="translate(-216.48 -79.52)"/><path class="cls-5" d="M1941.65,1808.29a6.84,6.84,0,0,0-.91-.06l-26.21-.59-17.32-.38h-.1a13.26,13.26,0,0,0-13.49,11.75l-4.89,42.88-.88,7.69q-6.18,54.12-7.82,108.6v.09a13.26,13.26,0,0,0,13,13.56h0l.9,0,2.29.05,45.32,1a9.94,9.94,0,0,0,10.18-9.71v-.12l.8-78.52,2.16-34.74,5.76-50.52A10,10,0,0,0,1941.65,1808.29Z" transform="translate(-216.48 -79.52)"/><path class="cls-5" d="M2849.27,1439.74a9.17,9.17,0,0,0-5.17-1.55c-70.85-2.49-141.76-4.6-212.38-9.23-10.92-.72-49.91-10-57.5.7-1.45,2-1.72,4.67-1.93,7.17q-2.33,27.24-3.82,54.54c-.84,15.31-2.75,27.93,17.5,23,74.07-18.11,149.7-31.47,225.72-37.74,8.23-.68,16.66-1.32,24.21-4.65C2844,1468.39,2861.15,1448.37,2849.27,1439.74Z" transform="translate(-216.48 -79.52)"/><path class="cls-5" d="M2463.1,1537.14a3,3,0,0,0,.73.16c10.77,1.25,26.62-5.1,37.16-7.18,11-2.16,40.49-3,47.81-11.9,5.91-7.16,3.55-26,4.22-35,1.1-14.79,2-29.59,3.06-44.39.25-3.56.45-7.37-1.38-10.44-8.18-13.78-89.95-19.54-91.45,4C2462.35,1446.51,2449.59,1532.58,2463.1,1537.14Z" transform="translate(-216.48 -79.52)"/><path class="cls-5" d="M2453,1427.15a10.38,10.38,0,0,0-.06-1.85c0-.23-.09-.45-.13-.67s-.08-.55-.16-.82c0-.11-.08-.2-.11-.31s-.15-.41-.23-.62a8.33,8.33,0,0,0-.49-1.05c-.09-.18-.19-.36-.29-.53a11,11,0,0,0-.79-1.1c-.09-.1-.16-.21-.24-.31a10.8,10.8,0,0,0-1.26-1.18c-.12-.1-.26-.17-.38-.26a11.14,11.14,0,0,0-1.09-.69c-.18-.1-.37-.18-.56-.27a11.19,11.19,0,0,0-1.14-.44l-.56-.17a9.7,9.7,0,0,0-1.79-.3l-19.42-1.28-23.22,1.12-35.61-2.34a9.66,9.66,0,0,0-2.16.11c-.21,0-.4.09-.6.13a10.19,10.19,0,0,0-1.46.42c-.23.09-.44.19-.66.3a10,10,0,0,0-1.24.69c-.2.14-.4.26-.6.41a11.53,11.53,0,0,0-1.21,1.11c-.08.1-.2.17-.28.27l0,.06a9.92,9.92,0,0,0-1.39,2.21l-.23.53a9.93,9.93,0,0,0-.68,2.57l-7.17,41h-4.93a1.49,1.49,0,0,0-1.49,1.49v7.5a1.49,1.49,0,0,0,1.49,1.48h2.92a9.91,9.91,0,0,0,7.59,9.07,10.11,10.11,0,0,0,1.65.25l14.53.95,72.71,4.8a6.63,6.63,0,0,0,7.06-6.17Z" transform="translate(-216.48 -79.52)"/><path class="cls-5" d="M2565.29,1306.89a5.12,5.12,0,0,0,.1-.54l17.5-54.38a6.62,6.62,0,0,0-2.21-8.5l-34.4-23.13a6.64,6.64,0,0,0-9.22,1.79,1,1,0,0,0-.08.11l-56.2,33.21a6.64,6.64,0,0,0-6.16,6.17l-1.64,24.87a6.63,6.63,0,0,0,5.42,7l17.66,3.72,61.22,14.62A6.65,6.65,0,0,0,2565.29,1306.89Z" transform="translate(-216.48 -79.52)"/><path class="cls-5" d="M2330.89,1563.07a6.59,6.59,0,0,0,2.83,0l18.63-3.67,65.14-12.85,20.47-4a10,10,0,0,0,8-9.1l1.75-26.43a6.63,6.63,0,0,0-6.19-7l-92.41-6.1a10,10,0,0,0-10.34,7.62L2326,1555.09A6.64,6.64,0,0,0,2330.89,1563.07Z" transform="translate(-216.48 -79.52)"/><path class="cls-5" d="M2831.58,1488.5c-11-5.8-43.35,2.29-53.2,3.4q-32.37,3.66-64.58,8.64-43.44,6.72-86.46,15.84c-14.57,3.09-57.73,3.79-59.05,23.85l-16.35,247.66c-.3,4.6-.58,9.38,1.2,13.64,8.08,19.27,44.05,6,57.73,2.28a409.24,409.24,0,0,1,101.64-14.37c6.87-.1,14.11-.12,20.1-3.49,8.27-4.66,12-14.38,15.13-23.35q12.77-36.66,25.55-73.33c6.87-19.76,23.37-48.38,23.38-68.89,6.43-19.28,13.74-38.25,20.18-57.53,4.32-12.91,26.05-59,17.46-72A7.36,7.36,0,0,0,2831.58,1488.5Z" transform="translate(-216.48 -79.52)"/><path class="cls-5" d="M2296.55,1591.53c-.63-7.17-4.42-8.8-17.27-9.55-14.71-.86-29.5-.9-44.22-.5-112.25,3-218.58,45.68-324.76,78.44a16.59,16.59,0,0,0-11.64,14.39l-10.52,105c-2.73,27.17,131.15,17.61,150.65,18l197.31,4.05c7.33.15,15.46,0,20.82-5,4.55-4.23,5.84-10.82,6.89-16.94,10-58.53,24.54-117.28,32.31-175.58A83.82,83.82,0,0,0,2296.55,1591.53Z" transform="translate(-216.48 -79.52)"/><path class="cls-5" d="M2054.64,1076.87l85.19-7.62a10,10,0,0,0,10.32-9.56c0-.18,0-.36,0-.54l-.94-54.52a13.26,13.26,0,0,0-12.29-13l-75-5.6a10,10,0,0,0-10.67,9.17v.09l-4.25,64.1c-.24,3.65-.37,7.29-.41,10.94a6.64,6.64,0,0,0,6.58,6.69A6.8,6.8,0,0,0,2054.64,1076.87Z" transform="translate(-216.48 -79.52)"/><path class="cls-5" d="M2164.81,1205.16l-87.63-6.94a10,10,0,0,0-10.72,9.12v.13l-3.41,51.36a6.65,6.65,0,0,0,7.08,7.05l24.3,0,70.84,4.67a6.63,6.63,0,0,0,7.06-6.17l2.77-41.79q.34-5.18.36-10.37a6.63,6.63,0,0,0-6-6.6C2167.94,1205.42,2166.38,1205.28,2164.81,1205.16Z" transform="translate(-216.48 -79.52)"/><path class="cls-5" d="M2326.36,1473.46l3.3-13.83a320.39,320.39,0,0,0,6.89-39.73,10.59,10.59,0,0,0,0-2c0-.31-.11-.61-.17-.92s-.08-.6-.16-.9l0-.08c-.05-.15-.11-.3-.17-.45a9.73,9.73,0,0,0-.49-1.2c-.09-.18-.19-.35-.29-.52a9.6,9.6,0,0,0-.66-1c-.12-.16-.23-.31-.36-.46a8.17,8.17,0,0,0-.92-.94c-.11-.1-.2-.21-.32-.31a9.79,9.79,0,0,0-1.41-1c-.14-.08-.29-.14-.43-.21a9.06,9.06,0,0,0-1.2-.52c-.19-.07-.39-.13-.58-.18a9.23,9.23,0,0,0-1.29-.27c-.12,0-.24-.07-.36-.08l-.42,0-81.68-5.39-56.32-3.71a10,10,0,0,0-10.6,9.26l-3.71,56.07a6.63,6.63,0,0,0,6.19,7l59.63,3.94,75.19,5A10,10,0,0,0,2326.36,1473.46Z" transform="translate(-216.48 -79.52)"/></svg>