<svg xmlns="http://www.w3.org/2000/svg" width="27.12" height="29.41" viewBox="0 0 27.12 29.41">
  <defs>
    <style>
      .cls-1 {
        fill: #22e49d;
        fill-rule: evenodd;
      }
    </style>
  </defs>
  <path id="形状_35" data-name="形状 35" class="cls-1" d="M5005.02,1433.1H4982.4a0.838,0.838,0,0,1-.8-0.63,0.95,0.95,0,0,1,.3-1.03l11.29-9.17a0.787,0.787,0,0,1,1.02,0l11.32,9.19a0.97,0.97,0,0,1,.29,1.03A0.834,0.834,0,0,1,5005.02,1433.1Zm-20.08-1.84h17.54l-8.77-7.11Zm2.25,16.55a0.888,0.888,0,0,1-.85-0.93v-14.7a0.858,0.858,0,1,1,1.71,0v14.7A0.916,0.916,0,0,1,4987.19,1447.81Zm-2.74,0a0.89,0.89,0,0,1-.86-0.93v-14.7a0.858,0.858,0,1,1,1.71,0v14.7A0.9,0.9,0,0,1,4984.45,1447.81Zm6.67,0a0.89,0.89,0,0,1-.86-0.93v-14.7a0.858,0.858,0,1,1,1.71,0v14.7A0.888,0.888,0,0,1,4991.12,1447.81Zm5.18,0a0.888,0.888,0,0,1-.85-0.93v-14.7a0.858,0.858,0,1,1,1.71,0v14.7A0.9,0.9,0,0,1,4996.3,1447.81Zm3.92,0a0.89,0.89,0,0,1-.86-0.93v-14.7a0.858,0.858,0,1,1,1.71,0v14.7A0.888,0.888,0,0,1,5000.22,1447.81Zm2.75,0a0.888,0.888,0,0,1-.85-0.93v-14.7a0.858,0.858,0,1,1,1.71,0v14.7A0.89,0.89,0,0,1,5002.97,1447.81Zm3.48,3.67h-25.48a0.8,0.8,0,0,1-.73-0.47,0.968,0.968,0,0,1,.01-0.92l2.07-3.68a0.819,0.819,0,0,1,.72-0.44h21.35a0.793,0.793,0,0,1,.71.44l2.07,3.68a0.968,0.968,0,0,1,.01.92A0.815,0.815,0,0,1,5006.45,1451.48Zm-23.97-1.83h22.45l-1.03-1.84h-20.39Zm9.82-21.25a1.415,1.415,0,1,0,2.82,0h0A1.415,1.415,0,1,0,4992.3,1428.4Z" transform="translate(-4980.16 -1422.06)"/>
</svg>
