<svg xmlns="http://www.w3.org/2000/svg" width="29.07" height="29.41" viewBox="0 0 29.07 29.41">
  <defs>
    <style>
      .cls-1 {
        fill: #22e49d;
        fill-rule: evenodd;
      }
    </style>
  </defs>
  <path id="形状_37" data-name="形状 37" class="cls-1" d="M5152.59,1449.55h29.06v1.93h-29.06v-1.93Zm6.54-10.32h7.61v10.67h-7.61v-10.67Zm5-7.48v2.73h-2.29v-2.73h-2.49v-2.52h2.49v-2.73h2.29v2.73h2.49v2.52h-2.49Zm8.62,3.3h2.81v2.8h-2.81v-2.8Zm0,4.76h2.81v2.8h-2.81v-2.8Zm0,4.75h2.81v2.8h-2.81v-2.8Zm-1.84,5.07h-1.76v-24.27a1.246,1.246,0,0,0-1.1-1.35h-10.29a1.246,1.246,0,0,0-1.09,1.35v24.27h-1.76v-24.27a3.091,3.091,0,0,1,2.85-3.28h10.29a3.1,3.1,0,0,1,2.86,3.28v24.27h0Zm8.26,0.17h-1.76v-16.31a0.425,0.425,0,0,0-.32-0.46h-6.69v-1.93h6.69a2.257,2.257,0,0,1,2.08,2.39v16.31h0Z" transform="translate(-5152.59 -1422.09)"/>
</svg>
