<svg xmlns="http://www.w3.org/2000/svg" width="28.43" height="29.38" viewBox="0 0 28.43 29.38">
  <defs>
    <style>
      .cls-1 {
        fill: #22e49d;
        fill-rule: evenodd;
      }
    </style>
  </defs>
  <path id="形状_39" data-name="形状 39" class="cls-1" d="M5351.25,1428.91a1.61,1.61,0,0,0-1.29-.65h-20.93l-1.25-5.49a0.858,0.858,0,0,0-.82-0.69H5324a0.872,0.872,0,0,0-.84.9,0.881,0.881,0,0,0,.84.91h2.3l4.74,20.71a3.6,3.6,0,0,0-2.09,3.31,3.347,3.347,0,1,0,6.68,0,3.7,3.7,0,0,0-.44-1.76h5.48a3.7,3.7,0,0,0-.44,1.76,3.343,3.343,0,1,0,3.34-3.57h-10.85l-0.48-2.06h13.89a1.636,1.636,0,0,0,1.53-1.1l3.83-10.7v-0.01a0.02,0.02,0,0,1,.01-0.02A1.693,1.693,0,0,0,5351.25,1428.91Zm-17.31,19a1.649,1.649,0,1,1-1.65-1.76A1.71,1.71,0,0,1,5333.94,1447.91Zm9.63,1.77a1.77,1.77,0,1,1,1.64-1.77A1.712,1.712,0,0,1,5343.57,1449.68Zm2.54-9.21h-14.28l-2.38-10.4h20.38Zm-12.66-6.33h11.15a0.9,0.9,0,0,0,0-1.8h-11.15A0.9,0.9,0,0,0,5333.45,1434.14Zm10.18,2.26h-9.2a0.883,0.883,0,0,0-.85.91,0.874,0.874,0,0,0,.85.9h9.2A0.907,0.907,0,0,0,5343.63,1436.4Z" transform="translate(-5323.16 -1422.09)"/>
</svg>
