<svg xmlns="http://www.w3.org/2000/svg" width="25.88" height="26.69" viewBox="0 0 25.88 26.69">
  <defs>
    <style>
      .cls-1 {
        fill: #22e49d;
        fill-rule: evenodd;
      }
    </style>
  </defs>
  <path id="形状_40" data-name="形状 40" class="cls-1" d="M5429.97,1448.24h-16.39a0.942,0.942,0,0,0,0,1.88h16.39A0.942,0.942,0,0,0,5429.97,1448.24Zm0.69-18.54a3.131,3.131,0,1,0-2.93-3.13A3.031,3.031,0,0,0,5430.66,1429.7Zm-0.84-4.01a1.184,1.184,0,0,1,.84-0.37,1.253,1.253,0,1,1-1.17,1.25A1.255,1.255,0,0,1,5429.82,1425.69Zm-1.97,8.29-1.98,3.65-5.83-10.8a0.866,0.866,0,0,0-.76-0.41,0.855,0.855,0,0,0-.76.41l-9.33,17.26a0.98,0.98,0,0,0,0,.94,0.876,0.876,0,0,0,.76.46h24.12a0.863,0.863,0,0,0,.77-0.47,0.988,0.988,0,0,0-.01-0.93l-5.46-10.11a0.866,0.866,0,0,0-.76-0.41A0.855,0.855,0,0,0,5427.85,1433.98Zm-16.38,9.64,7.81-14.44,5.58,10.32-2.22,4.12h-11.17Zm21.08,0h-7.89l3.95-7.29Z" transform="translate(-5409.09 -1423.44)"/>
</svg>
