<svg xmlns="http://www.w3.org/2000/svg" width="25.28" height="28.72" viewBox="0 0 25.28 28.72">
  <defs>
    <style>
      .cls-1 {
        fill: #22e49d;
        fill-rule: evenodd;
      }
    </style>
  </defs>
  <path id="形状_36" data-name="形状 36" class="cls-1" d="M5090.84,1438.57a0.927,0.927,0,0,1-.79-1.02v-5.1a0.816,0.816,0,1,1,1.58,0v5.1A0.934,0.934,0,0,1,5090.84,1438.57Zm-10.18-1.71a3.289,3.289,0,0,1-1.4-.3l-10.11-5.15a2.172,2.172,0,0,1-.01-3.89l10-5.14a3.582,3.582,0,0,1,2.87,0l9.98,5.13a2.168,2.168,0,0,1,.02,3.89l-10,5.15a2.618,2.618,0,0,1-1.35.31h0Zm-10.9-7.4,10.03,5.11a1.988,1.988,0,0,0,.87.17,1.542,1.542,0,0,0,.74-0.14l9.98-5.14-9.94-5.11a2.454,2.454,0,0,0-1.73,0Zm21.08,9.72a1.1,1.1,0,1,0,.79,1.06A0.95,0.95,0,0,0,5090.84,1439.18Zm-2.37-4.15a0.6,0.6,0,0,0-.27.07l-0.02-.05-6.79,3.49a1.35,1.35,0,0,1-.73.15,1.989,1.989,0,0,1-.87-0.18l-6.76-3.44a0.656,0.656,0,0,0-.35-0.11,0.945,0.945,0,0,0-.79,1.05v9.47c0.22,3.66,4.7,5.32,8.77,5.32,2.77,0,6.28-.77,7.83-2.93a4.086,4.086,0,0,0,.77-2.58v-9.2A0.957,0.957,0,0,0,5088.47,1435.03Zm-1.12,11.38c-0.96,1.34-3.71,2.28-6.69,2.28-3.79,0-7.08-1.55-7.19-3.4v-7.74l5.79,2.95a3.289,3.289,0,0,0,1.4.3h0a2.618,2.618,0,0,0,1.35-.31l5.67-2.92v7.87A1.558,1.558,0,0,1,5087.35,1446.41Z" transform="translate(-5067.94 -1422.09)"/>
</svg>
