<svg xmlns="http://www.w3.org/2000/svg" width="25.25" height="30.06" viewBox="0 0 25.25 30.06">
  <defs>
    <style>
      .cls-1 {
        fill: #22e49d;
        fill-rule: evenodd;
      }
    </style>
  </defs>
  <path id="形状_38" data-name="形状 38" class="cls-1" d="M5259.14,1439.12h-13.42a1.944,1.944,0,0,1-1.76-2.09v-10.02a1.944,1.944,0,0,1,1.76-2.09h13.42a1.944,1.944,0,0,1,1.76,2.09v10.02a1.944,1.944,0,0,1-1.76,2.09h0Zm-13.42-12.41a0.274,0.274,0,0,0-.25.3v10.02a0.274,0.274,0,0,0,.25.3h13.42a0.274,0.274,0,0,0,.25-0.3v-10.02a0.274,0.274,0,0,0-.25-0.3h-13.42Zm0.52,13.61a2.751,2.751,0,1,0,2.28,2.71A2.52,2.52,0,0,0,5246.24,1440.32Zm-2.14,2.19a1.843,1.843,0,0,1,.05-0.25A1.843,1.843,0,0,0,5244.1,1442.51Zm0.67-1.4a2.725,2.725,0,0,1,.25-0.23A2.725,2.725,0,0,0,5244.77,1441.11Zm1.47,2.87a0.964,0.964,0,1,1,.8-0.95A0.889,0.889,0,0,1,5246.24,1443.98Zm1.22-3.1a2.718,2.718,0,0,1,.24.24A1.814,1.814,0,0,0,5247.46,1440.88Zm0.92,1.63a1.829,1.829,0,0,0-.06-0.25C5248.34,1442.34,5248.36,1442.42,5248.38,1442.51Zm10.24-2.19a2.751,2.751,0,1,0,2.28,2.71A2.528,2.528,0,0,0,5258.62,1440.32Zm-1.47.79a2.725,2.725,0,0,1,.25-0.23A2.725,2.725,0,0,0,5257.15,1441.11Zm0.72,2.51a0.906,0.906,0,0,0,.11.16A1.107,1.107,0,0,1,5257.87,1443.62Zm0.75,0.36a0.964,0.964,0,1,1,.8-0.95A0.889,0.889,0,0,1,5258.62,1443.98Zm1.22-3.1a2.718,2.718,0,0,1,.24.24A1.814,1.814,0,0,0,5259.84,1440.88Zm0.92,1.63a1.829,1.829,0,0,0-.06-0.25C5260.72,1442.34,5260.74,1442.42,5260.76,1442.51Zm4.05,7.45-1.99-2.28a5.214,5.214,0,0,0,1.08-3.21v-18.26a4.542,4.542,0,0,0-4.22-4.81H5245.2c-2.32,0-4.22,2.16-4.22,4.81v18.26a5.109,5.109,0,0,0,1.05,3.16l-2.03,2.33a1,1,0,0,0-.23.62,0.924,0.924,0,0,0,.21.63,0.66,0.66,0,0,0,1.05.02l2.19-2.52a3.8,3.8,0,0,0,1.98.57h14.48a3.789,3.789,0,0,0,1.93-.54l2.17,2.49a0.668,0.668,0,0,0,1.05-.01,1,1,0,0,0,.21-0.63,1.007,1.007,0,0,0-.23-0.63h0Zm-5.13-2.44H5245.2a2.9,2.9,0,0,1-2.73-3.05v-18.26a2.9,2.9,0,0,1,2.73-3.05h14.48a2.9,2.9,0,0,1,2.73,3.05v18.26A2.911,2.911,0,0,1,5259.68,1447.52Zm4.61,3.84c0.04,0,.09-0.01.13-0.01C5264.38,1451.35,5264.33,1451.36,5264.29,1451.36Zm0.63-.57a0.886,0.886,0,0,1-.16.34,0.652,0.652,0,0,1-.21.16,0.537,0.537,0,0,0,.21-0.16A0.96,0.96,0,0,0,5264.92,1450.79Z" transform="translate(-5239.78 -1421.41)"/>
</svg>
