<svg xmlns="http://www.w3.org/2000/svg" width="99" height="96" viewBox="0 0 99 96">
  <defs>
    <style>
      .cls-1 {
        fill: #49f2c4;
        fill-rule: evenodd;
      }
    </style>
  </defs>
  <path id="核心商务" class="cls-1" d="M1033.67,1300.46h-9.17v-7.39a11.075,11.075,0,0,0-11-11.08h-22a11.075,11.075,0,0,0-11,11.08v7.39h-9.166A18.446,18.446,0,0,0,953,1318.92v40.61a18.452,18.452,0,0,0,18.333,18.46h62.337a18.452,18.452,0,0,0,18.33-18.46v-40.61A18.446,18.446,0,0,0,1033.67,1300.46Zm-45.837-7.39a3.689,3.689,0,0,1,3.666-3.69h22a3.69,3.69,0,0,1,3.67,3.69v7.39H987.833v-7.39Zm-16.5,14.77h62.337a11.067,11.067,0,0,1,10.99,11.08v3.69H960.333v-3.69A11.069,11.069,0,0,1,971.333,1307.84Zm37.587,22.15a7.418,7.418,0,0,1-12.838,0h12.838Zm24.75,40.62H971.333a11.075,11.075,0,0,1-11-11.08v-29.54h28.05a14.535,14.535,0,0,0,28.237,0h28.04v29.54A11.073,11.073,0,0,1,1033.67,1370.61Z" transform="translate(-953 -1282)"/>
</svg>
