<svg xmlns="http://www.w3.org/2000/svg" width="90" height="90" viewBox="0 0 90 90">
  <defs>
    <style>
      .cls-1 {
        fill: #49f2c4;
        fill-rule: evenodd;
      }
    </style>
  </defs>
  <path id="化工产业" class="cls-1" d="M1549.78,1373.71a15.473,15.473,0,0,1-15.45-14.09,17.773,17.773,0,0,1,3.34-11.34,0.053,0.053,0,0,1,.02-0.03l24.36-28.8v-29.03h-2.49a3.065,3.065,0,0,1,0-6.13h38.88a3.065,3.065,0,0,1,0,6.13h-2.49v29.04l24.36,29.35a15.408,15.408,0,0,1,3.4,9.62,15.228,15.228,0,0,1-15.28,15.28h-58.65Zm-7.21-21.2a0.038,0.038,0,0,0-.02.02,7.979,7.979,0,0,0-2.13,5.9,9.382,9.382,0,0,0,9.15,9.15h58.86c4.71,0,9.15-4.19,9.71-9.16a7.96,7.96,0,0,0-2.14-5.89,0.022,0.022,0,0,0-.02-0.02l-14.9-17.67h-43.6Zm53.02-23.8-5.7-6.74a0.281,0.281,0,0,1-.07-0.19v-31.36h-21.64v31.36a0.281,0.281,0,0,1-.07.19l-5.7,6.74h33.18Zm-5.48,33.9a11.4,11.4,0,1,1,11.39-11.4A11.414,11.414,0,0,1,1590.11,1362.61Zm0-16.66a5.265,5.265,0,1,0,5.26,5.26A4.984,4.984,0,0,0,1590.11,1345.95Zm-33.32,16.66a5.845,5.845,0,1,1,5.84-5.84A5.527,5.527,0,0,1,1556.79,1362.61Zm11.1-11.11a5.84,5.84,0,1,1,5.84-5.84A5.532,5.532,0,0,1,1567.89,1351.5Zm30.55-66.92a2.77,2.77,0,0,1,2.77,2.77h0a2.772,2.772,0,0,1-2.77,2.78h-2.78v29.43l24.43,29.43a15.1,15.1,0,0,1,3.33,9.44,14.925,14.925,0,0,1-14.99,14.99h-58.65a15.131,15.131,0,0,1-15.16-13.82,17.44,17.44,0,0,1,3.29-11.16l24.43-28.88v-29.43h-2.78a2.772,2.772,0,0,1-2.77-2.78h0a2.77,2.77,0,0,1,2.77-2.77h38.88M1561.78,1329h34.43l-6.1-7.22v-31.65h-22.22v31.65l-6.11,7.22m-12.21,38.87h58.86c5,0,9.44-4.44,10-9.44a8.354,8.354,0,0,0-2.23-6.11l-14.99-17.77h-43.87l-14.99,17.77a8.345,8.345,0,0,0-2.22,6.11,9.728,9.728,0,0,0,9.44,9.44m40.54-27.76a11.105,11.105,0,1,1-11.11,11.1,11.133,11.133,0,0,1,11.11-11.1m0,16.66a5.555,5.555,0,1,0-5.56-5.56,5.251,5.251,0,0,0,5.56,5.56m-22.22-16.66a5.55,5.55,0,1,1-5.55,5.55,5.246,5.246,0,0,1,5.55-5.55m-11.1,11.1a5.555,5.555,0,1,1-5.56,5.56,5.246,5.246,0,0,1,5.56-5.56m41.65-67.21h-38.88a3.35,3.35,0,1,0,0,6.7h2.2v28.65l-24.29,28.71a0.209,0.209,0,0,0-.04.06,18.067,18.067,0,0,0-3.38,11.52,15.37,15.37,0,0,0,5.04,10.24,15.873,15.873,0,0,0,10.69,4.12h58.65a15.5,15.5,0,0,0,15.57-15.57,15.767,15.767,0,0,0-3.46-9.8v-0.01l-24.31-29.27V1290.7h2.21a3.35,3.35,0,0,0,0-6.7h0Zm-29.97,6.7h21.06v31.08a0.549,0.549,0,0,0,.14.37l5.3,6.27h-31.94l5.3-6.27a0.549,0.549,0,0,0,.14-0.37V1290.7h0Zm-10.86,44.43h43.33l14.83,17.56a0.138,0.138,0,0,0,.03.04,7.766,7.766,0,0,1,2.05,5.67c-0.55,4.82-4.86,8.9-9.42,8.9h-58.86a9.224,9.224,0,0,1-8.87-8.87,7.706,7.706,0,0,1,2.06-5.7,0.138,0.138,0,0,0,.03-0.04l14.82-17.56h0Zm32.5,4.4a11.68,11.68,0,1,0,11.68,11.68,11.7,11.7,0,0,0-11.68-11.68h0Zm0,16.66a4.98,4.98,0,1,1,4.97-4.98,4.662,4.662,0,0,1-4.97,4.98h0Zm-22.22-16.66a6.13,6.13,0,1,0,6.13,6.13,5.805,5.805,0,0,0-6.13-6.13h0Zm-11.1,11.11a6.125,6.125,0,1,0,6.13,6.13,5.8,5.8,0,0,0-6.13-6.13h0Z" transform="translate(-1534 -1284)"/>
</svg>
