<svg xmlns="http://www.w3.org/2000/svg" width="79" height="102" viewBox="0 0 79 102">
  <defs>
    <style>
      .cls-1 {
        fill: #49f2c4;
        fill-rule: evenodd;
      }
    </style>
  </defs>
  <path id="综合消费_" data-name="综合消费 " class="cls-1" d="M1309.41,1381h-44.96a10.443,10.443,0,0,1-10.45-10.41v-62.9a10.443,10.443,0,0,1,10.45-10.41h44.96a10.445,10.445,0,0,1,10.46,10.41v62.9A10.445,10.445,0,0,1,1309.41,1381Zm-44.96-76.51a3.205,3.205,0,0,0-3.21,3.2v62.9a3.205,3.205,0,0,0,3.21,3.2h44.96a3.207,3.207,0,0,0,3.22-3.2v-62.9a3.207,3.207,0,0,0-3.22-3.2h-44.96Zm58.1,76.51h-12.33v-7.21h12.33a3.205,3.205,0,0,0,3.21-3.2v-62.9a3.205,3.205,0,0,0-3.21-3.2h-11.13v-7.21h11.13a10.443,10.443,0,0,1,10.45,10.41v62.9A10.443,10.443,0,0,1,1322.55,1381Zm-44.9-66.04a4.89,4.89,0,1,1-4.89-4.87A4.88,4.88,0,0,1,1277.65,1314.96Zm29.22,0a4.9,4.9,0,1,1-4.89-4.87A4.88,4.88,0,0,1,1306.87,1314.96Zm-1.28-2.67h-7.23c0-16.94-5.66-26.08-10.99-26.08s-10.99,9.14-10.99,26.08h-7.24c0-23,9.16-33.29,18.23-33.29S1305.59,1289.29,1305.59,1312.29Zm-0.12-12.81c-0.44-7.85-4.12-11.49-11.21-11.11l-0.38-7.2c11.14-.59,18.16,6.11,18.81,17.91Z" transform="translate(-1254 -1279)"/>
</svg>
