<svg xmlns="http://www.w3.org/2000/svg" width="96" height="86" viewBox="0 0 96 86">
  <defs>
    <style>
      .cls-1 {
        fill: #c7c7c7;
        fill-rule: evenodd;
      }
    </style>
  </defs>
  <path id="装备制造" class="cls-1" d="M1826.05,1316.14a3.339,3.339,0,0,1,.56-1.83,3.067,3.067,0,0,1,2.56-1.33h11.64v-5.96h-11.39a3.2,3.2,0,0,1-2.56-1.33,3.134,3.134,0,0,1-.4-2.91,21.872,21.872,0,0,1,20.42-14.78,21.452,21.452,0,0,1,18.57,10.76h16.42a21.558,21.558,0,0,1,18.57-10.76,22.075,22.075,0,0,1,20.38,14.73,3.165,3.165,0,0,1-.41,2.91,3.067,3.067,0,0,1-2.56,1.33h-11.64v6.01h11.64a3.2,3.2,0,0,1,2.56,1.33,3.141,3.141,0,0,1,.41,2.9,21.813,21.813,0,0,1-20.38,14.74,22.264,22.264,0,0,1-18.77-10.76H1865.2a21.435,21.435,0,0,1-18.57,10.76,21.764,21.764,0,0,1-20.38-14.74A2.38,2.38,0,0,1,1826.05,1316.14Zm21.08-12.34v12.34a3.165,3.165,0,0,1-3.16,3.21h-9.64a15.14,15.14,0,0,0,26.05-2.6,3.1,3.1,0,0,1,2.86-1.83h20.24a3.093,3.093,0,0,1,2.81,1.78,16.112,16.112,0,0,0,14.15,8.87,14.99,14.99,0,0,0,12.25-6.27h-9.64a3.165,3.165,0,0,1-3.16-3.21V1303.8a3.171,3.171,0,0,1,3.16-3.21h9.54a15.084,15.084,0,0,0-25.95,2.65,3.1,3.1,0,0,1-2.86,1.84h-20.24a3.15,3.15,0,0,1-2.86-1.84,15.36,15.36,0,0,0-13.8-8.87,15.031,15.031,0,0,0-12.25,6.27h9.34A3.16,3.16,0,0,1,1847.13,1303.8ZM1825,1365.49v-16.12a8.479,8.479,0,0,1,8.43-8.56h34.38a8.556,8.556,0,0,1,8.43,8.06h15.52l9.89-5.05a2.965,2.965,0,0,1,2.55-.1l13.2,5.35a3.1,3.1,0,0,1,1.96,2.96v10.75a3.173,3.173,0,0,1-1.96,2.96l-13.2,5.35a2.959,2.959,0,0,1-2.55-.1l-9.89-5.05h-15.57a8.487,8.487,0,0,1-8.43,8.06h-34.38A8.394,8.394,0,0,1,1825,1365.49Zm44.91-16.12a2.221,2.221,0,0,0-2.15-2.19h-34.38a2.164,2.164,0,0,0-2.16,2.19v16.12a2.23,2.23,0,0,0,2.16,2.19h34.38a2.221,2.221,0,0,0,2.15-2.19v-2.71a3.17,3.17,0,0,1,3.12-3.21h19.48a2.72,2.72,0,0,1,1.41.36l9.33,4.74,9.94-4.03v-6.42l-9.94-4.03-9.33,4.74a3.311,3.311,0,0,1-1.41.36h-19.43a3.138,3.138,0,0,1-3.12-3.21v-2.71h-0.05Z" transform="translate(-1825 -1288)"/>
</svg>
