<svg xmlns="http://www.w3.org/2000/svg" width="99" height="88" viewBox="0 0 99 88">
  <defs>
    <style>
      .cls-1 {
        fill: #49f2c4;
        fill-rule: evenodd;
      }
    </style>
  </defs>
  <path id="装备制造" class="cls-1" d="M1824.09,1315.8a3.405,3.405,0,0,1,.57-1.88,3.173,3.173,0,0,1,2.64-1.36h12v-6.1h-11.75a3.335,3.335,0,0,1-2.64-1.36,3.224,3.224,0,0,1-.41-2.97,22.55,22.55,0,0,1,21.06-15.13,22.151,22.151,0,0,1,19.15,11.01h16.94A22.257,22.257,0,0,1,1900.8,1287a22.731,22.731,0,0,1,21.01,15.08,3.237,3.237,0,0,1-3.05,4.33h-12.01v6.15h12.01a3.335,3.335,0,0,1,2.64,1.36,3.228,3.228,0,0,1,.41,2.97,22.449,22.449,0,0,1-21.01,15.08,23,23,0,0,1-19.36-11.01h-16.99a22.134,22.134,0,0,1-19.15,11.01,22.41,22.41,0,0,1-21.01-15.08A2.5,2.5,0,0,1,1824.09,1315.8Zm21.73-12.63v12.63a3.259,3.259,0,0,1-3.26,3.28h-9.93a15.665,15.665,0,0,0,26.86-2.66,3.183,3.183,0,0,1,2.94-1.88h20.88a3.182,3.182,0,0,1,2.89,1.83,16.651,16.651,0,0,0,14.6,9.08,15.507,15.507,0,0,0,12.63-6.42h-9.94a3.261,3.261,0,0,1-3.26-3.29v-12.57a3.259,3.259,0,0,1,3.26-3.28h9.83a15.6,15.6,0,0,0-26.75,2.71,3.207,3.207,0,0,1-2.95,1.88h-20.87a3.239,3.239,0,0,1-2.95-1.88,15.85,15.85,0,0,0-14.24-9.08,15.489,15.489,0,0,0-12.62,6.42h9.62A3.248,3.248,0,0,1,1845.82,1303.17ZM1823,1366.29V1349.8a8.711,8.711,0,0,1,8.69-8.76h35.45a8.789,8.789,0,0,1,8.7,8.24h16.01l10.19-5.16a3.132,3.132,0,0,1,2.64-.11l13.61,5.48a3.18,3.18,0,0,1,2.02,3.02v11.01a3.257,3.257,0,0,1-2.02,3.03l-13.61,5.48a3.125,3.125,0,0,1-2.64-.11l-10.19-5.16h-16.06a8.72,8.72,0,0,1-8.7,8.24h-35.45A8.626,8.626,0,0,1,1823,1366.29Zm46.32-16.49a2.287,2.287,0,0,0-2.23-2.24h-35.45a2.213,2.213,0,0,0-2.22,2.24v16.49a2.279,2.279,0,0,0,2.22,2.24h35.45a2.287,2.287,0,0,0,2.23-2.24v-2.77a3.248,3.248,0,0,1,3.21-3.28h20.09a2.864,2.864,0,0,1,1.45.36l9.63,4.85,10.24-4.12v-6.57l-10.24-4.12-9.63,4.85a3.487,3.487,0,0,1-1.45.36h-20.04a3.217,3.217,0,0,1-3.21-3.28v-2.77h-0.05Z" transform="translate(-1823 -1287)"/>
</svg>
