<svg xmlns="http://www.w3.org/2000/svg" width="109" height="87" viewBox="0 0 109 87">
  <defs>
    <style>
      .cls-1 {
        fill: #c7c7c7;
        fill-rule: evenodd;
      }
    </style>
  </defs>
  <path id="仓储物流" class="cls-1" d="M2204.37,1363.5h-3.64a14.53,14.53,0,0,1-29.06,0h-36.34a14.53,14.53,0,0,1-29.06,0h-3.64a3.63,3.63,0,0,1-3.63-3.63V1305.5a14.51,14.51,0,0,1,14.53-14.5h36.34a14.51,14.51,0,0,1,14.53,14.5h17.94a3.712,3.712,0,0,1,2.99,1.04l21.38,21.35a2.59,2.59,0,0,1,.17.38,3.626,3.626,0,0,1,1.12,2.6v29A3.63,3.63,0,0,1,2204.37,1363.5Zm-83.57,7.25a7.25,7.25,0,1,0-7.27-7.25A7.266,7.266,0,0,0,2120.8,1370.75Zm36.33-65.25a7.257,7.257,0,0,0-7.26-7.25h-36.34a7.257,7.257,0,0,0-7.26,7.25v50.75h2.01a14.435,14.435,0,0,1,25.04,0h23.81V1305.5Zm29.07,65.25a7.25,7.25,0,1,0-7.27-7.25A7.266,7.266,0,0,0,2186.2,1370.75Zm14.53-38.16-19.88-19.84H2164.4v43.5h9.28a14.435,14.435,0,0,1,25.04,0h2.01v-23.66Z" transform="translate(-2099 -1291)"/>
</svg>
